M48
;GenerationSoftware,Autodesk,EAGLE,9.4.0*%
;CreationDate,2020-07-10T00:31:25Z*%
FMAT,2
ICI,OFF
METRIC,TZ,000.000
T8C0.350
T7C0.650
T6C0.800
T5C1.016
T4C1.200
T3C3.250
T2C4.800
%
G90
M71
T2
X19925Y0
X0Y19925
X0Y-19925
X19925Y19925
X19925Y-19925
X-19925Y-19925
X-19925Y19925
T3
X-17444Y5080
X-17444Y-5080
T4
X2220Y9790
X-2860Y12330
X-320Y12330
X2220Y12330
X-320Y9790
X-2860Y9790
T5
X11102Y-12898
X12898Y-11102
X9306Y14694
X11102Y12898
X12898Y11102
X14694Y9306
T6
X-11094Y-1905
X-11094Y635
X-8554Y1905
X-8554Y-635
X-8554Y-3175
X-11094Y3175
T7
X9000Y2440
X9000Y-2440
T8
X-19900Y8600
X2468Y100
X2642Y-1700
X-4700Y-9200
X2658Y1400
X-8996Y6096
X300Y-5800
X-7100Y-5100
X9000Y0
X-1600Y6900
X-6500Y4700
X3300Y5760
X-2100Y1400
X3300Y8300
X2800Y2800
X1800Y-800
X6200Y-1100
X-5600Y-400
X11100Y-100
X12200Y3700
X-17600Y-11600
M30