G04 EAGLE Gerber RS-274X export*
G75*
%MOMM*%
%FSLAX34Y34*%
%LPD*%
%INTop Copper*%
%IPPOS*%
%AMOC8*
5,1,8,0,0,1.08239X$1,22.5*%
G01*
%ADD10R,1.828800X1.828800*%
%ADD11P,1.979475X8X22.500000*%
%ADD12C,9.000000*%
%ADD13R,1.270000X0.558800*%
%ADD14R,0.558800X1.270000*%
%ADD15C,1.308000*%
%ADD16R,1.600000X1.800000*%
%ADD17R,1.600000X2.000000*%
%ADD18R,1.800000X1.600000*%
%ADD19R,2.000000X1.600000*%
%ADD20R,3.700000X1.700000*%
%ADD21C,1.524000*%
%ADD22R,1.524000X0.762000*%
%ADD23R,1.200000X2.000000*%
%ADD24R,1.803000X1.600000*%
%ADD25C,0.254000*%
%ADD26C,0.756400*%
%ADD27C,0.508000*%
%ADD28C,0.406400*%

G36*
X-100359Y-196448D02*
X-100359Y-196448D01*
X-100240Y-196450D01*
X-100044Y-196428D01*
X-99848Y-196415D01*
X-99730Y-196393D01*
X-99612Y-196380D01*
X-99420Y-196333D01*
X-99227Y-196296D01*
X-99113Y-196259D01*
X-98997Y-196231D01*
X-98814Y-196161D01*
X-98626Y-196099D01*
X-98518Y-196048D01*
X-98407Y-196006D01*
X-98233Y-195913D01*
X-98055Y-195829D01*
X-97954Y-195764D01*
X-97849Y-195708D01*
X-97689Y-195594D01*
X-97523Y-195488D01*
X-97431Y-195411D01*
X-97334Y-195342D01*
X-97145Y-195172D01*
X-97125Y-195156D01*
X-97037Y-195083D01*
X-96998Y-195040D01*
X-96943Y-194991D01*
X-48295Y-146343D01*
X-48130Y-146155D01*
X-47959Y-145971D01*
X-47921Y-145918D01*
X-47878Y-145869D01*
X-47737Y-145661D01*
X-47591Y-145458D01*
X-47560Y-145400D01*
X-47523Y-145345D01*
X-47409Y-145121D01*
X-47291Y-144902D01*
X-47267Y-144840D01*
X-47237Y-144782D01*
X-47153Y-144546D01*
X-47063Y-144312D01*
X-47047Y-144248D01*
X-47025Y-144186D01*
X-46971Y-143942D01*
X-46911Y-143698D01*
X-46903Y-143633D01*
X-46889Y-143569D01*
X-46867Y-143319D01*
X-46838Y-143071D01*
X-46839Y-143005D01*
X-46833Y-142939D01*
X-46842Y-142688D01*
X-46845Y-142438D01*
X-46854Y-142374D01*
X-46856Y-142308D01*
X-46897Y-142060D01*
X-46931Y-141812D01*
X-46948Y-141749D01*
X-46959Y-141684D01*
X-47031Y-141444D01*
X-47096Y-141202D01*
X-47121Y-141141D01*
X-47140Y-141078D01*
X-47241Y-140849D01*
X-47337Y-140618D01*
X-47369Y-140560D01*
X-47396Y-140500D01*
X-47525Y-140286D01*
X-47649Y-140068D01*
X-47688Y-140015D01*
X-47722Y-139959D01*
X-47878Y-139762D01*
X-48028Y-139562D01*
X-48074Y-139515D01*
X-48115Y-139463D01*
X-48293Y-139288D01*
X-48468Y-139108D01*
X-48519Y-139067D01*
X-48566Y-139021D01*
X-48766Y-138870D01*
X-48962Y-138714D01*
X-49018Y-138679D01*
X-49070Y-138640D01*
X-49287Y-138515D01*
X-49501Y-138384D01*
X-49561Y-138358D01*
X-49618Y-138325D01*
X-49850Y-138228D01*
X-50078Y-138126D01*
X-50141Y-138107D01*
X-50202Y-138081D01*
X-50443Y-138015D01*
X-50683Y-137942D01*
X-50748Y-137931D01*
X-50811Y-137914D01*
X-51059Y-137878D01*
X-51306Y-137836D01*
X-51379Y-137832D01*
X-51437Y-137824D01*
X-51577Y-137822D01*
X-51830Y-137809D01*
X-70228Y-137809D01*
X-71255Y-137383D01*
X-72189Y-136450D01*
X-73430Y-135209D01*
X-73519Y-135130D01*
X-73602Y-135044D01*
X-73756Y-134922D01*
X-73904Y-134791D01*
X-74003Y-134724D01*
X-74096Y-134650D01*
X-74264Y-134547D01*
X-74427Y-134437D01*
X-74534Y-134383D01*
X-74636Y-134320D01*
X-74815Y-134240D01*
X-74991Y-134151D01*
X-75103Y-134111D01*
X-75212Y-134062D01*
X-75401Y-134005D01*
X-75586Y-133938D01*
X-75703Y-133913D01*
X-75817Y-133878D01*
X-76011Y-133845D01*
X-76204Y-133803D01*
X-76323Y-133792D01*
X-76440Y-133772D01*
X-76694Y-133759D01*
X-76833Y-133746D01*
X-76891Y-133749D01*
X-76965Y-133745D01*
X-89318Y-133745D01*
X-89879Y-133513D01*
X-90308Y-133084D01*
X-90540Y-132523D01*
X-90540Y-115917D01*
X-90308Y-115356D01*
X-89741Y-114790D01*
X-89684Y-114752D01*
X-89471Y-114620D01*
X-89420Y-114579D01*
X-89366Y-114543D01*
X-89176Y-114380D01*
X-88981Y-114221D01*
X-88936Y-114174D01*
X-88886Y-114131D01*
X-88718Y-113946D01*
X-88545Y-113764D01*
X-88506Y-113711D01*
X-88462Y-113662D01*
X-88319Y-113457D01*
X-88170Y-113255D01*
X-88138Y-113198D01*
X-88100Y-113144D01*
X-87984Y-112922D01*
X-87862Y-112703D01*
X-87838Y-112642D01*
X-87807Y-112584D01*
X-87720Y-112349D01*
X-87627Y-112116D01*
X-87610Y-112053D01*
X-87587Y-111991D01*
X-87530Y-111747D01*
X-87467Y-111505D01*
X-87458Y-111440D01*
X-87443Y-111376D01*
X-87418Y-111126D01*
X-87386Y-110878D01*
X-87385Y-110812D01*
X-87379Y-110747D01*
X-87385Y-110496D01*
X-87384Y-110246D01*
X-87392Y-110181D01*
X-87394Y-110115D01*
X-87431Y-109867D01*
X-87462Y-109618D01*
X-87479Y-109555D01*
X-87488Y-109490D01*
X-87557Y-109249D01*
X-87619Y-109006D01*
X-87643Y-108945D01*
X-87661Y-108882D01*
X-87759Y-108652D01*
X-87852Y-108418D01*
X-87884Y-108361D01*
X-87909Y-108301D01*
X-88036Y-108084D01*
X-88157Y-107865D01*
X-88196Y-107812D01*
X-88229Y-107755D01*
X-88382Y-107557D01*
X-88530Y-107354D01*
X-88575Y-107307D01*
X-88615Y-107255D01*
X-88791Y-107077D01*
X-88963Y-106895D01*
X-89014Y-106853D01*
X-89060Y-106806D01*
X-89258Y-106653D01*
X-89452Y-106493D01*
X-89508Y-106459D01*
X-89559Y-106418D01*
X-89775Y-106291D01*
X-89987Y-106157D01*
X-90053Y-106126D01*
X-90103Y-106096D01*
X-90156Y-106073D01*
X-90635Y-105754D01*
X-90989Y-105400D01*
X-91267Y-104984D01*
X-91458Y-104521D01*
X-91556Y-104030D01*
X-91556Y-100779D01*
X-80000Y-100779D01*
X-79816Y-100768D01*
X-79631Y-100766D01*
X-79501Y-100748D01*
X-79370Y-100739D01*
X-79188Y-100705D01*
X-79005Y-100679D01*
X-78878Y-100645D01*
X-78749Y-100620D01*
X-78573Y-100563D01*
X-78394Y-100514D01*
X-78273Y-100465D01*
X-78148Y-100424D01*
X-77981Y-100344D01*
X-77810Y-100274D01*
X-77696Y-100209D01*
X-77577Y-100153D01*
X-77421Y-100053D01*
X-77260Y-99962D01*
X-77155Y-99883D01*
X-77045Y-99812D01*
X-76902Y-99693D01*
X-76755Y-99582D01*
X-76754Y-99582D01*
X-76660Y-99491D01*
X-76559Y-99407D01*
X-76559Y-99406D01*
X-76433Y-99271D01*
X-76300Y-99142D01*
X-76218Y-99039D01*
X-76129Y-98943D01*
X-76021Y-98793D01*
X-75906Y-98648D01*
X-75837Y-98536D01*
X-75761Y-98429D01*
X-75673Y-98267D01*
X-75576Y-98109D01*
X-75522Y-97989D01*
X-75460Y-97873D01*
X-75393Y-97701D01*
X-75318Y-97532D01*
X-75280Y-97406D01*
X-75232Y-97284D01*
X-75188Y-97104D01*
X-75134Y-96927D01*
X-75112Y-96797D01*
X-75081Y-96670D01*
X-75059Y-96487D01*
X-75028Y-96304D01*
X-75020Y-96150D01*
X-75007Y-96042D01*
X-75009Y-95933D01*
X-75001Y-95780D01*
X-75001Y-85239D01*
X-70306Y-85239D01*
X-70121Y-85228D01*
X-69936Y-85226D01*
X-69806Y-85208D01*
X-69675Y-85199D01*
X-69494Y-85164D01*
X-69310Y-85139D01*
X-69184Y-85105D01*
X-69054Y-85080D01*
X-68878Y-85022D01*
X-68700Y-84974D01*
X-68579Y-84924D01*
X-68454Y-84883D01*
X-68286Y-84804D01*
X-68116Y-84734D01*
X-68001Y-84669D01*
X-67883Y-84613D01*
X-67727Y-84513D01*
X-67566Y-84422D01*
X-67461Y-84343D01*
X-67350Y-84272D01*
X-67208Y-84153D01*
X-67060Y-84042D01*
X-66966Y-83951D01*
X-66865Y-83867D01*
X-66739Y-83731D01*
X-66606Y-83602D01*
X-66524Y-83500D01*
X-66435Y-83403D01*
X-66327Y-83253D01*
X-66212Y-83109D01*
X-66143Y-82996D01*
X-66067Y-82890D01*
X-65979Y-82727D01*
X-65882Y-82569D01*
X-65829Y-82449D01*
X-65766Y-82334D01*
X-65700Y-82161D01*
X-65624Y-81992D01*
X-65586Y-81867D01*
X-65538Y-81744D01*
X-65494Y-81564D01*
X-65440Y-81387D01*
X-65418Y-81258D01*
X-65387Y-81130D01*
X-65365Y-80947D01*
X-65334Y-80764D01*
X-65326Y-80611D01*
X-65314Y-80503D01*
X-65315Y-80394D01*
X-65307Y-80240D01*
X-65307Y-78944D01*
X-64499Y-76994D01*
X-63006Y-75501D01*
X-61056Y-74693D01*
X-58944Y-74693D01*
X-56994Y-75501D01*
X-55501Y-76994D01*
X-54693Y-78944D01*
X-54693Y-81256D01*
X-54682Y-81441D01*
X-54680Y-81626D01*
X-54662Y-81756D01*
X-54653Y-81887D01*
X-54618Y-82068D01*
X-54593Y-82252D01*
X-54559Y-82378D01*
X-54534Y-82508D01*
X-54476Y-82684D01*
X-54428Y-82862D01*
X-54378Y-82983D01*
X-54337Y-83108D01*
X-54258Y-83276D01*
X-54188Y-83446D01*
X-54123Y-83561D01*
X-54067Y-83679D01*
X-53967Y-83835D01*
X-53876Y-83996D01*
X-53797Y-84101D01*
X-53726Y-84212D01*
X-53607Y-84354D01*
X-53496Y-84502D01*
X-53405Y-84596D01*
X-53321Y-84697D01*
X-53185Y-84823D01*
X-53056Y-84956D01*
X-52954Y-85038D01*
X-52857Y-85127D01*
X-52707Y-85235D01*
X-52563Y-85350D01*
X-52450Y-85419D01*
X-52344Y-85495D01*
X-52181Y-85583D01*
X-52023Y-85680D01*
X-51903Y-85733D01*
X-51788Y-85796D01*
X-51615Y-85862D01*
X-51446Y-85938D01*
X-51321Y-85976D01*
X-51198Y-86024D01*
X-51018Y-86068D01*
X-50841Y-86122D01*
X-50712Y-86144D01*
X-50584Y-86175D01*
X-50401Y-86197D01*
X-50269Y-86219D01*
X-49621Y-86487D01*
X-49192Y-86916D01*
X-48960Y-87477D01*
X-48960Y-97659D01*
X-48944Y-97908D01*
X-48935Y-98159D01*
X-48924Y-98224D01*
X-48920Y-98289D01*
X-48873Y-98535D01*
X-48832Y-98783D01*
X-48813Y-98846D01*
X-48801Y-98910D01*
X-48723Y-99149D01*
X-48651Y-99388D01*
X-48625Y-99448D01*
X-48604Y-99511D01*
X-48497Y-99738D01*
X-48396Y-99966D01*
X-48362Y-100023D01*
X-48334Y-100082D01*
X-48198Y-100294D01*
X-48069Y-100508D01*
X-48028Y-100559D01*
X-47993Y-100614D01*
X-47832Y-100807D01*
X-47677Y-101003D01*
X-47630Y-101049D01*
X-47588Y-101100D01*
X-47404Y-101270D01*
X-47225Y-101445D01*
X-47173Y-101485D01*
X-47124Y-101530D01*
X-46921Y-101675D01*
X-46721Y-101827D01*
X-46664Y-101860D01*
X-46611Y-101898D01*
X-46391Y-102017D01*
X-46173Y-102142D01*
X-46112Y-102167D01*
X-46055Y-102198D01*
X-45821Y-102289D01*
X-45590Y-102385D01*
X-45526Y-102403D01*
X-45465Y-102426D01*
X-45222Y-102486D01*
X-44980Y-102553D01*
X-44915Y-102562D01*
X-44851Y-102578D01*
X-44603Y-102607D01*
X-44355Y-102642D01*
X-44289Y-102643D01*
X-44224Y-102651D01*
X-43974Y-102648D01*
X-43723Y-102652D01*
X-43657Y-102645D01*
X-43591Y-102644D01*
X-43344Y-102610D01*
X-43094Y-102582D01*
X-43030Y-102567D01*
X-42965Y-102558D01*
X-42724Y-102493D01*
X-42480Y-102434D01*
X-42418Y-102410D01*
X-42355Y-102393D01*
X-42124Y-102298D01*
X-41889Y-102208D01*
X-41831Y-102177D01*
X-41771Y-102152D01*
X-41553Y-102029D01*
X-41332Y-101911D01*
X-41278Y-101873D01*
X-41221Y-101840D01*
X-41021Y-101690D01*
X-40816Y-101545D01*
X-40761Y-101496D01*
X-40715Y-101461D01*
X-40615Y-101364D01*
X-40426Y-101194D01*
X-36852Y-97620D01*
X-35363Y-96131D01*
X-34336Y-95705D01*
X-28524Y-95705D01*
X-28339Y-95694D01*
X-28154Y-95692D01*
X-28024Y-95674D01*
X-27893Y-95665D01*
X-27712Y-95630D01*
X-27528Y-95605D01*
X-27402Y-95571D01*
X-27272Y-95546D01*
X-27096Y-95488D01*
X-26918Y-95440D01*
X-26797Y-95390D01*
X-26672Y-95349D01*
X-26504Y-95270D01*
X-26334Y-95200D01*
X-26219Y-95135D01*
X-26101Y-95079D01*
X-25945Y-94979D01*
X-25784Y-94888D01*
X-25679Y-94809D01*
X-25568Y-94738D01*
X-25426Y-94619D01*
X-25278Y-94508D01*
X-25184Y-94417D01*
X-25083Y-94333D01*
X-24957Y-94197D01*
X-24824Y-94068D01*
X-24742Y-93966D01*
X-24653Y-93869D01*
X-24545Y-93719D01*
X-24430Y-93575D01*
X-24361Y-93462D01*
X-24285Y-93356D01*
X-24197Y-93193D01*
X-24100Y-93035D01*
X-24047Y-92915D01*
X-23984Y-92800D01*
X-23918Y-92627D01*
X-23842Y-92458D01*
X-23804Y-92333D01*
X-23756Y-92210D01*
X-23712Y-92030D01*
X-23658Y-91853D01*
X-23636Y-91724D01*
X-23605Y-91596D01*
X-23583Y-91413D01*
X-23552Y-91230D01*
X-23544Y-91077D01*
X-23532Y-90969D01*
X-23533Y-90860D01*
X-23525Y-90706D01*
X-23525Y-88184D01*
X-23454Y-87979D01*
X-23356Y-87700D01*
X-23351Y-87678D01*
X-23344Y-87657D01*
X-23285Y-87369D01*
X-23223Y-87082D01*
X-23221Y-87060D01*
X-23217Y-87037D01*
X-23194Y-86744D01*
X-23169Y-86452D01*
X-23170Y-86429D01*
X-23169Y-86407D01*
X-23183Y-86115D01*
X-23195Y-85820D01*
X-23199Y-85798D01*
X-23200Y-85776D01*
X-23252Y-85488D01*
X-23301Y-85197D01*
X-23307Y-85176D01*
X-23311Y-85154D01*
X-23399Y-84873D01*
X-23484Y-84592D01*
X-23493Y-84572D01*
X-23500Y-84550D01*
X-23623Y-84282D01*
X-23742Y-84015D01*
X-23755Y-83994D01*
X-23763Y-83976D01*
X-23821Y-83883D01*
X-24011Y-83564D01*
X-24252Y-83204D01*
X-24443Y-82741D01*
X-24541Y-82250D01*
X-24541Y-77999D01*
X-14000Y-77999D01*
X-13816Y-77988D01*
X-13631Y-77986D01*
X-13501Y-77968D01*
X-13370Y-77959D01*
X-13188Y-77925D01*
X-13005Y-77899D01*
X-12878Y-77865D01*
X-12749Y-77840D01*
X-12573Y-77783D01*
X-12394Y-77734D01*
X-12273Y-77685D01*
X-12148Y-77644D01*
X-11981Y-77564D01*
X-11810Y-77494D01*
X-11696Y-77429D01*
X-11577Y-77373D01*
X-11421Y-77273D01*
X-11260Y-77182D01*
X-11155Y-77103D01*
X-11045Y-77032D01*
X-10902Y-76913D01*
X-10755Y-76802D01*
X-10660Y-76711D01*
X-10559Y-76627D01*
X-10434Y-76491D01*
X-10301Y-76363D01*
X-10219Y-76260D01*
X-10129Y-76164D01*
X-10022Y-76013D01*
X-9906Y-75869D01*
X-9837Y-75756D01*
X-9761Y-75650D01*
X-9673Y-75487D01*
X-9577Y-75329D01*
X-9523Y-75209D01*
X-9461Y-75094D01*
X-9394Y-74921D01*
X-9318Y-74752D01*
X-9280Y-74627D01*
X-9233Y-74504D01*
X-9188Y-74325D01*
X-9135Y-74148D01*
X-9113Y-74018D01*
X-9081Y-73891D01*
X-9060Y-73707D01*
X-9029Y-73524D01*
X-9021Y-73371D01*
X-9008Y-73263D01*
X-9008Y-73262D01*
X-9009Y-73154D01*
X-9001Y-73000D01*
X-9013Y-72815D01*
X-9015Y-72630D01*
X-9033Y-72500D01*
X-9041Y-72369D01*
X-9076Y-72187D01*
X-9101Y-72004D01*
X-9135Y-71877D01*
X-9160Y-71748D01*
X-9218Y-71572D01*
X-9266Y-71394D01*
X-9316Y-71273D01*
X-9357Y-71148D01*
X-9436Y-70980D01*
X-9507Y-70809D01*
X-9571Y-70695D01*
X-9628Y-70576D01*
X-9728Y-70420D01*
X-9819Y-70260D01*
X-9898Y-70155D01*
X-9968Y-70044D01*
X-10087Y-69902D01*
X-10198Y-69754D01*
X-10289Y-69660D01*
X-10374Y-69559D01*
X-10509Y-69433D01*
X-10638Y-69300D01*
X-10741Y-69218D01*
X-10837Y-69129D01*
X-10987Y-69021D01*
X-11132Y-68906D01*
X-11244Y-68837D01*
X-11351Y-68761D01*
X-11513Y-68673D01*
X-11671Y-68576D01*
X-11791Y-68522D01*
X-11907Y-68460D01*
X-12079Y-68393D01*
X-12248Y-68318D01*
X-12374Y-68280D01*
X-12496Y-68232D01*
X-12676Y-68188D01*
X-12853Y-68134D01*
X-12983Y-68112D01*
X-13110Y-68081D01*
X-13293Y-68059D01*
X-13476Y-68028D01*
X-13630Y-68020D01*
X-13738Y-68007D01*
X-13847Y-68009D01*
X-14000Y-68001D01*
X-24541Y-68001D01*
X-24541Y-67794D01*
X-24552Y-67609D01*
X-24554Y-67424D01*
X-24572Y-67294D01*
X-24581Y-67163D01*
X-24616Y-66982D01*
X-24641Y-66798D01*
X-24675Y-66672D01*
X-24700Y-66542D01*
X-24758Y-66366D01*
X-24806Y-66188D01*
X-24856Y-66067D01*
X-24897Y-65942D01*
X-24976Y-65774D01*
X-25046Y-65604D01*
X-25111Y-65489D01*
X-25167Y-65371D01*
X-25267Y-65215D01*
X-25358Y-65054D01*
X-25437Y-64949D01*
X-25508Y-64838D01*
X-25627Y-64696D01*
X-25738Y-64548D01*
X-25829Y-64454D01*
X-25913Y-64353D01*
X-26049Y-64227D01*
X-26178Y-64094D01*
X-26280Y-64012D01*
X-26377Y-63923D01*
X-26527Y-63815D01*
X-26671Y-63700D01*
X-26784Y-63631D01*
X-26890Y-63555D01*
X-27053Y-63467D01*
X-27211Y-63370D01*
X-27331Y-63317D01*
X-27446Y-63254D01*
X-27619Y-63188D01*
X-27788Y-63112D01*
X-27913Y-63074D01*
X-28036Y-63026D01*
X-28216Y-62982D01*
X-28392Y-62928D01*
X-28522Y-62906D01*
X-28650Y-62875D01*
X-28833Y-62853D01*
X-29016Y-62822D01*
X-29169Y-62814D01*
X-29277Y-62802D01*
X-29386Y-62803D01*
X-29540Y-62795D01*
X-59556Y-62795D01*
X-60583Y-62369D01*
X-71369Y-51583D01*
X-71795Y-50556D01*
X-71795Y-41479D01*
X-71811Y-41230D01*
X-71820Y-40979D01*
X-71831Y-40914D01*
X-71835Y-40848D01*
X-71882Y-40602D01*
X-71923Y-40355D01*
X-71941Y-40292D01*
X-71954Y-40228D01*
X-72032Y-39989D01*
X-72104Y-39750D01*
X-72130Y-39690D01*
X-72151Y-39627D01*
X-72258Y-39400D01*
X-72359Y-39171D01*
X-72393Y-39115D01*
X-72421Y-39056D01*
X-72556Y-38845D01*
X-72686Y-38630D01*
X-72727Y-38579D01*
X-72762Y-38523D01*
X-72923Y-38331D01*
X-73078Y-38135D01*
X-73125Y-38089D01*
X-73167Y-38038D01*
X-73351Y-37868D01*
X-73530Y-37693D01*
X-73582Y-37653D01*
X-73631Y-37608D01*
X-73834Y-37462D01*
X-74034Y-37311D01*
X-74091Y-37278D01*
X-74144Y-37240D01*
X-74364Y-37121D01*
X-74582Y-36996D01*
X-74643Y-36971D01*
X-74700Y-36939D01*
X-74934Y-36849D01*
X-75165Y-36753D01*
X-75229Y-36735D01*
X-75290Y-36712D01*
X-75533Y-36652D01*
X-75775Y-36585D01*
X-75840Y-36576D01*
X-75904Y-36560D01*
X-76152Y-36531D01*
X-76400Y-36495D01*
X-76466Y-36494D01*
X-76531Y-36487D01*
X-76781Y-36490D01*
X-77032Y-36486D01*
X-77098Y-36493D01*
X-77164Y-36494D01*
X-77411Y-36528D01*
X-77661Y-36556D01*
X-77725Y-36571D01*
X-77790Y-36580D01*
X-78031Y-36645D01*
X-78275Y-36704D01*
X-78337Y-36728D01*
X-78400Y-36745D01*
X-78632Y-36840D01*
X-78866Y-36929D01*
X-78924Y-36960D01*
X-78984Y-36985D01*
X-79203Y-37109D01*
X-79423Y-37227D01*
X-79477Y-37265D01*
X-79534Y-37298D01*
X-79735Y-37448D01*
X-79939Y-37593D01*
X-79993Y-37642D01*
X-80040Y-37677D01*
X-80140Y-37774D01*
X-80329Y-37944D01*
X-81281Y-38896D01*
X-81360Y-38986D01*
X-81446Y-39069D01*
X-81569Y-39223D01*
X-81699Y-39371D01*
X-81766Y-39469D01*
X-81840Y-39563D01*
X-81943Y-39731D01*
X-82053Y-39894D01*
X-82107Y-40000D01*
X-82170Y-40102D01*
X-82250Y-40282D01*
X-82339Y-40458D01*
X-82379Y-40570D01*
X-82428Y-40679D01*
X-82485Y-40868D01*
X-82552Y-41053D01*
X-82577Y-41169D01*
X-82612Y-41284D01*
X-82645Y-41478D01*
X-82687Y-41670D01*
X-82698Y-41789D01*
X-82718Y-41907D01*
X-82731Y-42161D01*
X-82744Y-42300D01*
X-82741Y-42358D01*
X-82745Y-42431D01*
X-82745Y-45096D01*
X-83171Y-46123D01*
X-84660Y-47612D01*
X-114989Y-77941D01*
X-115154Y-78129D01*
X-115325Y-78313D01*
X-115363Y-78366D01*
X-115406Y-78415D01*
X-115547Y-78623D01*
X-115693Y-78826D01*
X-115724Y-78884D01*
X-115761Y-78939D01*
X-115875Y-79163D01*
X-115993Y-79382D01*
X-116017Y-79444D01*
X-116047Y-79502D01*
X-116131Y-79739D01*
X-116221Y-79972D01*
X-116237Y-80036D01*
X-116259Y-80098D01*
X-116313Y-80342D01*
X-116373Y-80586D01*
X-116381Y-80651D01*
X-116395Y-80715D01*
X-116417Y-80965D01*
X-116446Y-81213D01*
X-116445Y-81279D01*
X-116451Y-81345D01*
X-116442Y-81596D01*
X-116439Y-81846D01*
X-116430Y-81910D01*
X-116428Y-81976D01*
X-116387Y-82224D01*
X-116353Y-82472D01*
X-116336Y-82535D01*
X-116325Y-82600D01*
X-116253Y-82840D01*
X-116188Y-83082D01*
X-116163Y-83143D01*
X-116144Y-83206D01*
X-116043Y-83435D01*
X-115947Y-83666D01*
X-115915Y-83724D01*
X-115888Y-83784D01*
X-115759Y-83998D01*
X-115635Y-84216D01*
X-115596Y-84269D01*
X-115562Y-84325D01*
X-115406Y-84522D01*
X-115256Y-84722D01*
X-115210Y-84769D01*
X-115169Y-84821D01*
X-114991Y-84996D01*
X-114816Y-85176D01*
X-114765Y-85217D01*
X-114718Y-85263D01*
X-114518Y-85414D01*
X-114322Y-85570D01*
X-114266Y-85605D01*
X-114214Y-85644D01*
X-113997Y-85769D01*
X-113783Y-85900D01*
X-113723Y-85927D01*
X-113666Y-85959D01*
X-113435Y-86055D01*
X-113206Y-86158D01*
X-113143Y-86177D01*
X-113082Y-86203D01*
X-112841Y-86269D01*
X-112601Y-86342D01*
X-112536Y-86353D01*
X-112473Y-86370D01*
X-112225Y-86406D01*
X-111978Y-86448D01*
X-111905Y-86452D01*
X-111847Y-86460D01*
X-111707Y-86462D01*
X-111454Y-86475D01*
X-103697Y-86475D01*
X-103136Y-86707D01*
X-102707Y-87136D01*
X-102475Y-87697D01*
X-102475Y-104303D01*
X-102707Y-104864D01*
X-103762Y-105918D01*
X-103790Y-105950D01*
X-103822Y-105980D01*
X-104000Y-106188D01*
X-104179Y-106392D01*
X-104204Y-106428D01*
X-104232Y-106461D01*
X-104381Y-106690D01*
X-104534Y-106916D01*
X-104554Y-106954D01*
X-104577Y-106990D01*
X-104697Y-107237D01*
X-104820Y-107479D01*
X-104834Y-107520D01*
X-104853Y-107559D01*
X-104941Y-107818D01*
X-105032Y-108075D01*
X-105042Y-108117D01*
X-105055Y-108158D01*
X-105109Y-108425D01*
X-105168Y-108692D01*
X-105172Y-108735D01*
X-105180Y-108778D01*
X-105200Y-109050D01*
X-105224Y-109322D01*
X-105223Y-109365D01*
X-105226Y-109408D01*
X-105211Y-109681D01*
X-105201Y-109953D01*
X-105194Y-109996D01*
X-105191Y-110039D01*
X-105142Y-110308D01*
X-105098Y-110577D01*
X-105086Y-110618D01*
X-105078Y-110661D01*
X-104995Y-110921D01*
X-104917Y-111183D01*
X-104900Y-111222D01*
X-104887Y-111264D01*
X-104772Y-111511D01*
X-104661Y-111761D01*
X-104639Y-111798D01*
X-104621Y-111837D01*
X-104476Y-112069D01*
X-104335Y-112302D01*
X-104308Y-112336D01*
X-104285Y-112373D01*
X-104112Y-112584D01*
X-103942Y-112797D01*
X-103911Y-112828D01*
X-103884Y-112861D01*
X-103686Y-113049D01*
X-103491Y-113240D01*
X-103456Y-113266D01*
X-103425Y-113296D01*
X-103004Y-113610D01*
X-102380Y-114026D01*
X-102026Y-114380D01*
X-101748Y-114796D01*
X-101557Y-115259D01*
X-101459Y-115750D01*
X-101459Y-119001D01*
X-113000Y-119001D01*
X-126726Y-119001D01*
X-126784Y-118965D01*
X-126890Y-118889D01*
X-127053Y-118801D01*
X-127211Y-118704D01*
X-127331Y-118651D01*
X-127446Y-118588D01*
X-127619Y-118522D01*
X-127788Y-118446D01*
X-127913Y-118408D01*
X-128036Y-118360D01*
X-128216Y-118316D01*
X-128393Y-118262D01*
X-128522Y-118240D01*
X-128650Y-118209D01*
X-128833Y-118187D01*
X-129016Y-118156D01*
X-129169Y-118148D01*
X-129277Y-118136D01*
X-129386Y-118137D01*
X-129540Y-118129D01*
X-184555Y-118129D01*
X-184707Y-118138D01*
X-184859Y-118138D01*
X-185022Y-118158D01*
X-185186Y-118169D01*
X-185335Y-118197D01*
X-185486Y-118216D01*
X-185645Y-118257D01*
X-185806Y-118288D01*
X-185951Y-118335D01*
X-186098Y-118373D01*
X-186251Y-118433D01*
X-186407Y-118485D01*
X-186545Y-118550D01*
X-186686Y-118606D01*
X-186830Y-118685D01*
X-186978Y-118755D01*
X-187106Y-118837D01*
X-187240Y-118911D01*
X-187372Y-119008D01*
X-187511Y-119096D01*
X-187627Y-119194D01*
X-187750Y-119283D01*
X-187870Y-119396D01*
X-187996Y-119501D01*
X-188099Y-119613D01*
X-188210Y-119717D01*
X-188314Y-119844D01*
X-188426Y-119965D01*
X-188514Y-120088D01*
X-188611Y-120206D01*
X-188699Y-120345D01*
X-188794Y-120478D01*
X-188866Y-120612D01*
X-188947Y-120741D01*
X-189033Y-120921D01*
X-189095Y-121034D01*
X-189125Y-121113D01*
X-189173Y-121215D01*
X-189501Y-122006D01*
X-190994Y-123499D01*
X-192944Y-124307D01*
X-195056Y-124307D01*
X-197006Y-123499D01*
X-198499Y-122006D01*
X-199360Y-119926D01*
X-199398Y-119849D01*
X-199429Y-119768D01*
X-199537Y-119565D01*
X-199639Y-119359D01*
X-199686Y-119286D01*
X-199727Y-119210D01*
X-199860Y-119023D01*
X-199986Y-118831D01*
X-200043Y-118765D01*
X-200093Y-118695D01*
X-200315Y-118448D01*
X-200398Y-118351D01*
X-200420Y-118331D01*
X-200444Y-118304D01*
X-201946Y-116802D01*
X-202657Y-115086D01*
X-202665Y-115028D01*
X-202699Y-114902D01*
X-202724Y-114772D01*
X-202782Y-114596D01*
X-202830Y-114418D01*
X-202880Y-114297D01*
X-202921Y-114172D01*
X-203000Y-114004D01*
X-203070Y-113834D01*
X-203135Y-113719D01*
X-203191Y-113601D01*
X-203291Y-113445D01*
X-203382Y-113284D01*
X-203461Y-113179D01*
X-203532Y-113068D01*
X-203651Y-112926D01*
X-203762Y-112778D01*
X-203853Y-112684D01*
X-203937Y-112583D01*
X-204073Y-112457D01*
X-204202Y-112324D01*
X-204304Y-112242D01*
X-204401Y-112153D01*
X-204551Y-112045D01*
X-204695Y-111930D01*
X-204808Y-111861D01*
X-204914Y-111785D01*
X-205077Y-111697D01*
X-205235Y-111600D01*
X-205355Y-111547D01*
X-205470Y-111484D01*
X-205643Y-111418D01*
X-205812Y-111342D01*
X-205937Y-111304D01*
X-206060Y-111256D01*
X-206240Y-111212D01*
X-206417Y-111158D01*
X-206526Y-111140D01*
X-207364Y-110793D01*
X-208418Y-109738D01*
X-208450Y-109710D01*
X-208480Y-109678D01*
X-208688Y-109500D01*
X-208892Y-109321D01*
X-208928Y-109296D01*
X-208961Y-109268D01*
X-209190Y-109119D01*
X-209416Y-108966D01*
X-209454Y-108946D01*
X-209490Y-108923D01*
X-209737Y-108803D01*
X-209979Y-108680D01*
X-210020Y-108666D01*
X-210059Y-108647D01*
X-210318Y-108559D01*
X-210575Y-108468D01*
X-210617Y-108458D01*
X-210658Y-108445D01*
X-210925Y-108391D01*
X-211192Y-108332D01*
X-211235Y-108328D01*
X-211278Y-108320D01*
X-211550Y-108300D01*
X-211822Y-108276D01*
X-211865Y-108277D01*
X-211908Y-108274D01*
X-212181Y-108289D01*
X-212453Y-108299D01*
X-212496Y-108306D01*
X-212539Y-108309D01*
X-212808Y-108358D01*
X-213077Y-108402D01*
X-213118Y-108414D01*
X-213161Y-108422D01*
X-213421Y-108505D01*
X-213683Y-108583D01*
X-213722Y-108600D01*
X-213764Y-108613D01*
X-214011Y-108728D01*
X-214261Y-108839D01*
X-214298Y-108861D01*
X-214337Y-108879D01*
X-214569Y-109024D01*
X-214802Y-109165D01*
X-214836Y-109192D01*
X-214873Y-109215D01*
X-215083Y-109388D01*
X-215297Y-109558D01*
X-215328Y-109589D01*
X-215361Y-109616D01*
X-215549Y-109814D01*
X-215740Y-110009D01*
X-215766Y-110044D01*
X-215796Y-110075D01*
X-216110Y-110496D01*
X-216526Y-111120D01*
X-216880Y-111474D01*
X-217296Y-111752D01*
X-217759Y-111943D01*
X-218250Y-112041D01*
X-221501Y-112041D01*
X-221501Y-100500D01*
X-221501Y-88959D01*
X-218250Y-88959D01*
X-217759Y-89057D01*
X-217296Y-89248D01*
X-216880Y-89526D01*
X-216526Y-89880D01*
X-216110Y-90504D01*
X-216084Y-90538D01*
X-216061Y-90576D01*
X-215891Y-90790D01*
X-215726Y-91006D01*
X-215696Y-91037D01*
X-215669Y-91071D01*
X-215474Y-91262D01*
X-215282Y-91456D01*
X-215248Y-91483D01*
X-215217Y-91513D01*
X-215000Y-91678D01*
X-214785Y-91847D01*
X-214748Y-91869D01*
X-214713Y-91895D01*
X-214477Y-92031D01*
X-214242Y-92171D01*
X-214203Y-92188D01*
X-214165Y-92210D01*
X-213913Y-92315D01*
X-213663Y-92424D01*
X-213622Y-92437D01*
X-213582Y-92453D01*
X-213319Y-92526D01*
X-213057Y-92603D01*
X-213014Y-92609D01*
X-212972Y-92621D01*
X-212702Y-92660D01*
X-212433Y-92703D01*
X-212389Y-92704D01*
X-212346Y-92710D01*
X-212073Y-92715D01*
X-211801Y-92724D01*
X-211758Y-92720D01*
X-211714Y-92720D01*
X-211443Y-92690D01*
X-211172Y-92665D01*
X-211129Y-92655D01*
X-211086Y-92650D01*
X-210821Y-92586D01*
X-210555Y-92526D01*
X-210514Y-92512D01*
X-210472Y-92502D01*
X-210217Y-92405D01*
X-209960Y-92312D01*
X-209922Y-92292D01*
X-209881Y-92276D01*
X-209641Y-92148D01*
X-209398Y-92024D01*
X-209362Y-91999D01*
X-209324Y-91979D01*
X-209101Y-91821D01*
X-208876Y-91667D01*
X-208843Y-91638D01*
X-208808Y-91613D01*
X-208418Y-91262D01*
X-207364Y-90207D01*
X-206803Y-89975D01*
X-190197Y-89975D01*
X-189636Y-90207D01*
X-189207Y-90636D01*
X-189103Y-90889D01*
X-189055Y-90987D01*
X-189015Y-91088D01*
X-188916Y-91270D01*
X-188824Y-91457D01*
X-188764Y-91548D01*
X-188712Y-91643D01*
X-188590Y-91812D01*
X-188477Y-91984D01*
X-188406Y-92067D01*
X-188342Y-92156D01*
X-188200Y-92307D01*
X-188065Y-92464D01*
X-187984Y-92537D01*
X-187910Y-92617D01*
X-187750Y-92749D01*
X-187596Y-92888D01*
X-187507Y-92951D01*
X-187423Y-93020D01*
X-187248Y-93131D01*
X-187078Y-93250D01*
X-186981Y-93300D01*
X-186889Y-93359D01*
X-186701Y-93447D01*
X-186518Y-93543D01*
X-186415Y-93581D01*
X-186317Y-93627D01*
X-186120Y-93691D01*
X-185925Y-93763D01*
X-185819Y-93788D01*
X-185715Y-93821D01*
X-185512Y-93859D01*
X-185310Y-93907D01*
X-185201Y-93918D01*
X-185094Y-93938D01*
X-184887Y-93950D01*
X-184681Y-93971D01*
X-184572Y-93969D01*
X-184463Y-93975D01*
X-184256Y-93961D01*
X-184049Y-93956D01*
X-183942Y-93940D01*
X-183832Y-93933D01*
X-183629Y-93893D01*
X-183424Y-93862D01*
X-183319Y-93832D01*
X-183212Y-93811D01*
X-183015Y-93745D01*
X-182816Y-93689D01*
X-182716Y-93646D01*
X-182612Y-93612D01*
X-182425Y-93522D01*
X-182235Y-93441D01*
X-182140Y-93385D01*
X-182042Y-93338D01*
X-181869Y-93226D01*
X-181689Y-93121D01*
X-181603Y-93054D01*
X-181511Y-92995D01*
X-181353Y-92862D01*
X-181189Y-92735D01*
X-181111Y-92658D01*
X-181028Y-92588D01*
X-180888Y-92436D01*
X-180741Y-92289D01*
X-180674Y-92203D01*
X-180600Y-92123D01*
X-180480Y-91954D01*
X-180352Y-91791D01*
X-180297Y-91697D01*
X-180234Y-91608D01*
X-180136Y-91425D01*
X-180030Y-91247D01*
X-179987Y-91147D01*
X-179936Y-91051D01*
X-179861Y-90857D01*
X-179779Y-90667D01*
X-179749Y-90562D01*
X-179710Y-90460D01*
X-179642Y-90193D01*
X-179604Y-90059D01*
X-179596Y-90011D01*
X-179581Y-89951D01*
X-179443Y-89259D01*
X-179252Y-88796D01*
X-178974Y-88380D01*
X-178620Y-88026D01*
X-178204Y-87748D01*
X-177741Y-87557D01*
X-177250Y-87459D01*
X-173999Y-87459D01*
X-173999Y-100000D01*
X-173988Y-100184D01*
X-173986Y-100369D01*
X-173968Y-100499D01*
X-173959Y-100630D01*
X-173925Y-100812D01*
X-173899Y-100995D01*
X-173865Y-101122D01*
X-173840Y-101251D01*
X-173783Y-101427D01*
X-173734Y-101606D01*
X-173685Y-101727D01*
X-173644Y-101852D01*
X-173564Y-102019D01*
X-173494Y-102190D01*
X-173429Y-102304D01*
X-173373Y-102423D01*
X-173273Y-102579D01*
X-173182Y-102740D01*
X-173103Y-102845D01*
X-173032Y-102955D01*
X-172913Y-103098D01*
X-172802Y-103245D01*
X-172711Y-103340D01*
X-172627Y-103441D01*
X-172491Y-103566D01*
X-172363Y-103699D01*
X-172260Y-103781D01*
X-172164Y-103871D01*
X-172013Y-103978D01*
X-171869Y-104094D01*
X-171756Y-104163D01*
X-171650Y-104239D01*
X-171487Y-104327D01*
X-171329Y-104423D01*
X-171209Y-104477D01*
X-171094Y-104539D01*
X-170921Y-104606D01*
X-170752Y-104682D01*
X-170627Y-104720D01*
X-170504Y-104767D01*
X-170325Y-104812D01*
X-170148Y-104865D01*
X-170018Y-104887D01*
X-169891Y-104919D01*
X-169707Y-104940D01*
X-169524Y-104971D01*
X-169371Y-104979D01*
X-169263Y-104992D01*
X-169262Y-104992D01*
X-169154Y-104991D01*
X-169000Y-104999D01*
X-168815Y-104987D01*
X-168630Y-104985D01*
X-168500Y-104967D01*
X-168369Y-104959D01*
X-168187Y-104924D01*
X-168004Y-104899D01*
X-167877Y-104865D01*
X-167748Y-104840D01*
X-167572Y-104782D01*
X-167394Y-104734D01*
X-167273Y-104684D01*
X-167148Y-104643D01*
X-166980Y-104564D01*
X-166809Y-104493D01*
X-166695Y-104429D01*
X-166576Y-104372D01*
X-166420Y-104272D01*
X-166260Y-104181D01*
X-166155Y-104102D01*
X-166044Y-104032D01*
X-165902Y-103913D01*
X-165754Y-103802D01*
X-165660Y-103711D01*
X-165559Y-103626D01*
X-165433Y-103491D01*
X-165300Y-103362D01*
X-165218Y-103259D01*
X-165129Y-103163D01*
X-165021Y-103013D01*
X-164906Y-102868D01*
X-164837Y-102756D01*
X-164761Y-102649D01*
X-164673Y-102487D01*
X-164576Y-102329D01*
X-164522Y-102209D01*
X-164460Y-102093D01*
X-164393Y-101921D01*
X-164318Y-101752D01*
X-164280Y-101626D01*
X-164232Y-101504D01*
X-164188Y-101324D01*
X-164134Y-101147D01*
X-164112Y-101017D01*
X-164081Y-100890D01*
X-164059Y-100707D01*
X-164028Y-100524D01*
X-164020Y-100370D01*
X-164007Y-100262D01*
X-164009Y-100153D01*
X-164001Y-100000D01*
X-164001Y-87459D01*
X-160750Y-87459D01*
X-160259Y-87557D01*
X-159796Y-87748D01*
X-159380Y-88026D01*
X-159026Y-88380D01*
X-158610Y-89004D01*
X-158584Y-89038D01*
X-158561Y-89076D01*
X-158391Y-89290D01*
X-158226Y-89506D01*
X-158196Y-89537D01*
X-158169Y-89571D01*
X-157974Y-89762D01*
X-157782Y-89956D01*
X-157748Y-89983D01*
X-157717Y-90013D01*
X-157500Y-90178D01*
X-157285Y-90347D01*
X-157248Y-90369D01*
X-157213Y-90395D01*
X-156977Y-90531D01*
X-156742Y-90671D01*
X-156703Y-90688D01*
X-156665Y-90710D01*
X-156413Y-90815D01*
X-156163Y-90924D01*
X-156122Y-90937D01*
X-156082Y-90953D01*
X-155819Y-91026D01*
X-155557Y-91103D01*
X-155514Y-91109D01*
X-155472Y-91121D01*
X-155202Y-91160D01*
X-154933Y-91203D01*
X-154889Y-91204D01*
X-154846Y-91210D01*
X-154573Y-91215D01*
X-154301Y-91224D01*
X-154258Y-91220D01*
X-154214Y-91220D01*
X-153943Y-91190D01*
X-153672Y-91165D01*
X-153629Y-91155D01*
X-153586Y-91150D01*
X-153321Y-91086D01*
X-153055Y-91026D01*
X-153014Y-91012D01*
X-152972Y-91002D01*
X-152717Y-90905D01*
X-152460Y-90812D01*
X-152422Y-90792D01*
X-152381Y-90776D01*
X-152141Y-90648D01*
X-151898Y-90524D01*
X-151862Y-90499D01*
X-151824Y-90479D01*
X-151601Y-90321D01*
X-151376Y-90167D01*
X-151343Y-90138D01*
X-151308Y-90113D01*
X-150918Y-89762D01*
X-149864Y-88707D01*
X-149303Y-88475D01*
X-135498Y-88475D01*
X-135379Y-88468D01*
X-135260Y-88470D01*
X-135064Y-88448D01*
X-134868Y-88435D01*
X-134751Y-88413D01*
X-134632Y-88400D01*
X-134440Y-88353D01*
X-134247Y-88316D01*
X-134133Y-88279D01*
X-134017Y-88251D01*
X-133834Y-88181D01*
X-133646Y-88119D01*
X-133538Y-88068D01*
X-133427Y-88026D01*
X-133253Y-87933D01*
X-133075Y-87849D01*
X-132974Y-87784D01*
X-132869Y-87728D01*
X-132709Y-87614D01*
X-132543Y-87508D01*
X-132451Y-87431D01*
X-132354Y-87362D01*
X-132165Y-87192D01*
X-132057Y-87103D01*
X-132018Y-87060D01*
X-131963Y-87011D01*
X-90359Y-45406D01*
X-90237Y-45268D01*
X-90107Y-45135D01*
X-90028Y-45031D01*
X-89941Y-44932D01*
X-89837Y-44779D01*
X-89726Y-44632D01*
X-89660Y-44518D01*
X-89586Y-44409D01*
X-89503Y-44244D01*
X-89411Y-44084D01*
X-89360Y-43962D01*
X-89301Y-43845D01*
X-89238Y-43671D01*
X-89167Y-43500D01*
X-89132Y-43373D01*
X-89088Y-43250D01*
X-89049Y-43069D01*
X-89000Y-42891D01*
X-88981Y-42760D01*
X-88953Y-42632D01*
X-88936Y-42448D01*
X-88910Y-42265D01*
X-88908Y-42134D01*
X-88896Y-42003D01*
X-88903Y-41818D01*
X-88900Y-41633D01*
X-88915Y-41502D01*
X-88920Y-41371D01*
X-88950Y-41189D01*
X-88970Y-41005D01*
X-89001Y-40877D01*
X-89023Y-40747D01*
X-89075Y-40570D01*
X-89119Y-40390D01*
X-89166Y-40267D01*
X-89203Y-40142D01*
X-89278Y-39973D01*
X-89344Y-39800D01*
X-89406Y-39684D01*
X-89459Y-39564D01*
X-89555Y-39405D01*
X-89642Y-39242D01*
X-89718Y-39135D01*
X-89786Y-39023D01*
X-89901Y-38877D01*
X-90008Y-38727D01*
X-90110Y-38612D01*
X-90178Y-38527D01*
X-90256Y-38451D01*
X-90359Y-38336D01*
X-92377Y-36318D01*
X-93605Y-33354D01*
X-93605Y-30146D01*
X-92377Y-27182D01*
X-90108Y-24913D01*
X-87104Y-23669D01*
X-86879Y-23558D01*
X-86652Y-23454D01*
X-86596Y-23419D01*
X-86537Y-23390D01*
X-86327Y-23252D01*
X-86115Y-23120D01*
X-86064Y-23079D01*
X-86009Y-23043D01*
X-85818Y-22879D01*
X-85624Y-22722D01*
X-85579Y-22674D01*
X-85529Y-22631D01*
X-85361Y-22445D01*
X-85188Y-22264D01*
X-85149Y-22211D01*
X-85105Y-22162D01*
X-84962Y-21957D01*
X-84813Y-21755D01*
X-84781Y-21698D01*
X-84744Y-21644D01*
X-84627Y-21422D01*
X-84505Y-21203D01*
X-84481Y-21142D01*
X-84450Y-21084D01*
X-84363Y-20850D01*
X-84270Y-20617D01*
X-84253Y-20553D01*
X-84230Y-20491D01*
X-84174Y-20248D01*
X-84110Y-20005D01*
X-84102Y-19940D01*
X-84087Y-19876D01*
X-84061Y-19626D01*
X-84029Y-19378D01*
X-84029Y-19312D01*
X-84022Y-19247D01*
X-84028Y-18997D01*
X-84027Y-18746D01*
X-84035Y-18681D01*
X-84037Y-18615D01*
X-84074Y-18368D01*
X-84106Y-18119D01*
X-84122Y-18055D01*
X-84132Y-17990D01*
X-84200Y-17749D01*
X-84262Y-17506D01*
X-84286Y-17445D01*
X-84304Y-17382D01*
X-84403Y-17151D01*
X-84495Y-16919D01*
X-84527Y-16861D01*
X-84553Y-16801D01*
X-84679Y-16585D01*
X-84800Y-16365D01*
X-84839Y-16312D01*
X-84872Y-16255D01*
X-85025Y-16057D01*
X-85173Y-15854D01*
X-85218Y-15807D01*
X-85258Y-15755D01*
X-85434Y-15577D01*
X-85607Y-15395D01*
X-85658Y-15353D01*
X-85704Y-15307D01*
X-85901Y-15153D01*
X-86095Y-14994D01*
X-86151Y-14959D01*
X-86203Y-14918D01*
X-86418Y-14791D01*
X-86630Y-14657D01*
X-86697Y-14626D01*
X-86746Y-14596D01*
X-86875Y-14541D01*
X-87104Y-14431D01*
X-90108Y-13187D01*
X-92377Y-10918D01*
X-93605Y-7954D01*
X-93605Y-4746D01*
X-92377Y-1782D01*
X-90108Y487D01*
X-87104Y1731D01*
X-86879Y1842D01*
X-86652Y1946D01*
X-86596Y1981D01*
X-86537Y2010D01*
X-86327Y2148D01*
X-86115Y2280D01*
X-86064Y2321D01*
X-86009Y2357D01*
X-85819Y2521D01*
X-85624Y2679D01*
X-85579Y2726D01*
X-85529Y2769D01*
X-85361Y2955D01*
X-85188Y3136D01*
X-85149Y3189D01*
X-85105Y3238D01*
X-84962Y3443D01*
X-84813Y3645D01*
X-84781Y3702D01*
X-84744Y3756D01*
X-84627Y3978D01*
X-84505Y4197D01*
X-84481Y4258D01*
X-84450Y4316D01*
X-84363Y4551D01*
X-84270Y4784D01*
X-84253Y4847D01*
X-84230Y4909D01*
X-84173Y5153D01*
X-84110Y5395D01*
X-84102Y5460D01*
X-84087Y5524D01*
X-84061Y5774D01*
X-84029Y6022D01*
X-84029Y6088D01*
X-84022Y6153D01*
X-84028Y6404D01*
X-84027Y6654D01*
X-84035Y6719D01*
X-84037Y6785D01*
X-84075Y7032D01*
X-84106Y7281D01*
X-84122Y7345D01*
X-84132Y7410D01*
X-84200Y7651D01*
X-84262Y7894D01*
X-84287Y7955D01*
X-84305Y8018D01*
X-84403Y8248D01*
X-84495Y8481D01*
X-84527Y8539D01*
X-84553Y8599D01*
X-84679Y8816D01*
X-84800Y9035D01*
X-84839Y9088D01*
X-84872Y9145D01*
X-85025Y9343D01*
X-85173Y9546D01*
X-85218Y9593D01*
X-85258Y9645D01*
X-85434Y9823D01*
X-85607Y10005D01*
X-85658Y10047D01*
X-85704Y10093D01*
X-85901Y10247D01*
X-86095Y10406D01*
X-86151Y10441D01*
X-86203Y10482D01*
X-86418Y10609D01*
X-86630Y10743D01*
X-86697Y10774D01*
X-86747Y10804D01*
X-86875Y10859D01*
X-87104Y10969D01*
X-90108Y12213D01*
X-92377Y14482D01*
X-93605Y17446D01*
X-93605Y20654D01*
X-92377Y23618D01*
X-90108Y25887D01*
X-87144Y27115D01*
X-83370Y27115D01*
X-83185Y27126D01*
X-83000Y27128D01*
X-82870Y27146D01*
X-82739Y27155D01*
X-82558Y27190D01*
X-82374Y27215D01*
X-82248Y27249D01*
X-82118Y27274D01*
X-81942Y27332D01*
X-81764Y27380D01*
X-81643Y27430D01*
X-81518Y27471D01*
X-81350Y27550D01*
X-81180Y27620D01*
X-81065Y27685D01*
X-80947Y27741D01*
X-80791Y27841D01*
X-80630Y27932D01*
X-80525Y28011D01*
X-80414Y28082D01*
X-80272Y28201D01*
X-80124Y28312D01*
X-80030Y28403D01*
X-79929Y28487D01*
X-79803Y28623D01*
X-79670Y28752D01*
X-79588Y28854D01*
X-79499Y28951D01*
X-79391Y29101D01*
X-79276Y29245D01*
X-79207Y29358D01*
X-79131Y29464D01*
X-79043Y29627D01*
X-78946Y29785D01*
X-78893Y29905D01*
X-78830Y30020D01*
X-78764Y30193D01*
X-78688Y30362D01*
X-78650Y30487D01*
X-78602Y30610D01*
X-78558Y30790D01*
X-78504Y30967D01*
X-78482Y31096D01*
X-78451Y31224D01*
X-78429Y31407D01*
X-78398Y31590D01*
X-78390Y31743D01*
X-78378Y31851D01*
X-78379Y31960D01*
X-78371Y32114D01*
X-78371Y43348D01*
X-78378Y43467D01*
X-78376Y43586D01*
X-78398Y43782D01*
X-78411Y43978D01*
X-78433Y44095D01*
X-78446Y44214D01*
X-78493Y44406D01*
X-78530Y44599D01*
X-78567Y44713D01*
X-78595Y44829D01*
X-78665Y45012D01*
X-78727Y45200D01*
X-78778Y45308D01*
X-78820Y45419D01*
X-78913Y45593D01*
X-78997Y45771D01*
X-79062Y45872D01*
X-79118Y45977D01*
X-79232Y46137D01*
X-79338Y46303D01*
X-79415Y46395D01*
X-79484Y46492D01*
X-79654Y46681D01*
X-79743Y46789D01*
X-79786Y46828D01*
X-79835Y46883D01*
X-87142Y54190D01*
X-87231Y54268D01*
X-87315Y54354D01*
X-87469Y54477D01*
X-87616Y54607D01*
X-87715Y54674D01*
X-87808Y54749D01*
X-87976Y54852D01*
X-88140Y54962D01*
X-88246Y55016D01*
X-88348Y55078D01*
X-88528Y55159D01*
X-88703Y55248D01*
X-88816Y55288D01*
X-88925Y55337D01*
X-89113Y55394D01*
X-89299Y55460D01*
X-89415Y55486D01*
X-89529Y55520D01*
X-89724Y55553D01*
X-89916Y55596D01*
X-90035Y55606D01*
X-90153Y55626D01*
X-90406Y55640D01*
X-90546Y55652D01*
X-90604Y55650D01*
X-90677Y55654D01*
X-91016Y55654D01*
X-92967Y56462D01*
X-94459Y57955D01*
X-95267Y59905D01*
X-95267Y62016D01*
X-94459Y63967D01*
X-92967Y65459D01*
X-91016Y66267D01*
X-88905Y66267D01*
X-86955Y65459D01*
X-85462Y63967D01*
X-84654Y62016D01*
X-84654Y61677D01*
X-84646Y61558D01*
X-84648Y61438D01*
X-84626Y61242D01*
X-84614Y61046D01*
X-84591Y60929D01*
X-84578Y60810D01*
X-84532Y60619D01*
X-84495Y60425D01*
X-84457Y60312D01*
X-84429Y60196D01*
X-84359Y60012D01*
X-84298Y59825D01*
X-84247Y59717D01*
X-84204Y59605D01*
X-84112Y59432D01*
X-84027Y59254D01*
X-83963Y59153D01*
X-83907Y59048D01*
X-83793Y58887D01*
X-83686Y58721D01*
X-83610Y58629D01*
X-83541Y58532D01*
X-83371Y58344D01*
X-83281Y58236D01*
X-83239Y58197D01*
X-83190Y58142D01*
X-75811Y50764D01*
X-75672Y50641D01*
X-75540Y50512D01*
X-75436Y50433D01*
X-75337Y50346D01*
X-75184Y50242D01*
X-75036Y50130D01*
X-74922Y50065D01*
X-74814Y49991D01*
X-74649Y49907D01*
X-74488Y49815D01*
X-74367Y49765D01*
X-74250Y49705D01*
X-74076Y49643D01*
X-73905Y49572D01*
X-73778Y49537D01*
X-73654Y49493D01*
X-73474Y49454D01*
X-73295Y49404D01*
X-73165Y49386D01*
X-73037Y49358D01*
X-72853Y49341D01*
X-72670Y49315D01*
X-72538Y49313D01*
X-72408Y49301D01*
X-72223Y49308D01*
X-72038Y49305D01*
X-71907Y49320D01*
X-71776Y49324D01*
X-71593Y49355D01*
X-71410Y49375D01*
X-71282Y49406D01*
X-71152Y49427D01*
X-70975Y49480D01*
X-70795Y49524D01*
X-70672Y49571D01*
X-70547Y49608D01*
X-70378Y49683D01*
X-70204Y49749D01*
X-70088Y49811D01*
X-69968Y49864D01*
X-69810Y49960D01*
X-69647Y50047D01*
X-69540Y50122D01*
X-69427Y50191D01*
X-69282Y50306D01*
X-69131Y50412D01*
X-69017Y50515D01*
X-68932Y50583D01*
X-68855Y50661D01*
X-68741Y50764D01*
X-68006Y51499D01*
X-66056Y52307D01*
X-63944Y52307D01*
X-61994Y51499D01*
X-60501Y50006D01*
X-59693Y48056D01*
X-59693Y45944D01*
X-60501Y43994D01*
X-61994Y42501D01*
X-63119Y42035D01*
X-63256Y41968D01*
X-63396Y41910D01*
X-63539Y41829D01*
X-63687Y41757D01*
X-63814Y41673D01*
X-63946Y41598D01*
X-64077Y41499D01*
X-64214Y41409D01*
X-64330Y41310D01*
X-64452Y41219D01*
X-64570Y41105D01*
X-64694Y40998D01*
X-64796Y40885D01*
X-64906Y40779D01*
X-65008Y40651D01*
X-65118Y40529D01*
X-65205Y40404D01*
X-65300Y40285D01*
X-65386Y40145D01*
X-65480Y40010D01*
X-65550Y39876D01*
X-65630Y39746D01*
X-65697Y39596D01*
X-65773Y39450D01*
X-65826Y39308D01*
X-65888Y39169D01*
X-65936Y39012D01*
X-65993Y38858D01*
X-66028Y38710D01*
X-66072Y38564D01*
X-66099Y38402D01*
X-66137Y38242D01*
X-66152Y38091D01*
X-66178Y37941D01*
X-66188Y37742D01*
X-66201Y37613D01*
X-66199Y37529D01*
X-66205Y37416D01*
X-66205Y4999D01*
X-66191Y4781D01*
X-66186Y4564D01*
X-66172Y4466D01*
X-66165Y4368D01*
X-66124Y4154D01*
X-66092Y3939D01*
X-66065Y3844D01*
X-66046Y3747D01*
X-65978Y3540D01*
X-65919Y3331D01*
X-65880Y3240D01*
X-65849Y3146D01*
X-65756Y2949D01*
X-65671Y2749D01*
X-65621Y2664D01*
X-65579Y2575D01*
X-65461Y2392D01*
X-65351Y2204D01*
X-65291Y2126D01*
X-65238Y2043D01*
X-65098Y1876D01*
X-64965Y1703D01*
X-64896Y1633D01*
X-64833Y1558D01*
X-64673Y1410D01*
X-64519Y1255D01*
X-64442Y1195D01*
X-64369Y1128D01*
X-64193Y1001D01*
X-64021Y867D01*
X-63936Y817D01*
X-63856Y759D01*
X-63664Y656D01*
X-63477Y545D01*
X-63386Y506D01*
X-63300Y459D01*
X-63097Y380D01*
X-62897Y294D01*
X-62802Y267D01*
X-62710Y231D01*
X-62499Y179D01*
X-62289Y118D01*
X-62192Y103D01*
X-62096Y79D01*
X-61880Y54D01*
X-61665Y21D01*
X-61567Y18D01*
X-61469Y6D01*
X-61251Y9D01*
X-61033Y2D01*
X-60935Y12D01*
X-60836Y13D01*
X-60621Y43D01*
X-60404Y64D01*
X-60308Y86D01*
X-60210Y100D01*
X-60000Y156D01*
X-59788Y205D01*
X-59682Y242D01*
X-59600Y264D01*
X-59481Y313D01*
X-59293Y380D01*
X-57056Y1307D01*
X-55800Y1307D01*
X-55615Y1318D01*
X-55430Y1320D01*
X-55300Y1338D01*
X-55169Y1347D01*
X-54988Y1382D01*
X-54804Y1407D01*
X-54678Y1441D01*
X-54548Y1466D01*
X-54372Y1524D01*
X-54194Y1572D01*
X-54073Y1622D01*
X-53948Y1663D01*
X-53780Y1742D01*
X-53610Y1812D01*
X-53495Y1877D01*
X-53377Y1933D01*
X-53221Y2033D01*
X-53060Y2124D01*
X-52955Y2203D01*
X-52844Y2274D01*
X-52702Y2393D01*
X-52554Y2504D01*
X-52460Y2595D01*
X-52359Y2679D01*
X-52233Y2815D01*
X-52100Y2944D01*
X-52018Y3046D01*
X-51929Y3143D01*
X-51821Y3293D01*
X-51706Y3437D01*
X-51637Y3550D01*
X-51561Y3656D01*
X-51473Y3819D01*
X-51376Y3977D01*
X-51323Y4097D01*
X-51260Y4212D01*
X-51194Y4385D01*
X-51118Y4554D01*
X-51080Y4679D01*
X-51032Y4802D01*
X-50988Y4982D01*
X-50934Y5159D01*
X-50912Y5288D01*
X-50881Y5416D01*
X-50859Y5599D01*
X-50828Y5782D01*
X-50820Y5935D01*
X-50808Y6043D01*
X-50809Y6152D01*
X-50801Y6306D01*
X-50801Y13398D01*
X-50817Y13659D01*
X-50828Y13920D01*
X-50837Y13974D01*
X-50841Y14029D01*
X-50890Y14286D01*
X-50934Y14543D01*
X-50949Y14595D01*
X-50960Y14650D01*
X-51041Y14899D01*
X-51117Y15148D01*
X-51139Y15198D01*
X-51157Y15251D01*
X-51247Y15442D01*
X-51225Y15450D01*
X-51143Y15494D01*
X-51059Y15529D01*
X-50969Y15582D01*
X-50873Y15627D01*
X-50772Y15692D01*
X-50667Y15748D01*
X-50592Y15801D01*
X-50513Y15847D01*
X-50430Y15911D01*
X-50341Y15968D01*
X-50249Y16045D01*
X-50152Y16114D01*
X-50074Y16183D01*
X-50011Y16232D01*
X-49936Y16306D01*
X-49856Y16373D01*
X-49816Y16416D01*
X-49761Y16465D01*
X-49665Y16574D01*
X-49562Y16676D01*
X-49497Y16759D01*
X-49425Y16836D01*
X-49387Y16890D01*
X-49343Y16939D01*
X-49262Y17060D01*
X-49172Y17174D01*
X-49118Y17265D01*
X-49057Y17350D01*
X-49026Y17407D01*
X-48989Y17463D01*
X-48923Y17592D01*
X-48849Y17717D01*
X-48806Y17815D01*
X-48757Y17906D01*
X-48733Y17967D01*
X-48703Y18026D01*
X-48654Y18163D01*
X-48596Y18297D01*
X-48566Y18399D01*
X-48529Y18496D01*
X-48513Y18559D01*
X-48491Y18622D01*
X-48460Y18763D01*
X-48419Y18903D01*
X-48402Y19009D01*
X-48377Y19109D01*
X-48370Y19173D01*
X-48355Y19239D01*
X-48342Y19384D01*
X-48319Y19527D01*
X-48316Y19635D01*
X-48306Y19718D01*
X-48304Y19738D01*
X-48305Y19802D01*
X-48299Y19869D01*
X-48304Y20014D01*
X-48300Y20159D01*
X-48310Y20266D01*
X-48311Y20370D01*
X-48320Y20433D01*
X-48322Y20500D01*
X-48346Y20644D01*
X-48360Y20788D01*
X-48383Y20893D01*
X-48397Y20996D01*
X-48414Y21058D01*
X-48425Y21124D01*
X-48467Y21263D01*
X-48499Y21405D01*
X-48535Y21506D01*
X-48562Y21606D01*
X-48587Y21666D01*
X-48606Y21730D01*
X-48665Y21862D01*
X-48714Y21999D01*
X-48763Y22094D01*
X-48803Y22191D01*
X-48835Y22247D01*
X-48862Y22308D01*
X-48937Y22432D01*
X-49003Y22561D01*
X-49063Y22649D01*
X-49115Y22740D01*
X-49154Y22792D01*
X-49188Y22849D01*
X-49279Y22963D01*
X-49361Y23083D01*
X-49431Y23162D01*
X-49494Y23246D01*
X-49540Y23293D01*
X-49581Y23345D01*
X-49684Y23446D01*
X-49781Y23555D01*
X-49871Y23635D01*
X-49934Y23700D01*
X-49985Y23741D01*
X-50032Y23787D01*
X-50096Y23835D01*
X-50173Y23904D01*
X-50303Y23995D01*
X-50428Y24094D01*
X-50484Y24129D01*
X-50536Y24168D01*
X-50616Y24214D01*
X-50691Y24267D01*
X-50831Y24341D01*
X-50967Y24424D01*
X-51028Y24451D01*
X-51084Y24483D01*
X-51169Y24518D01*
X-51247Y24559D01*
X-51225Y24611D01*
X-51118Y24849D01*
X-51102Y24902D01*
X-51080Y24953D01*
X-51010Y25204D01*
X-50934Y25454D01*
X-50925Y25509D01*
X-50910Y25562D01*
X-50872Y25820D01*
X-50828Y26077D01*
X-50825Y26139D01*
X-50818Y26187D01*
X-50815Y26327D01*
X-50801Y26602D01*
X-50801Y31097D01*
X-50569Y31658D01*
X-50140Y32087D01*
X-48807Y32639D01*
X-48670Y32706D01*
X-48530Y32764D01*
X-48387Y32845D01*
X-48239Y32917D01*
X-48112Y33001D01*
X-47980Y33076D01*
X-47848Y33175D01*
X-47711Y33265D01*
X-47596Y33364D01*
X-47474Y33455D01*
X-47356Y33569D01*
X-47232Y33676D01*
X-47130Y33789D01*
X-47020Y33895D01*
X-46918Y34023D01*
X-46808Y34145D01*
X-46721Y34270D01*
X-46626Y34389D01*
X-46540Y34529D01*
X-46446Y34664D01*
X-46376Y34798D01*
X-46296Y34928D01*
X-46229Y35078D01*
X-46153Y35224D01*
X-46100Y35366D01*
X-46038Y35505D01*
X-45990Y35662D01*
X-45933Y35816D01*
X-45898Y35964D01*
X-45854Y36110D01*
X-45827Y36272D01*
X-45789Y36432D01*
X-45774Y36583D01*
X-45748Y36733D01*
X-45738Y36932D01*
X-45725Y37060D01*
X-45727Y37145D01*
X-45721Y37257D01*
X-45721Y58730D01*
X-45295Y59757D01*
X-26355Y78697D01*
X-26190Y78885D01*
X-26019Y79069D01*
X-25981Y79122D01*
X-25938Y79171D01*
X-25797Y79379D01*
X-25651Y79582D01*
X-25620Y79640D01*
X-25583Y79695D01*
X-25469Y79919D01*
X-25351Y80138D01*
X-25327Y80200D01*
X-25297Y80258D01*
X-25213Y80494D01*
X-25123Y80728D01*
X-25107Y80792D01*
X-25085Y80854D01*
X-25031Y81098D01*
X-24971Y81342D01*
X-24963Y81407D01*
X-24949Y81471D01*
X-24927Y81721D01*
X-24898Y81969D01*
X-24899Y82035D01*
X-24893Y82101D01*
X-24902Y82352D01*
X-24905Y82602D01*
X-24914Y82666D01*
X-24916Y82732D01*
X-24957Y82980D01*
X-24991Y83228D01*
X-25008Y83291D01*
X-25019Y83356D01*
X-25091Y83596D01*
X-25156Y83838D01*
X-25181Y83899D01*
X-25200Y83962D01*
X-25301Y84191D01*
X-25397Y84422D01*
X-25429Y84480D01*
X-25456Y84540D01*
X-25585Y84754D01*
X-25709Y84972D01*
X-25748Y85025D01*
X-25782Y85081D01*
X-25938Y85277D01*
X-26088Y85478D01*
X-26134Y85525D01*
X-26175Y85577D01*
X-26353Y85752D01*
X-26528Y85932D01*
X-26579Y85973D01*
X-26626Y86019D01*
X-26825Y86169D01*
X-27022Y86326D01*
X-27078Y86361D01*
X-27130Y86400D01*
X-27347Y86525D01*
X-27561Y86656D01*
X-27621Y86683D01*
X-27678Y86715D01*
X-27909Y86811D01*
X-28138Y86914D01*
X-28201Y86933D01*
X-28262Y86959D01*
X-28503Y87025D01*
X-28743Y87098D01*
X-28808Y87109D01*
X-28871Y87126D01*
X-29119Y87162D01*
X-29366Y87204D01*
X-29439Y87208D01*
X-29497Y87216D01*
X-29637Y87218D01*
X-29890Y87231D01*
X-38047Y87231D01*
X-38608Y87463D01*
X-39037Y87892D01*
X-39269Y88453D01*
X-39269Y107347D01*
X-39037Y107908D01*
X-37920Y109025D01*
X-37797Y109163D01*
X-37668Y109296D01*
X-37588Y109401D01*
X-37502Y109499D01*
X-37398Y109652D01*
X-37286Y109800D01*
X-37221Y109914D01*
X-37147Y110022D01*
X-37064Y110187D01*
X-36971Y110348D01*
X-36921Y110469D01*
X-36861Y110586D01*
X-36799Y110760D01*
X-36728Y110931D01*
X-36693Y111058D01*
X-36649Y111181D01*
X-36609Y111362D01*
X-36560Y111541D01*
X-36542Y111671D01*
X-36513Y111799D01*
X-36497Y111983D01*
X-36471Y112166D01*
X-36469Y112298D01*
X-36457Y112428D01*
X-36464Y112613D01*
X-36461Y112798D01*
X-36475Y112929D01*
X-36480Y113060D01*
X-36510Y113242D01*
X-36531Y113426D01*
X-36562Y113554D01*
X-36583Y113684D01*
X-36636Y113861D01*
X-36680Y114041D01*
X-36726Y114164D01*
X-36764Y114289D01*
X-36839Y114459D01*
X-36905Y114632D01*
X-36967Y114747D01*
X-37020Y114868D01*
X-37115Y115026D01*
X-37202Y115189D01*
X-37279Y115296D01*
X-37346Y115409D01*
X-37461Y115553D01*
X-37568Y115705D01*
X-37671Y115819D01*
X-37739Y115904D01*
X-37817Y115980D01*
X-37919Y116095D01*
X-40125Y118301D01*
X-28600Y118301D01*
X-28416Y118312D01*
X-28231Y118314D01*
X-28101Y118332D01*
X-27970Y118341D01*
X-27788Y118375D01*
X-27605Y118401D01*
X-27478Y118435D01*
X-27349Y118460D01*
X-27173Y118517D01*
X-26994Y118566D01*
X-26873Y118615D01*
X-26748Y118656D01*
X-26581Y118736D01*
X-26410Y118806D01*
X-26296Y118871D01*
X-26177Y118927D01*
X-26021Y119027D01*
X-25860Y119118D01*
X-25755Y119197D01*
X-25645Y119268D01*
X-25502Y119387D01*
X-25355Y119498D01*
X-25260Y119589D01*
X-25159Y119673D01*
X-25034Y119809D01*
X-24901Y119937D01*
X-24819Y120040D01*
X-24729Y120136D01*
X-24622Y120286D01*
X-24506Y120431D01*
X-24437Y120544D01*
X-24361Y120650D01*
X-24273Y120813D01*
X-24177Y120971D01*
X-24123Y121091D01*
X-24061Y121206D01*
X-23994Y121379D01*
X-23918Y121548D01*
X-23880Y121673D01*
X-23833Y121796D01*
X-23788Y121975D01*
X-23735Y122152D01*
X-23713Y122282D01*
X-23681Y122409D01*
X-23660Y122593D01*
X-23629Y122776D01*
X-23621Y122929D01*
X-23608Y123037D01*
X-23608Y123038D01*
X-23609Y123146D01*
X-23601Y123300D01*
X-23613Y123485D01*
X-23615Y123670D01*
X-23633Y123800D01*
X-23641Y123931D01*
X-23676Y124113D01*
X-23701Y124296D01*
X-23735Y124423D01*
X-23760Y124552D01*
X-23818Y124728D01*
X-23866Y124906D01*
X-23916Y125027D01*
X-23957Y125152D01*
X-24036Y125320D01*
X-24107Y125491D01*
X-24171Y125605D01*
X-24228Y125724D01*
X-24328Y125879D01*
X-24419Y126040D01*
X-24498Y126145D01*
X-24568Y126256D01*
X-24687Y126398D01*
X-24798Y126546D01*
X-24889Y126640D01*
X-24974Y126741D01*
X-25109Y126867D01*
X-25238Y127000D01*
X-25341Y127082D01*
X-25437Y127171D01*
X-25587Y127279D01*
X-25732Y127394D01*
X-25844Y127463D01*
X-25951Y127539D01*
X-26113Y127627D01*
X-26271Y127724D01*
X-26391Y127778D01*
X-26507Y127840D01*
X-26679Y127907D01*
X-26848Y127982D01*
X-26974Y128020D01*
X-27096Y128068D01*
X-27276Y128112D01*
X-27453Y128166D01*
X-27583Y128188D01*
X-27710Y128219D01*
X-27893Y128241D01*
X-28076Y128272D01*
X-28230Y128280D01*
X-28338Y128292D01*
X-28447Y128291D01*
X-28600Y128299D01*
X-40285Y128299D01*
X-40285Y128697D01*
X-40296Y128882D01*
X-40298Y129067D01*
X-40316Y129197D01*
X-40325Y129328D01*
X-40360Y129510D01*
X-40385Y129693D01*
X-40419Y129820D01*
X-40444Y129949D01*
X-40502Y130125D01*
X-40550Y130303D01*
X-40600Y130425D01*
X-40641Y130550D01*
X-40720Y130717D01*
X-40790Y130888D01*
X-40855Y131002D01*
X-40911Y131121D01*
X-41011Y131277D01*
X-41102Y131437D01*
X-41181Y131543D01*
X-41252Y131653D01*
X-41371Y131795D01*
X-41482Y131943D01*
X-41573Y132038D01*
X-41657Y132138D01*
X-41793Y132264D01*
X-41922Y132397D01*
X-42024Y132479D01*
X-42121Y132569D01*
X-42271Y132676D01*
X-42415Y132792D01*
X-42528Y132860D01*
X-42634Y132937D01*
X-42797Y133025D01*
X-42955Y133121D01*
X-43075Y133175D01*
X-43190Y133237D01*
X-43363Y133304D01*
X-43532Y133380D01*
X-43657Y133418D01*
X-43780Y133465D01*
X-43960Y133510D01*
X-44137Y133563D01*
X-44266Y133585D01*
X-44394Y133617D01*
X-44577Y133638D01*
X-44760Y133669D01*
X-44913Y133677D01*
X-45021Y133690D01*
X-45130Y133689D01*
X-45284Y133697D01*
X-63476Y133697D01*
X-63661Y133685D01*
X-63846Y133683D01*
X-63976Y133665D01*
X-64107Y133657D01*
X-64288Y133622D01*
X-64472Y133597D01*
X-64598Y133562D01*
X-64728Y133538D01*
X-64904Y133480D01*
X-65082Y133432D01*
X-65203Y133382D01*
X-65328Y133341D01*
X-65496Y133262D01*
X-65666Y133191D01*
X-65781Y133126D01*
X-65899Y133070D01*
X-66055Y132970D01*
X-66216Y132879D01*
X-66321Y132800D01*
X-66432Y132729D01*
X-66574Y132611D01*
X-66722Y132500D01*
X-66816Y132408D01*
X-66917Y132324D01*
X-67043Y132189D01*
X-67176Y132060D01*
X-67258Y131957D01*
X-67347Y131861D01*
X-67455Y131711D01*
X-67570Y131566D01*
X-67639Y131454D01*
X-67715Y131347D01*
X-67803Y131185D01*
X-67900Y131027D01*
X-67953Y130907D01*
X-68016Y130791D01*
X-68082Y130619D01*
X-68158Y130450D01*
X-68196Y130324D01*
X-68244Y130201D01*
X-68288Y130022D01*
X-68342Y129845D01*
X-68364Y129715D01*
X-68395Y129588D01*
X-68417Y129404D01*
X-68448Y129222D01*
X-68456Y129068D01*
X-68468Y128960D01*
X-68467Y128851D01*
X-68475Y128697D01*
X-68475Y115697D01*
X-68707Y115136D01*
X-69762Y114082D01*
X-69790Y114050D01*
X-69822Y114020D01*
X-70000Y113812D01*
X-70179Y113608D01*
X-70204Y113572D01*
X-70232Y113539D01*
X-70381Y113310D01*
X-70534Y113084D01*
X-70554Y113046D01*
X-70577Y113010D01*
X-70697Y112763D01*
X-70820Y112521D01*
X-70834Y112480D01*
X-70853Y112441D01*
X-70941Y112182D01*
X-71032Y111925D01*
X-71042Y111883D01*
X-71055Y111842D01*
X-71109Y111575D01*
X-71168Y111308D01*
X-71172Y111265D01*
X-71180Y111222D01*
X-71200Y110950D01*
X-71224Y110678D01*
X-71223Y110635D01*
X-71226Y110592D01*
X-71211Y110319D01*
X-71201Y110047D01*
X-71194Y110004D01*
X-71191Y109961D01*
X-71142Y109692D01*
X-71098Y109423D01*
X-71086Y109382D01*
X-71078Y109339D01*
X-70995Y109079D01*
X-70917Y108817D01*
X-70900Y108778D01*
X-70887Y108736D01*
X-70772Y108489D01*
X-70661Y108239D01*
X-70639Y108202D01*
X-70621Y108163D01*
X-70476Y107931D01*
X-70335Y107698D01*
X-70308Y107664D01*
X-70285Y107627D01*
X-70112Y107417D01*
X-69942Y107203D01*
X-69911Y107172D01*
X-69884Y107139D01*
X-69686Y106951D01*
X-69491Y106760D01*
X-69456Y106734D01*
X-69425Y106704D01*
X-69004Y106390D01*
X-68380Y105974D01*
X-68026Y105620D01*
X-67748Y105204D01*
X-67557Y104741D01*
X-67459Y104250D01*
X-67459Y100999D01*
X-80000Y100999D01*
X-80184Y100988D01*
X-80369Y100986D01*
X-80499Y100968D01*
X-80630Y100959D01*
X-80812Y100925D01*
X-80995Y100899D01*
X-81122Y100865D01*
X-81251Y100840D01*
X-81427Y100783D01*
X-81606Y100734D01*
X-81727Y100685D01*
X-81852Y100644D01*
X-82019Y100564D01*
X-82190Y100494D01*
X-82304Y100429D01*
X-82423Y100373D01*
X-82579Y100273D01*
X-82740Y100182D01*
X-82845Y100103D01*
X-82955Y100032D01*
X-83098Y99913D01*
X-83245Y99802D01*
X-83340Y99711D01*
X-83441Y99627D01*
X-83441Y99626D01*
X-83567Y99491D01*
X-83699Y99363D01*
X-83700Y99362D01*
X-83782Y99259D01*
X-83871Y99163D01*
X-83979Y99013D01*
X-84094Y98868D01*
X-84163Y98756D01*
X-84239Y98649D01*
X-84327Y98487D01*
X-84424Y98329D01*
X-84478Y98209D01*
X-84540Y98093D01*
X-84607Y97921D01*
X-84682Y97752D01*
X-84720Y97626D01*
X-84768Y97504D01*
X-84812Y97324D01*
X-84866Y97147D01*
X-84888Y97017D01*
X-84919Y96890D01*
X-84941Y96707D01*
X-84972Y96524D01*
X-84980Y96370D01*
X-84992Y96262D01*
X-84991Y96153D01*
X-84999Y96000D01*
X-84999Y85459D01*
X-90250Y85459D01*
X-90741Y85557D01*
X-91204Y85748D01*
X-91620Y86026D01*
X-91974Y86380D01*
X-92252Y86796D01*
X-92443Y87259D01*
X-92486Y87474D01*
X-92514Y87579D01*
X-92533Y87686D01*
X-92595Y87884D01*
X-92648Y88084D01*
X-92689Y88186D01*
X-92722Y88290D01*
X-92808Y88478D01*
X-92886Y88670D01*
X-92940Y88765D01*
X-92985Y88864D01*
X-93095Y89040D01*
X-93196Y89221D01*
X-93261Y89308D01*
X-93319Y89401D01*
X-93450Y89562D01*
X-93573Y89728D01*
X-93649Y89807D01*
X-93718Y89892D01*
X-93868Y90035D01*
X-94011Y90184D01*
X-94096Y90252D01*
X-94175Y90328D01*
X-94342Y90451D01*
X-94503Y90581D01*
X-94596Y90638D01*
X-94684Y90703D01*
X-94865Y90803D01*
X-95042Y90912D01*
X-95141Y90957D01*
X-95236Y91010D01*
X-95429Y91088D01*
X-95617Y91173D01*
X-95722Y91205D01*
X-95823Y91246D01*
X-96023Y91298D01*
X-96221Y91359D01*
X-96329Y91378D01*
X-96434Y91406D01*
X-96640Y91432D01*
X-96844Y91468D01*
X-96953Y91473D01*
X-97061Y91487D01*
X-97268Y91487D01*
X-97475Y91497D01*
X-97584Y91488D01*
X-97693Y91488D01*
X-97899Y91463D01*
X-98105Y91446D01*
X-98212Y91423D01*
X-98321Y91410D01*
X-98522Y91358D01*
X-98724Y91316D01*
X-98827Y91280D01*
X-98933Y91253D01*
X-99126Y91177D01*
X-99321Y91109D01*
X-99419Y91060D01*
X-99521Y91020D01*
X-99702Y90920D01*
X-99888Y90828D01*
X-99979Y90768D01*
X-100074Y90715D01*
X-100241Y90593D01*
X-100414Y90478D01*
X-100497Y90407D01*
X-100585Y90343D01*
X-100735Y90201D01*
X-100892Y90065D01*
X-100965Y89983D01*
X-101044Y89909D01*
X-101176Y89749D01*
X-101314Y89594D01*
X-101376Y89505D01*
X-101445Y89420D01*
X-101483Y89361D01*
X-102136Y88707D01*
X-102697Y88475D01*
X-103146Y88475D01*
X-103331Y88464D01*
X-103516Y88462D01*
X-103646Y88444D01*
X-103777Y88435D01*
X-103958Y88400D01*
X-104142Y88375D01*
X-104268Y88341D01*
X-104398Y88316D01*
X-104574Y88258D01*
X-104752Y88210D01*
X-104873Y88160D01*
X-104998Y88119D01*
X-105166Y88040D01*
X-105336Y87970D01*
X-105451Y87905D01*
X-105569Y87849D01*
X-105725Y87749D01*
X-105886Y87658D01*
X-105991Y87579D01*
X-106102Y87508D01*
X-106244Y87389D01*
X-106392Y87278D01*
X-106486Y87187D01*
X-106587Y87103D01*
X-106713Y86967D01*
X-106846Y86838D01*
X-106928Y86736D01*
X-107017Y86639D01*
X-107125Y86489D01*
X-107240Y86345D01*
X-107309Y86232D01*
X-107385Y86126D01*
X-107473Y85963D01*
X-107570Y85805D01*
X-107623Y85685D01*
X-107686Y85570D01*
X-107752Y85397D01*
X-107828Y85228D01*
X-107866Y85103D01*
X-107914Y84980D01*
X-107958Y84800D01*
X-108012Y84623D01*
X-108034Y84494D01*
X-108065Y84366D01*
X-108087Y84183D01*
X-108118Y84000D01*
X-108126Y83847D01*
X-108138Y83739D01*
X-108137Y83630D01*
X-108145Y83476D01*
X-108145Y42431D01*
X-108138Y42312D01*
X-108140Y42193D01*
X-108118Y41997D01*
X-108105Y41800D01*
X-108083Y41683D01*
X-108070Y41565D01*
X-108023Y41373D01*
X-107986Y41180D01*
X-107949Y41066D01*
X-107921Y40950D01*
X-107851Y40766D01*
X-107789Y40579D01*
X-107738Y40471D01*
X-107696Y40360D01*
X-107603Y40186D01*
X-107519Y40008D01*
X-107454Y39907D01*
X-107398Y39802D01*
X-107284Y39641D01*
X-107178Y39475D01*
X-107101Y39384D01*
X-107032Y39286D01*
X-106862Y39097D01*
X-106773Y38990D01*
X-106730Y38951D01*
X-106681Y38896D01*
X-104103Y36318D01*
X-102875Y33354D01*
X-102875Y30146D01*
X-104103Y27182D01*
X-106372Y24913D01*
X-108057Y24215D01*
X-108175Y24157D01*
X-108296Y24109D01*
X-108458Y24018D01*
X-108625Y23937D01*
X-108734Y23865D01*
X-108848Y23801D01*
X-108998Y23691D01*
X-109152Y23589D01*
X-109252Y23504D01*
X-109357Y23426D01*
X-109492Y23298D01*
X-109632Y23177D01*
X-109720Y23080D01*
X-109815Y22990D01*
X-109932Y22846D01*
X-110056Y22709D01*
X-110131Y22601D01*
X-110214Y22500D01*
X-110312Y22342D01*
X-110418Y22190D01*
X-110478Y22074D01*
X-110547Y21963D01*
X-110625Y21794D01*
X-110711Y21630D01*
X-110756Y21507D01*
X-110811Y21389D01*
X-110866Y21211D01*
X-110931Y21038D01*
X-110942Y20992D01*
X-110949Y21013D01*
X-110981Y21140D01*
X-111049Y21312D01*
X-111109Y21488D01*
X-111166Y21606D01*
X-111214Y21728D01*
X-111303Y21890D01*
X-111384Y22057D01*
X-111456Y22167D01*
X-111519Y22281D01*
X-111628Y22431D01*
X-111730Y22586D01*
X-111814Y22686D01*
X-111891Y22792D01*
X-112019Y22927D01*
X-112139Y23068D01*
X-112235Y23156D01*
X-112325Y23251D01*
X-112469Y23369D01*
X-112606Y23494D01*
X-112713Y23570D01*
X-112814Y23653D01*
X-112971Y23751D01*
X-113123Y23858D01*
X-113238Y23919D01*
X-113349Y23989D01*
X-113560Y24089D01*
X-113681Y24154D01*
X-113744Y24177D01*
X-113823Y24215D01*
X-115508Y24913D01*
X-117777Y27182D01*
X-119005Y30146D01*
X-119005Y33354D01*
X-117777Y36318D01*
X-115199Y38896D01*
X-115120Y38986D01*
X-115034Y39069D01*
X-114911Y39223D01*
X-114781Y39371D01*
X-114714Y39469D01*
X-114640Y39563D01*
X-114537Y39731D01*
X-114427Y39894D01*
X-114373Y40000D01*
X-114310Y40102D01*
X-114230Y40282D01*
X-114141Y40458D01*
X-114101Y40570D01*
X-114052Y40679D01*
X-113995Y40868D01*
X-113928Y41053D01*
X-113903Y41170D01*
X-113868Y41284D01*
X-113835Y41478D01*
X-113793Y41670D01*
X-113782Y41789D01*
X-113762Y41907D01*
X-113749Y42161D01*
X-113736Y42300D01*
X-113739Y42358D01*
X-113735Y42431D01*
X-113735Y83476D01*
X-113746Y83661D01*
X-113748Y83846D01*
X-113766Y83976D01*
X-113775Y84107D01*
X-113810Y84288D01*
X-113835Y84472D01*
X-113869Y84598D01*
X-113894Y84728D01*
X-113952Y84904D01*
X-114000Y85082D01*
X-114050Y85203D01*
X-114091Y85328D01*
X-114170Y85496D01*
X-114240Y85666D01*
X-114305Y85781D01*
X-114361Y85899D01*
X-114461Y86055D01*
X-114552Y86216D01*
X-114631Y86321D01*
X-114702Y86432D01*
X-114821Y86574D01*
X-114932Y86722D01*
X-115023Y86816D01*
X-115107Y86917D01*
X-115243Y87043D01*
X-115372Y87176D01*
X-115474Y87258D01*
X-115571Y87347D01*
X-115721Y87455D01*
X-115865Y87570D01*
X-115978Y87639D01*
X-116084Y87715D01*
X-116247Y87803D01*
X-116405Y87900D01*
X-116525Y87953D01*
X-116640Y88016D01*
X-116813Y88082D01*
X-116982Y88158D01*
X-117107Y88196D01*
X-117230Y88244D01*
X-117410Y88288D01*
X-117587Y88342D01*
X-117716Y88364D01*
X-117844Y88395D01*
X-118027Y88417D01*
X-118210Y88448D01*
X-118363Y88456D01*
X-118471Y88468D01*
X-118580Y88467D01*
X-118734Y88475D01*
X-119303Y88475D01*
X-119864Y88707D01*
X-120293Y89136D01*
X-120381Y89350D01*
X-120492Y89576D01*
X-120596Y89803D01*
X-120631Y89859D01*
X-120660Y89918D01*
X-120797Y90126D01*
X-120930Y90340D01*
X-120971Y90391D01*
X-121007Y90446D01*
X-121170Y90635D01*
X-121329Y90830D01*
X-121376Y90876D01*
X-121419Y90926D01*
X-121605Y91094D01*
X-121786Y91267D01*
X-121839Y91305D01*
X-121888Y91350D01*
X-122094Y91493D01*
X-122295Y91642D01*
X-122352Y91673D01*
X-122406Y91711D01*
X-122628Y91827D01*
X-122847Y91949D01*
X-122908Y91974D01*
X-122966Y92004D01*
X-123201Y92091D01*
X-123434Y92185D01*
X-123497Y92201D01*
X-123559Y92224D01*
X-123803Y92281D01*
X-124045Y92345D01*
X-124110Y92353D01*
X-124174Y92368D01*
X-124424Y92394D01*
X-124672Y92426D01*
X-124738Y92426D01*
X-124803Y92433D01*
X-125054Y92427D01*
X-125304Y92427D01*
X-125370Y92419D01*
X-125435Y92418D01*
X-125682Y92380D01*
X-125931Y92349D01*
X-125995Y92333D01*
X-126060Y92323D01*
X-126301Y92254D01*
X-126544Y92192D01*
X-126605Y92168D01*
X-126668Y92150D01*
X-126899Y92052D01*
X-127131Y91959D01*
X-127189Y91928D01*
X-127249Y91902D01*
X-127466Y91775D01*
X-127685Y91654D01*
X-127738Y91616D01*
X-127795Y91582D01*
X-127994Y91429D01*
X-128196Y91282D01*
X-128243Y91237D01*
X-128295Y91197D01*
X-128473Y91020D01*
X-128655Y90848D01*
X-128697Y90797D01*
X-128743Y90751D01*
X-128898Y90553D01*
X-129056Y90359D01*
X-129091Y90304D01*
X-129132Y90252D01*
X-129259Y90037D01*
X-129393Y89824D01*
X-129424Y89758D01*
X-129454Y89708D01*
X-129509Y89580D01*
X-129619Y89350D01*
X-129707Y89136D01*
X-130136Y88707D01*
X-130697Y88475D01*
X-144502Y88475D01*
X-144621Y88468D01*
X-144740Y88470D01*
X-144936Y88448D01*
X-145132Y88435D01*
X-145249Y88413D01*
X-145368Y88400D01*
X-145560Y88353D01*
X-145753Y88316D01*
X-145867Y88279D01*
X-145983Y88251D01*
X-146166Y88181D01*
X-146354Y88119D01*
X-146462Y88068D01*
X-146573Y88026D01*
X-146747Y87933D01*
X-146925Y87849D01*
X-147026Y87784D01*
X-147131Y87728D01*
X-147291Y87614D01*
X-147457Y87508D01*
X-147549Y87431D01*
X-147646Y87362D01*
X-147835Y87192D01*
X-147943Y87103D01*
X-147982Y87060D01*
X-148037Y87011D01*
X-150917Y84131D01*
X-151944Y83705D01*
X-192719Y83705D01*
X-192838Y83698D01*
X-192958Y83700D01*
X-193154Y83678D01*
X-193350Y83665D01*
X-193467Y83643D01*
X-193586Y83630D01*
X-193777Y83583D01*
X-193971Y83546D01*
X-194084Y83509D01*
X-194200Y83481D01*
X-194384Y83411D01*
X-194571Y83349D01*
X-194679Y83298D01*
X-194791Y83256D01*
X-194964Y83163D01*
X-195143Y83079D01*
X-195243Y83014D01*
X-195348Y82958D01*
X-195509Y82844D01*
X-195675Y82738D01*
X-195767Y82661D01*
X-195864Y82592D01*
X-196053Y82422D01*
X-196160Y82333D01*
X-196199Y82290D01*
X-196254Y82241D01*
X-196494Y82001D01*
X-198444Y81193D01*
X-200776Y81193D01*
X-200961Y81182D01*
X-201146Y81180D01*
X-201276Y81162D01*
X-201407Y81153D01*
X-201588Y81118D01*
X-201772Y81093D01*
X-201898Y81059D01*
X-202028Y81034D01*
X-202204Y80976D01*
X-202382Y80928D01*
X-202503Y80878D01*
X-202628Y80837D01*
X-202796Y80758D01*
X-202966Y80688D01*
X-203081Y80623D01*
X-203199Y80567D01*
X-203355Y80467D01*
X-203516Y80376D01*
X-203621Y80297D01*
X-203732Y80226D01*
X-203874Y80107D01*
X-204022Y79996D01*
X-204116Y79905D01*
X-204217Y79821D01*
X-204343Y79685D01*
X-204476Y79556D01*
X-204558Y79454D01*
X-204647Y79357D01*
X-204755Y79207D01*
X-204870Y79063D01*
X-204939Y78950D01*
X-205015Y78844D01*
X-205103Y78681D01*
X-205200Y78523D01*
X-205253Y78403D01*
X-205316Y78288D01*
X-205382Y78115D01*
X-205458Y77946D01*
X-205496Y77821D01*
X-205544Y77698D01*
X-205588Y77518D01*
X-205642Y77341D01*
X-205664Y77212D01*
X-205695Y77084D01*
X-205717Y76901D01*
X-205748Y76718D01*
X-205756Y76565D01*
X-205768Y76457D01*
X-205767Y76348D01*
X-205775Y76194D01*
X-205775Y75897D01*
X-206007Y75336D01*
X-206436Y74907D01*
X-206997Y74675D01*
X-239920Y74675D01*
X-240105Y74664D01*
X-240290Y74662D01*
X-240420Y74644D01*
X-240551Y74635D01*
X-240732Y74600D01*
X-240916Y74575D01*
X-241042Y74541D01*
X-241172Y74516D01*
X-241348Y74458D01*
X-241526Y74410D01*
X-241647Y74360D01*
X-241772Y74319D01*
X-241940Y74240D01*
X-242110Y74170D01*
X-242225Y74105D01*
X-242343Y74049D01*
X-242499Y73949D01*
X-242660Y73858D01*
X-242765Y73779D01*
X-242876Y73708D01*
X-243018Y73589D01*
X-243166Y73478D01*
X-243260Y73387D01*
X-243361Y73303D01*
X-243487Y73167D01*
X-243620Y73038D01*
X-243702Y72936D01*
X-243791Y72839D01*
X-243899Y72689D01*
X-244014Y72545D01*
X-244083Y72432D01*
X-244159Y72326D01*
X-244247Y72163D01*
X-244344Y72005D01*
X-244397Y71885D01*
X-244460Y71770D01*
X-244526Y71597D01*
X-244602Y71428D01*
X-244640Y71303D01*
X-244688Y71180D01*
X-244732Y71000D01*
X-244786Y70823D01*
X-244808Y70694D01*
X-244839Y70566D01*
X-244861Y70383D01*
X-244892Y70200D01*
X-244900Y70047D01*
X-244912Y69939D01*
X-244911Y69830D01*
X-244919Y69676D01*
X-244919Y-86257D01*
X-244903Y-86507D01*
X-244894Y-86757D01*
X-244883Y-86822D01*
X-244879Y-86888D01*
X-244832Y-87134D01*
X-244791Y-87381D01*
X-244772Y-87444D01*
X-244760Y-87508D01*
X-244682Y-87747D01*
X-244610Y-87987D01*
X-244584Y-88047D01*
X-244563Y-88109D01*
X-244456Y-88336D01*
X-244355Y-88565D01*
X-244321Y-88621D01*
X-244293Y-88680D01*
X-244157Y-88892D01*
X-244028Y-89106D01*
X-243987Y-89157D01*
X-243952Y-89213D01*
X-243791Y-89405D01*
X-243636Y-89601D01*
X-243589Y-89647D01*
X-243547Y-89698D01*
X-243363Y-89868D01*
X-243184Y-90044D01*
X-243132Y-90083D01*
X-243083Y-90128D01*
X-242880Y-90274D01*
X-242680Y-90425D01*
X-242623Y-90458D01*
X-242570Y-90496D01*
X-242350Y-90615D01*
X-242132Y-90740D01*
X-242071Y-90765D01*
X-242014Y-90797D01*
X-241780Y-90887D01*
X-241549Y-90983D01*
X-241485Y-91001D01*
X-241424Y-91025D01*
X-241180Y-91085D01*
X-240939Y-91151D01*
X-240874Y-91160D01*
X-240810Y-91176D01*
X-240562Y-91205D01*
X-240313Y-91241D01*
X-240248Y-91242D01*
X-240183Y-91249D01*
X-239933Y-91247D01*
X-239681Y-91250D01*
X-239616Y-91243D01*
X-239550Y-91242D01*
X-239303Y-91208D01*
X-239053Y-91180D01*
X-238989Y-91165D01*
X-238924Y-91156D01*
X-238683Y-91091D01*
X-238439Y-91032D01*
X-238377Y-91008D01*
X-238314Y-90991D01*
X-238083Y-90896D01*
X-237848Y-90807D01*
X-237790Y-90776D01*
X-237730Y-90751D01*
X-237512Y-90627D01*
X-237291Y-90509D01*
X-237237Y-90471D01*
X-237180Y-90438D01*
X-236980Y-90288D01*
X-236775Y-90143D01*
X-236720Y-90094D01*
X-236674Y-90059D01*
X-236574Y-89962D01*
X-236385Y-89792D01*
X-236120Y-89526D01*
X-235704Y-89248D01*
X-235241Y-89057D01*
X-234750Y-88959D01*
X-231499Y-88959D01*
X-231499Y-100500D01*
X-231499Y-112041D01*
X-234750Y-112041D01*
X-235241Y-111943D01*
X-235704Y-111752D01*
X-236120Y-111474D01*
X-236385Y-111208D01*
X-236573Y-111043D01*
X-236757Y-110872D01*
X-236810Y-110834D01*
X-236859Y-110790D01*
X-237067Y-110650D01*
X-237270Y-110504D01*
X-237328Y-110473D01*
X-237382Y-110436D01*
X-237607Y-110322D01*
X-237826Y-110203D01*
X-237888Y-110180D01*
X-237946Y-110150D01*
X-238182Y-110066D01*
X-238416Y-109975D01*
X-238480Y-109960D01*
X-238542Y-109938D01*
X-238787Y-109884D01*
X-239030Y-109824D01*
X-239095Y-109816D01*
X-239159Y-109802D01*
X-239409Y-109780D01*
X-239657Y-109751D01*
X-239723Y-109751D01*
X-239789Y-109746D01*
X-240040Y-109755D01*
X-240290Y-109758D01*
X-240355Y-109767D01*
X-240420Y-109769D01*
X-240667Y-109810D01*
X-240916Y-109844D01*
X-240979Y-109861D01*
X-241044Y-109872D01*
X-241284Y-109944D01*
X-241526Y-110009D01*
X-241586Y-110034D01*
X-241650Y-110053D01*
X-241879Y-110154D01*
X-242110Y-110249D01*
X-242168Y-110282D01*
X-242228Y-110308D01*
X-242442Y-110438D01*
X-242660Y-110562D01*
X-242713Y-110601D01*
X-242769Y-110635D01*
X-242965Y-110791D01*
X-243166Y-110941D01*
X-243213Y-110986D01*
X-243264Y-111027D01*
X-243440Y-111206D01*
X-243620Y-111381D01*
X-243661Y-111432D01*
X-243707Y-111479D01*
X-243858Y-111678D01*
X-244014Y-111874D01*
X-244049Y-111931D01*
X-244088Y-111983D01*
X-244213Y-112200D01*
X-244344Y-112414D01*
X-244370Y-112474D01*
X-244403Y-112531D01*
X-244500Y-112762D01*
X-244602Y-112991D01*
X-244621Y-113054D01*
X-244646Y-113114D01*
X-244713Y-113356D01*
X-244786Y-113596D01*
X-244797Y-113660D01*
X-244814Y-113724D01*
X-244850Y-113972D01*
X-244892Y-114219D01*
X-244896Y-114292D01*
X-244904Y-114349D01*
X-244906Y-114489D01*
X-244919Y-114743D01*
X-244919Y-167054D01*
X-244903Y-167304D01*
X-244894Y-167554D01*
X-244883Y-167620D01*
X-244879Y-167685D01*
X-244832Y-167931D01*
X-244791Y-168178D01*
X-244772Y-168241D01*
X-244760Y-168306D01*
X-244682Y-168544D01*
X-244610Y-168784D01*
X-244584Y-168844D01*
X-244563Y-168906D01*
X-244456Y-169133D01*
X-244355Y-169362D01*
X-244321Y-169418D01*
X-244293Y-169478D01*
X-244157Y-169689D01*
X-244028Y-169903D01*
X-243987Y-169954D01*
X-243952Y-170010D01*
X-243791Y-170202D01*
X-243636Y-170399D01*
X-243589Y-170445D01*
X-243547Y-170495D01*
X-243363Y-170666D01*
X-243184Y-170841D01*
X-243132Y-170880D01*
X-243083Y-170925D01*
X-242880Y-171071D01*
X-242680Y-171222D01*
X-242623Y-171255D01*
X-242570Y-171293D01*
X-242350Y-171412D01*
X-242132Y-171537D01*
X-242071Y-171563D01*
X-242014Y-171594D01*
X-241780Y-171684D01*
X-241549Y-171781D01*
X-241485Y-171798D01*
X-241424Y-171822D01*
X-241181Y-171882D01*
X-240939Y-171948D01*
X-240874Y-171958D01*
X-240810Y-171973D01*
X-240562Y-172002D01*
X-240314Y-172038D01*
X-240248Y-172039D01*
X-240183Y-172046D01*
X-239933Y-172044D01*
X-239682Y-172048D01*
X-239616Y-172040D01*
X-239550Y-172040D01*
X-239303Y-172005D01*
X-239053Y-171978D01*
X-238989Y-171962D01*
X-238924Y-171953D01*
X-238683Y-171888D01*
X-238439Y-171829D01*
X-238377Y-171805D01*
X-238314Y-171788D01*
X-238083Y-171693D01*
X-237848Y-171604D01*
X-237790Y-171573D01*
X-237730Y-171548D01*
X-237511Y-171424D01*
X-237291Y-171306D01*
X-237237Y-171268D01*
X-237180Y-171236D01*
X-236980Y-171085D01*
X-236775Y-170940D01*
X-236720Y-170891D01*
X-236674Y-170856D01*
X-236574Y-170759D01*
X-236385Y-170589D01*
X-227817Y-162021D01*
X-217208Y-155896D01*
X-205375Y-152725D01*
X-193125Y-152725D01*
X-181292Y-155896D01*
X-170683Y-162021D01*
X-162021Y-170683D01*
X-155896Y-181292D01*
X-152826Y-192750D01*
X-152774Y-192905D01*
X-152731Y-193062D01*
X-152673Y-193204D01*
X-152624Y-193349D01*
X-152553Y-193496D01*
X-152491Y-193646D01*
X-152415Y-193780D01*
X-152348Y-193918D01*
X-152259Y-194054D01*
X-152178Y-194196D01*
X-152086Y-194319D01*
X-152003Y-194447D01*
X-151897Y-194571D01*
X-151799Y-194702D01*
X-151693Y-194812D01*
X-151593Y-194929D01*
X-151473Y-195039D01*
X-151359Y-195156D01*
X-151239Y-195251D01*
X-151126Y-195355D01*
X-150993Y-195448D01*
X-150866Y-195550D01*
X-150735Y-195630D01*
X-150609Y-195718D01*
X-150465Y-195795D01*
X-150326Y-195880D01*
X-150186Y-195942D01*
X-150051Y-196014D01*
X-149898Y-196071D01*
X-149749Y-196138D01*
X-149602Y-196183D01*
X-149459Y-196237D01*
X-149300Y-196274D01*
X-149144Y-196322D01*
X-148993Y-196347D01*
X-148844Y-196383D01*
X-148682Y-196400D01*
X-148521Y-196428D01*
X-148338Y-196437D01*
X-148216Y-196450D01*
X-148122Y-196449D01*
X-147997Y-196455D01*
X-100478Y-196455D01*
X-100359Y-196448D01*
G37*
G36*
X153546Y18766D02*
X153546Y18766D01*
X153753Y18764D01*
X153861Y18777D01*
X153971Y18782D01*
X154175Y18815D01*
X154380Y18840D01*
X154487Y18867D01*
X154595Y18884D01*
X154793Y18944D01*
X154993Y18994D01*
X155095Y19034D01*
X155200Y19065D01*
X155389Y19149D01*
X155582Y19224D01*
X155678Y19277D01*
X155778Y19321D01*
X155956Y19428D01*
X156137Y19527D01*
X156226Y19591D01*
X156320Y19648D01*
X156482Y19776D01*
X156649Y19897D01*
X156729Y19972D01*
X156815Y20040D01*
X156960Y20188D01*
X157111Y20329D01*
X157181Y20413D01*
X157257Y20492D01*
X157382Y20657D01*
X157514Y20816D01*
X157583Y20921D01*
X157639Y20996D01*
X157700Y21102D01*
X157800Y21256D01*
X162021Y28567D01*
X170683Y37229D01*
X181292Y43354D01*
X193125Y46525D01*
X205375Y46525D01*
X217208Y43354D01*
X227817Y37229D01*
X236385Y28661D01*
X236573Y28495D01*
X236757Y28325D01*
X236810Y28287D01*
X236859Y28243D01*
X237067Y28102D01*
X237270Y27957D01*
X237328Y27925D01*
X237383Y27888D01*
X237606Y27775D01*
X237826Y27656D01*
X237888Y27632D01*
X237946Y27603D01*
X238182Y27519D01*
X238416Y27428D01*
X238480Y27412D01*
X238542Y27390D01*
X238786Y27337D01*
X239030Y27277D01*
X239095Y27269D01*
X239159Y27255D01*
X239409Y27232D01*
X239657Y27204D01*
X239723Y27204D01*
X239789Y27198D01*
X240040Y27208D01*
X240290Y27210D01*
X240354Y27219D01*
X240420Y27222D01*
X240668Y27263D01*
X240916Y27297D01*
X240979Y27314D01*
X241044Y27325D01*
X241284Y27396D01*
X241526Y27462D01*
X241587Y27487D01*
X241650Y27505D01*
X241879Y27607D01*
X242110Y27702D01*
X242168Y27735D01*
X242228Y27761D01*
X242442Y27891D01*
X242660Y28014D01*
X242713Y28054D01*
X242769Y28088D01*
X242965Y28243D01*
X243166Y28394D01*
X243213Y28439D01*
X243265Y28480D01*
X243440Y28659D01*
X243620Y28834D01*
X243661Y28885D01*
X243707Y28932D01*
X243857Y29131D01*
X244014Y29327D01*
X244049Y29384D01*
X244088Y29436D01*
X244213Y29652D01*
X244344Y29867D01*
X244371Y29927D01*
X244403Y29984D01*
X244499Y30215D01*
X244602Y30444D01*
X244621Y30506D01*
X244647Y30567D01*
X244713Y30809D01*
X244786Y31048D01*
X244797Y31113D01*
X244814Y31177D01*
X244850Y31425D01*
X244892Y31672D01*
X244896Y31745D01*
X244904Y31802D01*
X244906Y31942D01*
X244919Y32196D01*
X244919Y200000D01*
X244912Y200115D01*
X244911Y200280D01*
X244660Y204750D01*
X244642Y204907D01*
X244633Y205065D01*
X244600Y205252D01*
X244585Y205378D01*
X244563Y205464D01*
X244543Y205582D01*
X242554Y214297D01*
X242469Y214583D01*
X242387Y214869D01*
X242379Y214888D01*
X242374Y214903D01*
X242335Y214993D01*
X242184Y215354D01*
X238305Y223408D01*
X238159Y223668D01*
X238015Y223929D01*
X238004Y223945D01*
X237996Y223959D01*
X237937Y224038D01*
X237710Y224356D01*
X232136Y231345D01*
X231936Y231566D01*
X231737Y231788D01*
X231723Y231801D01*
X231712Y231813D01*
X231637Y231877D01*
X231345Y232136D01*
X224356Y237710D01*
X224113Y237879D01*
X223868Y238053D01*
X223851Y238063D01*
X223838Y238072D01*
X223751Y238117D01*
X223408Y238305D01*
X215354Y242184D01*
X215076Y242297D01*
X214802Y242410D01*
X214783Y242416D01*
X214768Y242422D01*
X214672Y242447D01*
X214297Y242554D01*
X205582Y244543D01*
X205426Y244568D01*
X205272Y244603D01*
X205082Y244624D01*
X204958Y244644D01*
X204869Y244647D01*
X204750Y244660D01*
X200280Y244911D01*
X200165Y244911D01*
X200000Y244919D01*
X32196Y244919D01*
X31946Y244903D01*
X31696Y244894D01*
X31630Y244883D01*
X31565Y244879D01*
X31319Y244832D01*
X31072Y244791D01*
X31009Y244772D01*
X30944Y244760D01*
X30706Y244682D01*
X30466Y244610D01*
X30406Y244584D01*
X30344Y244563D01*
X30117Y244456D01*
X29888Y244355D01*
X29832Y244321D01*
X29772Y244293D01*
X29561Y244157D01*
X29347Y244028D01*
X29296Y243987D01*
X29240Y243952D01*
X29048Y243791D01*
X28851Y243636D01*
X28805Y243589D01*
X28755Y243547D01*
X28584Y243363D01*
X28409Y243184D01*
X28370Y243132D01*
X28325Y243083D01*
X28179Y242880D01*
X28028Y242680D01*
X27995Y242623D01*
X27957Y242570D01*
X27838Y242350D01*
X27713Y242132D01*
X27687Y242071D01*
X27656Y242014D01*
X27566Y241780D01*
X27469Y241549D01*
X27452Y241485D01*
X27428Y241424D01*
X27368Y241181D01*
X27302Y240939D01*
X27292Y240874D01*
X27277Y240810D01*
X27248Y240562D01*
X27212Y240314D01*
X27211Y240248D01*
X27204Y240183D01*
X27206Y239933D01*
X27202Y239682D01*
X27210Y239616D01*
X27210Y239550D01*
X27245Y239303D01*
X27272Y239053D01*
X27288Y238989D01*
X27297Y238924D01*
X27362Y238683D01*
X27421Y238439D01*
X27445Y238377D01*
X27462Y238314D01*
X27557Y238083D01*
X27646Y237848D01*
X27677Y237790D01*
X27702Y237730D01*
X27826Y237511D01*
X27944Y237291D01*
X27982Y237237D01*
X28014Y237180D01*
X28165Y236980D01*
X28310Y236775D01*
X28359Y236720D01*
X28394Y236674D01*
X28491Y236574D01*
X28661Y236385D01*
X37229Y227817D01*
X43354Y217208D01*
X46525Y205375D01*
X46525Y193125D01*
X43354Y181292D01*
X37229Y170683D01*
X28567Y162021D01*
X17958Y155896D01*
X7816Y153178D01*
X7538Y153085D01*
X7258Y152993D01*
X7238Y152983D01*
X7217Y152976D01*
X6954Y152849D01*
X6686Y152722D01*
X6668Y152710D01*
X6648Y152701D01*
X6403Y152540D01*
X6154Y152381D01*
X6137Y152367D01*
X6119Y152355D01*
X5894Y152164D01*
X5669Y151976D01*
X5654Y151960D01*
X5637Y151946D01*
X5439Y151728D01*
X5239Y151513D01*
X5226Y151495D01*
X5211Y151479D01*
X5042Y151239D01*
X4871Y150999D01*
X4860Y150980D01*
X4848Y150962D01*
X4710Y150703D01*
X4570Y150443D01*
X4562Y150423D01*
X4552Y150403D01*
X4449Y150129D01*
X4342Y149853D01*
X4337Y149832D01*
X4329Y149812D01*
X4261Y149525D01*
X4191Y149240D01*
X4188Y149218D01*
X4183Y149197D01*
X4151Y148902D01*
X4118Y148612D01*
X4118Y148590D01*
X4115Y148568D01*
X4121Y148272D01*
X4124Y147980D01*
X4127Y147958D01*
X4128Y147936D01*
X4171Y147644D01*
X4211Y147354D01*
X4216Y147333D01*
X4220Y147311D01*
X4299Y147027D01*
X4376Y146744D01*
X4384Y146723D01*
X4390Y146702D01*
X4504Y146430D01*
X4616Y146159D01*
X4627Y146140D01*
X4635Y146120D01*
X4783Y145866D01*
X4928Y145609D01*
X4942Y145592D01*
X4953Y145573D01*
X5131Y145340D01*
X5308Y145104D01*
X5323Y145088D01*
X5336Y145071D01*
X5542Y144862D01*
X5747Y144650D01*
X5765Y144636D01*
X5780Y144621D01*
X6009Y144440D01*
X6241Y144255D01*
X6260Y144244D01*
X6277Y144230D01*
X6528Y144080D01*
X6781Y143926D01*
X6801Y143917D01*
X6820Y143906D01*
X7089Y143788D01*
X7358Y143667D01*
X7379Y143661D01*
X7399Y143652D01*
X7680Y143569D01*
X7962Y143484D01*
X7984Y143480D01*
X8005Y143474D01*
X8295Y143427D01*
X8586Y143378D01*
X8610Y143377D01*
X8629Y143373D01*
X8738Y143370D01*
X9110Y143350D01*
X22383Y143350D01*
X23411Y142925D01*
X33096Y133239D01*
X33186Y133160D01*
X33269Y133075D01*
X33423Y132952D01*
X33570Y132821D01*
X33669Y132754D01*
X33762Y132680D01*
X33931Y132577D01*
X34094Y132467D01*
X34200Y132413D01*
X34302Y132351D01*
X34482Y132270D01*
X34657Y132181D01*
X34770Y132141D01*
X34879Y132092D01*
X35067Y132035D01*
X35253Y131969D01*
X35369Y131943D01*
X35484Y131908D01*
X35678Y131875D01*
X35870Y131833D01*
X35989Y131823D01*
X36107Y131803D01*
X36361Y131789D01*
X36500Y131777D01*
X36558Y131779D01*
X36631Y131775D01*
X74341Y131775D01*
X74558Y131789D01*
X74776Y131794D01*
X74874Y131809D01*
X74972Y131815D01*
X75185Y131856D01*
X75401Y131889D01*
X75496Y131916D01*
X75593Y131934D01*
X75800Y132002D01*
X76009Y132061D01*
X76100Y132100D01*
X76193Y132131D01*
X76390Y132224D01*
X76590Y132310D01*
X76675Y132359D01*
X76764Y132402D01*
X76948Y132519D01*
X77136Y132629D01*
X77214Y132689D01*
X77297Y132742D01*
X77464Y132882D01*
X77636Y133015D01*
X77706Y133084D01*
X77782Y133148D01*
X77930Y133307D01*
X78085Y133461D01*
X78145Y133539D01*
X78212Y133611D01*
X78339Y133788D01*
X78473Y133960D01*
X78523Y134045D01*
X78580Y134125D01*
X78684Y134316D01*
X78795Y134503D01*
X78834Y134594D01*
X78881Y134681D01*
X78959Y134884D01*
X79046Y135084D01*
X79073Y135178D01*
X79109Y135270D01*
X79161Y135482D01*
X79221Y135691D01*
X79237Y135788D01*
X79260Y135884D01*
X79285Y136100D01*
X79319Y136315D01*
X79322Y136414D01*
X79333Y136512D01*
X79331Y136729D01*
X79337Y136947D01*
X79328Y137045D01*
X79327Y137144D01*
X79297Y137359D01*
X79276Y137576D01*
X79254Y137672D01*
X79240Y137770D01*
X79183Y137980D01*
X79135Y138192D01*
X79097Y138299D01*
X79075Y138380D01*
X79026Y138499D01*
X78960Y138687D01*
X78526Y139734D01*
X78526Y143372D01*
X79919Y146733D01*
X93267Y160081D01*
X96628Y161474D01*
X100266Y161474D01*
X103627Y160081D01*
X106200Y157509D01*
X107592Y154148D01*
X107592Y150510D01*
X107263Y149716D01*
X107182Y149479D01*
X107095Y149244D01*
X107080Y149180D01*
X107059Y149118D01*
X107008Y148873D01*
X106951Y148629D01*
X106945Y148563D01*
X106931Y148499D01*
X106912Y148250D01*
X106887Y148000D01*
X106888Y147934D01*
X106883Y147869D01*
X106896Y147618D01*
X106902Y147368D01*
X106912Y147303D01*
X106915Y147237D01*
X106959Y146991D01*
X106996Y146743D01*
X107014Y146680D01*
X107026Y146615D01*
X107101Y146376D01*
X107169Y146135D01*
X107195Y146075D01*
X107215Y146012D01*
X107319Y145784D01*
X107417Y145554D01*
X107451Y145497D01*
X107478Y145437D01*
X107610Y145224D01*
X107737Y145008D01*
X107777Y144956D01*
X107812Y144900D01*
X107970Y144706D01*
X108123Y144508D01*
X108169Y144461D01*
X108210Y144410D01*
X108392Y144237D01*
X108569Y144060D01*
X108621Y144019D01*
X108668Y143974D01*
X108869Y143826D01*
X109067Y143671D01*
X109124Y143638D01*
X109177Y143599D01*
X109395Y143477D01*
X109611Y143349D01*
X109672Y143323D01*
X109729Y143291D01*
X109961Y143198D01*
X110191Y143098D01*
X110255Y143080D01*
X110316Y143056D01*
X110557Y142992D01*
X110799Y142923D01*
X110864Y142912D01*
X110927Y142896D01*
X111176Y142864D01*
X111423Y142825D01*
X111489Y142823D01*
X111554Y142815D01*
X111805Y142814D01*
X112055Y142807D01*
X112120Y142813D01*
X112186Y142813D01*
X112435Y142844D01*
X112684Y142869D01*
X112748Y142883D01*
X112813Y142891D01*
X113056Y142953D01*
X113300Y143009D01*
X113369Y143034D01*
X113426Y143048D01*
X113556Y143100D01*
X113795Y143184D01*
X114589Y143513D01*
X118227Y143513D01*
X121588Y142121D01*
X124160Y139548D01*
X125553Y136187D01*
X125553Y132549D01*
X125224Y131756D01*
X125143Y131519D01*
X125055Y131284D01*
X125041Y131220D01*
X125019Y131158D01*
X124969Y130912D01*
X124912Y130668D01*
X124905Y130603D01*
X124892Y130538D01*
X124873Y130289D01*
X124847Y130039D01*
X124849Y129974D01*
X124844Y129908D01*
X124856Y129658D01*
X124862Y129407D01*
X124872Y129343D01*
X124875Y129277D01*
X124919Y129030D01*
X124957Y128783D01*
X124975Y128719D01*
X124986Y128655D01*
X125061Y128415D01*
X125130Y128174D01*
X125156Y128114D01*
X125175Y128051D01*
X125280Y127823D01*
X125378Y127593D01*
X125411Y127537D01*
X125438Y127477D01*
X125571Y127264D01*
X125697Y127048D01*
X125737Y126996D01*
X125772Y126940D01*
X125930Y126746D01*
X126083Y126547D01*
X126130Y126500D01*
X126171Y126450D01*
X126352Y126277D01*
X126529Y126099D01*
X126581Y126059D01*
X126628Y126013D01*
X126830Y125865D01*
X127028Y125711D01*
X127084Y125677D01*
X127137Y125638D01*
X127356Y125517D01*
X127572Y125389D01*
X127632Y125363D01*
X127689Y125331D01*
X127922Y125237D01*
X128152Y125138D01*
X128215Y125119D01*
X128276Y125095D01*
X128518Y125032D01*
X128759Y124962D01*
X128824Y124952D01*
X128888Y124935D01*
X129136Y124903D01*
X129384Y124864D01*
X129449Y124862D01*
X129514Y124854D01*
X129765Y124853D01*
X130015Y124846D01*
X130081Y124853D01*
X130146Y124852D01*
X130395Y124884D01*
X130644Y124908D01*
X130709Y124923D01*
X130774Y124931D01*
X131016Y124993D01*
X131261Y125049D01*
X131330Y125073D01*
X131386Y125087D01*
X131516Y125139D01*
X131756Y125224D01*
X132549Y125553D01*
X136187Y125553D01*
X139548Y124160D01*
X142121Y121588D01*
X143513Y118227D01*
X143513Y114504D01*
X143475Y114393D01*
X143464Y114340D01*
X143448Y114288D01*
X143401Y114031D01*
X143348Y113774D01*
X143344Y113719D01*
X143334Y113666D01*
X143320Y113405D01*
X143300Y113144D01*
X143302Y113089D01*
X143299Y113035D01*
X143318Y112774D01*
X143331Y112512D01*
X143341Y112459D01*
X143345Y112404D01*
X143396Y112148D01*
X143442Y111890D01*
X143459Y111838D01*
X143469Y111785D01*
X143553Y111537D01*
X143631Y111287D01*
X143654Y111237D01*
X143671Y111186D01*
X143786Y110950D01*
X143894Y110712D01*
X143923Y110666D01*
X143947Y110617D01*
X144090Y110398D01*
X144228Y110175D01*
X144262Y110133D01*
X144292Y110088D01*
X144462Y109888D01*
X144627Y109685D01*
X144666Y109647D01*
X144702Y109606D01*
X144895Y109429D01*
X145084Y109249D01*
X145128Y109216D01*
X145168Y109180D01*
X145382Y109029D01*
X145593Y108874D01*
X145641Y108847D01*
X145685Y108816D01*
X145917Y108693D01*
X146145Y108566D01*
X146196Y108546D01*
X146244Y108520D01*
X146489Y108428D01*
X146732Y108330D01*
X146785Y108317D01*
X146835Y108298D01*
X147090Y108237D01*
X147344Y108171D01*
X147397Y108164D01*
X147450Y108151D01*
X147711Y108123D01*
X147970Y108089D01*
X148025Y108089D01*
X148079Y108083D01*
X148341Y108089D01*
X148602Y108088D01*
X148656Y108095D01*
X148711Y108096D01*
X148970Y108134D01*
X149230Y108166D01*
X149282Y108180D01*
X149336Y108188D01*
X149835Y108321D01*
X149842Y108323D01*
X149843Y108323D01*
X149950Y108358D01*
X151529Y108608D01*
X153129Y108608D01*
X154708Y108358D01*
X155056Y108245D01*
X143406Y96595D01*
X143406Y96594D01*
X143405Y96594D01*
X131755Y84944D01*
X131642Y85292D01*
X131392Y86871D01*
X131392Y88471D01*
X131642Y90050D01*
X131677Y90157D01*
X131690Y90209D01*
X131709Y90260D01*
X131769Y90515D01*
X131834Y90769D01*
X131840Y90823D01*
X131853Y90876D01*
X131880Y91137D01*
X131912Y91396D01*
X131912Y91450D01*
X131917Y91505D01*
X131911Y91766D01*
X131911Y92028D01*
X131904Y92082D01*
X131902Y92136D01*
X131863Y92395D01*
X131830Y92655D01*
X131816Y92708D01*
X131808Y92761D01*
X131736Y93013D01*
X131670Y93267D01*
X131650Y93317D01*
X131635Y93369D01*
X131532Y93610D01*
X131435Y93853D01*
X131408Y93901D01*
X131387Y93951D01*
X131255Y94176D01*
X131127Y94405D01*
X131095Y94449D01*
X131067Y94496D01*
X130908Y94703D01*
X130752Y94914D01*
X130715Y94954D01*
X130681Y94997D01*
X130497Y95182D01*
X130316Y95372D01*
X130274Y95406D01*
X130236Y95445D01*
X130029Y95606D01*
X129826Y95771D01*
X129780Y95800D01*
X129737Y95833D01*
X129512Y95966D01*
X129289Y96105D01*
X129239Y96128D01*
X129193Y96155D01*
X128953Y96259D01*
X128715Y96368D01*
X128663Y96385D01*
X128613Y96406D01*
X128361Y96479D01*
X128111Y96557D01*
X128058Y96567D01*
X128006Y96582D01*
X127747Y96622D01*
X127489Y96669D01*
X127435Y96671D01*
X127381Y96680D01*
X127120Y96687D01*
X126858Y96700D01*
X126803Y96696D01*
X126749Y96698D01*
X126489Y96672D01*
X126228Y96652D01*
X126174Y96641D01*
X126120Y96636D01*
X125865Y96578D01*
X125608Y96525D01*
X125557Y96508D01*
X125504Y96495D01*
X125480Y96487D01*
X121477Y96487D01*
X121417Y96495D01*
X121257Y96528D01*
X121105Y96540D01*
X120954Y96562D01*
X120790Y96564D01*
X120627Y96577D01*
X120475Y96569D01*
X120322Y96571D01*
X120159Y96553D01*
X119995Y96545D01*
X119846Y96518D01*
X119694Y96501D01*
X119534Y96463D01*
X119373Y96434D01*
X119228Y96389D01*
X119080Y96353D01*
X118926Y96294D01*
X118770Y96245D01*
X118631Y96182D01*
X118489Y96128D01*
X118345Y96050D01*
X118195Y95982D01*
X118066Y95901D01*
X117932Y95830D01*
X117798Y95735D01*
X117658Y95648D01*
X117540Y95552D01*
X117416Y95464D01*
X117268Y95331D01*
X117168Y95250D01*
X117109Y95188D01*
X117026Y95113D01*
X98827Y76914D01*
X97338Y75425D01*
X96310Y74999D01*
X82071Y74999D01*
X81952Y74992D01*
X81833Y74994D01*
X81637Y74972D01*
X81440Y74959D01*
X81323Y74937D01*
X81204Y74924D01*
X81013Y74877D01*
X80819Y74840D01*
X80706Y74803D01*
X80590Y74775D01*
X80406Y74705D01*
X80219Y74643D01*
X80111Y74592D01*
X79999Y74550D01*
X79826Y74457D01*
X79648Y74373D01*
X79547Y74308D01*
X79442Y74252D01*
X79281Y74138D01*
X79115Y74032D01*
X79023Y73955D01*
X78926Y73886D01*
X78738Y73716D01*
X78630Y73627D01*
X78591Y73584D01*
X78536Y73535D01*
X60232Y55231D01*
X59205Y54805D01*
X39781Y54805D01*
X39662Y54798D01*
X39542Y54800D01*
X39346Y54778D01*
X39150Y54765D01*
X39033Y54743D01*
X38914Y54730D01*
X38723Y54683D01*
X38529Y54646D01*
X38416Y54609D01*
X38300Y54581D01*
X38116Y54511D01*
X37929Y54449D01*
X37821Y54398D01*
X37709Y54356D01*
X37536Y54263D01*
X37357Y54179D01*
X37257Y54114D01*
X37152Y54058D01*
X36991Y53944D01*
X36825Y53838D01*
X36733Y53761D01*
X36636Y53692D01*
X36447Y53522D01*
X36340Y53433D01*
X36301Y53390D01*
X36246Y53341D01*
X36006Y53101D01*
X35405Y52852D01*
X35268Y52785D01*
X35128Y52727D01*
X34985Y52646D01*
X34837Y52574D01*
X34710Y52490D01*
X34578Y52415D01*
X34447Y52316D01*
X34309Y52226D01*
X34194Y52127D01*
X34072Y52036D01*
X33954Y51921D01*
X33830Y51815D01*
X33728Y51702D01*
X33618Y51596D01*
X33516Y51467D01*
X33406Y51346D01*
X33319Y51221D01*
X33224Y51102D01*
X33138Y50962D01*
X33044Y50827D01*
X32974Y50693D01*
X32894Y50563D01*
X32827Y50412D01*
X32751Y50267D01*
X32698Y50125D01*
X32636Y49986D01*
X32588Y49829D01*
X32531Y49675D01*
X32496Y49526D01*
X32452Y49381D01*
X32425Y49219D01*
X32387Y49059D01*
X32372Y48908D01*
X32346Y48758D01*
X32336Y48559D01*
X32323Y48430D01*
X32325Y48346D01*
X32319Y48233D01*
X32319Y37318D01*
X32330Y37133D01*
X32332Y36948D01*
X32350Y36818D01*
X32359Y36687D01*
X32394Y36506D01*
X32419Y36322D01*
X32453Y36196D01*
X32478Y36066D01*
X32536Y35890D01*
X32584Y35712D01*
X32634Y35591D01*
X32675Y35466D01*
X32754Y35298D01*
X32824Y35128D01*
X32889Y35013D01*
X32945Y34895D01*
X33045Y34739D01*
X33136Y34578D01*
X33215Y34473D01*
X33286Y34362D01*
X33405Y34220D01*
X33516Y34072D01*
X33607Y33978D01*
X33691Y33877D01*
X33827Y33751D01*
X33956Y33618D01*
X34058Y33536D01*
X34155Y33447D01*
X34305Y33339D01*
X34449Y33224D01*
X34562Y33155D01*
X34668Y33079D01*
X34831Y32991D01*
X34989Y32894D01*
X35109Y32841D01*
X35224Y32778D01*
X35397Y32712D01*
X35566Y32636D01*
X35691Y32598D01*
X35814Y32550D01*
X35994Y32506D01*
X36171Y32452D01*
X36300Y32430D01*
X36428Y32399D01*
X36611Y32377D01*
X36794Y32346D01*
X36947Y32338D01*
X37055Y32326D01*
X37164Y32327D01*
X37318Y32319D01*
X49579Y32319D01*
X50160Y32078D01*
X50294Y31971D01*
X50442Y31841D01*
X50540Y31774D01*
X50634Y31700D01*
X50802Y31597D01*
X50965Y31487D01*
X51071Y31433D01*
X51173Y31370D01*
X51353Y31290D01*
X51529Y31201D01*
X51641Y31161D01*
X51750Y31112D01*
X51939Y31055D01*
X52124Y30988D01*
X52241Y30963D01*
X52355Y30928D01*
X52549Y30895D01*
X52741Y30853D01*
X52860Y30842D01*
X52978Y30822D01*
X53232Y30809D01*
X53371Y30796D01*
X53429Y30799D01*
X53502Y30795D01*
X70056Y30795D01*
X70996Y30405D01*
X71078Y30377D01*
X71157Y30342D01*
X71377Y30275D01*
X71594Y30201D01*
X71679Y30183D01*
X71762Y30158D01*
X71989Y30120D01*
X72213Y30073D01*
X72299Y30067D01*
X72385Y30052D01*
X72718Y30035D01*
X72844Y30025D01*
X72873Y30027D01*
X72909Y30025D01*
X85303Y30025D01*
X85864Y29793D01*
X86465Y29191D01*
X86604Y29069D01*
X86736Y28940D01*
X86841Y28860D01*
X86939Y28774D01*
X87092Y28670D01*
X87240Y28558D01*
X87354Y28493D01*
X87462Y28419D01*
X87628Y28335D01*
X87788Y28243D01*
X87909Y28192D01*
X88026Y28133D01*
X88201Y28071D01*
X88371Y28000D01*
X88498Y27965D01*
X88622Y27921D01*
X88802Y27881D01*
X88981Y27832D01*
X89111Y27813D01*
X89239Y27785D01*
X89423Y27769D01*
X89606Y27743D01*
X89738Y27741D01*
X89869Y27729D01*
X90053Y27736D01*
X90238Y27733D01*
X90369Y27747D01*
X90500Y27752D01*
X90683Y27782D01*
X90867Y27803D01*
X90995Y27834D01*
X91124Y27855D01*
X91301Y27908D01*
X91481Y27951D01*
X91604Y27998D01*
X91730Y28036D01*
X91899Y28111D01*
X92072Y28177D01*
X92188Y28238D01*
X92308Y28292D01*
X92466Y28387D01*
X92629Y28474D01*
X92736Y28550D01*
X92849Y28618D01*
X92994Y28733D01*
X93145Y28840D01*
X93259Y28943D01*
X93344Y29011D01*
X93421Y29088D01*
X93535Y29191D01*
X94136Y29793D01*
X94697Y30025D01*
X107303Y30025D01*
X107864Y29793D01*
X108293Y29364D01*
X108525Y28803D01*
X108525Y25648D01*
X108541Y25398D01*
X108550Y25147D01*
X108561Y25082D01*
X108565Y25017D01*
X108612Y24771D01*
X108653Y24523D01*
X108672Y24460D01*
X108684Y24396D01*
X108762Y24158D01*
X108834Y23918D01*
X108860Y23858D01*
X108881Y23795D01*
X108988Y23569D01*
X109089Y23340D01*
X109123Y23283D01*
X109151Y23224D01*
X109286Y23013D01*
X109416Y22799D01*
X109457Y22747D01*
X109492Y22692D01*
X109653Y22499D01*
X109808Y22303D01*
X109855Y22257D01*
X109897Y22207D01*
X110081Y22036D01*
X110260Y21861D01*
X110312Y21821D01*
X110361Y21776D01*
X110564Y21631D01*
X110764Y21479D01*
X110821Y21446D01*
X110874Y21408D01*
X111095Y21289D01*
X111312Y21164D01*
X111373Y21139D01*
X111430Y21108D01*
X111664Y21018D01*
X111895Y20921D01*
X111959Y20904D01*
X112020Y20880D01*
X112263Y20820D01*
X112505Y20753D01*
X112570Y20744D01*
X112634Y20728D01*
X112882Y20699D01*
X113130Y20664D01*
X113196Y20663D01*
X113261Y20655D01*
X113511Y20658D01*
X113762Y20654D01*
X113828Y20661D01*
X113894Y20662D01*
X114142Y20696D01*
X114391Y20724D01*
X114454Y20739D01*
X114520Y20748D01*
X114762Y20814D01*
X115005Y20873D01*
X115066Y20896D01*
X115130Y20913D01*
X115361Y21008D01*
X115596Y21098D01*
X115654Y21129D01*
X115714Y21154D01*
X115932Y21277D01*
X116153Y21396D01*
X116207Y21434D01*
X116264Y21466D01*
X116464Y21616D01*
X116669Y21761D01*
X116724Y21811D01*
X116770Y21845D01*
X116870Y21943D01*
X117059Y22113D01*
X117945Y22999D01*
X118789Y23348D01*
X119014Y23459D01*
X119242Y23563D01*
X119298Y23598D01*
X119357Y23627D01*
X119566Y23765D01*
X119779Y23897D01*
X119830Y23938D01*
X119885Y23975D01*
X120075Y24138D01*
X120269Y24296D01*
X120315Y24343D01*
X120365Y24386D01*
X120533Y24572D01*
X120706Y24753D01*
X120745Y24806D01*
X120789Y24855D01*
X120932Y25060D01*
X121081Y25262D01*
X121113Y25320D01*
X121150Y25373D01*
X121266Y25595D01*
X121388Y25814D01*
X121413Y25875D01*
X121443Y25933D01*
X121531Y26169D01*
X121624Y26401D01*
X121640Y26464D01*
X121663Y26526D01*
X121720Y26771D01*
X121784Y27012D01*
X121792Y27077D01*
X121807Y27142D01*
X121833Y27391D01*
X121865Y27639D01*
X121865Y27705D01*
X121872Y27770D01*
X121866Y28020D01*
X121866Y28271D01*
X121858Y28337D01*
X121857Y28402D01*
X121819Y28649D01*
X121788Y28899D01*
X121772Y28962D01*
X121762Y29027D01*
X121694Y29268D01*
X121631Y29511D01*
X121607Y29572D01*
X121589Y29635D01*
X121491Y29865D01*
X121398Y30099D01*
X121367Y30156D01*
X121341Y30217D01*
X121214Y30433D01*
X121093Y30652D01*
X121055Y30705D01*
X121021Y30762D01*
X120869Y30960D01*
X120721Y31163D01*
X120676Y31211D01*
X120636Y31263D01*
X120459Y31440D01*
X120287Y31622D01*
X120236Y31664D01*
X120190Y31711D01*
X119992Y31864D01*
X119798Y32024D01*
X119743Y32059D01*
X119691Y32099D01*
X119476Y32226D01*
X119263Y32360D01*
X119197Y32392D01*
X119147Y32421D01*
X119019Y32476D01*
X119019Y32477D01*
X117501Y33994D01*
X116693Y35944D01*
X116693Y38056D01*
X117501Y40006D01*
X118994Y41499D01*
X121078Y42362D01*
X121083Y42363D01*
X121169Y42371D01*
X121393Y42423D01*
X121619Y42466D01*
X121701Y42493D01*
X121785Y42512D01*
X122099Y42623D01*
X122219Y42663D01*
X122246Y42675D01*
X122280Y42687D01*
X123191Y43065D01*
X124476Y43065D01*
X124661Y43076D01*
X124846Y43078D01*
X124976Y43096D01*
X125107Y43105D01*
X125288Y43140D01*
X125472Y43165D01*
X125598Y43199D01*
X125728Y43224D01*
X125904Y43282D01*
X126082Y43330D01*
X126203Y43380D01*
X126328Y43421D01*
X126496Y43500D01*
X126666Y43570D01*
X126781Y43635D01*
X126899Y43691D01*
X127055Y43791D01*
X127216Y43882D01*
X127321Y43961D01*
X127432Y44032D01*
X127574Y44151D01*
X127722Y44262D01*
X127816Y44353D01*
X127917Y44437D01*
X128043Y44573D01*
X128176Y44702D01*
X128258Y44804D01*
X128347Y44901D01*
X128455Y45051D01*
X128570Y45195D01*
X128639Y45308D01*
X128715Y45414D01*
X128803Y45577D01*
X128900Y45735D01*
X128953Y45855D01*
X129016Y45970D01*
X129082Y46143D01*
X129158Y46312D01*
X129196Y46437D01*
X129244Y46560D01*
X129288Y46740D01*
X129342Y46917D01*
X129360Y47026D01*
X129707Y47864D01*
X130136Y48293D01*
X130697Y48525D01*
X149303Y48525D01*
X149864Y48293D01*
X150293Y47864D01*
X150525Y47303D01*
X150525Y30697D01*
X150293Y30136D01*
X149864Y29707D01*
X149650Y29619D01*
X149424Y29508D01*
X149197Y29404D01*
X149141Y29369D01*
X149082Y29340D01*
X148874Y29203D01*
X148660Y29070D01*
X148609Y29029D01*
X148554Y28993D01*
X148365Y28830D01*
X148170Y28671D01*
X148124Y28624D01*
X148074Y28581D01*
X147906Y28395D01*
X147733Y28214D01*
X147695Y28161D01*
X147650Y28112D01*
X147507Y27906D01*
X147358Y27705D01*
X147327Y27648D01*
X147289Y27594D01*
X147173Y27372D01*
X147051Y27153D01*
X147026Y27092D01*
X146996Y27034D01*
X146909Y26799D01*
X146815Y26566D01*
X146799Y26503D01*
X146776Y26441D01*
X146719Y26197D01*
X146655Y25955D01*
X146647Y25890D01*
X146632Y25826D01*
X146606Y25576D01*
X146574Y25328D01*
X146574Y25262D01*
X146567Y25197D01*
X146573Y24946D01*
X146573Y24696D01*
X146581Y24630D01*
X146582Y24565D01*
X146620Y24318D01*
X146651Y24069D01*
X146667Y24005D01*
X146677Y23940D01*
X146746Y23699D01*
X146808Y23456D01*
X146832Y23395D01*
X146850Y23332D01*
X146948Y23101D01*
X147041Y22869D01*
X147072Y22811D01*
X147098Y22751D01*
X147225Y22534D01*
X147346Y22315D01*
X147384Y22262D01*
X147418Y22205D01*
X147571Y22006D01*
X147718Y21804D01*
X147763Y21757D01*
X147803Y21705D01*
X147980Y21527D01*
X148152Y21345D01*
X148203Y21303D01*
X148249Y21257D01*
X148447Y21102D01*
X148641Y20944D01*
X148696Y20909D01*
X148748Y20868D01*
X148963Y20741D01*
X149176Y20607D01*
X149242Y20576D01*
X149292Y20546D01*
X149420Y20491D01*
X149650Y20381D01*
X149864Y20293D01*
X149936Y20221D01*
X150091Y20084D01*
X150240Y19941D01*
X150328Y19875D01*
X150410Y19803D01*
X150581Y19687D01*
X150747Y19563D01*
X150842Y19510D01*
X150933Y19448D01*
X151118Y19355D01*
X151298Y19253D01*
X151399Y19212D01*
X151497Y19163D01*
X151692Y19093D01*
X151883Y19015D01*
X151989Y18987D01*
X152092Y18950D01*
X152294Y18906D01*
X152494Y18853D01*
X152603Y18838D01*
X152710Y18815D01*
X152916Y18796D01*
X153121Y18769D01*
X153230Y18768D01*
X153339Y18758D01*
X153546Y18766D01*
G37*
G36*
X-3609Y-35040D02*
X-3609Y-35040D01*
X-3424Y-35038D01*
X-3294Y-35020D01*
X-3163Y-35011D01*
X-2982Y-34976D01*
X-2798Y-34951D01*
X-2672Y-34917D01*
X-2542Y-34892D01*
X-2366Y-34834D01*
X-2188Y-34786D01*
X-2067Y-34736D01*
X-1942Y-34695D01*
X-1774Y-34616D01*
X-1604Y-34546D01*
X-1489Y-34481D01*
X-1371Y-34425D01*
X-1215Y-34325D01*
X-1054Y-34234D01*
X-949Y-34155D01*
X-838Y-34084D01*
X-696Y-33965D01*
X-548Y-33854D01*
X-454Y-33763D01*
X-353Y-33679D01*
X-227Y-33543D01*
X-94Y-33414D01*
X-12Y-33312D01*
X77Y-33215D01*
X185Y-33065D01*
X300Y-32921D01*
X369Y-32808D01*
X445Y-32702D01*
X533Y-32539D01*
X630Y-32381D01*
X683Y-32261D01*
X746Y-32146D01*
X812Y-31973D01*
X888Y-31804D01*
X926Y-31679D01*
X974Y-31556D01*
X1018Y-31376D01*
X1072Y-31199D01*
X1094Y-31070D01*
X1125Y-30942D01*
X1147Y-30759D01*
X1178Y-30576D01*
X1186Y-30423D01*
X1198Y-30315D01*
X1197Y-30206D01*
X1205Y-30052D01*
X1205Y16556D01*
X1631Y17583D01*
X10565Y26517D01*
X10730Y26705D01*
X10901Y26889D01*
X10939Y26942D01*
X10982Y26991D01*
X11123Y27199D01*
X11269Y27402D01*
X11300Y27460D01*
X11337Y27515D01*
X11451Y27739D01*
X11569Y27958D01*
X11593Y28020D01*
X11623Y28078D01*
X11707Y28314D01*
X11797Y28548D01*
X11813Y28612D01*
X11835Y28674D01*
X11889Y28918D01*
X11949Y29162D01*
X11957Y29227D01*
X11971Y29291D01*
X11993Y29541D01*
X12022Y29789D01*
X12021Y29855D01*
X12027Y29921D01*
X12018Y30172D01*
X12015Y30422D01*
X12006Y30486D01*
X12004Y30552D01*
X11963Y30800D01*
X11929Y31048D01*
X11912Y31111D01*
X11901Y31176D01*
X11829Y31416D01*
X11764Y31658D01*
X11739Y31719D01*
X11720Y31782D01*
X11619Y32011D01*
X11523Y32242D01*
X11491Y32300D01*
X11464Y32360D01*
X11335Y32574D01*
X11211Y32792D01*
X11172Y32845D01*
X11138Y32901D01*
X10982Y33098D01*
X10832Y33298D01*
X10786Y33345D01*
X10745Y33397D01*
X10567Y33572D01*
X10392Y33752D01*
X10341Y33793D01*
X10294Y33839D01*
X10094Y33990D01*
X9898Y34146D01*
X9842Y34181D01*
X9790Y34220D01*
X9573Y34345D01*
X9359Y34476D01*
X9299Y34502D01*
X9242Y34535D01*
X9010Y34632D01*
X8782Y34734D01*
X8719Y34753D01*
X8658Y34779D01*
X8417Y34845D01*
X8177Y34918D01*
X8112Y34929D01*
X8049Y34946D01*
X7801Y34982D01*
X7554Y35024D01*
X7481Y35028D01*
X7423Y35036D01*
X7283Y35038D01*
X7030Y35051D01*
X-30052Y35051D01*
X-30237Y35040D01*
X-30422Y35038D01*
X-30552Y35020D01*
X-30683Y35011D01*
X-30864Y34976D01*
X-31048Y34951D01*
X-31174Y34917D01*
X-31304Y34892D01*
X-31480Y34834D01*
X-31658Y34786D01*
X-31779Y34736D01*
X-31904Y34695D01*
X-32072Y34616D01*
X-32242Y34546D01*
X-32357Y34481D01*
X-32475Y34425D01*
X-32631Y34325D01*
X-32792Y34234D01*
X-32897Y34155D01*
X-33008Y34084D01*
X-33150Y33965D01*
X-33298Y33854D01*
X-33392Y33763D01*
X-33493Y33679D01*
X-33619Y33543D01*
X-33752Y33414D01*
X-33834Y33312D01*
X-33923Y33215D01*
X-34031Y33065D01*
X-34146Y32921D01*
X-34215Y32808D01*
X-34291Y32702D01*
X-34379Y32539D01*
X-34476Y32381D01*
X-34529Y32261D01*
X-34592Y32146D01*
X-34658Y31973D01*
X-34734Y31804D01*
X-34772Y31679D01*
X-34820Y31556D01*
X-34864Y31376D01*
X-34918Y31199D01*
X-34940Y31070D01*
X-34971Y30942D01*
X-34993Y30759D01*
X-35024Y30576D01*
X-35032Y30423D01*
X-35044Y30315D01*
X-35043Y30206D01*
X-35051Y30052D01*
X-35051Y26602D01*
X-35035Y26341D01*
X-35024Y26080D01*
X-35015Y26026D01*
X-35011Y25971D01*
X-34962Y25714D01*
X-34918Y25457D01*
X-34903Y25405D01*
X-34892Y25350D01*
X-34811Y25101D01*
X-34735Y24852D01*
X-34713Y24802D01*
X-34695Y24749D01*
X-34603Y24555D01*
X-34699Y24516D01*
X-34780Y24472D01*
X-34863Y24435D01*
X-34919Y24401D01*
X-34979Y24373D01*
X-35113Y24287D01*
X-35252Y24210D01*
X-35337Y24149D01*
X-35405Y24108D01*
X-35456Y24067D01*
X-35511Y24032D01*
X-35581Y23974D01*
X-35679Y23904D01*
X-35786Y23806D01*
X-35900Y23716D01*
X-35946Y23669D01*
X-35996Y23627D01*
X-36068Y23550D01*
X-36146Y23478D01*
X-36241Y23368D01*
X-36342Y23264D01*
X-36382Y23211D01*
X-36427Y23164D01*
X-36488Y23078D01*
X-36557Y22998D01*
X-36636Y22876D01*
X-36724Y22760D01*
X-36757Y22702D01*
X-36795Y22650D01*
X-36845Y22558D01*
X-36903Y22469D01*
X-36966Y22338D01*
X-37039Y22212D01*
X-37065Y22151D01*
X-37095Y22094D01*
X-37133Y21996D01*
X-37180Y21901D01*
X-37226Y21763D01*
X-37282Y21629D01*
X-37300Y21564D01*
X-37323Y21504D01*
X-37348Y21403D01*
X-37382Y21302D01*
X-37411Y21159D01*
X-37450Y21019D01*
X-37459Y20953D01*
X-37475Y20891D01*
X-37487Y20788D01*
X-37508Y20682D01*
X-37519Y20538D01*
X-37539Y20394D01*
X-37540Y20326D01*
X-37548Y20263D01*
X-37547Y20159D01*
X-37555Y20052D01*
X-37547Y19907D01*
X-37549Y19762D01*
X-37542Y19695D01*
X-37541Y19631D01*
X-37538Y19607D01*
X-37527Y19528D01*
X-37521Y19421D01*
X-37495Y19278D01*
X-37479Y19133D01*
X-37463Y19068D01*
X-37455Y19004D01*
X-37428Y18904D01*
X-37409Y18799D01*
X-37365Y18660D01*
X-37331Y18519D01*
X-37307Y18456D01*
X-37290Y18394D01*
X-37250Y18298D01*
X-37218Y18196D01*
X-37157Y18064D01*
X-37105Y17928D01*
X-37074Y17870D01*
X-37049Y17809D01*
X-36998Y17719D01*
X-36953Y17622D01*
X-36876Y17499D01*
X-36808Y17371D01*
X-36769Y17317D01*
X-36737Y17260D01*
X-36674Y17176D01*
X-36618Y17086D01*
X-36526Y16974D01*
X-36442Y16855D01*
X-36392Y16800D01*
X-36358Y16754D01*
X-36285Y16679D01*
X-36218Y16597D01*
X-36160Y16542D01*
X-36091Y16465D01*
X-36001Y16386D01*
X-35918Y16300D01*
X-35835Y16234D01*
X-35759Y16162D01*
X-35685Y16108D01*
X-35616Y16047D01*
X-35517Y15980D01*
X-35424Y15906D01*
X-35334Y15850D01*
X-35249Y15789D01*
X-35170Y15744D01*
X-35093Y15692D01*
X-34986Y15638D01*
X-34885Y15576D01*
X-34787Y15533D01*
X-34696Y15482D01*
X-34612Y15449D01*
X-34604Y15444D01*
X-34627Y15389D01*
X-34734Y15151D01*
X-34750Y15098D01*
X-34772Y15047D01*
X-34842Y14796D01*
X-34918Y14546D01*
X-34927Y14491D01*
X-34942Y14438D01*
X-34980Y14180D01*
X-35024Y13923D01*
X-35027Y13861D01*
X-35034Y13813D01*
X-35037Y13673D01*
X-35051Y13398D01*
X-35051Y-16756D01*
X-35044Y-16875D01*
X-35046Y-16995D01*
X-35024Y-17191D01*
X-35011Y-17387D01*
X-34989Y-17504D01*
X-34976Y-17623D01*
X-34929Y-17814D01*
X-34892Y-18008D01*
X-34855Y-18121D01*
X-34827Y-18237D01*
X-34757Y-18421D01*
X-34695Y-18609D01*
X-34644Y-18717D01*
X-34602Y-18828D01*
X-34509Y-19001D01*
X-34425Y-19180D01*
X-34360Y-19280D01*
X-34304Y-19386D01*
X-34190Y-19546D01*
X-34084Y-19712D01*
X-34007Y-19804D01*
X-33938Y-19901D01*
X-33768Y-20090D01*
X-33679Y-20197D01*
X-33636Y-20237D01*
X-33587Y-20291D01*
X-31413Y-22466D01*
X-30987Y-23493D01*
X-30987Y-30052D01*
X-30976Y-30237D01*
X-30974Y-30422D01*
X-30956Y-30552D01*
X-30947Y-30683D01*
X-30912Y-30864D01*
X-30887Y-31048D01*
X-30853Y-31174D01*
X-30828Y-31304D01*
X-30770Y-31480D01*
X-30722Y-31658D01*
X-30672Y-31779D01*
X-30631Y-31904D01*
X-30552Y-32072D01*
X-30482Y-32242D01*
X-30417Y-32357D01*
X-30361Y-32475D01*
X-30261Y-32631D01*
X-30170Y-32792D01*
X-30091Y-32897D01*
X-30020Y-33008D01*
X-29901Y-33150D01*
X-29790Y-33298D01*
X-29699Y-33392D01*
X-29615Y-33493D01*
X-29479Y-33619D01*
X-29350Y-33752D01*
X-29248Y-33834D01*
X-29151Y-33923D01*
X-29001Y-34031D01*
X-28857Y-34146D01*
X-28744Y-34215D01*
X-28638Y-34291D01*
X-28475Y-34379D01*
X-28317Y-34476D01*
X-28197Y-34529D01*
X-28082Y-34592D01*
X-27909Y-34658D01*
X-27740Y-34734D01*
X-27615Y-34772D01*
X-27492Y-34820D01*
X-27312Y-34864D01*
X-27135Y-34918D01*
X-27006Y-34940D01*
X-26878Y-34971D01*
X-26695Y-34993D01*
X-26512Y-35024D01*
X-26359Y-35032D01*
X-26251Y-35044D01*
X-26142Y-35043D01*
X-25988Y-35051D01*
X-3794Y-35051D01*
X-3609Y-35040D01*
G37*
%LPC*%
G36*
X-177248Y29469D02*
X-177248Y29469D01*
X-182673Y30923D01*
X-187537Y33731D01*
X-191509Y37703D01*
X-194317Y42567D01*
X-195771Y47992D01*
X-195771Y53608D01*
X-194317Y59033D01*
X-191509Y63897D01*
X-187537Y67869D01*
X-182673Y70677D01*
X-177248Y72131D01*
X-171632Y72131D01*
X-166207Y70677D01*
X-161343Y67869D01*
X-157371Y63897D01*
X-154563Y59033D01*
X-153109Y53608D01*
X-153109Y47992D01*
X-154563Y42567D01*
X-157371Y37703D01*
X-161343Y33731D01*
X-166207Y30923D01*
X-171632Y29469D01*
X-177248Y29469D01*
G37*
%LPD*%
%LPC*%
G36*
X-177248Y-72131D02*
X-177248Y-72131D01*
X-182673Y-70677D01*
X-187537Y-67869D01*
X-191509Y-63897D01*
X-194317Y-59033D01*
X-195771Y-53608D01*
X-195771Y-47992D01*
X-194317Y-42567D01*
X-191509Y-37703D01*
X-187537Y-33731D01*
X-182673Y-30923D01*
X-177248Y-29469D01*
X-171632Y-29469D01*
X-166207Y-30923D01*
X-161343Y-33731D01*
X-157371Y-37703D01*
X-154563Y-42567D01*
X-153109Y-47992D01*
X-153109Y-53608D01*
X-154563Y-59033D01*
X-157371Y-63897D01*
X-161343Y-67869D01*
X-166207Y-70677D01*
X-171632Y-72131D01*
X-177248Y-72131D01*
G37*
%LPD*%
G36*
X29188Y5364D02*
X29188Y5364D01*
X29406Y5366D01*
X29503Y5380D01*
X29602Y5384D01*
X29816Y5423D01*
X30032Y5453D01*
X30127Y5478D01*
X30224Y5496D01*
X30432Y5561D01*
X30642Y5617D01*
X30733Y5655D01*
X30827Y5684D01*
X31025Y5775D01*
X31226Y5858D01*
X31312Y5906D01*
X31402Y5948D01*
X31587Y6063D01*
X31776Y6170D01*
X31855Y6229D01*
X31939Y6281D01*
X32108Y6419D01*
X32282Y6549D01*
X32353Y6618D01*
X32429Y6680D01*
X32579Y6838D01*
X32736Y6989D01*
X32755Y7013D01*
X32764Y7014D01*
X32973Y7018D01*
X33016Y7024D01*
X33056Y7026D01*
X33120Y7036D01*
X33186Y7041D01*
X33391Y7080D01*
X33598Y7111D01*
X33639Y7122D01*
X33680Y7129D01*
X33741Y7147D01*
X33807Y7160D01*
X34006Y7225D01*
X34207Y7281D01*
X34246Y7298D01*
X34285Y7310D01*
X34345Y7336D01*
X34408Y7356D01*
X34597Y7446D01*
X34789Y7527D01*
X34826Y7549D01*
X34863Y7565D01*
X34919Y7599D01*
X34979Y7627D01*
X35155Y7740D01*
X35336Y7845D01*
X35373Y7873D01*
X35405Y7892D01*
X35456Y7933D01*
X35511Y7968D01*
X35607Y8048D01*
X35756Y8159D01*
X35825Y8225D01*
X35900Y8284D01*
X35946Y8331D01*
X35996Y8373D01*
X36102Y8487D01*
X36215Y8594D01*
X36276Y8668D01*
X36342Y8736D01*
X36382Y8789D01*
X36427Y8836D01*
X36517Y8962D01*
X36616Y9083D01*
X36666Y9164D01*
X36724Y9240D01*
X36757Y9298D01*
X36795Y9350D01*
X36868Y9486D01*
X36951Y9619D01*
X36991Y9705D01*
X37039Y9788D01*
X37065Y9850D01*
X37095Y9906D01*
X37151Y10049D01*
X37217Y10192D01*
X37246Y10283D01*
X37282Y10371D01*
X37300Y10436D01*
X37323Y10496D01*
X37360Y10644D01*
X37408Y10795D01*
X37425Y10889D01*
X37450Y10981D01*
X37459Y11047D01*
X37475Y11109D01*
X37492Y11261D01*
X37521Y11417D01*
X37526Y11512D01*
X37539Y11606D01*
X37541Y11674D01*
X37548Y11737D01*
X37548Y11738D01*
X37546Y11890D01*
X37555Y12048D01*
X37548Y12143D01*
X37549Y12238D01*
X37542Y12305D01*
X37541Y12370D01*
X37520Y12521D01*
X37509Y12678D01*
X37490Y12772D01*
X37479Y12867D01*
X37463Y12932D01*
X37455Y12996D01*
X37415Y13144D01*
X37384Y13298D01*
X37353Y13388D01*
X37331Y13481D01*
X37307Y13544D01*
X37290Y13606D01*
X37231Y13748D01*
X37181Y13897D01*
X37139Y13983D01*
X37105Y14072D01*
X37074Y14130D01*
X37049Y14191D01*
X36973Y14325D01*
X36905Y14465D01*
X36853Y14545D01*
X36808Y14629D01*
X36769Y14683D01*
X36737Y14740D01*
X36644Y14864D01*
X36559Y14994D01*
X36497Y15067D01*
X36442Y15145D01*
X36393Y15200D01*
X36358Y15246D01*
X36261Y15346D01*
X36236Y15373D01*
X36149Y15476D01*
X36122Y15501D01*
X36091Y15535D01*
X36001Y15614D01*
X35918Y15700D01*
X35796Y15797D01*
X35682Y15901D01*
X35648Y15925D01*
X35616Y15953D01*
X35517Y16020D01*
X35424Y16094D01*
X35291Y16176D01*
X35165Y16265D01*
X35128Y16284D01*
X35093Y16308D01*
X34987Y16362D01*
X34885Y16424D01*
X34742Y16488D01*
X34606Y16560D01*
X34567Y16574D01*
X34529Y16593D01*
X34487Y16608D01*
X34535Y16804D01*
X34547Y16901D01*
X34567Y16998D01*
X34583Y17215D01*
X34608Y17431D01*
X34607Y17530D01*
X34615Y17628D01*
X34604Y17846D01*
X34602Y18064D01*
X34588Y18161D01*
X34583Y18260D01*
X34545Y18474D01*
X34515Y18690D01*
X34489Y18785D01*
X34472Y18882D01*
X34407Y19090D01*
X34350Y19300D01*
X34313Y19391D01*
X34283Y19485D01*
X34193Y19683D01*
X34110Y19884D01*
X34061Y19970D01*
X34020Y20060D01*
X33905Y20245D01*
X33798Y20434D01*
X33738Y20513D01*
X33686Y20597D01*
X33549Y20766D01*
X33418Y20940D01*
X33350Y21011D01*
X33288Y21087D01*
X33130Y21237D01*
X32978Y21394D01*
X32901Y21455D01*
X32830Y21523D01*
X32655Y21652D01*
X32485Y21788D01*
X32400Y21840D01*
X32321Y21898D01*
X32131Y22004D01*
X31945Y22118D01*
X31855Y22158D01*
X31769Y22206D01*
X31567Y22287D01*
X31368Y22376D01*
X31274Y22405D01*
X31183Y22441D01*
X30972Y22497D01*
X30763Y22560D01*
X30666Y22576D01*
X30571Y22601D01*
X30355Y22629D01*
X30140Y22666D01*
X30028Y22672D01*
X29944Y22682D01*
X29815Y22683D01*
X29616Y22693D01*
X28716Y22693D01*
X28597Y22686D01*
X28478Y22688D01*
X28282Y22666D01*
X28086Y22653D01*
X27969Y22631D01*
X27850Y22618D01*
X27658Y22571D01*
X27465Y22534D01*
X27351Y22497D01*
X27235Y22469D01*
X27052Y22399D01*
X26864Y22337D01*
X26756Y22286D01*
X26645Y22244D01*
X26471Y22151D01*
X26293Y22067D01*
X26192Y22002D01*
X26087Y21946D01*
X25927Y21832D01*
X25761Y21726D01*
X25669Y21649D01*
X25572Y21580D01*
X25383Y21410D01*
X25275Y21321D01*
X25236Y21278D01*
X25181Y21229D01*
X22259Y18307D01*
X22180Y18217D01*
X22094Y18134D01*
X21971Y17980D01*
X21841Y17832D01*
X21774Y17734D01*
X21700Y17640D01*
X21597Y17472D01*
X21487Y17309D01*
X21433Y17203D01*
X21370Y17101D01*
X21290Y16921D01*
X21201Y16745D01*
X21161Y16633D01*
X21112Y16524D01*
X21055Y16335D01*
X20988Y16150D01*
X20963Y16033D01*
X20928Y15919D01*
X20895Y15725D01*
X20853Y15532D01*
X20842Y15414D01*
X20822Y15296D01*
X20809Y15042D01*
X20796Y14903D01*
X20799Y14845D01*
X20795Y14772D01*
X20795Y11306D01*
X20806Y11121D01*
X20808Y10936D01*
X20826Y10806D01*
X20835Y10675D01*
X20870Y10494D01*
X20895Y10310D01*
X20929Y10184D01*
X20954Y10054D01*
X21012Y9878D01*
X21060Y9700D01*
X21110Y9579D01*
X21151Y9454D01*
X21230Y9286D01*
X21300Y9116D01*
X21365Y9001D01*
X21421Y8883D01*
X21521Y8727D01*
X21612Y8566D01*
X21691Y8461D01*
X21762Y8350D01*
X21881Y8208D01*
X21992Y8060D01*
X22083Y7966D01*
X22167Y7865D01*
X22303Y7739D01*
X22432Y7606D01*
X22534Y7524D01*
X22631Y7435D01*
X22781Y7327D01*
X22925Y7212D01*
X23038Y7143D01*
X23144Y7067D01*
X23307Y6979D01*
X23465Y6882D01*
X23585Y6829D01*
X23700Y6766D01*
X23873Y6700D01*
X24042Y6624D01*
X24167Y6586D01*
X24290Y6538D01*
X24470Y6494D01*
X24647Y6440D01*
X24776Y6418D01*
X24904Y6387D01*
X25087Y6365D01*
X25270Y6334D01*
X25423Y6326D01*
X25531Y6314D01*
X25640Y6315D01*
X25729Y6310D01*
X27123Y5733D01*
X27329Y5662D01*
X27532Y5584D01*
X27628Y5560D01*
X27721Y5528D01*
X27934Y5485D01*
X28146Y5432D01*
X28243Y5421D01*
X28340Y5401D01*
X28557Y5384D01*
X28773Y5359D01*
X28872Y5360D01*
X28970Y5353D01*
X29188Y5364D01*
G37*
%LPC*%
G36*
X-112544Y-27115D02*
X-112544Y-27115D01*
X-115508Y-25887D01*
X-117777Y-23618D01*
X-119005Y-20654D01*
X-119005Y-17446D01*
X-117777Y-14482D01*
X-115508Y-12213D01*
X-113823Y-11515D01*
X-113706Y-11457D01*
X-113584Y-11409D01*
X-113422Y-11318D01*
X-113255Y-11237D01*
X-113146Y-11165D01*
X-113032Y-11101D01*
X-112882Y-10991D01*
X-112728Y-10889D01*
X-112628Y-10804D01*
X-112523Y-10726D01*
X-112389Y-10598D01*
X-112248Y-10477D01*
X-112160Y-10381D01*
X-112065Y-10290D01*
X-111948Y-10146D01*
X-111824Y-10009D01*
X-111749Y-9901D01*
X-111666Y-9800D01*
X-111568Y-9642D01*
X-111462Y-9490D01*
X-111402Y-9374D01*
X-111333Y-9263D01*
X-111255Y-9094D01*
X-111169Y-8930D01*
X-111124Y-8808D01*
X-111069Y-8689D01*
X-111014Y-8512D01*
X-110949Y-8338D01*
X-110938Y-8292D01*
X-110931Y-8313D01*
X-110899Y-8440D01*
X-110831Y-8612D01*
X-110771Y-8788D01*
X-110714Y-8906D01*
X-110666Y-9028D01*
X-110577Y-9190D01*
X-110496Y-9357D01*
X-110424Y-9467D01*
X-110361Y-9581D01*
X-110252Y-9731D01*
X-110150Y-9887D01*
X-110066Y-9986D01*
X-109989Y-10092D01*
X-109861Y-10227D01*
X-109741Y-10368D01*
X-109644Y-10456D01*
X-109555Y-10551D01*
X-109411Y-10669D01*
X-109274Y-10794D01*
X-109167Y-10870D01*
X-109066Y-10953D01*
X-108909Y-11051D01*
X-108757Y-11158D01*
X-108642Y-11219D01*
X-108531Y-11289D01*
X-108320Y-11390D01*
X-108199Y-11454D01*
X-108136Y-11477D01*
X-108057Y-11515D01*
X-106372Y-12213D01*
X-104103Y-14482D01*
X-102875Y-17446D01*
X-102875Y-20654D01*
X-104103Y-23618D01*
X-106372Y-25887D01*
X-109336Y-27115D01*
X-112544Y-27115D01*
G37*
%LPD*%
%LPC*%
G36*
X-110940Y11349D02*
X-110940Y11349D01*
X-118532Y11349D01*
X-117866Y12266D01*
X-116856Y13276D01*
X-115699Y14117D01*
X-114426Y14765D01*
X-114191Y14842D01*
X-114070Y14890D01*
X-113945Y14929D01*
X-113776Y15006D01*
X-113604Y15075D01*
X-113489Y15138D01*
X-113370Y15192D01*
X-113213Y15290D01*
X-113050Y15380D01*
X-112944Y15457D01*
X-112833Y15526D01*
X-112690Y15643D01*
X-112540Y15752D01*
X-112444Y15842D01*
X-112343Y15925D01*
X-112215Y16059D01*
X-112080Y16186D01*
X-111997Y16288D01*
X-111907Y16382D01*
X-111797Y16532D01*
X-111679Y16675D01*
X-111609Y16786D01*
X-111532Y16891D01*
X-111441Y17053D01*
X-111343Y17210D01*
X-111288Y17329D01*
X-111224Y17443D01*
X-111155Y17615D01*
X-111077Y17784D01*
X-111037Y17908D01*
X-110989Y18030D01*
X-110942Y18208D01*
X-110907Y18106D01*
X-110857Y17928D01*
X-110805Y17808D01*
X-110763Y17684D01*
X-110681Y17517D01*
X-110609Y17347D01*
X-110543Y17234D01*
X-110485Y17117D01*
X-110383Y16961D01*
X-110289Y16802D01*
X-110209Y16698D01*
X-110137Y16589D01*
X-110016Y16448D01*
X-109903Y16301D01*
X-109811Y16208D01*
X-109726Y16109D01*
X-109588Y15984D01*
X-109457Y15853D01*
X-109354Y15773D01*
X-109257Y15685D01*
X-109105Y15579D01*
X-108959Y15465D01*
X-108846Y15398D01*
X-108739Y15323D01*
X-108574Y15237D01*
X-108415Y15142D01*
X-108295Y15091D01*
X-108179Y15030D01*
X-107961Y14946D01*
X-107835Y14892D01*
X-107770Y14873D01*
X-107689Y14842D01*
X-107454Y14765D01*
X-106181Y14117D01*
X-105024Y13276D01*
X-104014Y12266D01*
X-103348Y11349D01*
X-110940Y11349D01*
X-110940Y11349D01*
G37*
%LPD*%
%LPC*%
G36*
X-110972Y-5407D02*
X-110972Y-5407D01*
X-111023Y-5228D01*
X-111075Y-5108D01*
X-111117Y-4984D01*
X-111199Y-4818D01*
X-111271Y-4647D01*
X-111337Y-4534D01*
X-111395Y-4417D01*
X-111497Y-4262D01*
X-111591Y-4102D01*
X-111671Y-3998D01*
X-111743Y-3889D01*
X-111863Y-3748D01*
X-111977Y-3601D01*
X-112069Y-3508D01*
X-112154Y-3409D01*
X-112291Y-3284D01*
X-112423Y-3153D01*
X-112526Y-3072D01*
X-112623Y-2985D01*
X-112775Y-2879D01*
X-112921Y-2765D01*
X-113034Y-2698D01*
X-113141Y-2623D01*
X-113306Y-2537D01*
X-113465Y-2442D01*
X-113585Y-2391D01*
X-113701Y-2330D01*
X-113919Y-2246D01*
X-114045Y-2192D01*
X-114110Y-2173D01*
X-114191Y-2142D01*
X-114426Y-2065D01*
X-115699Y-1417D01*
X-116856Y-576D01*
X-117866Y434D01*
X-118532Y1351D01*
X-110940Y1351D01*
X-103348Y1351D01*
X-104014Y434D01*
X-105024Y-576D01*
X-106181Y-1417D01*
X-107454Y-2065D01*
X-107689Y-2142D01*
X-107810Y-2190D01*
X-107935Y-2229D01*
X-108104Y-2306D01*
X-108276Y-2375D01*
X-108391Y-2438D01*
X-108510Y-2492D01*
X-108668Y-2590D01*
X-108830Y-2680D01*
X-108935Y-2757D01*
X-109047Y-2826D01*
X-109191Y-2943D01*
X-109340Y-3052D01*
X-109435Y-3142D01*
X-109537Y-3225D01*
X-109665Y-3359D01*
X-109800Y-3487D01*
X-109883Y-3588D01*
X-109973Y-3682D01*
X-110083Y-3832D01*
X-110201Y-3975D01*
X-110271Y-4086D01*
X-110348Y-4191D01*
X-110438Y-4353D01*
X-110537Y-4510D01*
X-110592Y-4629D01*
X-110656Y-4743D01*
X-110725Y-4915D01*
X-110803Y-5084D01*
X-110843Y-5208D01*
X-110891Y-5330D01*
X-110938Y-5508D01*
X-110972Y-5407D01*
G37*
%LPD*%
%LPC*%
G36*
X154011Y93059D02*
X154011Y93059D01*
X162126Y101175D01*
X162239Y100826D01*
X162490Y99247D01*
X162490Y97648D01*
X162239Y96068D01*
X161745Y94547D01*
X161019Y93122D01*
X160079Y91828D01*
X157661Y89410D01*
X154011Y93059D01*
G37*
%LPD*%
%LPC*%
G36*
X140753Y77510D02*
X140753Y77510D01*
X139173Y77760D01*
X138825Y77874D01*
X146941Y85989D01*
X150590Y82339D01*
X148172Y79921D01*
X146878Y78981D01*
X145453Y78255D01*
X143932Y77760D01*
X142352Y77510D01*
X140753Y77510D01*
G37*
%LPD*%
%LPC*%
G36*
X-75001Y85459D02*
X-75001Y85459D01*
X-75001Y91001D01*
X-67459Y91001D01*
X-67459Y87750D01*
X-67557Y87259D01*
X-67748Y86796D01*
X-68026Y86380D01*
X-68380Y86026D01*
X-68796Y85748D01*
X-69259Y85557D01*
X-69750Y85459D01*
X-75001Y85459D01*
G37*
%LPD*%
%LPC*%
G36*
X-91556Y-90781D02*
X-91556Y-90781D01*
X-91556Y-87530D01*
X-91458Y-87039D01*
X-91267Y-86576D01*
X-90989Y-86160D01*
X-90635Y-85806D01*
X-90219Y-85528D01*
X-89756Y-85337D01*
X-89265Y-85239D01*
X-84999Y-85239D01*
X-84999Y-90781D01*
X-91556Y-90781D01*
G37*
%LPD*%
%LPC*%
G36*
X-122250Y-134541D02*
X-122250Y-134541D01*
X-122741Y-134443D01*
X-123204Y-134252D01*
X-123620Y-133974D01*
X-123974Y-133620D01*
X-124252Y-133204D01*
X-124443Y-132741D01*
X-124541Y-132250D01*
X-124541Y-128999D01*
X-117999Y-128999D01*
X-117999Y-134541D01*
X-122250Y-134541D01*
G37*
%LPD*%
%LPC*%
G36*
X-108001Y-134541D02*
X-108001Y-134541D01*
X-108001Y-128999D01*
X-101459Y-128999D01*
X-101459Y-132250D01*
X-101557Y-132741D01*
X-101748Y-133204D01*
X-102026Y-133620D01*
X-102380Y-133974D01*
X-102796Y-134252D01*
X-103259Y-134443D01*
X-103750Y-134541D01*
X-108001Y-134541D01*
G37*
%LPD*%
D10*
X-28600Y97900D03*
D11*
X-3200Y97900D03*
X22200Y97900D03*
X22200Y123300D03*
X-3200Y123300D03*
X-28600Y123300D03*
D12*
X-199250Y199250D03*
D13*
X42926Y-28000D03*
X42926Y-20000D03*
X42926Y-12000D03*
X42926Y-4000D03*
X42926Y4000D03*
X42926Y12000D03*
X42926Y20000D03*
X42926Y28000D03*
D14*
X28000Y42926D03*
X20000Y42926D03*
X12000Y42926D03*
X4000Y42926D03*
X-4000Y42926D03*
X-12000Y42926D03*
X-20000Y42926D03*
X-28000Y42926D03*
D13*
X-42926Y28000D03*
X-42926Y20000D03*
X-42926Y12000D03*
X-42926Y4000D03*
X-42926Y-4000D03*
X-42926Y-12000D03*
X-42926Y-20000D03*
X-42926Y-28000D03*
D14*
X-28000Y-42926D03*
X-20000Y-42926D03*
X-12000Y-42926D03*
X-4000Y-42926D03*
X4000Y-42926D03*
X12000Y-42926D03*
X20000Y-42926D03*
X28000Y-42926D03*
D12*
X-199250Y-199250D03*
X199250Y-199250D03*
X199250Y199250D03*
D15*
X-110940Y-19050D03*
X-110940Y6350D03*
X-85540Y19050D03*
X-85540Y-6350D03*
X-85540Y-31750D03*
X-110940Y31750D03*
D16*
X-226500Y-100500D03*
X-198500Y-100500D03*
D17*
X-139000Y100000D03*
X-111000Y100000D03*
X-169000Y-100000D03*
X-141000Y-100000D03*
D18*
X140000Y11000D03*
X140000Y39000D03*
X140000Y-39000D03*
X140000Y-11000D03*
D19*
X-80000Y124000D03*
X-80000Y96000D03*
D20*
X-225800Y143700D03*
X-225800Y84700D03*
D21*
X141553Y87671D02*
X152329Y98447D01*
X134368Y116408D02*
X123592Y105632D01*
X105632Y123592D02*
X116408Y134368D01*
X98447Y152329D02*
X87671Y141553D01*
D18*
X-113000Y-124000D03*
X-113000Y-96000D03*
D12*
X0Y-199250D03*
X0Y199250D03*
X199250Y0D03*
D21*
X141553Y-87671D02*
X152329Y-98447D01*
X134368Y-116408D02*
X123592Y-105632D01*
X105632Y-123592D02*
X116408Y-134368D01*
X98447Y-152329D02*
X87671Y-141553D01*
D22*
X-233440Y133550D03*
X-177560Y133550D03*
X-233440Y95450D03*
X-177560Y95450D03*
D16*
X-14000Y-73000D03*
X14000Y-73000D03*
D23*
X79000Y18500D03*
X101000Y18500D03*
X101000Y-18500D03*
X79000Y-18500D03*
D24*
X-80000Y-124220D03*
X-80000Y-95780D03*
X-59500Y-124220D03*
X-59500Y-95780D03*
D17*
X-14000Y-98500D03*
X14000Y-98500D03*
X-14000Y-129000D03*
X14000Y-129000D03*
D25*
X28000Y28000D02*
X28000Y42926D01*
D26*
X28000Y28000D03*
D25*
X-111000Y100000D02*
X-110940Y101260D01*
X-110940Y31750D01*
D26*
X26424Y-17000D03*
D25*
X40514Y-25588D02*
X42926Y-28000D01*
X40514Y-25588D02*
X35419Y-25588D01*
X26831Y-17000D02*
X26424Y-17000D01*
X26831Y-17000D02*
X35419Y-25588D01*
D26*
X24682Y1000D03*
D25*
X18000Y7682D02*
X18000Y18000D01*
X18000Y7682D02*
X24682Y1000D01*
X18000Y18000D02*
X28000Y28000D01*
X-201300Y84700D02*
X-225800Y84700D01*
X-201300Y84700D02*
X-199500Y86500D01*
D26*
X-199500Y86500D03*
D25*
X-152500Y86500D02*
X-139000Y100000D01*
X-180000Y86500D02*
X-199500Y86500D01*
X-180000Y86500D02*
X-152500Y86500D01*
D27*
X-109000Y-92000D02*
X-113000Y-96000D01*
D25*
X42926Y-12000D02*
X43926Y-11000D01*
D27*
X-113000Y-96000D02*
X-131064Y-114064D01*
X-184936Y-114064D02*
X-198500Y-100500D01*
X-184936Y-114064D02*
X-131064Y-114064D01*
X-198500Y-114500D02*
X-198500Y-100500D01*
X-198500Y-114500D02*
X-194000Y-119000D01*
D26*
X-194000Y-119000D03*
D27*
X124000Y39000D02*
X140000Y39000D01*
X124000Y39000D02*
X122000Y37000D01*
D26*
X122000Y37000D03*
X111000Y-1000D03*
D27*
X139000Y-12000D02*
X140000Y-11000D01*
X-42926Y-4000D02*
X-56000Y-4000D01*
D26*
X-56000Y-4000D03*
D27*
X111000Y-1000D02*
X121000Y-11000D01*
X140000Y-11000D01*
D26*
X62000Y-11000D03*
D28*
X52000Y4000D02*
X42926Y4000D01*
X52000Y4000D02*
X62000Y-6000D01*
X62000Y-11000D01*
X61000Y-12000D02*
X42926Y-12000D01*
X61000Y-12000D02*
X62000Y-11000D01*
D25*
X-177560Y95450D02*
X-180000Y93010D01*
X-180000Y86500D01*
X-225800Y84700D02*
X-233440Y92340D01*
X-233440Y95450D01*
D27*
X44618Y-98500D02*
X93059Y-146941D01*
X44618Y-98500D02*
X14000Y-98500D01*
X14000Y-73000D01*
X14000Y-98500D02*
X14000Y-129000D01*
D26*
X18000Y-8000D03*
D25*
X33000Y-15169D02*
X37831Y-20000D01*
X33000Y-15169D02*
X33000Y-10000D01*
X31500Y-8500D01*
X37831Y-20000D02*
X42926Y-20000D01*
X31500Y-8500D02*
X18500Y-8500D01*
X18000Y-8000D01*
X18000Y-26000D01*
X28000Y-36000D01*
X28000Y-42926D01*
D28*
X36753Y12000D02*
X42926Y12000D01*
X36753Y12000D02*
X33020Y8267D01*
X36753Y-4000D02*
X42926Y-4000D01*
X36753Y-4000D02*
X33020Y-267D01*
X33020Y8267D01*
X32309Y8267D01*
X26576Y14000D01*
D26*
X26576Y14000D03*
X-21000Y14000D03*
D28*
X-27000Y20000D01*
X-42926Y20000D01*
D25*
X-92684Y67537D02*
X-96537Y63684D01*
X-58424Y25579D02*
X-52845Y20000D01*
X-42926Y20000D01*
X-58424Y25579D02*
X-58424Y49724D01*
X-76237Y67537D02*
X-92684Y67537D01*
X-76237Y67537D02*
X-58424Y49724D01*
X-96537Y20753D02*
X-110940Y6350D01*
X-96537Y20753D02*
X-96537Y63684D01*
X-85540Y-44540D02*
X-141000Y-100000D01*
X-85540Y-44540D02*
X-85540Y-31750D01*
X-12000Y-42926D02*
X-12000Y-60000D01*
X-97250Y-199250D02*
X-199250Y-199250D01*
D26*
X33000Y57600D03*
D25*
X95755Y77794D02*
X128980Y111020D01*
X95755Y77794D02*
X78843Y77794D01*
D26*
X-65000Y47000D03*
D25*
X33000Y57600D02*
X58649Y57600D01*
X78843Y77794D01*
X-65000Y47000D02*
X-69000Y43000D01*
X-69000Y-50000D01*
X-59000Y-60000D02*
X-12000Y-60000D01*
X-59000Y-60000D02*
X-69000Y-50000D01*
X0Y-137951D02*
X-4843Y-142794D01*
X-40794Y-142794D01*
X-97250Y-199250D01*
X-12000Y-60000D02*
X-3000Y-60000D01*
X0Y-63000D01*
X0Y-137951D01*
X-140555Y140555D02*
X-199250Y199250D01*
X33403Y128980D02*
X111020Y128980D01*
X21827Y140555D02*
X-140555Y140555D01*
X21827Y140555D02*
X33403Y128980D01*
X65039Y83000D02*
X111020Y128980D01*
X65039Y83000D02*
X33000Y83000D01*
D26*
X33000Y83000D03*
X-89961Y60961D03*
X8000Y-58000D03*
D25*
X-75576Y46576D02*
X-89961Y60961D01*
D26*
X-75576Y-19500D03*
D25*
X-75576Y46576D01*
X-4000Y-42926D02*
X-4000Y-51000D01*
X3000Y-58000D01*
X8000Y-58000D01*
X-225000Y143700D02*
X-225800Y143700D01*
X-225000Y143700D02*
X-217791Y136491D01*
X10262Y130000D02*
X10262Y118355D01*
X10262Y130000D02*
X3771Y136491D01*
X-79000Y136491D01*
X-180000Y136491D02*
X-217791Y136491D01*
X-180000Y136491D02*
X-79000Y136491D01*
X10262Y118355D02*
X22200Y106417D01*
X22200Y97900D01*
X20000Y95700D02*
X20000Y42926D01*
X20000Y95700D02*
X22200Y97900D01*
X-79000Y125000D02*
X-79000Y136491D01*
X-79000Y125000D02*
X-80000Y124000D01*
X20000Y42926D02*
X20000Y32000D01*
X4000Y16000D01*
X4000Y-42926D01*
X-177560Y133550D02*
X-180000Y135990D01*
X-180000Y136491D01*
X-225000Y141990D02*
X-233440Y133550D01*
X-225000Y141990D02*
X-225000Y143700D01*
X42926Y28000D02*
X69500Y28000D01*
X79000Y18500D01*
X132500Y18500D02*
X140000Y11000D01*
X108157Y5706D02*
X93843Y5706D01*
X120951Y18500D02*
X132500Y18500D01*
X81049Y18500D02*
X79000Y18500D01*
X108157Y5706D02*
X120951Y18500D01*
X93843Y5706D02*
X81049Y18500D01*
D26*
X120951Y18500D03*
D25*
X101000Y-18500D02*
X121250Y-38750D01*
X121500Y-39000D01*
X121250Y-38750D02*
X139750Y-38750D01*
X140000Y-39000D01*
X55825Y20000D02*
X42926Y20000D01*
X55825Y20000D02*
X77913Y-2088D01*
X89500Y-2088D01*
X101000Y-13588D01*
X101000Y-18500D01*
D26*
X121250Y-38750D03*
D25*
X-42926Y28000D02*
X-42926Y58174D01*
X-3200Y97900D01*
X-28000Y57000D02*
X-28000Y42926D01*
X-28000Y57000D02*
X-16000Y69000D01*
D26*
X-16000Y69000D03*
D25*
X-20000Y48119D02*
X-20000Y42926D01*
X-20000Y48119D02*
X8738Y76857D01*
X8738Y111362D01*
X-3200Y123300D01*
X65038Y-93059D02*
X146941Y-93059D01*
X20000Y-48022D02*
X20000Y-42926D01*
X20000Y-48022D02*
X65038Y-93059D01*
X63979Y-100000D02*
X117961Y-100000D01*
X128980Y-111020D01*
X12000Y-48021D02*
X12000Y-42926D01*
X12000Y-48021D02*
X63979Y-100000D01*
D26*
X-60000Y-20000D03*
D25*
X-52000Y-28000D01*
X-42926Y-28000D01*
X-33780Y-98500D02*
X-59500Y-124220D01*
X-33780Y-98500D02*
X-14000Y-98500D01*
X-69672Y-135014D02*
X-71309Y-133377D01*
X-69672Y-135014D02*
X-49328Y-135014D01*
X-71309Y-133377D02*
X-71309Y-132911D01*
X-43314Y-129000D02*
X-14000Y-129000D01*
X-43314Y-129000D02*
X-49328Y-135014D01*
X-71309Y-132911D02*
X-80000Y-124220D01*
D26*
X-50000Y-50000D03*
D25*
X-33782Y-24049D02*
X-35419Y-22412D01*
X-40514Y-22412D02*
X-42926Y-20000D01*
X-40514Y-22412D02*
X-35419Y-22412D01*
X-33782Y-24049D02*
X-33782Y-33782D01*
X-50000Y-50000D01*
D26*
X-60000Y-80000D03*
D25*
X-60000Y-95280D01*
X-59500Y-95780D01*
M02*
