G04 EAGLE Gerber RS-274X export*
G75*
%MOMM*%
%FSLAX34Y34*%
%LPD*%
%IN*%
%IPPOS*%
%AMOC8*
5,1,8,0,0,1.08239X$1,22.5*%
G01*
%ADD10C,0.254000*%


D10*
X-250000Y-200000D02*
X-249810Y-204358D01*
X-249240Y-208682D01*
X-248296Y-212941D01*
X-246985Y-217101D01*
X-245315Y-221131D01*
X-243301Y-225000D01*
X-240958Y-228679D01*
X-238302Y-232139D01*
X-235355Y-235355D01*
X-232139Y-238302D01*
X-228679Y-240958D01*
X-225000Y-243301D01*
X-221131Y-245315D01*
X-217101Y-246985D01*
X-212941Y-248296D01*
X-208682Y-249240D01*
X-204358Y-249810D01*
X-200000Y-250000D01*
X200000Y-250000D01*
X204358Y-249810D01*
X208682Y-249240D01*
X212941Y-248296D01*
X217101Y-246985D01*
X221131Y-245315D01*
X225000Y-243301D01*
X228679Y-240958D01*
X232139Y-238302D01*
X235355Y-235355D01*
X238302Y-232139D01*
X240958Y-228679D01*
X243301Y-225000D01*
X245315Y-221131D01*
X246985Y-217101D01*
X248296Y-212941D01*
X249240Y-208682D01*
X249810Y-204358D01*
X250000Y-200000D01*
X250000Y200000D01*
X249810Y204358D01*
X249240Y208682D01*
X248296Y212941D01*
X246985Y217101D01*
X245315Y221131D01*
X243301Y225000D01*
X240958Y228679D01*
X238302Y232139D01*
X235355Y235355D01*
X232139Y238302D01*
X228679Y240958D01*
X225000Y243301D01*
X221131Y245315D01*
X217101Y246985D01*
X212941Y248296D01*
X208682Y249240D01*
X204358Y249810D01*
X200000Y250000D01*
X-200000Y250000D01*
X-204358Y249810D01*
X-208682Y249240D01*
X-212941Y248296D01*
X-217101Y246985D01*
X-221131Y245315D01*
X-225000Y243301D01*
X-228679Y240958D01*
X-232139Y238302D01*
X-235355Y235355D01*
X-238302Y232139D01*
X-240958Y228679D01*
X-243301Y225000D01*
X-245315Y221131D01*
X-246985Y217101D01*
X-248296Y212941D01*
X-249240Y208682D01*
X-249810Y204358D01*
X-250000Y200000D01*
X-250000Y-200000D01*
X-190690Y-51332D02*
X-190620Y-52394D01*
X-190482Y-53448D01*
X-190274Y-54492D01*
X-189999Y-55520D01*
X-189657Y-56527D01*
X-189249Y-57510D01*
X-188779Y-58464D01*
X-188247Y-59386D01*
X-187656Y-60270D01*
X-187008Y-61114D01*
X-186307Y-61914D01*
X-185554Y-62667D01*
X-184754Y-63368D01*
X-183910Y-64016D01*
X-183026Y-64607D01*
X-182104Y-65139D01*
X-181150Y-65609D01*
X-180167Y-66017D01*
X-179160Y-66359D01*
X-178132Y-66634D01*
X-177088Y-66842D01*
X-176034Y-66980D01*
X-174972Y-67050D01*
X-173908Y-67050D01*
X-172846Y-66980D01*
X-171792Y-66842D01*
X-170748Y-66634D01*
X-169720Y-66359D01*
X-168713Y-66017D01*
X-167730Y-65609D01*
X-166776Y-65139D01*
X-165854Y-64607D01*
X-164970Y-64016D01*
X-164126Y-63368D01*
X-163326Y-62667D01*
X-162573Y-61914D01*
X-161872Y-61114D01*
X-161224Y-60270D01*
X-160633Y-59386D01*
X-160101Y-58464D01*
X-159631Y-57510D01*
X-159223Y-56527D01*
X-158881Y-55520D01*
X-158606Y-54492D01*
X-158398Y-53448D01*
X-158260Y-52394D01*
X-158190Y-51332D01*
X-158190Y-50268D01*
X-158260Y-49206D01*
X-158398Y-48152D01*
X-158606Y-47108D01*
X-158881Y-46080D01*
X-159223Y-45073D01*
X-159631Y-44090D01*
X-160101Y-43136D01*
X-160633Y-42214D01*
X-161224Y-41330D01*
X-161872Y-40486D01*
X-162573Y-39686D01*
X-163326Y-38933D01*
X-164126Y-38232D01*
X-164970Y-37584D01*
X-165854Y-36993D01*
X-166776Y-36461D01*
X-167730Y-35991D01*
X-168713Y-35583D01*
X-169720Y-35241D01*
X-170748Y-34966D01*
X-171792Y-34758D01*
X-172846Y-34620D01*
X-173908Y-34550D01*
X-174972Y-34550D01*
X-176034Y-34620D01*
X-177088Y-34758D01*
X-178132Y-34966D01*
X-179160Y-35241D01*
X-180167Y-35583D01*
X-181150Y-35991D01*
X-182104Y-36461D01*
X-183026Y-36993D01*
X-183910Y-37584D01*
X-184754Y-38232D01*
X-185554Y-38933D01*
X-186307Y-39686D01*
X-187008Y-40486D01*
X-187656Y-41330D01*
X-188247Y-42214D01*
X-188779Y-43136D01*
X-189249Y-44090D01*
X-189657Y-45073D01*
X-189999Y-46080D01*
X-190274Y-47108D01*
X-190482Y-48152D01*
X-190620Y-49206D01*
X-190690Y-50268D01*
X-190690Y-51332D01*
X-190690Y50268D02*
X-190620Y49206D01*
X-190482Y48152D01*
X-190274Y47108D01*
X-189999Y46080D01*
X-189657Y45073D01*
X-189249Y44090D01*
X-188779Y43136D01*
X-188247Y42214D01*
X-187656Y41330D01*
X-187008Y40486D01*
X-186307Y39686D01*
X-185554Y38933D01*
X-184754Y38232D01*
X-183910Y37584D01*
X-183026Y36993D01*
X-182104Y36461D01*
X-181150Y35991D01*
X-180167Y35583D01*
X-179160Y35241D01*
X-178132Y34966D01*
X-177088Y34758D01*
X-176034Y34620D01*
X-174972Y34550D01*
X-173908Y34550D01*
X-172846Y34620D01*
X-171792Y34758D01*
X-170748Y34966D01*
X-169720Y35241D01*
X-168713Y35583D01*
X-167730Y35991D01*
X-166776Y36461D01*
X-165854Y36993D01*
X-164970Y37584D01*
X-164126Y38232D01*
X-163326Y38933D01*
X-162573Y39686D01*
X-161872Y40486D01*
X-161224Y41330D01*
X-160633Y42214D01*
X-160101Y43136D01*
X-159631Y44090D01*
X-159223Y45073D01*
X-158881Y46080D01*
X-158606Y47108D01*
X-158398Y48152D01*
X-158260Y49206D01*
X-158190Y50268D01*
X-158190Y51332D01*
X-158260Y52394D01*
X-158398Y53448D01*
X-158606Y54492D01*
X-158881Y55520D01*
X-159223Y56527D01*
X-159631Y57510D01*
X-160101Y58464D01*
X-160633Y59386D01*
X-161224Y60270D01*
X-161872Y61114D01*
X-162573Y61914D01*
X-163326Y62667D01*
X-164126Y63368D01*
X-164970Y64016D01*
X-165854Y64607D01*
X-166776Y65139D01*
X-167730Y65609D01*
X-168713Y66017D01*
X-169720Y66359D01*
X-170748Y66634D01*
X-171792Y66842D01*
X-172846Y66980D01*
X-173908Y67050D01*
X-174972Y67050D01*
X-176034Y66980D01*
X-177088Y66842D01*
X-178132Y66634D01*
X-179160Y66359D01*
X-180167Y66017D01*
X-181150Y65609D01*
X-182104Y65139D01*
X-183026Y64607D01*
X-183910Y64016D01*
X-184754Y63368D01*
X-185554Y62667D01*
X-186307Y61914D01*
X-187008Y61114D01*
X-187656Y60270D01*
X-188247Y59386D01*
X-188779Y58464D01*
X-189249Y57510D01*
X-189657Y56527D01*
X-189999Y55520D01*
X-190274Y54492D01*
X-190482Y53448D01*
X-190620Y52394D01*
X-190690Y51332D01*
X-190690Y50268D01*
M02*
