G04 EAGLE Gerber RS-274X export*
G75*
%MOMM*%
%FSLAX34Y34*%
%LPD*%
%INSilkscreen Bottom*%
%IPPOS*%
%AMOC8*
5,1,8,0,0,1.08239X$1,22.5*%
G01*
%ADD10C,0.127000*%
%ADD11C,0.508000*%
%ADD12C,0.101600*%


D10*
X-147747Y-150867D02*
X-147747Y-154310D01*
X-147745Y-154425D01*
X-147739Y-154540D01*
X-147730Y-154655D01*
X-147716Y-154769D01*
X-147699Y-154883D01*
X-147678Y-154996D01*
X-147653Y-155108D01*
X-147625Y-155220D01*
X-147592Y-155330D01*
X-147556Y-155439D01*
X-147517Y-155547D01*
X-147474Y-155654D01*
X-147427Y-155759D01*
X-147377Y-155863D01*
X-147323Y-155965D01*
X-147266Y-156065D01*
X-147206Y-156163D01*
X-147143Y-156259D01*
X-147076Y-156352D01*
X-147006Y-156444D01*
X-146933Y-156533D01*
X-146858Y-156620D01*
X-146779Y-156704D01*
X-146698Y-156785D01*
X-146614Y-156864D01*
X-146527Y-156939D01*
X-146438Y-157012D01*
X-146346Y-157082D01*
X-146253Y-157149D01*
X-146157Y-157212D01*
X-146059Y-157272D01*
X-145959Y-157329D01*
X-145857Y-157383D01*
X-145753Y-157433D01*
X-145648Y-157480D01*
X-145541Y-157523D01*
X-145433Y-157562D01*
X-145324Y-157598D01*
X-145214Y-157631D01*
X-145102Y-157659D01*
X-144990Y-157684D01*
X-144877Y-157705D01*
X-144763Y-157722D01*
X-144649Y-157736D01*
X-144534Y-157745D01*
X-144419Y-157751D01*
X-144304Y-157753D01*
X-135696Y-157753D01*
X-135581Y-157751D01*
X-135466Y-157745D01*
X-135351Y-157736D01*
X-135237Y-157722D01*
X-135123Y-157705D01*
X-135010Y-157684D01*
X-134898Y-157659D01*
X-134786Y-157631D01*
X-134676Y-157598D01*
X-134567Y-157563D01*
X-134459Y-157523D01*
X-134352Y-157480D01*
X-134247Y-157433D01*
X-134143Y-157383D01*
X-134041Y-157329D01*
X-133941Y-157272D01*
X-133843Y-157212D01*
X-133747Y-157149D01*
X-133654Y-157082D01*
X-133562Y-157012D01*
X-133473Y-156939D01*
X-133387Y-156864D01*
X-133302Y-156785D01*
X-133221Y-156704D01*
X-133143Y-156620D01*
X-133067Y-156533D01*
X-132994Y-156444D01*
X-132924Y-156352D01*
X-132857Y-156259D01*
X-132794Y-156163D01*
X-132734Y-156065D01*
X-132677Y-155965D01*
X-132623Y-155863D01*
X-132573Y-155759D01*
X-132526Y-155654D01*
X-132483Y-155547D01*
X-132444Y-155439D01*
X-132408Y-155330D01*
X-132375Y-155220D01*
X-132347Y-155108D01*
X-132322Y-154996D01*
X-132301Y-154883D01*
X-132284Y-154769D01*
X-132270Y-154655D01*
X-132261Y-154540D01*
X-132255Y-154425D01*
X-132253Y-154310D01*
X-132253Y-150867D01*
X-137418Y-144884D02*
X-147747Y-144884D01*
X-137418Y-144884D02*
X-137418Y-139719D01*
X-139139Y-139719D01*
X-147747Y-132469D02*
X-147747Y-128165D01*
X-147747Y-132469D02*
X-147745Y-132568D01*
X-147739Y-132667D01*
X-147730Y-132765D01*
X-147717Y-132863D01*
X-147700Y-132961D01*
X-147679Y-133057D01*
X-147655Y-133153D01*
X-147627Y-133248D01*
X-147595Y-133342D01*
X-147560Y-133434D01*
X-147521Y-133525D01*
X-147479Y-133615D01*
X-147433Y-133702D01*
X-147384Y-133788D01*
X-147332Y-133872D01*
X-147277Y-133954D01*
X-147218Y-134034D01*
X-147157Y-134112D01*
X-147093Y-134187D01*
X-147025Y-134259D01*
X-146955Y-134329D01*
X-146883Y-134397D01*
X-146808Y-134461D01*
X-146730Y-134522D01*
X-146650Y-134581D01*
X-146568Y-134636D01*
X-146484Y-134688D01*
X-146398Y-134737D01*
X-146311Y-134783D01*
X-146221Y-134825D01*
X-146130Y-134864D01*
X-146038Y-134899D01*
X-145944Y-134931D01*
X-145849Y-134959D01*
X-145753Y-134983D01*
X-145657Y-135004D01*
X-145559Y-135021D01*
X-145461Y-135034D01*
X-145363Y-135043D01*
X-145264Y-135049D01*
X-145165Y-135051D01*
X-145165Y-135052D02*
X-140861Y-135052D01*
X-140745Y-135050D01*
X-140629Y-135044D01*
X-140513Y-135034D01*
X-140397Y-135021D01*
X-140282Y-135003D01*
X-140168Y-134982D01*
X-140054Y-134956D01*
X-139942Y-134927D01*
X-139830Y-134894D01*
X-139720Y-134857D01*
X-139611Y-134817D01*
X-139503Y-134773D01*
X-139397Y-134725D01*
X-139293Y-134674D01*
X-139190Y-134619D01*
X-139089Y-134561D01*
X-138991Y-134500D01*
X-138894Y-134435D01*
X-138800Y-134367D01*
X-138708Y-134296D01*
X-138618Y-134221D01*
X-138531Y-134144D01*
X-138447Y-134064D01*
X-138366Y-133981D01*
X-138287Y-133895D01*
X-138211Y-133807D01*
X-138138Y-133716D01*
X-138069Y-133623D01*
X-138002Y-133528D01*
X-137939Y-133430D01*
X-137879Y-133331D01*
X-137823Y-133229D01*
X-137770Y-133125D01*
X-137720Y-133020D01*
X-137675Y-132913D01*
X-137632Y-132805D01*
X-137594Y-132695D01*
X-137559Y-132584D01*
X-137528Y-132472D01*
X-137501Y-132359D01*
X-137477Y-132245D01*
X-137458Y-132130D01*
X-137442Y-132015D01*
X-137430Y-131899D01*
X-137422Y-131783D01*
X-137418Y-131667D01*
X-137418Y-131551D01*
X-137422Y-131435D01*
X-137430Y-131319D01*
X-137442Y-131203D01*
X-137458Y-131088D01*
X-137477Y-130973D01*
X-137501Y-130859D01*
X-137528Y-130746D01*
X-137559Y-130634D01*
X-137594Y-130523D01*
X-137632Y-130413D01*
X-137675Y-130305D01*
X-137720Y-130198D01*
X-137770Y-130093D01*
X-137823Y-129989D01*
X-137879Y-129888D01*
X-137939Y-129788D01*
X-138002Y-129690D01*
X-138069Y-129595D01*
X-138138Y-129502D01*
X-138211Y-129411D01*
X-138287Y-129323D01*
X-138366Y-129237D01*
X-138447Y-129154D01*
X-138531Y-129074D01*
X-138618Y-128997D01*
X-138708Y-128922D01*
X-138800Y-128851D01*
X-138894Y-128783D01*
X-138991Y-128718D01*
X-139089Y-128657D01*
X-139190Y-128599D01*
X-139293Y-128544D01*
X-139397Y-128493D01*
X-139503Y-128445D01*
X-139611Y-128401D01*
X-139720Y-128361D01*
X-139830Y-128324D01*
X-139942Y-128291D01*
X-140054Y-128262D01*
X-140168Y-128236D01*
X-140282Y-128215D01*
X-140397Y-128197D01*
X-140513Y-128184D01*
X-140629Y-128174D01*
X-140745Y-128168D01*
X-140861Y-128166D01*
X-140861Y-128165D02*
X-142582Y-128165D01*
X-142582Y-135052D01*
X-141722Y-119224D02*
X-141722Y-115350D01*
X-141721Y-119224D02*
X-141723Y-119333D01*
X-141729Y-119441D01*
X-141739Y-119550D01*
X-141752Y-119658D01*
X-141770Y-119765D01*
X-141791Y-119872D01*
X-141817Y-119978D01*
X-141846Y-120082D01*
X-141879Y-120186D01*
X-141915Y-120289D01*
X-141956Y-120390D01*
X-141999Y-120489D01*
X-142047Y-120587D01*
X-142098Y-120683D01*
X-142152Y-120777D01*
X-142210Y-120870D01*
X-142271Y-120960D01*
X-142335Y-121047D01*
X-142403Y-121133D01*
X-142473Y-121216D01*
X-142547Y-121296D01*
X-142623Y-121374D01*
X-142702Y-121448D01*
X-142783Y-121520D01*
X-142868Y-121589D01*
X-142954Y-121655D01*
X-143043Y-121718D01*
X-143134Y-121777D01*
X-143228Y-121833D01*
X-143323Y-121886D01*
X-143420Y-121935D01*
X-143518Y-121981D01*
X-143619Y-122023D01*
X-143721Y-122061D01*
X-143824Y-122096D01*
X-143928Y-122127D01*
X-144033Y-122154D01*
X-144140Y-122178D01*
X-144247Y-122197D01*
X-144354Y-122213D01*
X-144462Y-122225D01*
X-144571Y-122233D01*
X-144680Y-122237D01*
X-144788Y-122237D01*
X-144897Y-122233D01*
X-145006Y-122225D01*
X-145114Y-122213D01*
X-145221Y-122197D01*
X-145328Y-122178D01*
X-145435Y-122154D01*
X-145540Y-122127D01*
X-145644Y-122096D01*
X-145747Y-122061D01*
X-145849Y-122023D01*
X-145950Y-121981D01*
X-146048Y-121935D01*
X-146145Y-121886D01*
X-146241Y-121833D01*
X-146334Y-121777D01*
X-146425Y-121718D01*
X-146514Y-121655D01*
X-146600Y-121589D01*
X-146685Y-121520D01*
X-146766Y-121448D01*
X-146845Y-121374D01*
X-146921Y-121296D01*
X-146995Y-121216D01*
X-147065Y-121133D01*
X-147133Y-121047D01*
X-147197Y-120960D01*
X-147258Y-120870D01*
X-147316Y-120777D01*
X-147370Y-120683D01*
X-147421Y-120587D01*
X-147469Y-120489D01*
X-147512Y-120390D01*
X-147553Y-120289D01*
X-147589Y-120186D01*
X-147622Y-120082D01*
X-147651Y-119978D01*
X-147677Y-119872D01*
X-147698Y-119765D01*
X-147716Y-119658D01*
X-147729Y-119550D01*
X-147739Y-119441D01*
X-147745Y-119333D01*
X-147747Y-119224D01*
X-147747Y-115350D01*
X-140000Y-115350D01*
X-140000Y-115351D02*
X-139901Y-115353D01*
X-139802Y-115359D01*
X-139704Y-115368D01*
X-139606Y-115381D01*
X-139508Y-115398D01*
X-139412Y-115419D01*
X-139316Y-115443D01*
X-139221Y-115471D01*
X-139127Y-115503D01*
X-139035Y-115538D01*
X-138944Y-115577D01*
X-138854Y-115619D01*
X-138767Y-115665D01*
X-138681Y-115714D01*
X-138596Y-115766D01*
X-138515Y-115821D01*
X-138435Y-115880D01*
X-138357Y-115941D01*
X-138282Y-116005D01*
X-138210Y-116073D01*
X-138140Y-116143D01*
X-138072Y-116215D01*
X-138008Y-116290D01*
X-137947Y-116368D01*
X-137888Y-116448D01*
X-137833Y-116530D01*
X-137781Y-116614D01*
X-137732Y-116700D01*
X-137686Y-116787D01*
X-137644Y-116877D01*
X-137605Y-116968D01*
X-137570Y-117060D01*
X-137538Y-117154D01*
X-137510Y-117249D01*
X-137486Y-117345D01*
X-137465Y-117441D01*
X-137448Y-117539D01*
X-137435Y-117637D01*
X-137426Y-117735D01*
X-137420Y-117834D01*
X-137418Y-117933D01*
X-137418Y-121376D01*
X-137418Y-110018D02*
X-137418Y-104854D01*
X-132253Y-108297D02*
X-145165Y-108297D01*
X-145165Y-108296D02*
X-145264Y-108294D01*
X-145363Y-108288D01*
X-145461Y-108279D01*
X-145559Y-108266D01*
X-145657Y-108249D01*
X-145753Y-108228D01*
X-145849Y-108204D01*
X-145944Y-108176D01*
X-146038Y-108144D01*
X-146130Y-108109D01*
X-146221Y-108070D01*
X-146311Y-108028D01*
X-146398Y-107982D01*
X-146484Y-107933D01*
X-146568Y-107881D01*
X-146650Y-107826D01*
X-146730Y-107767D01*
X-146808Y-107706D01*
X-146883Y-107642D01*
X-146955Y-107574D01*
X-147025Y-107504D01*
X-147093Y-107432D01*
X-147157Y-107357D01*
X-147218Y-107279D01*
X-147277Y-107199D01*
X-147332Y-107117D01*
X-147384Y-107033D01*
X-147433Y-106947D01*
X-147479Y-106860D01*
X-147521Y-106770D01*
X-147560Y-106679D01*
X-147595Y-106587D01*
X-147627Y-106493D01*
X-147655Y-106398D01*
X-147679Y-106302D01*
X-147700Y-106206D01*
X-147717Y-106108D01*
X-147730Y-106010D01*
X-147739Y-105912D01*
X-147745Y-105813D01*
X-147747Y-105714D01*
X-147747Y-104854D01*
X-147747Y-96792D02*
X-147747Y-92488D01*
X-147747Y-96792D02*
X-147745Y-96891D01*
X-147739Y-96990D01*
X-147730Y-97088D01*
X-147717Y-97186D01*
X-147700Y-97284D01*
X-147679Y-97380D01*
X-147655Y-97476D01*
X-147627Y-97571D01*
X-147595Y-97665D01*
X-147560Y-97757D01*
X-147521Y-97848D01*
X-147479Y-97938D01*
X-147433Y-98025D01*
X-147384Y-98111D01*
X-147332Y-98195D01*
X-147277Y-98277D01*
X-147218Y-98357D01*
X-147157Y-98435D01*
X-147093Y-98510D01*
X-147025Y-98582D01*
X-146955Y-98652D01*
X-146883Y-98720D01*
X-146808Y-98784D01*
X-146730Y-98845D01*
X-146650Y-98904D01*
X-146568Y-98959D01*
X-146484Y-99011D01*
X-146398Y-99060D01*
X-146311Y-99106D01*
X-146221Y-99148D01*
X-146130Y-99187D01*
X-146038Y-99222D01*
X-145944Y-99254D01*
X-145849Y-99282D01*
X-145753Y-99306D01*
X-145657Y-99327D01*
X-145559Y-99344D01*
X-145461Y-99357D01*
X-145363Y-99366D01*
X-145264Y-99372D01*
X-145165Y-99374D01*
X-140861Y-99374D01*
X-140745Y-99372D01*
X-140629Y-99366D01*
X-140513Y-99356D01*
X-140397Y-99343D01*
X-140282Y-99325D01*
X-140168Y-99304D01*
X-140054Y-99278D01*
X-139942Y-99249D01*
X-139830Y-99216D01*
X-139720Y-99179D01*
X-139611Y-99139D01*
X-139503Y-99095D01*
X-139397Y-99047D01*
X-139293Y-98996D01*
X-139190Y-98941D01*
X-139089Y-98883D01*
X-138991Y-98822D01*
X-138894Y-98757D01*
X-138800Y-98689D01*
X-138708Y-98618D01*
X-138618Y-98543D01*
X-138531Y-98466D01*
X-138447Y-98386D01*
X-138366Y-98303D01*
X-138287Y-98217D01*
X-138211Y-98129D01*
X-138138Y-98038D01*
X-138069Y-97945D01*
X-138002Y-97850D01*
X-137939Y-97752D01*
X-137879Y-97653D01*
X-137823Y-97551D01*
X-137770Y-97447D01*
X-137720Y-97342D01*
X-137675Y-97235D01*
X-137632Y-97127D01*
X-137594Y-97017D01*
X-137559Y-96906D01*
X-137528Y-96794D01*
X-137501Y-96681D01*
X-137477Y-96567D01*
X-137458Y-96452D01*
X-137442Y-96337D01*
X-137430Y-96221D01*
X-137422Y-96105D01*
X-137418Y-95989D01*
X-137418Y-95873D01*
X-137422Y-95757D01*
X-137430Y-95641D01*
X-137442Y-95525D01*
X-137458Y-95410D01*
X-137477Y-95295D01*
X-137501Y-95181D01*
X-137528Y-95068D01*
X-137559Y-94956D01*
X-137594Y-94845D01*
X-137632Y-94735D01*
X-137675Y-94627D01*
X-137720Y-94520D01*
X-137770Y-94415D01*
X-137823Y-94311D01*
X-137879Y-94210D01*
X-137939Y-94110D01*
X-138002Y-94012D01*
X-138069Y-93917D01*
X-138138Y-93824D01*
X-138211Y-93733D01*
X-138287Y-93645D01*
X-138366Y-93559D01*
X-138447Y-93476D01*
X-138531Y-93396D01*
X-138618Y-93319D01*
X-138708Y-93244D01*
X-138800Y-93173D01*
X-138894Y-93105D01*
X-138991Y-93040D01*
X-139089Y-92979D01*
X-139190Y-92921D01*
X-139293Y-92866D01*
X-139397Y-92815D01*
X-139503Y-92767D01*
X-139611Y-92723D01*
X-139720Y-92683D01*
X-139830Y-92646D01*
X-139942Y-92613D01*
X-140054Y-92584D01*
X-140168Y-92558D01*
X-140282Y-92537D01*
X-140397Y-92519D01*
X-140513Y-92506D01*
X-140629Y-92496D01*
X-140745Y-92490D01*
X-140861Y-92488D01*
X-142582Y-92488D01*
X-142582Y-99374D01*
X-147747Y-79672D02*
X-132253Y-79672D01*
X-147747Y-79672D02*
X-147747Y-83976D01*
X-147745Y-84075D01*
X-147739Y-84174D01*
X-147730Y-84272D01*
X-147717Y-84370D01*
X-147700Y-84468D01*
X-147679Y-84564D01*
X-147655Y-84660D01*
X-147627Y-84755D01*
X-147595Y-84849D01*
X-147560Y-84941D01*
X-147521Y-85032D01*
X-147479Y-85122D01*
X-147433Y-85209D01*
X-147384Y-85295D01*
X-147332Y-85379D01*
X-147277Y-85461D01*
X-147218Y-85541D01*
X-147157Y-85619D01*
X-147093Y-85694D01*
X-147025Y-85766D01*
X-146955Y-85836D01*
X-146883Y-85904D01*
X-146808Y-85968D01*
X-146730Y-86029D01*
X-146650Y-86088D01*
X-146568Y-86143D01*
X-146484Y-86195D01*
X-146398Y-86244D01*
X-146311Y-86290D01*
X-146221Y-86332D01*
X-146130Y-86371D01*
X-146038Y-86406D01*
X-145944Y-86438D01*
X-145849Y-86466D01*
X-145753Y-86490D01*
X-145657Y-86511D01*
X-145559Y-86528D01*
X-145461Y-86541D01*
X-145363Y-86550D01*
X-145264Y-86556D01*
X-145165Y-86558D01*
X-145165Y-86559D02*
X-140000Y-86559D01*
X-140000Y-86558D02*
X-139901Y-86556D01*
X-139802Y-86550D01*
X-139704Y-86541D01*
X-139606Y-86528D01*
X-139508Y-86511D01*
X-139412Y-86490D01*
X-139316Y-86466D01*
X-139221Y-86438D01*
X-139127Y-86406D01*
X-139035Y-86371D01*
X-138944Y-86332D01*
X-138854Y-86290D01*
X-138767Y-86244D01*
X-138681Y-86195D01*
X-138597Y-86143D01*
X-138515Y-86088D01*
X-138435Y-86029D01*
X-138357Y-85968D01*
X-138282Y-85904D01*
X-138210Y-85836D01*
X-138140Y-85766D01*
X-138072Y-85694D01*
X-138008Y-85619D01*
X-137947Y-85541D01*
X-137888Y-85461D01*
X-137833Y-85379D01*
X-137781Y-85295D01*
X-137732Y-85209D01*
X-137686Y-85122D01*
X-137644Y-85032D01*
X-137605Y-84941D01*
X-137570Y-84849D01*
X-137538Y-84755D01*
X-137510Y-84660D01*
X-137486Y-84564D01*
X-137465Y-84468D01*
X-137448Y-84370D01*
X-137435Y-84272D01*
X-137426Y-84174D01*
X-137420Y-84075D01*
X-137418Y-83976D01*
X-137418Y-79672D01*
X-132253Y-64619D02*
X-147747Y-64619D01*
X-147747Y-60315D01*
X-147745Y-60214D01*
X-147739Y-60112D01*
X-147729Y-60012D01*
X-147715Y-59911D01*
X-147697Y-59811D01*
X-147676Y-59712D01*
X-147650Y-59614D01*
X-147621Y-59517D01*
X-147587Y-59421D01*
X-147550Y-59327D01*
X-147510Y-59234D01*
X-147466Y-59143D01*
X-147418Y-59053D01*
X-147367Y-58966D01*
X-147312Y-58881D01*
X-147254Y-58797D01*
X-147193Y-58717D01*
X-147128Y-58638D01*
X-147061Y-58562D01*
X-146991Y-58489D01*
X-146918Y-58419D01*
X-146842Y-58352D01*
X-146764Y-58287D01*
X-146683Y-58226D01*
X-146600Y-58168D01*
X-146514Y-58114D01*
X-146427Y-58062D01*
X-146337Y-58014D01*
X-146246Y-57970D01*
X-146153Y-57930D01*
X-146059Y-57893D01*
X-145963Y-57859D01*
X-145866Y-57830D01*
X-145768Y-57804D01*
X-145669Y-57783D01*
X-145569Y-57765D01*
X-145469Y-57751D01*
X-145368Y-57741D01*
X-145266Y-57735D01*
X-145165Y-57733D01*
X-145165Y-57732D02*
X-140000Y-57732D01*
X-140000Y-57733D02*
X-139901Y-57735D01*
X-139802Y-57741D01*
X-139704Y-57750D01*
X-139606Y-57763D01*
X-139508Y-57780D01*
X-139412Y-57801D01*
X-139316Y-57825D01*
X-139221Y-57853D01*
X-139127Y-57885D01*
X-139035Y-57920D01*
X-138944Y-57959D01*
X-138854Y-58001D01*
X-138767Y-58047D01*
X-138681Y-58096D01*
X-138596Y-58148D01*
X-138515Y-58203D01*
X-138435Y-58262D01*
X-138357Y-58323D01*
X-138282Y-58387D01*
X-138210Y-58455D01*
X-138140Y-58525D01*
X-138072Y-58597D01*
X-138008Y-58672D01*
X-137947Y-58750D01*
X-137888Y-58830D01*
X-137833Y-58912D01*
X-137781Y-58996D01*
X-137732Y-59082D01*
X-137686Y-59169D01*
X-137644Y-59259D01*
X-137605Y-59350D01*
X-137570Y-59442D01*
X-137538Y-59536D01*
X-137510Y-59631D01*
X-137486Y-59727D01*
X-137465Y-59823D01*
X-137448Y-59921D01*
X-137435Y-60019D01*
X-137426Y-60117D01*
X-137420Y-60216D01*
X-137418Y-60315D01*
X-137418Y-64619D01*
X-152912Y-52299D02*
X-152912Y-50577D01*
X-137418Y-45413D01*
X-137418Y-52299D02*
X-147747Y-48856D01*
X-147747Y-27183D02*
X-147745Y-27068D01*
X-147739Y-26953D01*
X-147730Y-26838D01*
X-147716Y-26724D01*
X-147699Y-26610D01*
X-147678Y-26497D01*
X-147653Y-26385D01*
X-147625Y-26273D01*
X-147592Y-26163D01*
X-147557Y-26054D01*
X-147517Y-25946D01*
X-147474Y-25839D01*
X-147427Y-25734D01*
X-147377Y-25630D01*
X-147323Y-25528D01*
X-147266Y-25428D01*
X-147206Y-25330D01*
X-147143Y-25234D01*
X-147076Y-25141D01*
X-147006Y-25049D01*
X-146933Y-24960D01*
X-146858Y-24874D01*
X-146779Y-24789D01*
X-146698Y-24708D01*
X-146614Y-24630D01*
X-146527Y-24554D01*
X-146438Y-24481D01*
X-146346Y-24411D01*
X-146253Y-24344D01*
X-146157Y-24281D01*
X-146059Y-24221D01*
X-145959Y-24164D01*
X-145857Y-24110D01*
X-145753Y-24060D01*
X-145648Y-24013D01*
X-145541Y-23970D01*
X-145433Y-23931D01*
X-145324Y-23895D01*
X-145214Y-23862D01*
X-145102Y-23834D01*
X-144990Y-23809D01*
X-144877Y-23788D01*
X-144763Y-23771D01*
X-144649Y-23757D01*
X-144534Y-23748D01*
X-144419Y-23742D01*
X-144304Y-23740D01*
X-147747Y-27183D02*
X-147745Y-27357D01*
X-147739Y-27531D01*
X-147728Y-27705D01*
X-147714Y-27878D01*
X-147695Y-28051D01*
X-147672Y-28224D01*
X-147645Y-28396D01*
X-147614Y-28567D01*
X-147579Y-28737D01*
X-147540Y-28907D01*
X-147497Y-29075D01*
X-147449Y-29243D01*
X-147398Y-29409D01*
X-147343Y-29574D01*
X-147284Y-29738D01*
X-147220Y-29900D01*
X-147154Y-30061D01*
X-147083Y-30220D01*
X-147008Y-30377D01*
X-146930Y-30533D01*
X-146848Y-30686D01*
X-146762Y-30838D01*
X-146673Y-30987D01*
X-146580Y-31134D01*
X-146484Y-31279D01*
X-146384Y-31422D01*
X-146281Y-31562D01*
X-146175Y-31700D01*
X-146065Y-31835D01*
X-145952Y-31967D01*
X-145836Y-32097D01*
X-145717Y-32224D01*
X-145595Y-32348D01*
X-135696Y-31917D02*
X-135581Y-31915D01*
X-135466Y-31909D01*
X-135351Y-31900D01*
X-135237Y-31886D01*
X-135123Y-31869D01*
X-135010Y-31848D01*
X-134898Y-31823D01*
X-134786Y-31795D01*
X-134676Y-31762D01*
X-134567Y-31726D01*
X-134459Y-31687D01*
X-134352Y-31644D01*
X-134247Y-31597D01*
X-134143Y-31547D01*
X-134041Y-31493D01*
X-133941Y-31436D01*
X-133843Y-31376D01*
X-133747Y-31313D01*
X-133654Y-31246D01*
X-133562Y-31176D01*
X-133473Y-31103D01*
X-133386Y-31028D01*
X-133302Y-30949D01*
X-133221Y-30868D01*
X-133142Y-30784D01*
X-133067Y-30697D01*
X-132994Y-30608D01*
X-132924Y-30516D01*
X-132857Y-30423D01*
X-132794Y-30327D01*
X-132734Y-30229D01*
X-132677Y-30129D01*
X-132623Y-30027D01*
X-132573Y-29923D01*
X-132526Y-29818D01*
X-132483Y-29711D01*
X-132444Y-29603D01*
X-132408Y-29494D01*
X-132375Y-29384D01*
X-132347Y-29272D01*
X-132322Y-29160D01*
X-132301Y-29047D01*
X-132284Y-28933D01*
X-132270Y-28819D01*
X-132261Y-28704D01*
X-132255Y-28589D01*
X-132253Y-28474D01*
X-132255Y-28314D01*
X-132261Y-28155D01*
X-132271Y-27995D01*
X-132285Y-27836D01*
X-132302Y-27677D01*
X-132324Y-27519D01*
X-132350Y-27361D01*
X-132379Y-27204D01*
X-132413Y-27048D01*
X-132450Y-26892D01*
X-132491Y-26738D01*
X-132536Y-26585D01*
X-132584Y-26432D01*
X-132637Y-26281D01*
X-132693Y-26132D01*
X-132753Y-25984D01*
X-132816Y-25837D01*
X-132883Y-25692D01*
X-132954Y-25549D01*
X-133028Y-25407D01*
X-133106Y-25267D01*
X-133187Y-25130D01*
X-133271Y-24994D01*
X-133359Y-24861D01*
X-133450Y-24729D01*
X-133544Y-24600D01*
X-138709Y-30195D02*
X-138648Y-30295D01*
X-138583Y-30393D01*
X-138516Y-30489D01*
X-138445Y-30582D01*
X-138371Y-30673D01*
X-138294Y-30761D01*
X-138214Y-30847D01*
X-138131Y-30930D01*
X-138046Y-31010D01*
X-137958Y-31087D01*
X-137867Y-31161D01*
X-137774Y-31232D01*
X-137679Y-31300D01*
X-137581Y-31365D01*
X-137482Y-31427D01*
X-137380Y-31485D01*
X-137276Y-31540D01*
X-137171Y-31591D01*
X-137064Y-31638D01*
X-136955Y-31682D01*
X-136845Y-31723D01*
X-136734Y-31759D01*
X-136622Y-31792D01*
X-136508Y-31821D01*
X-136394Y-31847D01*
X-136279Y-31868D01*
X-136163Y-31886D01*
X-136047Y-31899D01*
X-135930Y-31909D01*
X-135813Y-31915D01*
X-135696Y-31917D01*
X-141291Y-25462D02*
X-141352Y-25362D01*
X-141417Y-25264D01*
X-141485Y-25168D01*
X-141555Y-25075D01*
X-141629Y-24984D01*
X-141706Y-24896D01*
X-141786Y-24810D01*
X-141869Y-24727D01*
X-141954Y-24647D01*
X-142042Y-24570D01*
X-142133Y-24496D01*
X-142226Y-24424D01*
X-142321Y-24356D01*
X-142419Y-24292D01*
X-142518Y-24230D01*
X-142620Y-24172D01*
X-142724Y-24117D01*
X-142829Y-24066D01*
X-142936Y-24019D01*
X-143045Y-23975D01*
X-143155Y-23934D01*
X-143266Y-23898D01*
X-143378Y-23865D01*
X-143492Y-23836D01*
X-143606Y-23810D01*
X-143721Y-23789D01*
X-143837Y-23771D01*
X-143953Y-23758D01*
X-144070Y-23748D01*
X-144187Y-23742D01*
X-144304Y-23740D01*
X-141291Y-25461D02*
X-138709Y-30196D01*
X-137418Y-19337D02*
X-137418Y-14172D01*
X-132253Y-17615D02*
X-145165Y-17615D01*
X-145264Y-17613D01*
X-145363Y-17607D01*
X-145461Y-17598D01*
X-145559Y-17585D01*
X-145657Y-17568D01*
X-145753Y-17547D01*
X-145849Y-17523D01*
X-145944Y-17495D01*
X-146038Y-17463D01*
X-146130Y-17428D01*
X-146221Y-17389D01*
X-146311Y-17347D01*
X-146398Y-17301D01*
X-146484Y-17252D01*
X-146568Y-17200D01*
X-146650Y-17145D01*
X-146730Y-17086D01*
X-146808Y-17025D01*
X-146883Y-16961D01*
X-146955Y-16893D01*
X-147025Y-16823D01*
X-147093Y-16751D01*
X-147157Y-16676D01*
X-147218Y-16598D01*
X-147277Y-16518D01*
X-147332Y-16436D01*
X-147384Y-16352D01*
X-147433Y-16266D01*
X-147479Y-16179D01*
X-147521Y-16089D01*
X-147560Y-15998D01*
X-147595Y-15906D01*
X-147627Y-15812D01*
X-147655Y-15717D01*
X-147679Y-15621D01*
X-147700Y-15525D01*
X-147717Y-15427D01*
X-147730Y-15329D01*
X-147739Y-15231D01*
X-147745Y-15132D01*
X-147747Y-15033D01*
X-147747Y-14172D01*
X-141722Y-5748D02*
X-141722Y-1875D01*
X-141721Y-5748D02*
X-141723Y-5857D01*
X-141729Y-5965D01*
X-141739Y-6074D01*
X-141752Y-6182D01*
X-141770Y-6289D01*
X-141791Y-6396D01*
X-141817Y-6502D01*
X-141846Y-6606D01*
X-141879Y-6710D01*
X-141915Y-6813D01*
X-141956Y-6914D01*
X-141999Y-7013D01*
X-142047Y-7111D01*
X-142098Y-7207D01*
X-142152Y-7301D01*
X-142210Y-7394D01*
X-142271Y-7484D01*
X-142335Y-7571D01*
X-142403Y-7657D01*
X-142473Y-7740D01*
X-142547Y-7820D01*
X-142623Y-7898D01*
X-142702Y-7972D01*
X-142783Y-8044D01*
X-142868Y-8113D01*
X-142954Y-8179D01*
X-143043Y-8242D01*
X-143134Y-8301D01*
X-143228Y-8357D01*
X-143323Y-8410D01*
X-143420Y-8459D01*
X-143518Y-8505D01*
X-143619Y-8547D01*
X-143721Y-8585D01*
X-143824Y-8620D01*
X-143928Y-8651D01*
X-144033Y-8678D01*
X-144140Y-8702D01*
X-144247Y-8721D01*
X-144354Y-8737D01*
X-144462Y-8749D01*
X-144571Y-8757D01*
X-144680Y-8761D01*
X-144788Y-8761D01*
X-144897Y-8757D01*
X-145006Y-8749D01*
X-145114Y-8737D01*
X-145221Y-8721D01*
X-145328Y-8702D01*
X-145435Y-8678D01*
X-145540Y-8651D01*
X-145644Y-8620D01*
X-145747Y-8585D01*
X-145849Y-8547D01*
X-145950Y-8505D01*
X-146048Y-8459D01*
X-146145Y-8410D01*
X-146241Y-8357D01*
X-146334Y-8301D01*
X-146425Y-8242D01*
X-146514Y-8179D01*
X-146600Y-8113D01*
X-146685Y-8044D01*
X-146766Y-7972D01*
X-146845Y-7898D01*
X-146921Y-7820D01*
X-146995Y-7740D01*
X-147065Y-7657D01*
X-147133Y-7571D01*
X-147197Y-7484D01*
X-147258Y-7394D01*
X-147316Y-7301D01*
X-147370Y-7207D01*
X-147421Y-7111D01*
X-147469Y-7013D01*
X-147512Y-6914D01*
X-147553Y-6813D01*
X-147589Y-6710D01*
X-147622Y-6606D01*
X-147651Y-6502D01*
X-147677Y-6396D01*
X-147698Y-6289D01*
X-147716Y-6182D01*
X-147729Y-6074D01*
X-147739Y-5965D01*
X-147745Y-5857D01*
X-147747Y-5748D01*
X-147747Y-1875D01*
X-140000Y-1875D01*
X-139901Y-1877D01*
X-139802Y-1883D01*
X-139704Y-1892D01*
X-139606Y-1905D01*
X-139508Y-1922D01*
X-139412Y-1943D01*
X-139316Y-1967D01*
X-139221Y-1995D01*
X-139127Y-2027D01*
X-139035Y-2062D01*
X-138944Y-2101D01*
X-138854Y-2143D01*
X-138767Y-2189D01*
X-138681Y-2238D01*
X-138596Y-2290D01*
X-138515Y-2345D01*
X-138435Y-2404D01*
X-138357Y-2465D01*
X-138282Y-2529D01*
X-138210Y-2597D01*
X-138140Y-2667D01*
X-138072Y-2739D01*
X-138008Y-2814D01*
X-137947Y-2892D01*
X-137888Y-2972D01*
X-137833Y-3054D01*
X-137781Y-3138D01*
X-137732Y-3224D01*
X-137686Y-3311D01*
X-137644Y-3401D01*
X-137605Y-3492D01*
X-137570Y-3584D01*
X-137538Y-3678D01*
X-137510Y-3773D01*
X-137486Y-3869D01*
X-137465Y-3965D01*
X-137448Y-4063D01*
X-137435Y-4161D01*
X-137426Y-4259D01*
X-137420Y-4358D01*
X-137418Y-4457D01*
X-137418Y-7900D01*
X-137418Y5182D02*
X-147747Y5182D01*
X-137418Y5182D02*
X-137418Y9486D01*
X-137420Y9587D01*
X-137426Y9689D01*
X-137436Y9789D01*
X-137450Y9890D01*
X-137468Y9990D01*
X-137489Y10089D01*
X-137515Y10187D01*
X-137544Y10284D01*
X-137578Y10380D01*
X-137615Y10474D01*
X-137655Y10567D01*
X-137699Y10658D01*
X-137747Y10748D01*
X-137798Y10835D01*
X-137853Y10920D01*
X-137911Y11004D01*
X-137972Y11084D01*
X-138037Y11163D01*
X-138104Y11239D01*
X-138174Y11312D01*
X-138247Y11382D01*
X-138323Y11449D01*
X-138401Y11514D01*
X-138482Y11575D01*
X-138566Y11633D01*
X-138651Y11688D01*
X-138738Y11739D01*
X-138828Y11787D01*
X-138919Y11831D01*
X-139012Y11871D01*
X-139106Y11908D01*
X-139202Y11942D01*
X-139299Y11971D01*
X-139397Y11997D01*
X-139496Y12018D01*
X-139596Y12036D01*
X-139696Y12050D01*
X-139797Y12060D01*
X-139899Y12066D01*
X-140000Y12068D01*
X-147747Y12068D01*
X-147747Y18536D02*
X-137418Y18536D01*
X-133114Y18105D02*
X-132253Y18105D01*
X-132253Y18966D01*
X-133114Y18966D01*
X-133114Y18105D01*
X-141722Y25799D02*
X-143443Y30103D01*
X-141721Y25799D02*
X-141685Y25713D01*
X-141644Y25628D01*
X-141601Y25545D01*
X-141553Y25464D01*
X-141503Y25385D01*
X-141449Y25308D01*
X-141392Y25233D01*
X-141332Y25161D01*
X-141268Y25092D01*
X-141202Y25025D01*
X-141134Y24961D01*
X-141062Y24900D01*
X-140988Y24843D01*
X-140912Y24788D01*
X-140834Y24736D01*
X-140753Y24688D01*
X-140671Y24644D01*
X-140586Y24602D01*
X-140500Y24565D01*
X-140413Y24531D01*
X-140324Y24501D01*
X-140234Y24474D01*
X-140143Y24451D01*
X-140051Y24432D01*
X-139958Y24418D01*
X-139865Y24406D01*
X-139771Y24399D01*
X-139678Y24396D01*
X-139584Y24397D01*
X-139490Y24402D01*
X-139397Y24410D01*
X-139304Y24423D01*
X-139211Y24439D01*
X-139120Y24460D01*
X-139029Y24484D01*
X-138939Y24512D01*
X-138851Y24544D01*
X-138764Y24579D01*
X-138679Y24618D01*
X-138595Y24660D01*
X-138513Y24707D01*
X-138434Y24756D01*
X-138356Y24809D01*
X-138281Y24865D01*
X-138208Y24924D01*
X-138137Y24986D01*
X-138070Y25051D01*
X-138005Y25119D01*
X-137943Y25189D01*
X-137884Y25262D01*
X-137828Y25338D01*
X-137775Y25415D01*
X-137726Y25495D01*
X-137680Y25577D01*
X-137638Y25661D01*
X-137599Y25746D01*
X-137563Y25833D01*
X-137532Y25921D01*
X-137504Y26011D01*
X-137480Y26102D01*
X-137460Y26193D01*
X-137443Y26286D01*
X-137431Y26379D01*
X-137422Y26472D01*
X-137418Y26566D01*
X-137417Y26660D01*
X-137418Y26660D02*
X-137424Y26895D01*
X-137436Y27129D01*
X-137453Y27364D01*
X-137477Y27598D01*
X-137505Y27831D01*
X-137540Y28063D01*
X-137580Y28295D01*
X-137625Y28526D01*
X-137676Y28755D01*
X-137732Y28983D01*
X-137794Y29210D01*
X-137862Y29435D01*
X-137935Y29659D01*
X-138013Y29880D01*
X-138096Y30100D01*
X-138185Y30318D01*
X-138279Y30533D01*
X-143443Y30103D02*
X-143479Y30189D01*
X-143520Y30274D01*
X-143563Y30357D01*
X-143611Y30438D01*
X-143661Y30517D01*
X-143715Y30594D01*
X-143772Y30669D01*
X-143832Y30741D01*
X-143896Y30810D01*
X-143962Y30877D01*
X-144030Y30941D01*
X-144102Y31002D01*
X-144176Y31059D01*
X-144252Y31114D01*
X-144330Y31166D01*
X-144411Y31214D01*
X-144493Y31258D01*
X-144578Y31300D01*
X-144664Y31337D01*
X-144751Y31371D01*
X-144840Y31401D01*
X-144930Y31428D01*
X-145021Y31451D01*
X-145113Y31470D01*
X-145206Y31484D01*
X-145299Y31496D01*
X-145393Y31503D01*
X-145486Y31506D01*
X-145580Y31505D01*
X-145674Y31500D01*
X-145767Y31492D01*
X-145860Y31479D01*
X-145953Y31463D01*
X-146044Y31442D01*
X-146135Y31418D01*
X-146225Y31390D01*
X-146313Y31358D01*
X-146400Y31323D01*
X-146485Y31284D01*
X-146569Y31242D01*
X-146651Y31195D01*
X-146730Y31146D01*
X-146808Y31093D01*
X-146883Y31037D01*
X-146956Y30978D01*
X-147027Y30916D01*
X-147094Y30851D01*
X-147159Y30783D01*
X-147221Y30713D01*
X-147280Y30640D01*
X-147336Y30564D01*
X-147389Y30487D01*
X-147438Y30407D01*
X-147484Y30325D01*
X-147526Y30241D01*
X-147565Y30156D01*
X-147601Y30069D01*
X-147632Y29981D01*
X-147660Y29891D01*
X-147684Y29800D01*
X-147704Y29709D01*
X-147721Y29616D01*
X-147733Y29523D01*
X-147742Y29430D01*
X-147746Y29336D01*
X-147747Y29242D01*
X-147737Y28896D01*
X-147720Y28552D01*
X-147695Y28207D01*
X-147662Y27864D01*
X-147620Y27521D01*
X-147570Y27179D01*
X-147513Y26839D01*
X-147447Y26500D01*
X-147373Y26162D01*
X-147291Y25827D01*
X-147202Y25494D01*
X-147104Y25162D01*
X-146999Y24834D01*
X-146886Y24507D01*
X-145165Y37620D02*
X-132253Y37620D01*
X-145165Y37621D02*
X-145264Y37623D01*
X-145363Y37629D01*
X-145461Y37638D01*
X-145559Y37651D01*
X-145657Y37668D01*
X-145753Y37689D01*
X-145849Y37713D01*
X-145944Y37741D01*
X-146038Y37773D01*
X-146130Y37808D01*
X-146221Y37847D01*
X-146311Y37889D01*
X-146398Y37935D01*
X-146484Y37984D01*
X-146568Y38036D01*
X-146650Y38091D01*
X-146730Y38150D01*
X-146808Y38211D01*
X-146883Y38275D01*
X-146955Y38343D01*
X-147025Y38413D01*
X-147093Y38485D01*
X-147157Y38560D01*
X-147218Y38638D01*
X-147277Y38718D01*
X-147332Y38800D01*
X-147384Y38884D01*
X-147433Y38970D01*
X-147479Y39057D01*
X-147521Y39147D01*
X-147560Y39238D01*
X-147595Y39330D01*
X-147627Y39424D01*
X-147655Y39519D01*
X-147679Y39615D01*
X-147700Y39711D01*
X-147717Y39809D01*
X-147730Y39907D01*
X-147739Y40005D01*
X-147745Y40104D01*
X-147747Y40203D01*
X-141722Y48264D02*
X-141722Y52138D01*
X-141721Y48264D02*
X-141723Y48155D01*
X-141729Y48047D01*
X-141739Y47938D01*
X-141752Y47830D01*
X-141770Y47723D01*
X-141791Y47616D01*
X-141817Y47510D01*
X-141846Y47406D01*
X-141879Y47302D01*
X-141915Y47199D01*
X-141956Y47098D01*
X-141999Y46999D01*
X-142047Y46901D01*
X-142098Y46805D01*
X-142152Y46711D01*
X-142210Y46618D01*
X-142271Y46528D01*
X-142335Y46441D01*
X-142403Y46355D01*
X-142473Y46272D01*
X-142547Y46192D01*
X-142623Y46114D01*
X-142702Y46040D01*
X-142783Y45968D01*
X-142868Y45899D01*
X-142954Y45833D01*
X-143043Y45770D01*
X-143134Y45711D01*
X-143228Y45655D01*
X-143323Y45602D01*
X-143420Y45553D01*
X-143518Y45507D01*
X-143619Y45465D01*
X-143721Y45427D01*
X-143824Y45392D01*
X-143928Y45361D01*
X-144033Y45334D01*
X-144140Y45310D01*
X-144247Y45291D01*
X-144354Y45275D01*
X-144462Y45263D01*
X-144571Y45255D01*
X-144680Y45251D01*
X-144788Y45251D01*
X-144897Y45255D01*
X-145006Y45263D01*
X-145114Y45275D01*
X-145221Y45291D01*
X-145328Y45310D01*
X-145435Y45334D01*
X-145540Y45361D01*
X-145644Y45392D01*
X-145747Y45427D01*
X-145849Y45465D01*
X-145950Y45507D01*
X-146048Y45553D01*
X-146145Y45602D01*
X-146241Y45655D01*
X-146334Y45711D01*
X-146425Y45770D01*
X-146514Y45833D01*
X-146600Y45899D01*
X-146685Y45968D01*
X-146766Y46040D01*
X-146845Y46114D01*
X-146921Y46192D01*
X-146995Y46272D01*
X-147065Y46355D01*
X-147133Y46441D01*
X-147197Y46528D01*
X-147258Y46618D01*
X-147316Y46711D01*
X-147370Y46805D01*
X-147421Y46901D01*
X-147469Y46999D01*
X-147512Y47098D01*
X-147553Y47199D01*
X-147589Y47302D01*
X-147622Y47406D01*
X-147651Y47510D01*
X-147677Y47616D01*
X-147698Y47723D01*
X-147716Y47830D01*
X-147729Y47938D01*
X-147739Y48047D01*
X-147745Y48155D01*
X-147747Y48264D01*
X-147747Y52138D01*
X-140000Y52138D01*
X-140000Y52137D02*
X-139901Y52135D01*
X-139802Y52129D01*
X-139704Y52120D01*
X-139606Y52107D01*
X-139508Y52090D01*
X-139412Y52069D01*
X-139316Y52045D01*
X-139221Y52017D01*
X-139127Y51985D01*
X-139035Y51950D01*
X-138944Y51911D01*
X-138854Y51869D01*
X-138767Y51823D01*
X-138681Y51774D01*
X-138597Y51722D01*
X-138515Y51667D01*
X-138435Y51608D01*
X-138357Y51547D01*
X-138282Y51483D01*
X-138210Y51415D01*
X-138140Y51345D01*
X-138072Y51273D01*
X-138008Y51198D01*
X-137947Y51120D01*
X-137888Y51040D01*
X-137833Y50958D01*
X-137781Y50874D01*
X-137732Y50788D01*
X-137686Y50701D01*
X-137644Y50611D01*
X-137605Y50520D01*
X-137570Y50428D01*
X-137538Y50334D01*
X-137510Y50239D01*
X-137486Y50143D01*
X-137465Y50047D01*
X-137448Y49949D01*
X-137435Y49851D01*
X-137426Y49753D01*
X-137420Y49654D01*
X-137418Y49555D01*
X-137418Y46112D01*
X-137418Y58203D02*
X-147747Y61647D01*
X-137418Y65090D01*
X-132253Y74426D02*
X-144304Y74426D01*
X-144419Y74424D01*
X-144534Y74418D01*
X-144649Y74409D01*
X-144763Y74395D01*
X-144877Y74378D01*
X-144990Y74357D01*
X-145102Y74332D01*
X-145214Y74304D01*
X-145324Y74271D01*
X-145433Y74235D01*
X-145541Y74196D01*
X-145648Y74153D01*
X-145753Y74106D01*
X-145857Y74056D01*
X-145959Y74002D01*
X-146059Y73945D01*
X-146157Y73885D01*
X-146253Y73822D01*
X-146346Y73755D01*
X-146438Y73685D01*
X-146527Y73612D01*
X-146614Y73536D01*
X-146698Y73458D01*
X-146779Y73377D01*
X-146858Y73292D01*
X-146933Y73206D01*
X-147006Y73117D01*
X-147076Y73025D01*
X-147143Y72932D01*
X-147206Y72836D01*
X-147266Y72738D01*
X-147323Y72638D01*
X-147377Y72536D01*
X-147427Y72432D01*
X-147474Y72327D01*
X-147517Y72220D01*
X-147557Y72112D01*
X-147592Y72003D01*
X-147625Y71893D01*
X-147653Y71781D01*
X-147678Y71669D01*
X-147699Y71556D01*
X-147716Y71442D01*
X-147730Y71328D01*
X-147739Y71213D01*
X-147745Y71098D01*
X-147747Y70983D01*
X-147747Y69262D01*
X-144304Y80998D02*
X-140861Y80998D01*
X-140745Y81000D01*
X-140629Y81006D01*
X-140513Y81016D01*
X-140397Y81029D01*
X-140282Y81047D01*
X-140168Y81068D01*
X-140054Y81094D01*
X-139942Y81123D01*
X-139830Y81156D01*
X-139720Y81193D01*
X-139611Y81233D01*
X-139503Y81277D01*
X-139397Y81325D01*
X-139293Y81376D01*
X-139190Y81431D01*
X-139089Y81489D01*
X-138991Y81550D01*
X-138894Y81615D01*
X-138800Y81683D01*
X-138708Y81754D01*
X-138618Y81829D01*
X-138531Y81906D01*
X-138447Y81986D01*
X-138366Y82069D01*
X-138287Y82155D01*
X-138211Y82243D01*
X-138138Y82334D01*
X-138069Y82427D01*
X-138002Y82522D01*
X-137939Y82620D01*
X-137879Y82719D01*
X-137823Y82821D01*
X-137770Y82925D01*
X-137720Y83030D01*
X-137675Y83137D01*
X-137632Y83245D01*
X-137594Y83355D01*
X-137559Y83466D01*
X-137528Y83578D01*
X-137501Y83691D01*
X-137477Y83805D01*
X-137458Y83920D01*
X-137442Y84035D01*
X-137430Y84151D01*
X-137422Y84267D01*
X-137418Y84383D01*
X-137418Y84499D01*
X-137422Y84615D01*
X-137430Y84731D01*
X-137442Y84847D01*
X-137458Y84962D01*
X-137477Y85077D01*
X-137501Y85191D01*
X-137528Y85304D01*
X-137559Y85416D01*
X-137594Y85527D01*
X-137632Y85637D01*
X-137675Y85745D01*
X-137720Y85852D01*
X-137770Y85957D01*
X-137823Y86061D01*
X-137879Y86162D01*
X-137939Y86262D01*
X-138002Y86360D01*
X-138069Y86455D01*
X-138138Y86548D01*
X-138211Y86639D01*
X-138287Y86727D01*
X-138366Y86813D01*
X-138447Y86896D01*
X-138531Y86976D01*
X-138618Y87053D01*
X-138708Y87128D01*
X-138800Y87199D01*
X-138894Y87267D01*
X-138991Y87332D01*
X-139089Y87393D01*
X-139190Y87451D01*
X-139293Y87506D01*
X-139397Y87557D01*
X-139503Y87605D01*
X-139611Y87649D01*
X-139720Y87689D01*
X-139830Y87726D01*
X-139942Y87759D01*
X-140054Y87788D01*
X-140168Y87814D01*
X-140282Y87835D01*
X-140397Y87853D01*
X-140513Y87866D01*
X-140629Y87876D01*
X-140745Y87882D01*
X-140861Y87884D01*
X-144304Y87884D01*
X-144420Y87882D01*
X-144536Y87876D01*
X-144652Y87866D01*
X-144768Y87853D01*
X-144883Y87835D01*
X-144997Y87814D01*
X-145111Y87788D01*
X-145223Y87759D01*
X-145335Y87726D01*
X-145445Y87689D01*
X-145554Y87649D01*
X-145662Y87605D01*
X-145768Y87557D01*
X-145872Y87506D01*
X-145975Y87451D01*
X-146076Y87393D01*
X-146174Y87332D01*
X-146271Y87267D01*
X-146365Y87199D01*
X-146457Y87128D01*
X-146547Y87053D01*
X-146634Y86976D01*
X-146718Y86896D01*
X-146799Y86813D01*
X-146878Y86727D01*
X-146954Y86639D01*
X-147027Y86548D01*
X-147096Y86455D01*
X-147163Y86360D01*
X-147226Y86262D01*
X-147286Y86163D01*
X-147342Y86061D01*
X-147395Y85957D01*
X-147445Y85852D01*
X-147490Y85745D01*
X-147533Y85637D01*
X-147571Y85527D01*
X-147606Y85416D01*
X-147637Y85304D01*
X-147664Y85191D01*
X-147688Y85077D01*
X-147707Y84962D01*
X-147723Y84847D01*
X-147735Y84731D01*
X-147743Y84615D01*
X-147747Y84499D01*
X-147747Y84383D01*
X-147743Y84267D01*
X-147735Y84151D01*
X-147723Y84035D01*
X-147707Y83920D01*
X-147688Y83805D01*
X-147664Y83691D01*
X-147637Y83578D01*
X-147606Y83466D01*
X-147571Y83355D01*
X-147533Y83245D01*
X-147490Y83137D01*
X-147445Y83030D01*
X-147395Y82925D01*
X-147342Y82821D01*
X-147286Y82720D01*
X-147226Y82620D01*
X-147163Y82522D01*
X-147096Y82427D01*
X-147027Y82334D01*
X-146954Y82243D01*
X-146878Y82155D01*
X-146799Y82069D01*
X-146718Y81986D01*
X-146634Y81906D01*
X-146547Y81829D01*
X-146457Y81754D01*
X-146365Y81683D01*
X-146271Y81615D01*
X-146174Y81550D01*
X-146076Y81489D01*
X-145975Y81431D01*
X-145872Y81376D01*
X-145768Y81325D01*
X-145662Y81277D01*
X-145554Y81233D01*
X-145445Y81193D01*
X-145335Y81156D01*
X-145223Y81123D01*
X-145111Y81094D01*
X-144997Y81068D01*
X-144883Y81047D01*
X-144768Y81029D01*
X-144652Y81016D01*
X-144536Y81006D01*
X-144420Y81000D01*
X-144304Y80998D01*
X-147747Y96480D02*
X-147747Y99923D01*
X-147747Y96480D02*
X-147745Y96381D01*
X-147739Y96282D01*
X-147730Y96184D01*
X-147717Y96086D01*
X-147700Y95988D01*
X-147679Y95892D01*
X-147655Y95796D01*
X-147627Y95701D01*
X-147595Y95607D01*
X-147560Y95515D01*
X-147521Y95424D01*
X-147479Y95334D01*
X-147433Y95247D01*
X-147384Y95161D01*
X-147332Y95077D01*
X-147277Y94995D01*
X-147218Y94915D01*
X-147157Y94837D01*
X-147093Y94762D01*
X-147025Y94690D01*
X-146955Y94620D01*
X-146883Y94552D01*
X-146808Y94488D01*
X-146730Y94427D01*
X-146650Y94368D01*
X-146568Y94313D01*
X-146484Y94261D01*
X-146398Y94212D01*
X-146311Y94166D01*
X-146221Y94124D01*
X-146130Y94085D01*
X-146038Y94050D01*
X-145944Y94018D01*
X-145849Y93990D01*
X-145753Y93966D01*
X-145657Y93945D01*
X-145559Y93928D01*
X-145461Y93915D01*
X-145363Y93906D01*
X-145264Y93900D01*
X-145165Y93898D01*
X-145165Y93897D02*
X-140000Y93897D01*
X-140000Y93898D02*
X-139901Y93900D01*
X-139802Y93906D01*
X-139704Y93915D01*
X-139606Y93928D01*
X-139508Y93945D01*
X-139412Y93966D01*
X-139316Y93990D01*
X-139221Y94018D01*
X-139127Y94050D01*
X-139035Y94085D01*
X-138944Y94124D01*
X-138854Y94166D01*
X-138767Y94212D01*
X-138681Y94261D01*
X-138597Y94313D01*
X-138515Y94368D01*
X-138435Y94427D01*
X-138357Y94488D01*
X-138282Y94552D01*
X-138210Y94620D01*
X-138140Y94690D01*
X-138072Y94762D01*
X-138008Y94837D01*
X-137947Y94915D01*
X-137888Y94995D01*
X-137833Y95077D01*
X-137781Y95161D01*
X-137732Y95247D01*
X-137686Y95334D01*
X-137644Y95424D01*
X-137605Y95515D01*
X-137570Y95607D01*
X-137538Y95701D01*
X-137510Y95796D01*
X-137486Y95892D01*
X-137465Y95988D01*
X-137448Y96086D01*
X-137435Y96184D01*
X-137426Y96282D01*
X-137420Y96381D01*
X-137418Y96480D01*
X-137418Y99923D01*
X-132253Y105774D02*
X-147747Y105774D01*
X-137418Y105774D02*
X-137418Y110078D01*
X-137420Y110179D01*
X-137426Y110281D01*
X-137436Y110381D01*
X-137450Y110482D01*
X-137468Y110582D01*
X-137489Y110681D01*
X-137515Y110779D01*
X-137544Y110876D01*
X-137578Y110972D01*
X-137615Y111066D01*
X-137655Y111159D01*
X-137699Y111250D01*
X-137747Y111340D01*
X-137798Y111427D01*
X-137853Y111512D01*
X-137911Y111596D01*
X-137972Y111676D01*
X-138037Y111755D01*
X-138104Y111831D01*
X-138174Y111904D01*
X-138247Y111974D01*
X-138323Y112041D01*
X-138401Y112106D01*
X-138482Y112167D01*
X-138566Y112225D01*
X-138651Y112280D01*
X-138738Y112331D01*
X-138828Y112379D01*
X-138919Y112423D01*
X-139012Y112463D01*
X-139106Y112500D01*
X-139202Y112534D01*
X-139299Y112563D01*
X-139397Y112589D01*
X-139496Y112610D01*
X-139596Y112628D01*
X-139696Y112642D01*
X-139797Y112652D01*
X-139899Y112658D01*
X-140000Y112660D01*
X-147747Y112660D01*
X-147747Y119909D02*
X-137418Y119909D01*
X-137418Y127656D01*
X-137420Y127755D01*
X-137426Y127854D01*
X-137435Y127952D01*
X-137448Y128050D01*
X-137465Y128148D01*
X-137486Y128244D01*
X-137510Y128340D01*
X-137538Y128435D01*
X-137570Y128529D01*
X-137605Y128621D01*
X-137644Y128712D01*
X-137686Y128802D01*
X-137732Y128889D01*
X-137781Y128975D01*
X-137833Y129059D01*
X-137888Y129141D01*
X-137947Y129221D01*
X-138008Y129299D01*
X-138072Y129374D01*
X-138140Y129446D01*
X-138210Y129516D01*
X-138282Y129584D01*
X-138357Y129648D01*
X-138435Y129709D01*
X-138515Y129768D01*
X-138597Y129823D01*
X-138681Y129875D01*
X-138767Y129924D01*
X-138854Y129970D01*
X-138944Y130012D01*
X-139035Y130051D01*
X-139127Y130086D01*
X-139221Y130118D01*
X-139316Y130146D01*
X-139412Y130170D01*
X-139508Y130191D01*
X-139606Y130208D01*
X-139704Y130221D01*
X-139802Y130230D01*
X-139901Y130236D01*
X-140000Y130238D01*
X-140000Y130239D02*
X-147747Y130239D01*
X-147747Y125074D02*
X-137418Y125074D01*
X-141722Y139936D02*
X-141722Y143810D01*
X-141721Y139936D02*
X-141723Y139827D01*
X-141729Y139719D01*
X-141739Y139610D01*
X-141752Y139502D01*
X-141770Y139395D01*
X-141791Y139288D01*
X-141817Y139182D01*
X-141846Y139078D01*
X-141879Y138974D01*
X-141915Y138871D01*
X-141956Y138770D01*
X-141999Y138671D01*
X-142047Y138573D01*
X-142098Y138477D01*
X-142152Y138383D01*
X-142210Y138290D01*
X-142271Y138200D01*
X-142335Y138113D01*
X-142403Y138027D01*
X-142473Y137944D01*
X-142547Y137864D01*
X-142623Y137786D01*
X-142702Y137712D01*
X-142783Y137640D01*
X-142868Y137571D01*
X-142954Y137505D01*
X-143043Y137442D01*
X-143134Y137383D01*
X-143228Y137327D01*
X-143323Y137274D01*
X-143420Y137225D01*
X-143518Y137179D01*
X-143619Y137137D01*
X-143721Y137099D01*
X-143824Y137064D01*
X-143928Y137033D01*
X-144033Y137006D01*
X-144140Y136982D01*
X-144247Y136963D01*
X-144354Y136947D01*
X-144462Y136935D01*
X-144571Y136927D01*
X-144680Y136923D01*
X-144788Y136923D01*
X-144897Y136927D01*
X-145006Y136935D01*
X-145114Y136947D01*
X-145221Y136963D01*
X-145328Y136982D01*
X-145435Y137006D01*
X-145540Y137033D01*
X-145644Y137064D01*
X-145747Y137099D01*
X-145849Y137137D01*
X-145950Y137179D01*
X-146048Y137225D01*
X-146145Y137274D01*
X-146241Y137327D01*
X-146334Y137383D01*
X-146425Y137442D01*
X-146514Y137505D01*
X-146600Y137571D01*
X-146685Y137640D01*
X-146766Y137712D01*
X-146845Y137786D01*
X-146921Y137864D01*
X-146995Y137944D01*
X-147065Y138027D01*
X-147133Y138113D01*
X-147197Y138200D01*
X-147258Y138290D01*
X-147316Y138383D01*
X-147370Y138477D01*
X-147421Y138573D01*
X-147469Y138671D01*
X-147512Y138770D01*
X-147553Y138871D01*
X-147589Y138974D01*
X-147622Y139078D01*
X-147651Y139182D01*
X-147677Y139288D01*
X-147698Y139395D01*
X-147716Y139502D01*
X-147729Y139610D01*
X-147739Y139719D01*
X-147745Y139827D01*
X-147747Y139936D01*
X-147747Y143810D01*
X-140000Y143810D01*
X-139901Y143808D01*
X-139802Y143802D01*
X-139704Y143793D01*
X-139606Y143780D01*
X-139508Y143763D01*
X-139412Y143742D01*
X-139316Y143718D01*
X-139221Y143690D01*
X-139127Y143658D01*
X-139035Y143623D01*
X-138944Y143584D01*
X-138854Y143542D01*
X-138767Y143496D01*
X-138681Y143447D01*
X-138597Y143395D01*
X-138515Y143340D01*
X-138435Y143281D01*
X-138357Y143220D01*
X-138282Y143156D01*
X-138210Y143088D01*
X-138140Y143018D01*
X-138072Y142946D01*
X-138008Y142871D01*
X-137947Y142793D01*
X-137888Y142713D01*
X-137833Y142631D01*
X-137781Y142547D01*
X-137732Y142461D01*
X-137686Y142374D01*
X-137644Y142284D01*
X-137605Y142193D01*
X-137570Y142101D01*
X-137538Y142007D01*
X-137510Y141912D01*
X-137486Y141816D01*
X-137465Y141720D01*
X-137448Y141622D01*
X-137435Y141524D01*
X-137426Y141426D01*
X-137420Y141327D01*
X-137418Y141228D01*
X-137418Y137784D01*
X-137418Y150867D02*
X-147747Y150867D01*
X-137418Y150867D02*
X-137418Y155171D01*
X-137420Y155272D01*
X-137426Y155374D01*
X-137436Y155474D01*
X-137450Y155575D01*
X-137468Y155675D01*
X-137489Y155774D01*
X-137515Y155872D01*
X-137544Y155969D01*
X-137578Y156065D01*
X-137615Y156159D01*
X-137655Y156252D01*
X-137699Y156343D01*
X-137747Y156433D01*
X-137798Y156520D01*
X-137853Y156605D01*
X-137911Y156689D01*
X-137972Y156769D01*
X-138037Y156848D01*
X-138104Y156924D01*
X-138174Y156997D01*
X-138247Y157067D01*
X-138323Y157134D01*
X-138401Y157199D01*
X-138482Y157260D01*
X-138566Y157318D01*
X-138651Y157373D01*
X-138738Y157424D01*
X-138828Y157472D01*
X-138919Y157516D01*
X-139012Y157556D01*
X-139106Y157593D01*
X-139202Y157627D01*
X-139299Y157656D01*
X-139397Y157682D01*
X-139496Y157703D01*
X-139596Y157721D01*
X-139696Y157735D01*
X-139797Y157745D01*
X-139899Y157751D01*
X-140000Y157753D01*
X-147747Y157753D01*
D11*
X88132Y-48537D02*
X88632Y-49594D01*
X89106Y-50663D01*
X89555Y-51742D01*
X89978Y-52833D01*
X90375Y-53933D01*
X90745Y-55042D01*
X91089Y-56159D01*
X91406Y-57285D01*
X91696Y-58417D01*
X91959Y-59557D01*
X92194Y-60702D01*
X92403Y-61853D01*
X92583Y-63008D01*
X92736Y-64167D01*
X92862Y-65330D01*
X92959Y-66495D01*
X93029Y-67662D01*
X93071Y-68831D01*
X93085Y-70000D01*
X88132Y-48537D02*
X88032Y-48257D01*
X87925Y-47979D01*
X87812Y-47705D01*
X87692Y-47433D01*
X87566Y-47164D01*
X87433Y-46898D01*
X87293Y-46636D01*
X87147Y-46377D01*
X86995Y-46122D01*
X86837Y-45870D01*
X86673Y-45622D01*
X86503Y-45379D01*
X86327Y-45139D01*
X86145Y-44904D01*
X85957Y-44674D01*
X85764Y-44448D01*
X85566Y-44227D01*
X85362Y-44011D01*
X85153Y-43800D01*
X84939Y-43594D01*
X84719Y-43393D01*
X84496Y-43197D01*
X84267Y-43008D01*
X84034Y-42823D01*
X83796Y-42645D01*
X83555Y-42472D01*
X83309Y-42305D01*
X83059Y-42144D01*
X82805Y-41990D01*
X82548Y-41841D01*
X82287Y-41699D01*
X82022Y-41564D01*
X81755Y-41434D01*
X81484Y-41312D01*
X81210Y-41196D01*
X80934Y-41086D01*
X80655Y-40984D01*
X80374Y-40888D01*
X80091Y-40799D01*
X79805Y-40717D01*
X79517Y-40642D01*
X79228Y-40574D01*
X78937Y-40513D01*
X78645Y-40459D01*
X78352Y-40412D01*
X78057Y-40372D01*
X77762Y-40340D01*
X77466Y-40315D01*
X77169Y-40296D01*
X76872Y-40286D01*
X76575Y-40282D01*
X76278Y-40286D01*
X75981Y-40296D01*
X75684Y-40315D01*
X75388Y-40340D01*
X75093Y-40372D01*
X74798Y-40412D01*
X74505Y-40459D01*
X74213Y-40513D01*
X73922Y-40574D01*
X73633Y-40642D01*
X73345Y-40717D01*
X73059Y-40799D01*
X72776Y-40888D01*
X72495Y-40984D01*
X72216Y-41086D01*
X71940Y-41196D01*
X71666Y-41312D01*
X71395Y-41434D01*
X71128Y-41564D01*
X70863Y-41699D01*
X70602Y-41841D01*
X70345Y-41990D01*
X70091Y-42144D01*
X69841Y-42305D01*
X69595Y-42472D01*
X69354Y-42645D01*
X69116Y-42823D01*
X68883Y-43008D01*
X68654Y-43197D01*
X68431Y-43393D01*
X68211Y-43594D01*
X67997Y-43800D01*
X67788Y-44011D01*
X67584Y-44227D01*
X67386Y-44448D01*
X67193Y-44674D01*
X67005Y-44904D01*
X66823Y-45139D01*
X66647Y-45379D01*
X66477Y-45622D01*
X66313Y-45870D01*
X66155Y-46122D01*
X66003Y-46377D01*
X65857Y-46636D01*
X65717Y-46898D01*
X65584Y-47164D01*
X65458Y-47433D01*
X65338Y-47705D01*
X65225Y-47979D01*
X65118Y-48257D01*
X65018Y-48537D01*
X65017Y-48537D02*
X64517Y-49594D01*
X64043Y-50663D01*
X63594Y-51742D01*
X63171Y-52833D01*
X62774Y-53933D01*
X62404Y-55042D01*
X62060Y-56159D01*
X61743Y-57285D01*
X61453Y-58417D01*
X61190Y-59557D01*
X60955Y-60702D01*
X60746Y-61853D01*
X60566Y-63008D01*
X60413Y-64167D01*
X60287Y-65330D01*
X60190Y-66495D01*
X60120Y-67662D01*
X60078Y-68831D01*
X60064Y-70000D01*
X93085Y-70000D02*
X93071Y-71169D01*
X93029Y-72338D01*
X92959Y-73505D01*
X92862Y-74670D01*
X92736Y-75833D01*
X92583Y-76992D01*
X92403Y-78147D01*
X92194Y-79298D01*
X91959Y-80443D01*
X91696Y-81583D01*
X91406Y-82715D01*
X91089Y-83841D01*
X90745Y-84958D01*
X90375Y-86067D01*
X89978Y-87167D01*
X89555Y-88258D01*
X89106Y-89337D01*
X88632Y-90406D01*
X88132Y-91463D01*
X88032Y-91743D01*
X87925Y-92021D01*
X87812Y-92295D01*
X87692Y-92567D01*
X87566Y-92836D01*
X87433Y-93102D01*
X87293Y-93364D01*
X87147Y-93623D01*
X86995Y-93878D01*
X86837Y-94130D01*
X86673Y-94378D01*
X86503Y-94621D01*
X86327Y-94861D01*
X86145Y-95096D01*
X85957Y-95326D01*
X85764Y-95552D01*
X85566Y-95773D01*
X85362Y-95989D01*
X85153Y-96200D01*
X84939Y-96406D01*
X84719Y-96607D01*
X84496Y-96803D01*
X84267Y-96992D01*
X84034Y-97177D01*
X83796Y-97355D01*
X83555Y-97528D01*
X83309Y-97695D01*
X83059Y-97856D01*
X82805Y-98010D01*
X82548Y-98159D01*
X82287Y-98301D01*
X82022Y-98436D01*
X81755Y-98566D01*
X81484Y-98688D01*
X81210Y-98804D01*
X80934Y-98914D01*
X80655Y-99016D01*
X80374Y-99112D01*
X80091Y-99201D01*
X79805Y-99283D01*
X79517Y-99358D01*
X79228Y-99426D01*
X78937Y-99487D01*
X78645Y-99541D01*
X78352Y-99588D01*
X78057Y-99628D01*
X77762Y-99660D01*
X77466Y-99685D01*
X77169Y-99704D01*
X76872Y-99714D01*
X76575Y-99718D01*
X65017Y-91463D02*
X64517Y-90406D01*
X64043Y-89337D01*
X63594Y-88258D01*
X63171Y-87167D01*
X62774Y-86067D01*
X62404Y-84958D01*
X62060Y-83841D01*
X61743Y-82715D01*
X61453Y-81583D01*
X61190Y-80443D01*
X60955Y-79298D01*
X60746Y-78147D01*
X60566Y-76992D01*
X60413Y-75833D01*
X60287Y-74670D01*
X60190Y-73505D01*
X60120Y-72338D01*
X60078Y-71169D01*
X60064Y-70000D01*
X65018Y-91463D02*
X65118Y-91743D01*
X65225Y-92021D01*
X65338Y-92295D01*
X65458Y-92567D01*
X65584Y-92836D01*
X65717Y-93102D01*
X65857Y-93364D01*
X66003Y-93623D01*
X66155Y-93878D01*
X66313Y-94130D01*
X66477Y-94378D01*
X66647Y-94621D01*
X66823Y-94861D01*
X67005Y-95096D01*
X67193Y-95326D01*
X67386Y-95552D01*
X67584Y-95773D01*
X67788Y-95989D01*
X67997Y-96200D01*
X68211Y-96406D01*
X68431Y-96607D01*
X68654Y-96803D01*
X68883Y-96992D01*
X69116Y-97177D01*
X69354Y-97355D01*
X69595Y-97528D01*
X69841Y-97695D01*
X70091Y-97856D01*
X70345Y-98010D01*
X70602Y-98159D01*
X70863Y-98301D01*
X71128Y-98436D01*
X71395Y-98566D01*
X71666Y-98688D01*
X71940Y-98804D01*
X72216Y-98914D01*
X72495Y-99016D01*
X72776Y-99112D01*
X73059Y-99201D01*
X73345Y-99283D01*
X73633Y-99358D01*
X73922Y-99426D01*
X74213Y-99487D01*
X74505Y-99541D01*
X74798Y-99588D01*
X75093Y-99628D01*
X75388Y-99660D01*
X75684Y-99685D01*
X75981Y-99704D01*
X76278Y-99714D01*
X76575Y-99718D01*
X89783Y-86510D02*
X63367Y-53490D01*
X48000Y-99718D02*
X8376Y-40282D01*
X48000Y-40282D02*
X8376Y-99718D01*
X-2153Y-106322D02*
X-28569Y-106322D01*
X-66669Y-106322D02*
X-93085Y-106322D01*
D12*
X-148062Y162599D02*
X-148139Y162524D01*
X-148219Y162453D01*
X-148301Y162384D01*
X-148386Y162319D01*
X-148473Y162256D01*
X-148563Y162197D01*
X-148654Y162141D01*
X-148748Y162089D01*
X-148843Y162040D01*
X-148940Y161994D01*
X-149039Y161952D01*
X-149139Y161914D01*
X-149240Y161879D01*
X-149343Y161848D01*
X-149447Y161821D01*
X-149551Y161798D01*
X-149657Y161779D01*
X-149763Y161763D01*
X-149869Y161751D01*
X-149976Y161743D01*
X-150083Y161739D01*
X-150191Y161739D01*
X-150298Y161743D01*
X-150405Y161751D01*
X-150511Y161763D01*
X-150617Y161779D01*
X-150723Y161798D01*
X-150827Y161821D01*
X-150931Y161848D01*
X-151034Y161879D01*
X-151135Y161914D01*
X-151235Y161952D01*
X-151334Y161994D01*
X-151431Y162040D01*
X-151526Y162089D01*
X-151620Y162141D01*
X-151711Y162197D01*
X-151801Y162256D01*
X-151888Y162319D01*
X-151973Y162384D01*
X-152055Y162453D01*
X-152135Y162524D01*
X-152212Y162599D01*
X-148062Y162599D02*
X-147955Y162708D01*
X-147851Y162820D01*
X-147750Y162935D01*
X-147651Y163052D01*
X-147556Y163172D01*
X-147463Y163293D01*
X-147374Y163418D01*
X-147287Y163544D01*
X-147204Y163672D01*
X-147124Y163802D01*
X-147047Y163935D01*
X-146974Y164069D01*
X-146903Y164205D01*
X-146836Y164342D01*
X-146773Y164482D01*
X-146713Y164622D01*
X-146656Y164765D01*
X-146604Y164908D01*
X-146554Y165053D01*
X-146508Y165199D01*
X-146466Y165346D01*
X-146427Y165494D01*
X-146393Y165643D01*
X-146361Y165793D01*
X-146334Y165943D01*
X-146310Y166094D01*
X-146290Y166246D01*
X-146274Y166398D01*
X-146261Y166551D01*
X-146252Y166703D01*
X-146247Y166856D01*
X-146246Y167009D01*
X-152473Y172716D02*
X-152550Y172791D01*
X-152630Y172862D01*
X-152712Y172931D01*
X-152797Y172996D01*
X-152884Y173059D01*
X-152974Y173118D01*
X-153065Y173174D01*
X-153159Y173226D01*
X-153254Y173275D01*
X-153351Y173321D01*
X-153450Y173363D01*
X-153550Y173401D01*
X-153651Y173436D01*
X-153754Y173467D01*
X-153858Y173494D01*
X-153962Y173517D01*
X-154068Y173536D01*
X-154174Y173552D01*
X-154280Y173564D01*
X-154387Y173572D01*
X-154494Y173576D01*
X-154602Y173576D01*
X-154709Y173572D01*
X-154816Y173564D01*
X-154922Y173552D01*
X-155028Y173536D01*
X-155134Y173517D01*
X-155238Y173494D01*
X-155342Y173467D01*
X-155445Y173436D01*
X-155546Y173401D01*
X-155646Y173363D01*
X-155745Y173321D01*
X-155842Y173275D01*
X-155937Y173226D01*
X-156031Y173174D01*
X-156122Y173118D01*
X-156212Y173059D01*
X-156299Y172996D01*
X-156384Y172931D01*
X-156466Y172862D01*
X-156546Y172791D01*
X-156623Y172716D01*
X-156726Y172610D01*
X-156826Y172502D01*
X-156923Y172391D01*
X-157017Y172277D01*
X-157108Y172161D01*
X-157196Y172043D01*
X-157281Y171922D01*
X-157362Y171799D01*
X-157440Y171674D01*
X-157515Y171546D01*
X-157586Y171417D01*
X-157654Y171286D01*
X-157718Y171153D01*
X-157779Y171019D01*
X-157836Y170883D01*
X-157889Y170745D01*
X-157939Y170606D01*
X-157985Y170466D01*
X-158027Y170324D01*
X-158065Y170182D01*
X-158100Y170038D01*
X-158130Y169894D01*
X-158157Y169749D01*
X-158180Y169603D01*
X-151694Y169863D02*
X-151669Y169967D01*
X-151648Y170072D01*
X-151630Y170177D01*
X-151617Y170283D01*
X-151607Y170389D01*
X-151601Y170496D01*
X-151599Y170602D01*
X-151601Y170709D01*
X-151606Y170816D01*
X-151615Y170922D01*
X-151629Y171028D01*
X-151645Y171133D01*
X-151666Y171238D01*
X-151690Y171342D01*
X-151719Y171445D01*
X-151750Y171547D01*
X-151786Y171647D01*
X-151825Y171747D01*
X-151867Y171845D01*
X-151913Y171941D01*
X-151962Y172035D01*
X-152015Y172128D01*
X-152071Y172219D01*
X-152130Y172308D01*
X-152193Y172394D01*
X-152258Y172479D01*
X-152327Y172561D01*
X-152398Y172640D01*
X-152472Y172717D01*
X-152991Y165453D02*
X-153016Y165349D01*
X-153037Y165244D01*
X-153055Y165139D01*
X-153068Y165033D01*
X-153078Y164927D01*
X-153084Y164820D01*
X-153086Y164714D01*
X-153084Y164607D01*
X-153079Y164500D01*
X-153070Y164394D01*
X-153056Y164288D01*
X-153040Y164183D01*
X-153019Y164078D01*
X-152995Y163974D01*
X-152966Y163871D01*
X-152935Y163769D01*
X-152899Y163669D01*
X-152860Y163569D01*
X-152818Y163471D01*
X-152772Y163375D01*
X-152723Y163281D01*
X-152670Y163188D01*
X-152614Y163097D01*
X-152555Y163008D01*
X-152492Y162922D01*
X-152427Y162837D01*
X-152358Y162755D01*
X-152287Y162676D01*
X-152213Y162599D01*
X-152991Y165452D02*
X-151694Y169863D01*
X-155750Y154911D02*
X-157825Y152836D01*
X-155750Y154911D02*
X-155675Y154988D01*
X-155604Y155068D01*
X-155535Y155150D01*
X-155470Y155235D01*
X-155407Y155322D01*
X-155348Y155412D01*
X-155292Y155503D01*
X-155240Y155597D01*
X-155191Y155692D01*
X-155145Y155789D01*
X-155103Y155888D01*
X-155065Y155988D01*
X-155030Y156089D01*
X-154999Y156192D01*
X-154972Y156296D01*
X-154949Y156400D01*
X-154930Y156506D01*
X-154914Y156612D01*
X-154902Y156718D01*
X-154894Y156825D01*
X-154890Y156932D01*
X-154890Y157040D01*
X-154894Y157147D01*
X-154902Y157254D01*
X-154914Y157360D01*
X-154930Y157466D01*
X-154949Y157572D01*
X-154972Y157676D01*
X-154999Y157780D01*
X-155030Y157883D01*
X-155065Y157984D01*
X-155103Y158084D01*
X-155145Y158183D01*
X-155191Y158280D01*
X-155240Y158375D01*
X-155292Y158469D01*
X-155348Y158560D01*
X-155407Y158650D01*
X-155470Y158737D01*
X-155535Y158822D01*
X-155604Y158904D01*
X-155675Y158984D01*
X-155750Y159061D01*
X-155750Y159062D02*
X-160938Y164250D01*
X-160939Y164250D02*
X-161016Y164325D01*
X-161096Y164396D01*
X-161178Y164465D01*
X-161263Y164530D01*
X-161350Y164593D01*
X-161440Y164652D01*
X-161531Y164708D01*
X-161625Y164760D01*
X-161720Y164809D01*
X-161817Y164855D01*
X-161916Y164897D01*
X-162016Y164935D01*
X-162117Y164970D01*
X-162220Y165001D01*
X-162324Y165028D01*
X-162428Y165051D01*
X-162534Y165070D01*
X-162640Y165086D01*
X-162746Y165098D01*
X-162853Y165106D01*
X-162960Y165110D01*
X-163068Y165110D01*
X-163175Y165106D01*
X-163282Y165098D01*
X-163388Y165086D01*
X-163494Y165070D01*
X-163600Y165051D01*
X-163704Y165028D01*
X-163808Y165001D01*
X-163911Y164970D01*
X-164012Y164935D01*
X-164112Y164897D01*
X-164211Y164855D01*
X-164308Y164809D01*
X-164403Y164760D01*
X-164497Y164708D01*
X-164588Y164652D01*
X-164678Y164593D01*
X-164765Y164530D01*
X-164850Y164465D01*
X-164932Y164396D01*
X-165012Y164325D01*
X-165089Y164250D01*
X-167165Y162175D01*
X-170901Y158439D02*
X-161561Y149099D01*
X-165712Y144949D01*
X-155726Y-169463D02*
X-155801Y-169540D01*
X-155872Y-169620D01*
X-155941Y-169702D01*
X-156006Y-169787D01*
X-156069Y-169874D01*
X-156128Y-169964D01*
X-156184Y-170055D01*
X-156236Y-170149D01*
X-156285Y-170244D01*
X-156331Y-170341D01*
X-156373Y-170440D01*
X-156411Y-170540D01*
X-156446Y-170641D01*
X-156477Y-170744D01*
X-156504Y-170848D01*
X-156527Y-170952D01*
X-156546Y-171058D01*
X-156562Y-171164D01*
X-156574Y-171270D01*
X-156582Y-171377D01*
X-156586Y-171484D01*
X-156586Y-171592D01*
X-156582Y-171699D01*
X-156574Y-171806D01*
X-156562Y-171912D01*
X-156546Y-172018D01*
X-156527Y-172124D01*
X-156504Y-172228D01*
X-156477Y-172332D01*
X-156446Y-172435D01*
X-156411Y-172536D01*
X-156373Y-172636D01*
X-156331Y-172735D01*
X-156285Y-172832D01*
X-156236Y-172927D01*
X-156184Y-173021D01*
X-156128Y-173112D01*
X-156069Y-173202D01*
X-156006Y-173289D01*
X-155941Y-173374D01*
X-155872Y-173456D01*
X-155801Y-173536D01*
X-155726Y-173613D01*
X-155617Y-173720D01*
X-155505Y-173824D01*
X-155390Y-173925D01*
X-155273Y-174024D01*
X-155153Y-174119D01*
X-155031Y-174212D01*
X-154907Y-174301D01*
X-154781Y-174388D01*
X-154653Y-174471D01*
X-154523Y-174551D01*
X-154390Y-174628D01*
X-154256Y-174701D01*
X-154120Y-174772D01*
X-153983Y-174839D01*
X-153843Y-174902D01*
X-153703Y-174962D01*
X-153560Y-175019D01*
X-153417Y-175071D01*
X-153272Y-175121D01*
X-153126Y-175167D01*
X-152979Y-175209D01*
X-152831Y-175248D01*
X-152682Y-175282D01*
X-152532Y-175314D01*
X-152382Y-175341D01*
X-152231Y-175365D01*
X-152079Y-175385D01*
X-151927Y-175401D01*
X-151775Y-175414D01*
X-151622Y-175423D01*
X-151469Y-175428D01*
X-151316Y-175429D01*
X-145609Y-169202D02*
X-145534Y-169125D01*
X-145463Y-169045D01*
X-145394Y-168963D01*
X-145329Y-168878D01*
X-145266Y-168791D01*
X-145207Y-168701D01*
X-145151Y-168610D01*
X-145099Y-168516D01*
X-145050Y-168421D01*
X-145004Y-168324D01*
X-144962Y-168225D01*
X-144924Y-168125D01*
X-144889Y-168024D01*
X-144858Y-167921D01*
X-144831Y-167817D01*
X-144808Y-167713D01*
X-144789Y-167607D01*
X-144773Y-167501D01*
X-144761Y-167395D01*
X-144753Y-167288D01*
X-144749Y-167181D01*
X-144749Y-167073D01*
X-144753Y-166966D01*
X-144761Y-166859D01*
X-144773Y-166753D01*
X-144789Y-166647D01*
X-144808Y-166541D01*
X-144831Y-166437D01*
X-144858Y-166333D01*
X-144889Y-166230D01*
X-144924Y-166129D01*
X-144962Y-166029D01*
X-145004Y-165930D01*
X-145050Y-165833D01*
X-145099Y-165738D01*
X-145151Y-165644D01*
X-145207Y-165553D01*
X-145266Y-165463D01*
X-145329Y-165376D01*
X-145394Y-165291D01*
X-145463Y-165209D01*
X-145534Y-165129D01*
X-145609Y-165052D01*
X-145715Y-164949D01*
X-145823Y-164849D01*
X-145934Y-164752D01*
X-146048Y-164658D01*
X-146164Y-164567D01*
X-146282Y-164479D01*
X-146403Y-164394D01*
X-146526Y-164313D01*
X-146651Y-164235D01*
X-146779Y-164160D01*
X-146908Y-164089D01*
X-147039Y-164021D01*
X-147172Y-163957D01*
X-147306Y-163896D01*
X-147442Y-163839D01*
X-147580Y-163786D01*
X-147719Y-163736D01*
X-147859Y-163690D01*
X-148001Y-163648D01*
X-148143Y-163610D01*
X-148287Y-163575D01*
X-148431Y-163545D01*
X-148576Y-163518D01*
X-148722Y-163495D01*
X-148462Y-169981D02*
X-148358Y-170006D01*
X-148254Y-170027D01*
X-148148Y-170045D01*
X-148042Y-170058D01*
X-147936Y-170068D01*
X-147830Y-170074D01*
X-147723Y-170076D01*
X-147616Y-170074D01*
X-147510Y-170069D01*
X-147403Y-170060D01*
X-147297Y-170046D01*
X-147192Y-170030D01*
X-147087Y-170009D01*
X-146983Y-169985D01*
X-146880Y-169956D01*
X-146778Y-169925D01*
X-146678Y-169889D01*
X-146578Y-169850D01*
X-146480Y-169808D01*
X-146384Y-169762D01*
X-146290Y-169713D01*
X-146197Y-169660D01*
X-146106Y-169604D01*
X-146017Y-169545D01*
X-145931Y-169482D01*
X-145846Y-169417D01*
X-145764Y-169348D01*
X-145685Y-169277D01*
X-145608Y-169203D01*
X-152872Y-168684D02*
X-152976Y-168659D01*
X-153081Y-168638D01*
X-153186Y-168620D01*
X-153292Y-168607D01*
X-153398Y-168597D01*
X-153505Y-168591D01*
X-153611Y-168589D01*
X-153718Y-168591D01*
X-153825Y-168596D01*
X-153931Y-168605D01*
X-154037Y-168619D01*
X-154142Y-168635D01*
X-154247Y-168656D01*
X-154351Y-168680D01*
X-154454Y-168709D01*
X-154556Y-168740D01*
X-154656Y-168776D01*
X-154756Y-168815D01*
X-154854Y-168857D01*
X-154950Y-168903D01*
X-155044Y-168952D01*
X-155137Y-169005D01*
X-155228Y-169061D01*
X-155317Y-169120D01*
X-155403Y-169183D01*
X-155488Y-169248D01*
X-155570Y-169317D01*
X-155649Y-169388D01*
X-155726Y-169462D01*
X-152873Y-168684D02*
X-148462Y-169981D01*
X-152326Y-158335D02*
X-161665Y-167674D01*
X-152326Y-158335D02*
X-154920Y-155740D01*
X-154920Y-155741D02*
X-155006Y-155657D01*
X-155095Y-155577D01*
X-155186Y-155499D01*
X-155280Y-155424D01*
X-155377Y-155353D01*
X-155476Y-155284D01*
X-155577Y-155219D01*
X-155679Y-155158D01*
X-155784Y-155099D01*
X-155891Y-155044D01*
X-156000Y-154993D01*
X-156110Y-154945D01*
X-156222Y-154901D01*
X-156335Y-154861D01*
X-156449Y-154824D01*
X-156564Y-154791D01*
X-156681Y-154762D01*
X-156798Y-154736D01*
X-156916Y-154715D01*
X-157035Y-154697D01*
X-157154Y-154684D01*
X-157274Y-154674D01*
X-157394Y-154668D01*
X-157514Y-154666D01*
X-157634Y-154668D01*
X-157754Y-154674D01*
X-157874Y-154684D01*
X-157993Y-154697D01*
X-158112Y-154715D01*
X-158230Y-154737D01*
X-158347Y-154762D01*
X-158464Y-154791D01*
X-158579Y-154824D01*
X-158693Y-154861D01*
X-158806Y-154901D01*
X-158918Y-154945D01*
X-159028Y-154993D01*
X-159137Y-155044D01*
X-159244Y-155099D01*
X-159349Y-155158D01*
X-159452Y-155219D01*
X-159552Y-155284D01*
X-159651Y-155353D01*
X-159748Y-155424D01*
X-159842Y-155499D01*
X-159933Y-155577D01*
X-160022Y-155657D01*
X-160108Y-155741D01*
X-160109Y-155741D02*
X-164260Y-159891D01*
X-164259Y-159892D02*
X-164343Y-159978D01*
X-164424Y-160067D01*
X-164501Y-160158D01*
X-164576Y-160252D01*
X-164647Y-160349D01*
X-164716Y-160448D01*
X-164781Y-160549D01*
X-164842Y-160652D01*
X-164901Y-160756D01*
X-164956Y-160863D01*
X-165007Y-160972D01*
X-165055Y-161082D01*
X-165099Y-161194D01*
X-165139Y-161307D01*
X-165176Y-161421D01*
X-165209Y-161536D01*
X-165238Y-161653D01*
X-165264Y-161770D01*
X-165285Y-161888D01*
X-165303Y-162007D01*
X-165316Y-162126D01*
X-165326Y-162246D01*
X-165332Y-162366D01*
X-165334Y-162486D01*
X-165332Y-162606D01*
X-165326Y-162726D01*
X-165316Y-162846D01*
X-165303Y-162965D01*
X-165285Y-163084D01*
X-165264Y-163202D01*
X-165238Y-163319D01*
X-165209Y-163436D01*
X-165176Y-163551D01*
X-165139Y-163665D01*
X-165099Y-163778D01*
X-165055Y-163890D01*
X-165007Y-164000D01*
X-164956Y-164109D01*
X-164901Y-164216D01*
X-164842Y-164321D01*
X-164781Y-164423D01*
X-164716Y-164524D01*
X-164647Y-164623D01*
X-164576Y-164720D01*
X-164501Y-164814D01*
X-164424Y-164905D01*
X-164343Y-164994D01*
X-164259Y-165080D01*
X-164260Y-165080D02*
X-161665Y-167674D01*
X-170500Y-158839D02*
X-164274Y-146387D01*
X-176727Y-152613D01*
X-173613Y-151056D02*
X-168944Y-155726D01*
X166543Y-152420D02*
X168099Y-150863D01*
X166543Y-152420D02*
X171731Y-157608D01*
X174844Y-154495D01*
X174919Y-154418D01*
X174990Y-154338D01*
X175059Y-154256D01*
X175124Y-154171D01*
X175187Y-154084D01*
X175246Y-153994D01*
X175302Y-153903D01*
X175354Y-153809D01*
X175403Y-153714D01*
X175449Y-153617D01*
X175491Y-153518D01*
X175529Y-153418D01*
X175564Y-153317D01*
X175595Y-153214D01*
X175622Y-153110D01*
X175645Y-153006D01*
X175664Y-152900D01*
X175680Y-152794D01*
X175692Y-152688D01*
X175700Y-152581D01*
X175704Y-152474D01*
X175704Y-152366D01*
X175700Y-152259D01*
X175692Y-152152D01*
X175680Y-152046D01*
X175664Y-151940D01*
X175645Y-151834D01*
X175622Y-151730D01*
X175595Y-151626D01*
X175564Y-151523D01*
X175529Y-151422D01*
X175491Y-151322D01*
X175449Y-151223D01*
X175403Y-151126D01*
X175354Y-151031D01*
X175302Y-150937D01*
X175246Y-150846D01*
X175187Y-150756D01*
X175124Y-150669D01*
X175059Y-150584D01*
X174990Y-150502D01*
X174919Y-150422D01*
X174844Y-150345D01*
X174844Y-150344D02*
X169656Y-145156D01*
X169655Y-145156D02*
X169578Y-145081D01*
X169498Y-145010D01*
X169416Y-144941D01*
X169331Y-144876D01*
X169244Y-144813D01*
X169154Y-144754D01*
X169063Y-144698D01*
X168969Y-144646D01*
X168874Y-144597D01*
X168777Y-144551D01*
X168678Y-144509D01*
X168578Y-144471D01*
X168477Y-144436D01*
X168374Y-144405D01*
X168270Y-144378D01*
X168166Y-144355D01*
X168060Y-144336D01*
X167954Y-144320D01*
X167848Y-144308D01*
X167741Y-144300D01*
X167634Y-144296D01*
X167526Y-144296D01*
X167419Y-144300D01*
X167312Y-144308D01*
X167206Y-144320D01*
X167100Y-144336D01*
X166994Y-144355D01*
X166890Y-144378D01*
X166786Y-144405D01*
X166683Y-144436D01*
X166582Y-144471D01*
X166482Y-144509D01*
X166383Y-144551D01*
X166286Y-144597D01*
X166191Y-144646D01*
X166097Y-144698D01*
X166006Y-144754D01*
X165916Y-144813D01*
X165829Y-144876D01*
X165744Y-144941D01*
X165662Y-145010D01*
X165582Y-145081D01*
X165505Y-145156D01*
X162392Y-148269D01*
X157925Y-152736D02*
X167264Y-162075D01*
X162076Y-167264D02*
X157925Y-152736D01*
X152736Y-157924D02*
X162076Y-167264D01*
X157609Y-171731D02*
X148269Y-162391D01*
X145675Y-164986D01*
X145591Y-165072D01*
X145511Y-165161D01*
X145433Y-165252D01*
X145358Y-165346D01*
X145287Y-165443D01*
X145218Y-165542D01*
X145153Y-165643D01*
X145092Y-165745D01*
X145033Y-165850D01*
X144978Y-165957D01*
X144927Y-166066D01*
X144879Y-166176D01*
X144835Y-166288D01*
X144795Y-166401D01*
X144758Y-166515D01*
X144725Y-166630D01*
X144696Y-166747D01*
X144670Y-166864D01*
X144649Y-166982D01*
X144631Y-167101D01*
X144618Y-167220D01*
X144608Y-167340D01*
X144602Y-167460D01*
X144600Y-167580D01*
X144602Y-167700D01*
X144608Y-167820D01*
X144618Y-167940D01*
X144631Y-168059D01*
X144649Y-168178D01*
X144671Y-168296D01*
X144696Y-168413D01*
X144725Y-168530D01*
X144758Y-168645D01*
X144795Y-168759D01*
X144835Y-168872D01*
X144879Y-168984D01*
X144927Y-169094D01*
X144978Y-169203D01*
X145033Y-169310D01*
X145092Y-169415D01*
X145153Y-169518D01*
X145218Y-169618D01*
X145287Y-169717D01*
X145358Y-169814D01*
X145433Y-169908D01*
X145511Y-169999D01*
X145591Y-170088D01*
X145675Y-170174D01*
X149826Y-174325D01*
X149912Y-174409D01*
X150001Y-174490D01*
X150092Y-174567D01*
X150186Y-174642D01*
X150283Y-174713D01*
X150382Y-174782D01*
X150483Y-174847D01*
X150586Y-174908D01*
X150690Y-174967D01*
X150797Y-175022D01*
X150906Y-175073D01*
X151016Y-175121D01*
X151128Y-175165D01*
X151241Y-175205D01*
X151355Y-175242D01*
X151470Y-175275D01*
X151587Y-175304D01*
X151704Y-175330D01*
X151822Y-175351D01*
X151941Y-175369D01*
X152060Y-175382D01*
X152180Y-175392D01*
X152300Y-175398D01*
X152420Y-175400D01*
X152540Y-175398D01*
X152660Y-175392D01*
X152780Y-175382D01*
X152899Y-175369D01*
X153018Y-175351D01*
X153136Y-175330D01*
X153253Y-175304D01*
X153370Y-175275D01*
X153485Y-175242D01*
X153599Y-175205D01*
X153712Y-175165D01*
X153824Y-175121D01*
X153934Y-175073D01*
X154043Y-175022D01*
X154150Y-174967D01*
X154255Y-174908D01*
X154357Y-174847D01*
X154458Y-174782D01*
X154557Y-174713D01*
X154654Y-174642D01*
X154748Y-174567D01*
X154839Y-174490D01*
X154928Y-174409D01*
X155014Y-174325D01*
X157609Y-171731D01*
X171429Y146495D02*
X165203Y152722D01*
X171429Y152722D02*
X165203Y146495D01*
X157623Y153038D02*
X154510Y156151D01*
X154435Y156228D01*
X154364Y156308D01*
X154295Y156390D01*
X154230Y156475D01*
X154167Y156562D01*
X154108Y156652D01*
X154052Y156743D01*
X154000Y156837D01*
X153951Y156932D01*
X153905Y157029D01*
X153863Y157128D01*
X153825Y157228D01*
X153790Y157329D01*
X153759Y157432D01*
X153732Y157536D01*
X153709Y157640D01*
X153690Y157746D01*
X153674Y157852D01*
X153662Y157958D01*
X153654Y158065D01*
X153650Y158172D01*
X153650Y158280D01*
X153654Y158387D01*
X153662Y158494D01*
X153674Y158600D01*
X153690Y158706D01*
X153709Y158812D01*
X153732Y158916D01*
X153759Y159020D01*
X153790Y159123D01*
X153825Y159224D01*
X153863Y159324D01*
X153905Y159423D01*
X153951Y159520D01*
X154000Y159615D01*
X154052Y159709D01*
X154108Y159800D01*
X154167Y159890D01*
X154230Y159977D01*
X154295Y160062D01*
X154364Y160144D01*
X154435Y160224D01*
X154510Y160301D01*
X154510Y160302D02*
X155548Y161339D01*
X155625Y161414D01*
X155705Y161485D01*
X155787Y161554D01*
X155872Y161619D01*
X155959Y161682D01*
X156049Y161741D01*
X156140Y161797D01*
X156234Y161849D01*
X156329Y161898D01*
X156426Y161944D01*
X156525Y161986D01*
X156625Y162024D01*
X156726Y162059D01*
X156829Y162090D01*
X156933Y162117D01*
X157037Y162140D01*
X157143Y162159D01*
X157249Y162175D01*
X157355Y162187D01*
X157462Y162195D01*
X157569Y162199D01*
X157677Y162199D01*
X157784Y162195D01*
X157891Y162187D01*
X157997Y162175D01*
X158103Y162159D01*
X158209Y162140D01*
X158313Y162117D01*
X158417Y162090D01*
X158520Y162059D01*
X158621Y162024D01*
X158721Y161986D01*
X158820Y161944D01*
X158917Y161898D01*
X159012Y161849D01*
X159106Y161797D01*
X159198Y161741D01*
X159287Y161682D01*
X159374Y161619D01*
X159459Y161554D01*
X159541Y161485D01*
X159621Y161414D01*
X159698Y161339D01*
X162812Y158226D01*
X166962Y162377D01*
X161774Y167566D01*
X158429Y170910D02*
X145977Y164684D01*
X152203Y177137D01*
X116613Y91274D02*
X116536Y91199D01*
X116456Y91128D01*
X116374Y91059D01*
X116289Y90994D01*
X116202Y90931D01*
X116112Y90872D01*
X116021Y90816D01*
X115927Y90764D01*
X115832Y90715D01*
X115735Y90669D01*
X115636Y90627D01*
X115536Y90589D01*
X115435Y90554D01*
X115332Y90523D01*
X115228Y90496D01*
X115124Y90473D01*
X115018Y90454D01*
X114912Y90438D01*
X114806Y90426D01*
X114699Y90418D01*
X114592Y90414D01*
X114484Y90414D01*
X114377Y90418D01*
X114270Y90426D01*
X114164Y90438D01*
X114058Y90454D01*
X113952Y90473D01*
X113848Y90496D01*
X113744Y90523D01*
X113641Y90554D01*
X113540Y90589D01*
X113440Y90627D01*
X113341Y90669D01*
X113244Y90715D01*
X113149Y90764D01*
X113055Y90816D01*
X112964Y90872D01*
X112874Y90931D01*
X112787Y90994D01*
X112702Y91059D01*
X112620Y91128D01*
X112540Y91199D01*
X112463Y91274D01*
X116613Y91274D02*
X116720Y91383D01*
X116824Y91495D01*
X116925Y91610D01*
X117024Y91727D01*
X117119Y91847D01*
X117212Y91968D01*
X117301Y92093D01*
X117388Y92219D01*
X117471Y92347D01*
X117551Y92477D01*
X117628Y92610D01*
X117701Y92744D01*
X117772Y92880D01*
X117839Y93017D01*
X117902Y93157D01*
X117962Y93297D01*
X118019Y93440D01*
X118071Y93583D01*
X118121Y93728D01*
X118167Y93874D01*
X118209Y94021D01*
X118248Y94169D01*
X118282Y94318D01*
X118314Y94468D01*
X118341Y94618D01*
X118365Y94769D01*
X118385Y94921D01*
X118401Y95073D01*
X118414Y95225D01*
X118423Y95378D01*
X118428Y95531D01*
X118429Y95684D01*
X112203Y101391D02*
X112126Y101466D01*
X112046Y101537D01*
X111964Y101606D01*
X111879Y101671D01*
X111792Y101734D01*
X111702Y101793D01*
X111611Y101849D01*
X111517Y101901D01*
X111422Y101950D01*
X111325Y101996D01*
X111226Y102038D01*
X111126Y102076D01*
X111025Y102111D01*
X110922Y102142D01*
X110818Y102169D01*
X110714Y102192D01*
X110608Y102211D01*
X110502Y102227D01*
X110396Y102239D01*
X110289Y102247D01*
X110182Y102251D01*
X110074Y102251D01*
X109967Y102247D01*
X109860Y102239D01*
X109754Y102227D01*
X109648Y102211D01*
X109542Y102192D01*
X109438Y102169D01*
X109334Y102142D01*
X109231Y102111D01*
X109130Y102076D01*
X109030Y102038D01*
X108931Y101996D01*
X108834Y101950D01*
X108739Y101901D01*
X108645Y101849D01*
X108554Y101793D01*
X108464Y101734D01*
X108377Y101671D01*
X108292Y101606D01*
X108210Y101537D01*
X108130Y101466D01*
X108053Y101391D01*
X107950Y101285D01*
X107850Y101177D01*
X107753Y101066D01*
X107659Y100952D01*
X107568Y100836D01*
X107480Y100718D01*
X107395Y100597D01*
X107314Y100474D01*
X107236Y100349D01*
X107161Y100221D01*
X107090Y100092D01*
X107022Y99961D01*
X106958Y99828D01*
X106897Y99694D01*
X106840Y99558D01*
X106787Y99420D01*
X106737Y99281D01*
X106691Y99141D01*
X106649Y98999D01*
X106611Y98857D01*
X106576Y98713D01*
X106546Y98569D01*
X106519Y98424D01*
X106496Y98278D01*
X112981Y98538D02*
X113006Y98642D01*
X113027Y98746D01*
X113045Y98852D01*
X113058Y98958D01*
X113068Y99064D01*
X113074Y99170D01*
X113076Y99277D01*
X113074Y99384D01*
X113069Y99490D01*
X113060Y99597D01*
X113046Y99703D01*
X113030Y99808D01*
X113009Y99913D01*
X112985Y100017D01*
X112956Y100120D01*
X112925Y100222D01*
X112889Y100322D01*
X112850Y100422D01*
X112808Y100520D01*
X112762Y100616D01*
X112713Y100710D01*
X112660Y100803D01*
X112604Y100894D01*
X112545Y100983D01*
X112482Y101069D01*
X112417Y101154D01*
X112348Y101236D01*
X112277Y101315D01*
X112203Y101392D01*
X111685Y94128D02*
X111660Y94024D01*
X111639Y93919D01*
X111621Y93814D01*
X111608Y93708D01*
X111598Y93602D01*
X111592Y93495D01*
X111590Y93389D01*
X111592Y93282D01*
X111597Y93175D01*
X111606Y93069D01*
X111620Y92963D01*
X111636Y92858D01*
X111657Y92753D01*
X111681Y92649D01*
X111710Y92546D01*
X111741Y92444D01*
X111777Y92344D01*
X111816Y92244D01*
X111858Y92146D01*
X111904Y92050D01*
X111953Y91956D01*
X112006Y91863D01*
X112062Y91772D01*
X112121Y91683D01*
X112184Y91597D01*
X112249Y91512D01*
X112318Y91430D01*
X112389Y91351D01*
X112463Y91274D01*
X111684Y94127D02*
X112981Y98538D01*
X101335Y94674D02*
X110674Y85335D01*
X101335Y94674D02*
X98741Y92080D01*
X98657Y91994D01*
X98577Y91905D01*
X98499Y91814D01*
X98424Y91720D01*
X98353Y91623D01*
X98284Y91524D01*
X98219Y91423D01*
X98158Y91321D01*
X98099Y91216D01*
X98044Y91109D01*
X97993Y91000D01*
X97945Y90890D01*
X97901Y90778D01*
X97861Y90665D01*
X97824Y90551D01*
X97791Y90436D01*
X97762Y90319D01*
X97736Y90202D01*
X97715Y90084D01*
X97697Y89965D01*
X97684Y89846D01*
X97674Y89726D01*
X97668Y89606D01*
X97666Y89486D01*
X97668Y89366D01*
X97674Y89246D01*
X97684Y89126D01*
X97697Y89007D01*
X97715Y88888D01*
X97736Y88770D01*
X97762Y88653D01*
X97791Y88536D01*
X97824Y88421D01*
X97861Y88307D01*
X97901Y88194D01*
X97945Y88082D01*
X97993Y87972D01*
X98044Y87863D01*
X98099Y87756D01*
X98158Y87651D01*
X98219Y87549D01*
X98284Y87448D01*
X98353Y87349D01*
X98424Y87252D01*
X98499Y87158D01*
X98577Y87067D01*
X98657Y86978D01*
X98741Y86892D01*
X98741Y86891D02*
X102892Y82740D01*
X102892Y82741D02*
X102978Y82657D01*
X103067Y82576D01*
X103158Y82499D01*
X103252Y82424D01*
X103349Y82353D01*
X103448Y82284D01*
X103549Y82219D01*
X103652Y82158D01*
X103756Y82099D01*
X103863Y82044D01*
X103972Y81993D01*
X104082Y81945D01*
X104194Y81901D01*
X104307Y81861D01*
X104421Y81824D01*
X104536Y81791D01*
X104653Y81762D01*
X104770Y81736D01*
X104888Y81715D01*
X105007Y81697D01*
X105126Y81684D01*
X105246Y81674D01*
X105366Y81668D01*
X105486Y81666D01*
X105606Y81668D01*
X105726Y81674D01*
X105846Y81684D01*
X105965Y81697D01*
X106084Y81715D01*
X106202Y81736D01*
X106319Y81762D01*
X106436Y81791D01*
X106551Y81824D01*
X106665Y81861D01*
X106778Y81901D01*
X106890Y81945D01*
X107000Y81993D01*
X107109Y82044D01*
X107216Y82099D01*
X107321Y82158D01*
X107423Y82219D01*
X107524Y82284D01*
X107623Y82353D01*
X107720Y82424D01*
X107814Y82499D01*
X107905Y82576D01*
X107994Y82657D01*
X108080Y82741D01*
X108080Y82740D02*
X110674Y85335D01*
X101840Y76500D02*
X89387Y82726D01*
X95613Y70274D01*
X94057Y73387D02*
X98726Y78056D01*
X97938Y107599D02*
X97861Y107524D01*
X97781Y107453D01*
X97699Y107384D01*
X97614Y107319D01*
X97527Y107256D01*
X97437Y107197D01*
X97346Y107141D01*
X97252Y107089D01*
X97157Y107040D01*
X97060Y106994D01*
X96961Y106952D01*
X96861Y106914D01*
X96760Y106879D01*
X96657Y106848D01*
X96553Y106821D01*
X96449Y106798D01*
X96343Y106779D01*
X96237Y106763D01*
X96131Y106751D01*
X96024Y106743D01*
X95917Y106739D01*
X95809Y106739D01*
X95702Y106743D01*
X95595Y106751D01*
X95489Y106763D01*
X95383Y106779D01*
X95277Y106798D01*
X95173Y106821D01*
X95069Y106848D01*
X94966Y106879D01*
X94865Y106914D01*
X94765Y106952D01*
X94666Y106994D01*
X94569Y107040D01*
X94474Y107089D01*
X94380Y107141D01*
X94289Y107197D01*
X94199Y107256D01*
X94112Y107319D01*
X94027Y107384D01*
X93945Y107453D01*
X93865Y107524D01*
X93788Y107599D01*
X97938Y107599D02*
X98045Y107708D01*
X98149Y107820D01*
X98250Y107935D01*
X98349Y108052D01*
X98444Y108172D01*
X98537Y108293D01*
X98626Y108418D01*
X98713Y108544D01*
X98796Y108672D01*
X98876Y108802D01*
X98953Y108935D01*
X99026Y109069D01*
X99097Y109205D01*
X99164Y109342D01*
X99227Y109482D01*
X99287Y109622D01*
X99344Y109765D01*
X99396Y109908D01*
X99446Y110053D01*
X99492Y110199D01*
X99534Y110346D01*
X99573Y110494D01*
X99607Y110643D01*
X99639Y110793D01*
X99666Y110943D01*
X99690Y111094D01*
X99710Y111246D01*
X99726Y111398D01*
X99739Y111550D01*
X99748Y111703D01*
X99753Y111856D01*
X99754Y112009D01*
X93528Y117716D02*
X93451Y117791D01*
X93371Y117862D01*
X93289Y117931D01*
X93204Y117996D01*
X93117Y118059D01*
X93027Y118118D01*
X92936Y118174D01*
X92842Y118226D01*
X92747Y118275D01*
X92650Y118321D01*
X92551Y118363D01*
X92451Y118401D01*
X92350Y118436D01*
X92247Y118467D01*
X92143Y118494D01*
X92039Y118517D01*
X91933Y118536D01*
X91827Y118552D01*
X91721Y118564D01*
X91614Y118572D01*
X91507Y118576D01*
X91399Y118576D01*
X91292Y118572D01*
X91185Y118564D01*
X91079Y118552D01*
X90973Y118536D01*
X90867Y118517D01*
X90763Y118494D01*
X90659Y118467D01*
X90556Y118436D01*
X90455Y118401D01*
X90355Y118363D01*
X90256Y118321D01*
X90159Y118275D01*
X90064Y118226D01*
X89970Y118174D01*
X89879Y118118D01*
X89789Y118059D01*
X89702Y117996D01*
X89617Y117931D01*
X89535Y117862D01*
X89455Y117791D01*
X89378Y117716D01*
X89275Y117610D01*
X89175Y117502D01*
X89078Y117391D01*
X88984Y117277D01*
X88893Y117161D01*
X88805Y117043D01*
X88720Y116922D01*
X88639Y116799D01*
X88561Y116674D01*
X88486Y116546D01*
X88415Y116417D01*
X88347Y116286D01*
X88283Y116153D01*
X88222Y116019D01*
X88165Y115883D01*
X88112Y115745D01*
X88062Y115606D01*
X88016Y115466D01*
X87974Y115324D01*
X87936Y115182D01*
X87901Y115038D01*
X87871Y114894D01*
X87844Y114749D01*
X87821Y114603D01*
X94306Y114863D02*
X94331Y114967D01*
X94352Y115071D01*
X94370Y115177D01*
X94383Y115283D01*
X94393Y115389D01*
X94399Y115495D01*
X94401Y115602D01*
X94399Y115709D01*
X94394Y115815D01*
X94385Y115922D01*
X94371Y116028D01*
X94355Y116133D01*
X94334Y116238D01*
X94310Y116342D01*
X94281Y116445D01*
X94250Y116547D01*
X94214Y116647D01*
X94175Y116747D01*
X94133Y116845D01*
X94087Y116941D01*
X94038Y117035D01*
X93985Y117128D01*
X93929Y117219D01*
X93870Y117308D01*
X93807Y117394D01*
X93742Y117479D01*
X93673Y117561D01*
X93602Y117640D01*
X93528Y117717D01*
X93010Y110453D02*
X92985Y110349D01*
X92964Y110244D01*
X92946Y110139D01*
X92933Y110033D01*
X92923Y109927D01*
X92917Y109820D01*
X92915Y109714D01*
X92917Y109607D01*
X92922Y109500D01*
X92931Y109394D01*
X92945Y109288D01*
X92961Y109183D01*
X92982Y109078D01*
X93006Y108974D01*
X93035Y108871D01*
X93066Y108769D01*
X93102Y108669D01*
X93141Y108569D01*
X93183Y108471D01*
X93229Y108375D01*
X93278Y108281D01*
X93331Y108188D01*
X93387Y108097D01*
X93446Y108008D01*
X93509Y107922D01*
X93574Y107837D01*
X93643Y107755D01*
X93714Y107676D01*
X93788Y107599D01*
X93009Y110452D02*
X94306Y114863D01*
X90251Y99911D02*
X88175Y97836D01*
X90250Y99911D02*
X90325Y99988D01*
X90396Y100068D01*
X90465Y100150D01*
X90530Y100235D01*
X90593Y100322D01*
X90652Y100412D01*
X90708Y100503D01*
X90760Y100597D01*
X90809Y100692D01*
X90855Y100789D01*
X90897Y100888D01*
X90935Y100988D01*
X90970Y101089D01*
X91001Y101192D01*
X91028Y101296D01*
X91051Y101400D01*
X91070Y101506D01*
X91086Y101612D01*
X91098Y101718D01*
X91106Y101825D01*
X91110Y101932D01*
X91110Y102040D01*
X91106Y102147D01*
X91098Y102254D01*
X91086Y102360D01*
X91070Y102466D01*
X91051Y102572D01*
X91028Y102676D01*
X91001Y102780D01*
X90970Y102883D01*
X90935Y102984D01*
X90897Y103084D01*
X90855Y103183D01*
X90809Y103280D01*
X90760Y103375D01*
X90708Y103469D01*
X90652Y103560D01*
X90593Y103650D01*
X90530Y103737D01*
X90465Y103822D01*
X90396Y103904D01*
X90325Y103984D01*
X90250Y104061D01*
X90251Y104062D02*
X85062Y109250D01*
X84985Y109325D01*
X84905Y109396D01*
X84823Y109465D01*
X84738Y109530D01*
X84651Y109593D01*
X84561Y109652D01*
X84470Y109708D01*
X84376Y109760D01*
X84281Y109809D01*
X84184Y109855D01*
X84085Y109897D01*
X83985Y109935D01*
X83884Y109970D01*
X83781Y110001D01*
X83677Y110028D01*
X83573Y110051D01*
X83467Y110070D01*
X83361Y110086D01*
X83255Y110098D01*
X83148Y110106D01*
X83041Y110110D01*
X82933Y110110D01*
X82826Y110106D01*
X82719Y110098D01*
X82613Y110086D01*
X82507Y110070D01*
X82401Y110051D01*
X82297Y110028D01*
X82193Y110001D01*
X82090Y109970D01*
X81989Y109935D01*
X81889Y109897D01*
X81790Y109855D01*
X81693Y109809D01*
X81598Y109760D01*
X81504Y109708D01*
X81413Y109652D01*
X81323Y109593D01*
X81236Y109530D01*
X81151Y109465D01*
X81069Y109396D01*
X80989Y109325D01*
X80912Y109250D01*
X80911Y109250D02*
X78836Y107175D01*
X75100Y103439D02*
X84439Y94099D01*
X80288Y89949D01*
X70543Y128580D02*
X72099Y130137D01*
X70543Y128580D02*
X75731Y123391D01*
X78844Y126505D01*
X78919Y126582D01*
X78990Y126662D01*
X79059Y126744D01*
X79124Y126829D01*
X79187Y126916D01*
X79246Y127006D01*
X79302Y127097D01*
X79354Y127191D01*
X79403Y127286D01*
X79449Y127383D01*
X79491Y127482D01*
X79529Y127582D01*
X79564Y127683D01*
X79595Y127786D01*
X79622Y127890D01*
X79645Y127994D01*
X79664Y128100D01*
X79680Y128206D01*
X79692Y128312D01*
X79700Y128419D01*
X79704Y128526D01*
X79704Y128634D01*
X79700Y128741D01*
X79692Y128848D01*
X79680Y128954D01*
X79664Y129060D01*
X79645Y129166D01*
X79622Y129270D01*
X79595Y129374D01*
X79564Y129477D01*
X79529Y129578D01*
X79491Y129678D01*
X79449Y129777D01*
X79403Y129874D01*
X79354Y129969D01*
X79302Y130063D01*
X79246Y130154D01*
X79187Y130244D01*
X79124Y130331D01*
X79059Y130416D01*
X78990Y130498D01*
X78919Y130578D01*
X78844Y130655D01*
X73656Y135844D01*
X73655Y135844D02*
X73578Y135919D01*
X73498Y135990D01*
X73416Y136059D01*
X73331Y136124D01*
X73244Y136187D01*
X73154Y136246D01*
X73063Y136302D01*
X72969Y136354D01*
X72874Y136403D01*
X72777Y136449D01*
X72678Y136491D01*
X72578Y136529D01*
X72477Y136564D01*
X72374Y136595D01*
X72270Y136622D01*
X72166Y136645D01*
X72060Y136664D01*
X71954Y136680D01*
X71848Y136692D01*
X71741Y136700D01*
X71634Y136704D01*
X71526Y136704D01*
X71419Y136700D01*
X71312Y136692D01*
X71206Y136680D01*
X71100Y136664D01*
X70994Y136645D01*
X70890Y136622D01*
X70786Y136595D01*
X70683Y136564D01*
X70582Y136529D01*
X70482Y136491D01*
X70383Y136449D01*
X70286Y136403D01*
X70191Y136354D01*
X70097Y136302D01*
X70006Y136246D01*
X69916Y136187D01*
X69829Y136124D01*
X69744Y136059D01*
X69662Y135990D01*
X69582Y135919D01*
X69505Y135844D01*
X66392Y132731D01*
X61925Y128264D02*
X71264Y118924D01*
X66076Y113736D02*
X61925Y128264D01*
X56736Y123075D02*
X66076Y113736D01*
X61609Y109269D02*
X52269Y118608D01*
X49675Y116014D01*
X49591Y115928D01*
X49511Y115839D01*
X49433Y115748D01*
X49358Y115654D01*
X49287Y115557D01*
X49218Y115458D01*
X49153Y115357D01*
X49092Y115255D01*
X49033Y115150D01*
X48978Y115043D01*
X48927Y114934D01*
X48879Y114824D01*
X48835Y114712D01*
X48795Y114599D01*
X48758Y114485D01*
X48725Y114370D01*
X48696Y114253D01*
X48670Y114136D01*
X48649Y114018D01*
X48631Y113899D01*
X48618Y113780D01*
X48608Y113660D01*
X48602Y113540D01*
X48600Y113420D01*
X48602Y113300D01*
X48608Y113180D01*
X48618Y113060D01*
X48631Y112941D01*
X48649Y112822D01*
X48670Y112704D01*
X48696Y112587D01*
X48725Y112470D01*
X48758Y112355D01*
X48795Y112241D01*
X48835Y112128D01*
X48879Y112016D01*
X48927Y111906D01*
X48978Y111797D01*
X49033Y111690D01*
X49092Y111585D01*
X49153Y111483D01*
X49218Y111382D01*
X49287Y111283D01*
X49358Y111186D01*
X49433Y111092D01*
X49511Y111001D01*
X49591Y110912D01*
X49675Y110826D01*
X49675Y110825D02*
X53826Y106675D01*
X53912Y106591D01*
X54001Y106510D01*
X54092Y106433D01*
X54186Y106358D01*
X54283Y106287D01*
X54382Y106218D01*
X54483Y106153D01*
X54586Y106092D01*
X54690Y106033D01*
X54797Y105978D01*
X54906Y105927D01*
X55016Y105879D01*
X55128Y105835D01*
X55241Y105795D01*
X55355Y105758D01*
X55470Y105725D01*
X55587Y105696D01*
X55704Y105670D01*
X55822Y105649D01*
X55941Y105631D01*
X56060Y105618D01*
X56180Y105608D01*
X56300Y105602D01*
X56420Y105600D01*
X56540Y105602D01*
X56660Y105608D01*
X56780Y105618D01*
X56899Y105631D01*
X57018Y105649D01*
X57136Y105670D01*
X57253Y105696D01*
X57370Y105725D01*
X57485Y105758D01*
X57599Y105795D01*
X57712Y105835D01*
X57824Y105879D01*
X57934Y105927D01*
X58043Y105978D01*
X58150Y106033D01*
X58255Y106092D01*
X58357Y106153D01*
X58458Y106218D01*
X58557Y106287D01*
X58654Y106358D01*
X58748Y106433D01*
X58839Y106510D01*
X58928Y106591D01*
X59014Y106675D01*
X61609Y109269D01*
X128278Y73203D02*
X134505Y79429D01*
X134505Y73203D02*
X128278Y79429D01*
X127962Y65623D02*
X124849Y62510D01*
X124772Y62435D01*
X124692Y62364D01*
X124610Y62295D01*
X124525Y62230D01*
X124438Y62167D01*
X124348Y62108D01*
X124257Y62052D01*
X124163Y62000D01*
X124068Y61951D01*
X123971Y61905D01*
X123872Y61863D01*
X123772Y61825D01*
X123671Y61790D01*
X123568Y61759D01*
X123464Y61732D01*
X123360Y61709D01*
X123254Y61690D01*
X123148Y61674D01*
X123042Y61662D01*
X122935Y61654D01*
X122828Y61650D01*
X122720Y61650D01*
X122613Y61654D01*
X122506Y61662D01*
X122400Y61674D01*
X122294Y61690D01*
X122188Y61709D01*
X122084Y61732D01*
X121980Y61759D01*
X121877Y61790D01*
X121776Y61825D01*
X121676Y61863D01*
X121577Y61905D01*
X121480Y61951D01*
X121385Y62000D01*
X121291Y62052D01*
X121200Y62108D01*
X121110Y62167D01*
X121023Y62230D01*
X120938Y62295D01*
X120856Y62364D01*
X120776Y62435D01*
X120699Y62510D01*
X120698Y62510D02*
X119661Y63547D01*
X119661Y63548D02*
X119586Y63625D01*
X119515Y63705D01*
X119446Y63787D01*
X119381Y63872D01*
X119318Y63959D01*
X119259Y64049D01*
X119203Y64140D01*
X119151Y64234D01*
X119102Y64329D01*
X119056Y64426D01*
X119014Y64525D01*
X118976Y64625D01*
X118941Y64726D01*
X118910Y64829D01*
X118883Y64933D01*
X118860Y65037D01*
X118841Y65143D01*
X118825Y65249D01*
X118813Y65355D01*
X118805Y65462D01*
X118801Y65569D01*
X118801Y65677D01*
X118805Y65784D01*
X118813Y65891D01*
X118825Y65997D01*
X118841Y66103D01*
X118860Y66209D01*
X118883Y66313D01*
X118910Y66417D01*
X118941Y66520D01*
X118976Y66621D01*
X119014Y66721D01*
X119056Y66820D01*
X119102Y66917D01*
X119151Y67012D01*
X119203Y67106D01*
X119259Y67198D01*
X119318Y67287D01*
X119381Y67374D01*
X119446Y67459D01*
X119515Y67541D01*
X119586Y67621D01*
X119661Y67698D01*
X122774Y70811D01*
X118623Y74962D01*
X113434Y69774D01*
X110090Y66429D02*
X116316Y53976D01*
X103863Y60203D01*
M02*
