G04 EAGLE Gerber RS-274X export*
G75*
%MOMM*%
%FSLAX34Y34*%
%LPD*%
%INSilkscreen Top*%
%IPPOS*%
%AMOC8*
5,1,8,0,0,1.08239X$1,22.5*%
G01*
%ADD10C,0.101600*%
%ADD11C,0.127000*%
%ADD12C,0.203200*%
%ADD13C,0.120000*%
%ADD14C,0.152400*%

G36*
X117519Y-243131D02*
X117519Y-243131D01*
X117572Y-243132D01*
X117595Y-243121D01*
X117606Y-243119D01*
X117616Y-243111D01*
X117646Y-243097D01*
X122727Y-239627D01*
X125514Y-241081D01*
X125547Y-241087D01*
X125577Y-241103D01*
X125615Y-241101D01*
X125652Y-241108D01*
X125684Y-241096D01*
X125717Y-241094D01*
X125748Y-241072D01*
X125784Y-241058D01*
X125804Y-241031D01*
X125831Y-241011D01*
X125864Y-240950D01*
X125868Y-240945D01*
X125868Y-240943D01*
X125870Y-240940D01*
X129426Y-230780D01*
X129430Y-230710D01*
X129434Y-230641D01*
X129434Y-230640D01*
X129434Y-230639D01*
X129400Y-230579D01*
X129366Y-230517D01*
X129365Y-230516D01*
X129363Y-230515D01*
X129300Y-230470D01*
X128062Y-229850D01*
X127007Y-228997D01*
X126848Y-228799D01*
X126158Y-227938D01*
X125556Y-226722D01*
X125229Y-225405D01*
X125191Y-224048D01*
X125444Y-222715D01*
X125977Y-221467D01*
X126765Y-220362D01*
X127771Y-219451D01*
X128949Y-218777D01*
X130243Y-218370D01*
X131596Y-218251D01*
X132904Y-218411D01*
X134152Y-218835D01*
X135288Y-219505D01*
X136264Y-220393D01*
X137037Y-221460D01*
X137577Y-222663D01*
X137861Y-223951D01*
X137875Y-225270D01*
X137621Y-226563D01*
X137108Y-227778D01*
X136358Y-228863D01*
X135403Y-229772D01*
X134261Y-230481D01*
X134218Y-230528D01*
X134173Y-230573D01*
X134171Y-230580D01*
X134166Y-230585D01*
X134155Y-230648D01*
X134141Y-230710D01*
X134143Y-230719D01*
X134142Y-230724D01*
X134146Y-230734D01*
X134159Y-230790D01*
X138096Y-240696D01*
X138107Y-240710D01*
X138111Y-240727D01*
X138149Y-240764D01*
X138182Y-240807D01*
X138199Y-240813D01*
X138212Y-240825D01*
X138264Y-240836D01*
X138315Y-240855D01*
X138332Y-240851D01*
X138349Y-240855D01*
X138428Y-240836D01*
X139952Y-240201D01*
X139962Y-240193D01*
X139995Y-240178D01*
X141376Y-239258D01*
X146314Y-242714D01*
X146367Y-242732D01*
X146417Y-242757D01*
X146432Y-242755D01*
X146447Y-242760D01*
X146501Y-242747D01*
X146557Y-242741D01*
X146575Y-242729D01*
X146584Y-242727D01*
X146593Y-242718D01*
X146626Y-242698D01*
X147642Y-241809D01*
X147645Y-241804D01*
X147654Y-241797D01*
X148543Y-240908D01*
X148546Y-240904D01*
X148553Y-240897D01*
X149569Y-239754D01*
X149572Y-239749D01*
X149580Y-239741D01*
X150469Y-238598D01*
X150487Y-238554D01*
X150512Y-238513D01*
X150512Y-238490D01*
X150521Y-238468D01*
X150512Y-238420D01*
X150512Y-238372D01*
X150497Y-238341D01*
X150495Y-238329D01*
X150488Y-238321D01*
X150477Y-238299D01*
X146886Y-233098D01*
X147694Y-231713D01*
X147697Y-231700D01*
X147715Y-231665D01*
X148223Y-230141D01*
X148224Y-230134D01*
X148229Y-230122D01*
X148697Y-228249D01*
X154760Y-227135D01*
X154816Y-227107D01*
X154874Y-227082D01*
X154879Y-227076D01*
X154886Y-227072D01*
X154919Y-227018D01*
X154954Y-226966D01*
X154956Y-226956D01*
X154959Y-226951D01*
X154958Y-226940D01*
X154967Y-226886D01*
X154967Y-223965D01*
X154965Y-223958D01*
X154966Y-223942D01*
X154839Y-222545D01*
X154839Y-222544D01*
X154839Y-222543D01*
X154712Y-221273D01*
X154693Y-221226D01*
X154682Y-221176D01*
X154667Y-221161D01*
X154660Y-221142D01*
X154618Y-221112D01*
X154582Y-221076D01*
X154555Y-221066D01*
X154545Y-221060D01*
X154534Y-221059D01*
X154506Y-221049D01*
X148434Y-219934D01*
X147971Y-218430D01*
X147966Y-218421D01*
X147960Y-218399D01*
X147325Y-217002D01*
X147319Y-216996D01*
X147313Y-216979D01*
X146428Y-215462D01*
X146373Y-215353D01*
X149840Y-210524D01*
X149857Y-210475D01*
X149882Y-210429D01*
X149880Y-210409D01*
X149887Y-210391D01*
X149875Y-210340D01*
X149872Y-210289D01*
X149858Y-210265D01*
X149856Y-210253D01*
X149847Y-210245D01*
X149832Y-210218D01*
X148816Y-208948D01*
X148808Y-208943D01*
X148797Y-208927D01*
X147527Y-207657D01*
X147522Y-207654D01*
X147515Y-207645D01*
X146499Y-206756D01*
X146491Y-206753D01*
X146479Y-206741D01*
X145590Y-206106D01*
X145548Y-206091D01*
X145511Y-206068D01*
X145483Y-206068D01*
X145457Y-206059D01*
X145414Y-206069D01*
X145370Y-206070D01*
X145332Y-206088D01*
X145320Y-206091D01*
X145314Y-206097D01*
X145297Y-206105D01*
X140220Y-209696D01*
X139216Y-209139D01*
X139209Y-209137D01*
X139196Y-209129D01*
X136910Y-208113D01*
X136897Y-208111D01*
X136862Y-208097D01*
X135883Y-207879D01*
X134770Y-201821D01*
X134746Y-201774D01*
X134730Y-201724D01*
X134715Y-201712D01*
X134707Y-201695D01*
X134662Y-201668D01*
X134621Y-201634D01*
X134596Y-201628D01*
X134586Y-201622D01*
X134574Y-201623D01*
X134542Y-201615D01*
X133018Y-201488D01*
X133011Y-201489D01*
X132997Y-201487D01*
X130076Y-201487D01*
X130068Y-201489D01*
X130051Y-201488D01*
X128781Y-201615D01*
X128732Y-201635D01*
X128680Y-201647D01*
X128667Y-201661D01*
X128650Y-201668D01*
X128619Y-201710D01*
X128582Y-201748D01*
X128574Y-201773D01*
X128568Y-201782D01*
X128567Y-201794D01*
X128556Y-201825D01*
X127565Y-207771D01*
X125805Y-208358D01*
X125801Y-208361D01*
X125791Y-208363D01*
X124521Y-208871D01*
X124513Y-208877D01*
X124489Y-208886D01*
X122853Y-209821D01*
X117906Y-206234D01*
X117858Y-206217D01*
X117813Y-206192D01*
X117793Y-206193D01*
X117773Y-206186D01*
X117723Y-206197D01*
X117673Y-206200D01*
X117647Y-206214D01*
X117635Y-206217D01*
X117627Y-206225D01*
X117602Y-206239D01*
X116459Y-207128D01*
X116453Y-207136D01*
X116435Y-207149D01*
X115165Y-208419D01*
X115162Y-208423D01*
X115155Y-208430D01*
X114143Y-209567D01*
X113514Y-210197D01*
X113484Y-210252D01*
X113450Y-210304D01*
X113450Y-210313D01*
X113446Y-210320D01*
X113450Y-210383D01*
X113449Y-210445D01*
X113454Y-210455D01*
X113454Y-210461D01*
X113461Y-210470D01*
X113484Y-210519D01*
X116948Y-215592D01*
X116270Y-216723D01*
X116268Y-216731D01*
X116257Y-216747D01*
X115495Y-218398D01*
X115493Y-218410D01*
X115481Y-218437D01*
X115104Y-219817D01*
X114785Y-220562D01*
X108699Y-221556D01*
X108640Y-221584D01*
X108580Y-221610D01*
X108577Y-221614D01*
X108572Y-221617D01*
X108537Y-221672D01*
X108500Y-221726D01*
X108499Y-221733D01*
X108497Y-221736D01*
X108497Y-221745D01*
X108487Y-221806D01*
X108487Y-227394D01*
X108505Y-227457D01*
X108521Y-227521D01*
X108524Y-227524D01*
X108526Y-227529D01*
X108575Y-227573D01*
X108622Y-227618D01*
X108629Y-227620D01*
X108631Y-227623D01*
X108640Y-227624D01*
X108699Y-227644D01*
X114764Y-228634D01*
X115228Y-230258D01*
X115228Y-230259D01*
X115228Y-230261D01*
X115609Y-231531D01*
X115616Y-231541D01*
X115626Y-231571D01*
X116134Y-232587D01*
X116137Y-232591D01*
X116141Y-232602D01*
X116947Y-233983D01*
X113361Y-238929D01*
X113341Y-238985D01*
X113316Y-239038D01*
X113318Y-239050D01*
X113313Y-239062D01*
X113325Y-239116D01*
X113325Y-239120D01*
X113327Y-239125D01*
X113333Y-239178D01*
X113342Y-239192D01*
X113344Y-239200D01*
X113353Y-239209D01*
X113377Y-239246D01*
X114393Y-240389D01*
X114397Y-240392D01*
X114403Y-240400D01*
X115292Y-241289D01*
X115296Y-241292D01*
X115303Y-241299D01*
X116446Y-242315D01*
X116447Y-242316D01*
X116449Y-242318D01*
X117338Y-243080D01*
X117387Y-243102D01*
X117431Y-243131D01*
X117450Y-243131D01*
X117466Y-243139D01*
X117519Y-243131D01*
G37*
D10*
X52508Y-176060D02*
X52508Y-189268D01*
X58378Y-189268D01*
X65234Y-189268D02*
X68903Y-189268D01*
X65234Y-189268D02*
X65143Y-189266D01*
X65052Y-189260D01*
X64962Y-189251D01*
X64872Y-189238D01*
X64782Y-189221D01*
X64694Y-189201D01*
X64606Y-189176D01*
X64519Y-189149D01*
X64434Y-189117D01*
X64350Y-189083D01*
X64267Y-189044D01*
X64186Y-189003D01*
X64107Y-188958D01*
X64030Y-188910D01*
X63955Y-188858D01*
X63882Y-188804D01*
X63811Y-188747D01*
X63743Y-188686D01*
X63678Y-188623D01*
X63615Y-188558D01*
X63554Y-188490D01*
X63497Y-188419D01*
X63443Y-188346D01*
X63391Y-188271D01*
X63343Y-188194D01*
X63298Y-188115D01*
X63257Y-188034D01*
X63218Y-187951D01*
X63184Y-187867D01*
X63152Y-187782D01*
X63125Y-187695D01*
X63100Y-187607D01*
X63080Y-187519D01*
X63063Y-187429D01*
X63050Y-187339D01*
X63041Y-187249D01*
X63035Y-187158D01*
X63033Y-187067D01*
X63032Y-187067D02*
X63032Y-183398D01*
X63033Y-183398D02*
X63035Y-183291D01*
X63041Y-183184D01*
X63051Y-183077D01*
X63064Y-182971D01*
X63082Y-182865D01*
X63103Y-182760D01*
X63128Y-182656D01*
X63157Y-182552D01*
X63190Y-182450D01*
X63227Y-182350D01*
X63267Y-182250D01*
X63311Y-182152D01*
X63358Y-182056D01*
X63409Y-181962D01*
X63463Y-181869D01*
X63520Y-181779D01*
X63581Y-181690D01*
X63645Y-181604D01*
X63712Y-181521D01*
X63782Y-181439D01*
X63855Y-181361D01*
X63931Y-181285D01*
X64009Y-181212D01*
X64091Y-181142D01*
X64174Y-181075D01*
X64260Y-181011D01*
X64349Y-180950D01*
X64439Y-180893D01*
X64532Y-180839D01*
X64626Y-180788D01*
X64722Y-180741D01*
X64820Y-180697D01*
X64920Y-180657D01*
X65020Y-180620D01*
X65122Y-180587D01*
X65226Y-180558D01*
X65330Y-180533D01*
X65435Y-180512D01*
X65541Y-180494D01*
X65647Y-180481D01*
X65754Y-180471D01*
X65861Y-180465D01*
X65968Y-180463D01*
X66075Y-180465D01*
X66182Y-180471D01*
X66289Y-180481D01*
X66395Y-180494D01*
X66501Y-180512D01*
X66606Y-180533D01*
X66710Y-180558D01*
X66814Y-180587D01*
X66916Y-180620D01*
X67016Y-180657D01*
X67116Y-180697D01*
X67214Y-180741D01*
X67310Y-180788D01*
X67404Y-180839D01*
X67497Y-180893D01*
X67587Y-180950D01*
X67676Y-181011D01*
X67762Y-181075D01*
X67845Y-181142D01*
X67927Y-181212D01*
X68005Y-181285D01*
X68081Y-181361D01*
X68154Y-181439D01*
X68224Y-181521D01*
X68291Y-181604D01*
X68355Y-181690D01*
X68416Y-181779D01*
X68473Y-181869D01*
X68527Y-181962D01*
X68578Y-182056D01*
X68625Y-182152D01*
X68669Y-182250D01*
X68709Y-182350D01*
X68746Y-182450D01*
X68779Y-182552D01*
X68808Y-182656D01*
X68833Y-182760D01*
X68854Y-182865D01*
X68872Y-182971D01*
X68885Y-183077D01*
X68895Y-183184D01*
X68901Y-183291D01*
X68903Y-183398D01*
X68903Y-184865D01*
X63032Y-184865D01*
X76266Y-189268D02*
X79935Y-189268D01*
X76266Y-189268D02*
X76175Y-189266D01*
X76084Y-189260D01*
X75994Y-189251D01*
X75904Y-189238D01*
X75814Y-189221D01*
X75726Y-189201D01*
X75638Y-189176D01*
X75551Y-189149D01*
X75466Y-189117D01*
X75382Y-189083D01*
X75299Y-189044D01*
X75218Y-189003D01*
X75139Y-188958D01*
X75062Y-188910D01*
X74987Y-188858D01*
X74914Y-188804D01*
X74843Y-188747D01*
X74775Y-188686D01*
X74710Y-188623D01*
X74647Y-188558D01*
X74586Y-188490D01*
X74529Y-188419D01*
X74475Y-188346D01*
X74423Y-188271D01*
X74375Y-188194D01*
X74330Y-188115D01*
X74289Y-188034D01*
X74250Y-187951D01*
X74216Y-187867D01*
X74184Y-187782D01*
X74157Y-187695D01*
X74132Y-187607D01*
X74112Y-187519D01*
X74095Y-187429D01*
X74082Y-187339D01*
X74073Y-187249D01*
X74067Y-187158D01*
X74065Y-187067D01*
X74065Y-182664D01*
X74067Y-182573D01*
X74073Y-182482D01*
X74082Y-182392D01*
X74095Y-182302D01*
X74112Y-182212D01*
X74132Y-182124D01*
X74157Y-182036D01*
X74184Y-181949D01*
X74216Y-181864D01*
X74250Y-181780D01*
X74289Y-181697D01*
X74330Y-181616D01*
X74375Y-181537D01*
X74423Y-181460D01*
X74475Y-181385D01*
X74529Y-181312D01*
X74586Y-181241D01*
X74647Y-181173D01*
X74710Y-181108D01*
X74775Y-181045D01*
X74843Y-180984D01*
X74914Y-180927D01*
X74987Y-180873D01*
X75062Y-180821D01*
X75139Y-180773D01*
X75218Y-180728D01*
X75299Y-180687D01*
X75382Y-180648D01*
X75466Y-180614D01*
X75551Y-180582D01*
X75638Y-180555D01*
X75726Y-180530D01*
X75814Y-180510D01*
X75904Y-180493D01*
X75994Y-180480D01*
X76084Y-180471D01*
X76175Y-180465D01*
X76266Y-180463D01*
X79935Y-180463D01*
X79935Y-191469D01*
X79933Y-191560D01*
X79927Y-191651D01*
X79918Y-191741D01*
X79905Y-191831D01*
X79888Y-191921D01*
X79868Y-192009D01*
X79843Y-192097D01*
X79816Y-192184D01*
X79784Y-192269D01*
X79750Y-192353D01*
X79711Y-192436D01*
X79670Y-192517D01*
X79625Y-192596D01*
X79577Y-192673D01*
X79525Y-192748D01*
X79471Y-192821D01*
X79414Y-192892D01*
X79353Y-192960D01*
X79290Y-193025D01*
X79225Y-193088D01*
X79157Y-193149D01*
X79086Y-193206D01*
X79013Y-193260D01*
X78938Y-193312D01*
X78861Y-193360D01*
X78782Y-193405D01*
X78701Y-193446D01*
X78618Y-193485D01*
X78534Y-193519D01*
X78449Y-193551D01*
X78362Y-193578D01*
X78274Y-193603D01*
X78186Y-193623D01*
X78096Y-193640D01*
X78006Y-193653D01*
X77916Y-193662D01*
X77825Y-193668D01*
X77734Y-193670D01*
X77734Y-193671D02*
X74798Y-193671D01*
X85649Y-186333D02*
X85649Y-183398D01*
X85651Y-183291D01*
X85657Y-183184D01*
X85667Y-183077D01*
X85680Y-182971D01*
X85698Y-182865D01*
X85719Y-182760D01*
X85744Y-182656D01*
X85773Y-182552D01*
X85806Y-182450D01*
X85843Y-182350D01*
X85883Y-182250D01*
X85927Y-182152D01*
X85974Y-182056D01*
X86025Y-181962D01*
X86079Y-181869D01*
X86136Y-181779D01*
X86197Y-181690D01*
X86261Y-181604D01*
X86328Y-181521D01*
X86398Y-181439D01*
X86471Y-181361D01*
X86547Y-181285D01*
X86625Y-181212D01*
X86707Y-181142D01*
X86790Y-181075D01*
X86876Y-181011D01*
X86965Y-180950D01*
X87055Y-180893D01*
X87148Y-180839D01*
X87242Y-180788D01*
X87338Y-180741D01*
X87436Y-180697D01*
X87536Y-180657D01*
X87636Y-180620D01*
X87738Y-180587D01*
X87842Y-180558D01*
X87946Y-180533D01*
X88051Y-180512D01*
X88157Y-180494D01*
X88263Y-180481D01*
X88370Y-180471D01*
X88477Y-180465D01*
X88584Y-180463D01*
X88691Y-180465D01*
X88798Y-180471D01*
X88905Y-180481D01*
X89011Y-180494D01*
X89117Y-180512D01*
X89222Y-180533D01*
X89326Y-180558D01*
X89430Y-180587D01*
X89532Y-180620D01*
X89632Y-180657D01*
X89732Y-180697D01*
X89830Y-180741D01*
X89926Y-180788D01*
X90020Y-180839D01*
X90113Y-180893D01*
X90203Y-180950D01*
X90292Y-181011D01*
X90378Y-181075D01*
X90461Y-181142D01*
X90543Y-181212D01*
X90621Y-181285D01*
X90697Y-181361D01*
X90770Y-181439D01*
X90840Y-181521D01*
X90907Y-181604D01*
X90971Y-181690D01*
X91032Y-181779D01*
X91089Y-181869D01*
X91143Y-181962D01*
X91194Y-182056D01*
X91241Y-182152D01*
X91285Y-182250D01*
X91325Y-182350D01*
X91362Y-182450D01*
X91395Y-182552D01*
X91424Y-182656D01*
X91449Y-182760D01*
X91470Y-182865D01*
X91488Y-182971D01*
X91501Y-183077D01*
X91511Y-183184D01*
X91517Y-183291D01*
X91519Y-183398D01*
X91519Y-186333D01*
X91517Y-186440D01*
X91511Y-186547D01*
X91501Y-186654D01*
X91488Y-186760D01*
X91470Y-186866D01*
X91449Y-186971D01*
X91424Y-187075D01*
X91395Y-187179D01*
X91362Y-187281D01*
X91325Y-187381D01*
X91285Y-187481D01*
X91241Y-187579D01*
X91194Y-187675D01*
X91143Y-187769D01*
X91089Y-187862D01*
X91032Y-187952D01*
X90971Y-188041D01*
X90907Y-188127D01*
X90840Y-188210D01*
X90770Y-188292D01*
X90697Y-188370D01*
X90621Y-188446D01*
X90543Y-188519D01*
X90461Y-188589D01*
X90378Y-188656D01*
X90292Y-188720D01*
X90203Y-188781D01*
X90113Y-188838D01*
X90020Y-188892D01*
X89926Y-188943D01*
X89830Y-188990D01*
X89732Y-189034D01*
X89632Y-189074D01*
X89532Y-189111D01*
X89430Y-189144D01*
X89326Y-189173D01*
X89222Y-189198D01*
X89117Y-189219D01*
X89011Y-189237D01*
X88905Y-189250D01*
X88798Y-189260D01*
X88691Y-189266D01*
X88584Y-189268D01*
X88477Y-189266D01*
X88370Y-189260D01*
X88263Y-189250D01*
X88157Y-189237D01*
X88051Y-189219D01*
X87946Y-189198D01*
X87842Y-189173D01*
X87738Y-189144D01*
X87636Y-189111D01*
X87536Y-189074D01*
X87436Y-189034D01*
X87338Y-188990D01*
X87242Y-188943D01*
X87148Y-188892D01*
X87055Y-188838D01*
X86965Y-188781D01*
X86876Y-188720D01*
X86790Y-188656D01*
X86707Y-188589D01*
X86625Y-188519D01*
X86547Y-188446D01*
X86471Y-188370D01*
X86398Y-188292D01*
X86328Y-188210D01*
X86261Y-188127D01*
X86197Y-188041D01*
X86136Y-187952D01*
X86079Y-187862D01*
X86025Y-187769D01*
X85974Y-187675D01*
X85927Y-187579D01*
X85883Y-187481D01*
X85843Y-187381D01*
X85806Y-187281D01*
X85773Y-187179D01*
X85744Y-187075D01*
X85719Y-186971D01*
X85698Y-186866D01*
X85680Y-186760D01*
X85667Y-186654D01*
X85657Y-186547D01*
X85651Y-186440D01*
X85649Y-186333D01*
X59846Y-207669D02*
X59844Y-207776D01*
X59838Y-207883D01*
X59828Y-207990D01*
X59815Y-208096D01*
X59797Y-208202D01*
X59776Y-208307D01*
X59751Y-208411D01*
X59722Y-208515D01*
X59689Y-208617D01*
X59652Y-208717D01*
X59612Y-208817D01*
X59568Y-208915D01*
X59521Y-209011D01*
X59470Y-209105D01*
X59416Y-209198D01*
X59359Y-209288D01*
X59298Y-209377D01*
X59234Y-209463D01*
X59167Y-209546D01*
X59097Y-209628D01*
X59024Y-209706D01*
X58948Y-209782D01*
X58870Y-209855D01*
X58788Y-209925D01*
X58705Y-209992D01*
X58619Y-210056D01*
X58530Y-210117D01*
X58440Y-210174D01*
X58347Y-210228D01*
X58253Y-210279D01*
X58157Y-210326D01*
X58059Y-210370D01*
X57959Y-210410D01*
X57859Y-210447D01*
X57757Y-210480D01*
X57653Y-210509D01*
X57549Y-210534D01*
X57444Y-210555D01*
X57338Y-210573D01*
X57232Y-210586D01*
X57125Y-210596D01*
X57018Y-210602D01*
X56911Y-210604D01*
X56758Y-210602D01*
X56605Y-210596D01*
X56452Y-210587D01*
X56300Y-210574D01*
X56148Y-210557D01*
X55996Y-210536D01*
X55845Y-210512D01*
X55695Y-210484D01*
X55545Y-210452D01*
X55397Y-210416D01*
X55249Y-210377D01*
X55102Y-210334D01*
X54956Y-210288D01*
X54812Y-210238D01*
X54668Y-210184D01*
X54526Y-210127D01*
X54386Y-210067D01*
X54247Y-210002D01*
X54110Y-209935D01*
X53974Y-209864D01*
X53840Y-209790D01*
X53708Y-209713D01*
X53578Y-209632D01*
X53450Y-209548D01*
X53324Y-209461D01*
X53201Y-209371D01*
X53079Y-209278D01*
X52960Y-209182D01*
X52844Y-209083D01*
X52729Y-208982D01*
X52618Y-208877D01*
X52509Y-208770D01*
X52875Y-200331D02*
X52877Y-200224D01*
X52883Y-200117D01*
X52893Y-200010D01*
X52906Y-199904D01*
X52924Y-199798D01*
X52945Y-199693D01*
X52970Y-199589D01*
X52999Y-199485D01*
X53032Y-199383D01*
X53069Y-199283D01*
X53109Y-199183D01*
X53153Y-199085D01*
X53200Y-198989D01*
X53251Y-198895D01*
X53305Y-198802D01*
X53362Y-198712D01*
X53423Y-198623D01*
X53487Y-198537D01*
X53554Y-198454D01*
X53624Y-198372D01*
X53697Y-198294D01*
X53773Y-198218D01*
X53851Y-198145D01*
X53933Y-198075D01*
X54016Y-198008D01*
X54102Y-197944D01*
X54191Y-197883D01*
X54281Y-197826D01*
X54374Y-197772D01*
X54468Y-197721D01*
X54564Y-197674D01*
X54662Y-197630D01*
X54762Y-197590D01*
X54862Y-197553D01*
X54964Y-197520D01*
X55068Y-197491D01*
X55172Y-197466D01*
X55277Y-197445D01*
X55383Y-197427D01*
X55489Y-197414D01*
X55596Y-197404D01*
X55703Y-197398D01*
X55810Y-197396D01*
X55958Y-197398D01*
X56105Y-197404D01*
X56252Y-197414D01*
X56399Y-197428D01*
X56546Y-197445D01*
X56691Y-197467D01*
X56837Y-197493D01*
X56981Y-197522D01*
X57125Y-197555D01*
X57268Y-197593D01*
X57410Y-197634D01*
X57550Y-197678D01*
X57690Y-197727D01*
X57828Y-197779D01*
X57964Y-197835D01*
X58099Y-197895D01*
X58232Y-197958D01*
X58364Y-198025D01*
X58494Y-198095D01*
X58622Y-198168D01*
X58747Y-198246D01*
X58871Y-198326D01*
X58993Y-198410D01*
X59112Y-198497D01*
X54343Y-202899D02*
X54252Y-202843D01*
X54163Y-202784D01*
X54076Y-202722D01*
X53992Y-202657D01*
X53909Y-202589D01*
X53830Y-202518D01*
X53753Y-202444D01*
X53679Y-202367D01*
X53607Y-202288D01*
X53539Y-202206D01*
X53473Y-202122D01*
X53410Y-202035D01*
X53351Y-201947D01*
X53295Y-201856D01*
X53242Y-201763D01*
X53192Y-201669D01*
X53146Y-201573D01*
X53103Y-201475D01*
X53064Y-201376D01*
X53028Y-201275D01*
X52996Y-201173D01*
X52968Y-201070D01*
X52944Y-200966D01*
X52923Y-200862D01*
X52906Y-200756D01*
X52892Y-200651D01*
X52883Y-200544D01*
X52877Y-200438D01*
X52875Y-200331D01*
X58378Y-205101D02*
X58469Y-205157D01*
X58558Y-205216D01*
X58645Y-205278D01*
X58730Y-205343D01*
X58812Y-205411D01*
X58891Y-205482D01*
X58968Y-205556D01*
X59042Y-205633D01*
X59114Y-205712D01*
X59182Y-205794D01*
X59248Y-205878D01*
X59311Y-205965D01*
X59370Y-206053D01*
X59426Y-206144D01*
X59479Y-206237D01*
X59529Y-206331D01*
X59575Y-206427D01*
X59618Y-206525D01*
X59657Y-206624D01*
X59693Y-206725D01*
X59725Y-206827D01*
X59753Y-206930D01*
X59777Y-207034D01*
X59798Y-207138D01*
X59815Y-207244D01*
X59829Y-207349D01*
X59838Y-207456D01*
X59844Y-207562D01*
X59846Y-207669D01*
X58378Y-205101D02*
X54342Y-202899D01*
X66965Y-210604D02*
X70633Y-210604D01*
X66965Y-210604D02*
X66874Y-210602D01*
X66783Y-210596D01*
X66693Y-210587D01*
X66603Y-210574D01*
X66513Y-210557D01*
X66425Y-210537D01*
X66337Y-210512D01*
X66250Y-210485D01*
X66165Y-210453D01*
X66081Y-210419D01*
X65998Y-210380D01*
X65917Y-210339D01*
X65838Y-210294D01*
X65761Y-210246D01*
X65686Y-210194D01*
X65613Y-210140D01*
X65542Y-210083D01*
X65474Y-210022D01*
X65409Y-209959D01*
X65346Y-209894D01*
X65285Y-209826D01*
X65228Y-209755D01*
X65174Y-209682D01*
X65122Y-209607D01*
X65074Y-209530D01*
X65029Y-209451D01*
X64988Y-209370D01*
X64949Y-209287D01*
X64915Y-209203D01*
X64883Y-209118D01*
X64856Y-209031D01*
X64831Y-208943D01*
X64811Y-208855D01*
X64794Y-208765D01*
X64781Y-208675D01*
X64772Y-208585D01*
X64766Y-208494D01*
X64764Y-208403D01*
X64763Y-208403D02*
X64763Y-204734D01*
X64765Y-204627D01*
X64771Y-204520D01*
X64781Y-204413D01*
X64794Y-204307D01*
X64812Y-204201D01*
X64833Y-204096D01*
X64858Y-203992D01*
X64887Y-203888D01*
X64920Y-203786D01*
X64957Y-203686D01*
X64997Y-203586D01*
X65041Y-203488D01*
X65088Y-203392D01*
X65139Y-203298D01*
X65193Y-203205D01*
X65250Y-203115D01*
X65311Y-203026D01*
X65375Y-202940D01*
X65442Y-202857D01*
X65512Y-202775D01*
X65585Y-202697D01*
X65661Y-202621D01*
X65739Y-202548D01*
X65821Y-202478D01*
X65904Y-202411D01*
X65990Y-202347D01*
X66079Y-202286D01*
X66169Y-202229D01*
X66262Y-202175D01*
X66356Y-202124D01*
X66452Y-202077D01*
X66550Y-202033D01*
X66650Y-201993D01*
X66750Y-201956D01*
X66852Y-201923D01*
X66956Y-201894D01*
X67060Y-201869D01*
X67165Y-201848D01*
X67271Y-201830D01*
X67377Y-201817D01*
X67484Y-201807D01*
X67591Y-201801D01*
X67698Y-201799D01*
X67805Y-201801D01*
X67912Y-201807D01*
X68019Y-201817D01*
X68125Y-201830D01*
X68231Y-201848D01*
X68336Y-201869D01*
X68440Y-201894D01*
X68544Y-201923D01*
X68646Y-201956D01*
X68746Y-201993D01*
X68846Y-202033D01*
X68944Y-202077D01*
X69040Y-202124D01*
X69134Y-202175D01*
X69227Y-202229D01*
X69317Y-202286D01*
X69406Y-202347D01*
X69492Y-202411D01*
X69575Y-202478D01*
X69657Y-202548D01*
X69735Y-202621D01*
X69811Y-202697D01*
X69884Y-202775D01*
X69954Y-202857D01*
X70021Y-202940D01*
X70085Y-203026D01*
X70146Y-203115D01*
X70203Y-203205D01*
X70257Y-203298D01*
X70308Y-203392D01*
X70355Y-203488D01*
X70399Y-203586D01*
X70439Y-203686D01*
X70476Y-203786D01*
X70509Y-203888D01*
X70538Y-203992D01*
X70563Y-204096D01*
X70584Y-204201D01*
X70602Y-204307D01*
X70615Y-204413D01*
X70625Y-204520D01*
X70631Y-204627D01*
X70633Y-204734D01*
X70633Y-206201D01*
X64763Y-206201D01*
X76285Y-210604D02*
X76285Y-201799D01*
X79954Y-201799D01*
X80047Y-201801D01*
X80141Y-201807D01*
X80234Y-201817D01*
X80326Y-201831D01*
X80418Y-201848D01*
X80509Y-201870D01*
X80598Y-201895D01*
X80687Y-201925D01*
X80775Y-201958D01*
X80861Y-201994D01*
X80945Y-202035D01*
X81027Y-202078D01*
X81108Y-202126D01*
X81186Y-202176D01*
X81263Y-202230D01*
X81337Y-202288D01*
X81408Y-202348D01*
X81477Y-202411D01*
X81543Y-202477D01*
X81606Y-202546D01*
X81666Y-202617D01*
X81724Y-202691D01*
X81778Y-202767D01*
X81828Y-202846D01*
X81875Y-202927D01*
X81919Y-203009D01*
X81960Y-203093D01*
X81996Y-203179D01*
X82029Y-203267D01*
X82059Y-203355D01*
X82084Y-203445D01*
X82106Y-203536D01*
X82123Y-203628D01*
X82137Y-203720D01*
X82147Y-203813D01*
X82153Y-203907D01*
X82155Y-204000D01*
X82155Y-210604D01*
X88907Y-205468D02*
X92576Y-206935D01*
X88906Y-205468D02*
X88827Y-205434D01*
X88749Y-205396D01*
X88672Y-205355D01*
X88598Y-205311D01*
X88526Y-205263D01*
X88456Y-205212D01*
X88389Y-205158D01*
X88324Y-205101D01*
X88261Y-205040D01*
X88202Y-204978D01*
X88145Y-204912D01*
X88092Y-204844D01*
X88041Y-204774D01*
X87994Y-204701D01*
X87950Y-204626D01*
X87910Y-204550D01*
X87873Y-204471D01*
X87840Y-204392D01*
X87810Y-204310D01*
X87784Y-204228D01*
X87762Y-204144D01*
X87744Y-204059D01*
X87730Y-203974D01*
X87719Y-203888D01*
X87713Y-203802D01*
X87710Y-203715D01*
X87711Y-203628D01*
X87717Y-203542D01*
X87726Y-203456D01*
X87739Y-203370D01*
X87756Y-203285D01*
X87777Y-203201D01*
X87801Y-203118D01*
X87830Y-203037D01*
X87862Y-202956D01*
X87897Y-202877D01*
X87937Y-202800D01*
X87979Y-202725D01*
X88026Y-202652D01*
X88075Y-202580D01*
X88127Y-202512D01*
X88183Y-202445D01*
X88242Y-202382D01*
X88303Y-202321D01*
X88367Y-202262D01*
X88434Y-202207D01*
X88503Y-202155D01*
X88575Y-202106D01*
X88648Y-202061D01*
X88724Y-202019D01*
X88801Y-201980D01*
X88880Y-201945D01*
X88961Y-201913D01*
X89043Y-201885D01*
X89126Y-201861D01*
X89210Y-201841D01*
X89295Y-201825D01*
X89381Y-201812D01*
X89467Y-201804D01*
X89554Y-201799D01*
X89640Y-201798D01*
X89640Y-201799D02*
X89840Y-201804D01*
X90040Y-201814D01*
X90240Y-201829D01*
X90440Y-201849D01*
X90639Y-201873D01*
X90837Y-201903D01*
X91034Y-201937D01*
X91231Y-201975D01*
X91426Y-202019D01*
X91621Y-202067D01*
X91814Y-202120D01*
X92006Y-202177D01*
X92197Y-202239D01*
X92386Y-202306D01*
X92573Y-202377D01*
X92758Y-202453D01*
X92942Y-202533D01*
X92576Y-206935D02*
X92655Y-206969D01*
X92733Y-207007D01*
X92810Y-207048D01*
X92884Y-207092D01*
X92956Y-207140D01*
X93026Y-207191D01*
X93093Y-207245D01*
X93158Y-207302D01*
X93221Y-207363D01*
X93280Y-207425D01*
X93337Y-207491D01*
X93390Y-207559D01*
X93441Y-207629D01*
X93488Y-207702D01*
X93532Y-207777D01*
X93572Y-207853D01*
X93609Y-207932D01*
X93642Y-208011D01*
X93672Y-208093D01*
X93698Y-208175D01*
X93720Y-208259D01*
X93738Y-208344D01*
X93752Y-208429D01*
X93763Y-208515D01*
X93769Y-208601D01*
X93772Y-208688D01*
X93771Y-208775D01*
X93765Y-208861D01*
X93756Y-208947D01*
X93743Y-209033D01*
X93726Y-209118D01*
X93705Y-209202D01*
X93681Y-209285D01*
X93652Y-209366D01*
X93620Y-209447D01*
X93585Y-209526D01*
X93545Y-209603D01*
X93503Y-209678D01*
X93456Y-209751D01*
X93407Y-209823D01*
X93355Y-209891D01*
X93299Y-209958D01*
X93240Y-210021D01*
X93179Y-210082D01*
X93115Y-210141D01*
X93048Y-210196D01*
X92979Y-210248D01*
X92907Y-210297D01*
X92834Y-210342D01*
X92758Y-210384D01*
X92681Y-210423D01*
X92602Y-210458D01*
X92521Y-210490D01*
X92439Y-210518D01*
X92356Y-210542D01*
X92272Y-210562D01*
X92187Y-210578D01*
X92101Y-210591D01*
X92015Y-210599D01*
X91928Y-210604D01*
X91842Y-210605D01*
X91842Y-210604D02*
X91548Y-210596D01*
X91254Y-210581D01*
X90960Y-210560D01*
X90667Y-210531D01*
X90375Y-210496D01*
X90084Y-210453D01*
X89794Y-210404D01*
X89505Y-210348D01*
X89217Y-210285D01*
X88931Y-210216D01*
X88647Y-210139D01*
X88365Y-210056D01*
X88085Y-209966D01*
X87806Y-209870D01*
X98901Y-207669D02*
X98901Y-204734D01*
X98903Y-204627D01*
X98909Y-204520D01*
X98919Y-204413D01*
X98932Y-204307D01*
X98950Y-204201D01*
X98971Y-204096D01*
X98996Y-203992D01*
X99025Y-203888D01*
X99058Y-203786D01*
X99095Y-203686D01*
X99135Y-203586D01*
X99179Y-203488D01*
X99226Y-203392D01*
X99277Y-203298D01*
X99331Y-203205D01*
X99388Y-203115D01*
X99449Y-203026D01*
X99513Y-202940D01*
X99580Y-202857D01*
X99650Y-202775D01*
X99723Y-202697D01*
X99799Y-202621D01*
X99877Y-202548D01*
X99959Y-202478D01*
X100042Y-202411D01*
X100128Y-202347D01*
X100217Y-202286D01*
X100307Y-202229D01*
X100400Y-202175D01*
X100494Y-202124D01*
X100590Y-202077D01*
X100688Y-202033D01*
X100788Y-201993D01*
X100888Y-201956D01*
X100990Y-201923D01*
X101094Y-201894D01*
X101198Y-201869D01*
X101303Y-201848D01*
X101409Y-201830D01*
X101515Y-201817D01*
X101622Y-201807D01*
X101729Y-201801D01*
X101836Y-201799D01*
X101943Y-201801D01*
X102050Y-201807D01*
X102157Y-201817D01*
X102263Y-201830D01*
X102369Y-201848D01*
X102474Y-201869D01*
X102578Y-201894D01*
X102682Y-201923D01*
X102784Y-201956D01*
X102884Y-201993D01*
X102984Y-202033D01*
X103082Y-202077D01*
X103178Y-202124D01*
X103272Y-202175D01*
X103365Y-202229D01*
X103455Y-202286D01*
X103544Y-202347D01*
X103630Y-202411D01*
X103713Y-202478D01*
X103795Y-202548D01*
X103873Y-202621D01*
X103949Y-202697D01*
X104022Y-202775D01*
X104092Y-202857D01*
X104159Y-202940D01*
X104223Y-203026D01*
X104284Y-203115D01*
X104341Y-203205D01*
X104395Y-203298D01*
X104446Y-203392D01*
X104493Y-203488D01*
X104537Y-203586D01*
X104577Y-203686D01*
X104614Y-203786D01*
X104647Y-203888D01*
X104676Y-203992D01*
X104701Y-204096D01*
X104722Y-204201D01*
X104740Y-204307D01*
X104753Y-204413D01*
X104763Y-204520D01*
X104769Y-204627D01*
X104771Y-204734D01*
X104771Y-207669D01*
X104769Y-207776D01*
X104763Y-207883D01*
X104753Y-207990D01*
X104740Y-208096D01*
X104722Y-208202D01*
X104701Y-208307D01*
X104676Y-208411D01*
X104647Y-208515D01*
X104614Y-208617D01*
X104577Y-208717D01*
X104537Y-208817D01*
X104493Y-208915D01*
X104446Y-209011D01*
X104395Y-209105D01*
X104341Y-209198D01*
X104284Y-209288D01*
X104223Y-209377D01*
X104159Y-209463D01*
X104092Y-209546D01*
X104022Y-209628D01*
X103949Y-209706D01*
X103873Y-209782D01*
X103795Y-209855D01*
X103713Y-209925D01*
X103630Y-209992D01*
X103544Y-210056D01*
X103455Y-210117D01*
X103365Y-210174D01*
X103272Y-210228D01*
X103178Y-210279D01*
X103082Y-210326D01*
X102984Y-210370D01*
X102884Y-210410D01*
X102784Y-210447D01*
X102682Y-210480D01*
X102578Y-210509D01*
X102474Y-210534D01*
X102369Y-210555D01*
X102263Y-210573D01*
X102157Y-210586D01*
X102050Y-210596D01*
X101943Y-210602D01*
X101836Y-210604D01*
X101729Y-210602D01*
X101622Y-210596D01*
X101515Y-210586D01*
X101409Y-210573D01*
X101303Y-210555D01*
X101198Y-210534D01*
X101094Y-210509D01*
X100990Y-210480D01*
X100888Y-210447D01*
X100788Y-210410D01*
X100688Y-210370D01*
X100590Y-210326D01*
X100494Y-210279D01*
X100400Y-210228D01*
X100307Y-210174D01*
X100217Y-210117D01*
X100128Y-210056D01*
X100042Y-209992D01*
X99959Y-209925D01*
X99877Y-209855D01*
X99799Y-209782D01*
X99723Y-209706D01*
X99650Y-209628D01*
X99580Y-209546D01*
X99513Y-209463D01*
X99449Y-209377D01*
X99388Y-209288D01*
X99331Y-209198D01*
X99277Y-209105D01*
X99226Y-209011D01*
X99179Y-208915D01*
X99135Y-208817D01*
X99095Y-208717D01*
X99058Y-208617D01*
X99025Y-208515D01*
X98996Y-208411D01*
X98971Y-208307D01*
X98950Y-208202D01*
X98932Y-208096D01*
X98919Y-207990D01*
X98909Y-207883D01*
X98903Y-207776D01*
X98901Y-207669D01*
X110493Y-210604D02*
X110493Y-201799D01*
X114895Y-201799D01*
X114895Y-203266D01*
X56177Y-224602D02*
X52508Y-224602D01*
X56177Y-224602D02*
X56297Y-224604D01*
X56417Y-224610D01*
X56537Y-224620D01*
X56656Y-224633D01*
X56775Y-224651D01*
X56893Y-224672D01*
X57010Y-224698D01*
X57127Y-224727D01*
X57242Y-224760D01*
X57356Y-224797D01*
X57469Y-224837D01*
X57581Y-224881D01*
X57691Y-224929D01*
X57800Y-224980D01*
X57907Y-225035D01*
X58011Y-225094D01*
X58114Y-225155D01*
X58215Y-225220D01*
X58314Y-225289D01*
X58411Y-225360D01*
X58505Y-225435D01*
X58596Y-225512D01*
X58685Y-225593D01*
X58771Y-225677D01*
X58855Y-225763D01*
X58936Y-225852D01*
X59013Y-225943D01*
X59088Y-226037D01*
X59159Y-226134D01*
X59228Y-226233D01*
X59293Y-226334D01*
X59354Y-226436D01*
X59413Y-226541D01*
X59468Y-226648D01*
X59519Y-226757D01*
X59567Y-226867D01*
X59611Y-226979D01*
X59651Y-227092D01*
X59688Y-227206D01*
X59721Y-227321D01*
X59750Y-227438D01*
X59776Y-227555D01*
X59797Y-227673D01*
X59815Y-227792D01*
X59828Y-227911D01*
X59838Y-228031D01*
X59844Y-228151D01*
X59846Y-228271D01*
X59844Y-228391D01*
X59838Y-228511D01*
X59828Y-228631D01*
X59815Y-228750D01*
X59797Y-228869D01*
X59776Y-228987D01*
X59750Y-229104D01*
X59721Y-229221D01*
X59688Y-229336D01*
X59651Y-229450D01*
X59611Y-229563D01*
X59567Y-229675D01*
X59519Y-229785D01*
X59468Y-229894D01*
X59413Y-230001D01*
X59354Y-230105D01*
X59293Y-230208D01*
X59228Y-230309D01*
X59159Y-230408D01*
X59088Y-230505D01*
X59013Y-230599D01*
X58936Y-230690D01*
X58855Y-230779D01*
X58771Y-230865D01*
X58685Y-230949D01*
X58596Y-231030D01*
X58505Y-231107D01*
X58411Y-231182D01*
X58314Y-231253D01*
X58215Y-231322D01*
X58114Y-231387D01*
X58012Y-231448D01*
X57907Y-231507D01*
X57800Y-231562D01*
X57691Y-231613D01*
X57581Y-231661D01*
X57469Y-231705D01*
X57356Y-231745D01*
X57242Y-231782D01*
X57127Y-231815D01*
X57010Y-231844D01*
X56893Y-231870D01*
X56775Y-231891D01*
X56656Y-231909D01*
X56537Y-231922D01*
X56417Y-231932D01*
X56297Y-231938D01*
X56177Y-231940D01*
X52508Y-231940D01*
X52508Y-218732D01*
X56177Y-218732D01*
X56284Y-218734D01*
X56391Y-218740D01*
X56498Y-218750D01*
X56604Y-218763D01*
X56710Y-218781D01*
X56815Y-218802D01*
X56919Y-218827D01*
X57023Y-218856D01*
X57125Y-218889D01*
X57225Y-218926D01*
X57325Y-218966D01*
X57423Y-219010D01*
X57519Y-219057D01*
X57613Y-219108D01*
X57706Y-219162D01*
X57796Y-219219D01*
X57885Y-219280D01*
X57971Y-219344D01*
X58054Y-219411D01*
X58136Y-219481D01*
X58214Y-219554D01*
X58290Y-219630D01*
X58363Y-219708D01*
X58433Y-219790D01*
X58500Y-219873D01*
X58564Y-219959D01*
X58625Y-220048D01*
X58682Y-220138D01*
X58736Y-220231D01*
X58787Y-220325D01*
X58834Y-220421D01*
X58878Y-220519D01*
X58918Y-220619D01*
X58955Y-220719D01*
X58988Y-220821D01*
X59017Y-220925D01*
X59042Y-221029D01*
X59063Y-221134D01*
X59081Y-221240D01*
X59094Y-221346D01*
X59104Y-221453D01*
X59110Y-221560D01*
X59112Y-221667D01*
X59110Y-221774D01*
X59104Y-221881D01*
X59094Y-221988D01*
X59081Y-222094D01*
X59063Y-222200D01*
X59042Y-222305D01*
X59017Y-222409D01*
X58988Y-222513D01*
X58955Y-222615D01*
X58918Y-222715D01*
X58878Y-222815D01*
X58834Y-222913D01*
X58787Y-223009D01*
X58736Y-223103D01*
X58682Y-223196D01*
X58625Y-223286D01*
X58564Y-223375D01*
X58500Y-223461D01*
X58433Y-223544D01*
X58363Y-223626D01*
X58290Y-223704D01*
X58214Y-223780D01*
X58136Y-223853D01*
X58054Y-223923D01*
X57971Y-223990D01*
X57885Y-224054D01*
X57796Y-224115D01*
X57706Y-224172D01*
X57613Y-224226D01*
X57519Y-224277D01*
X57423Y-224324D01*
X57325Y-224368D01*
X57225Y-224408D01*
X57125Y-224445D01*
X57023Y-224478D01*
X56919Y-224507D01*
X56815Y-224532D01*
X56710Y-224553D01*
X56604Y-224571D01*
X56498Y-224584D01*
X56391Y-224594D01*
X56284Y-224600D01*
X56177Y-224602D01*
X64584Y-226070D02*
X64584Y-229005D01*
X64584Y-226070D02*
X64586Y-225963D01*
X64592Y-225856D01*
X64602Y-225749D01*
X64615Y-225643D01*
X64633Y-225537D01*
X64654Y-225432D01*
X64679Y-225328D01*
X64708Y-225224D01*
X64741Y-225122D01*
X64778Y-225022D01*
X64818Y-224922D01*
X64862Y-224824D01*
X64909Y-224728D01*
X64960Y-224634D01*
X65014Y-224541D01*
X65071Y-224451D01*
X65132Y-224362D01*
X65196Y-224276D01*
X65263Y-224193D01*
X65333Y-224111D01*
X65406Y-224033D01*
X65482Y-223957D01*
X65560Y-223884D01*
X65642Y-223814D01*
X65725Y-223747D01*
X65811Y-223683D01*
X65900Y-223622D01*
X65990Y-223565D01*
X66083Y-223511D01*
X66177Y-223460D01*
X66273Y-223413D01*
X66371Y-223369D01*
X66471Y-223329D01*
X66571Y-223292D01*
X66673Y-223259D01*
X66777Y-223230D01*
X66881Y-223205D01*
X66986Y-223184D01*
X67092Y-223166D01*
X67198Y-223153D01*
X67305Y-223143D01*
X67412Y-223137D01*
X67519Y-223135D01*
X67626Y-223137D01*
X67733Y-223143D01*
X67840Y-223153D01*
X67946Y-223166D01*
X68052Y-223184D01*
X68157Y-223205D01*
X68261Y-223230D01*
X68365Y-223259D01*
X68467Y-223292D01*
X68567Y-223329D01*
X68667Y-223369D01*
X68765Y-223413D01*
X68861Y-223460D01*
X68955Y-223511D01*
X69048Y-223565D01*
X69138Y-223622D01*
X69227Y-223683D01*
X69313Y-223747D01*
X69396Y-223814D01*
X69478Y-223884D01*
X69556Y-223957D01*
X69632Y-224033D01*
X69705Y-224111D01*
X69775Y-224193D01*
X69842Y-224276D01*
X69906Y-224362D01*
X69967Y-224451D01*
X70024Y-224541D01*
X70078Y-224634D01*
X70129Y-224728D01*
X70176Y-224824D01*
X70220Y-224922D01*
X70260Y-225022D01*
X70297Y-225122D01*
X70330Y-225224D01*
X70359Y-225328D01*
X70384Y-225432D01*
X70405Y-225537D01*
X70423Y-225643D01*
X70436Y-225749D01*
X70446Y-225856D01*
X70452Y-225963D01*
X70454Y-226070D01*
X70454Y-229005D01*
X70452Y-229112D01*
X70446Y-229219D01*
X70436Y-229326D01*
X70423Y-229432D01*
X70405Y-229538D01*
X70384Y-229643D01*
X70359Y-229747D01*
X70330Y-229851D01*
X70297Y-229953D01*
X70260Y-230053D01*
X70220Y-230153D01*
X70176Y-230251D01*
X70129Y-230347D01*
X70078Y-230441D01*
X70024Y-230534D01*
X69967Y-230624D01*
X69906Y-230713D01*
X69842Y-230799D01*
X69775Y-230882D01*
X69705Y-230964D01*
X69632Y-231042D01*
X69556Y-231118D01*
X69478Y-231191D01*
X69396Y-231261D01*
X69313Y-231328D01*
X69227Y-231392D01*
X69138Y-231453D01*
X69048Y-231510D01*
X68955Y-231564D01*
X68861Y-231615D01*
X68765Y-231662D01*
X68667Y-231706D01*
X68567Y-231746D01*
X68467Y-231783D01*
X68365Y-231816D01*
X68261Y-231845D01*
X68157Y-231870D01*
X68052Y-231891D01*
X67946Y-231909D01*
X67840Y-231922D01*
X67733Y-231932D01*
X67626Y-231938D01*
X67519Y-231940D01*
X67412Y-231938D01*
X67305Y-231932D01*
X67198Y-231922D01*
X67092Y-231909D01*
X66986Y-231891D01*
X66881Y-231870D01*
X66777Y-231845D01*
X66673Y-231816D01*
X66571Y-231783D01*
X66471Y-231746D01*
X66371Y-231706D01*
X66273Y-231662D01*
X66177Y-231615D01*
X66083Y-231564D01*
X65990Y-231510D01*
X65900Y-231453D01*
X65811Y-231392D01*
X65725Y-231328D01*
X65642Y-231261D01*
X65560Y-231191D01*
X65482Y-231118D01*
X65406Y-231042D01*
X65333Y-230964D01*
X65263Y-230882D01*
X65196Y-230799D01*
X65132Y-230713D01*
X65071Y-230624D01*
X65014Y-230534D01*
X64960Y-230441D01*
X64909Y-230347D01*
X64862Y-230251D01*
X64818Y-230153D01*
X64778Y-230053D01*
X64741Y-229953D01*
X64708Y-229851D01*
X64679Y-229747D01*
X64654Y-229643D01*
X64633Y-229538D01*
X64615Y-229432D01*
X64602Y-229326D01*
X64592Y-229219D01*
X64586Y-229112D01*
X64584Y-229005D01*
X78184Y-226804D02*
X81486Y-226804D01*
X78184Y-226804D02*
X78084Y-226806D01*
X77985Y-226812D01*
X77886Y-226821D01*
X77787Y-226835D01*
X77689Y-226852D01*
X77592Y-226873D01*
X77495Y-226898D01*
X77400Y-226927D01*
X77306Y-226959D01*
X77213Y-226995D01*
X77121Y-227034D01*
X77031Y-227077D01*
X76943Y-227124D01*
X76857Y-227173D01*
X76773Y-227226D01*
X76691Y-227283D01*
X76611Y-227342D01*
X76533Y-227405D01*
X76458Y-227470D01*
X76386Y-227539D01*
X76316Y-227610D01*
X76249Y-227683D01*
X76185Y-227760D01*
X76124Y-227838D01*
X76066Y-227920D01*
X76012Y-228003D01*
X75960Y-228088D01*
X75912Y-228175D01*
X75867Y-228264D01*
X75826Y-228355D01*
X75788Y-228447D01*
X75754Y-228541D01*
X75724Y-228635D01*
X75697Y-228731D01*
X75674Y-228828D01*
X75655Y-228926D01*
X75640Y-229024D01*
X75628Y-229123D01*
X75620Y-229223D01*
X75616Y-229322D01*
X75616Y-229422D01*
X75620Y-229521D01*
X75628Y-229621D01*
X75640Y-229720D01*
X75655Y-229818D01*
X75674Y-229916D01*
X75697Y-230013D01*
X75724Y-230109D01*
X75754Y-230203D01*
X75788Y-230297D01*
X75826Y-230389D01*
X75867Y-230480D01*
X75912Y-230569D01*
X75960Y-230656D01*
X76012Y-230741D01*
X76066Y-230824D01*
X76124Y-230906D01*
X76185Y-230984D01*
X76249Y-231061D01*
X76316Y-231134D01*
X76386Y-231205D01*
X76458Y-231274D01*
X76533Y-231339D01*
X76611Y-231402D01*
X76691Y-231461D01*
X76773Y-231518D01*
X76857Y-231571D01*
X76943Y-231620D01*
X77031Y-231667D01*
X77121Y-231710D01*
X77213Y-231749D01*
X77306Y-231785D01*
X77400Y-231817D01*
X77495Y-231846D01*
X77592Y-231871D01*
X77689Y-231892D01*
X77787Y-231909D01*
X77886Y-231923D01*
X77985Y-231932D01*
X78084Y-231938D01*
X78184Y-231940D01*
X81486Y-231940D01*
X81486Y-225336D01*
X81484Y-225245D01*
X81478Y-225154D01*
X81469Y-225064D01*
X81456Y-224974D01*
X81439Y-224884D01*
X81419Y-224796D01*
X81394Y-224708D01*
X81367Y-224621D01*
X81335Y-224536D01*
X81301Y-224452D01*
X81262Y-224369D01*
X81221Y-224288D01*
X81176Y-224209D01*
X81128Y-224132D01*
X81076Y-224057D01*
X81022Y-223984D01*
X80965Y-223913D01*
X80904Y-223845D01*
X80841Y-223780D01*
X80776Y-223717D01*
X80708Y-223656D01*
X80637Y-223599D01*
X80564Y-223545D01*
X80489Y-223493D01*
X80412Y-223445D01*
X80333Y-223400D01*
X80252Y-223359D01*
X80169Y-223320D01*
X80085Y-223286D01*
X80000Y-223254D01*
X79913Y-223227D01*
X79825Y-223202D01*
X79737Y-223182D01*
X79647Y-223165D01*
X79557Y-223152D01*
X79467Y-223143D01*
X79376Y-223137D01*
X79285Y-223135D01*
X76350Y-223135D01*
X87697Y-223135D02*
X87697Y-231940D01*
X87697Y-223135D02*
X92100Y-223135D01*
X92100Y-224602D01*
X101969Y-218732D02*
X101969Y-231940D01*
X98300Y-231940D01*
X98209Y-231938D01*
X98118Y-231932D01*
X98028Y-231923D01*
X97938Y-231910D01*
X97848Y-231893D01*
X97760Y-231873D01*
X97672Y-231848D01*
X97585Y-231821D01*
X97500Y-231789D01*
X97416Y-231755D01*
X97333Y-231716D01*
X97252Y-231675D01*
X97173Y-231630D01*
X97096Y-231582D01*
X97021Y-231530D01*
X96948Y-231476D01*
X96877Y-231419D01*
X96809Y-231358D01*
X96744Y-231295D01*
X96681Y-231230D01*
X96620Y-231162D01*
X96563Y-231091D01*
X96509Y-231018D01*
X96457Y-230943D01*
X96409Y-230866D01*
X96364Y-230787D01*
X96323Y-230706D01*
X96284Y-230623D01*
X96250Y-230539D01*
X96218Y-230454D01*
X96191Y-230367D01*
X96166Y-230279D01*
X96146Y-230191D01*
X96129Y-230101D01*
X96116Y-230011D01*
X96107Y-229921D01*
X96101Y-229830D01*
X96099Y-229739D01*
X96099Y-225336D01*
X96101Y-225245D01*
X96107Y-225154D01*
X96116Y-225064D01*
X96129Y-224974D01*
X96146Y-224884D01*
X96166Y-224796D01*
X96191Y-224708D01*
X96218Y-224621D01*
X96250Y-224536D01*
X96284Y-224452D01*
X96323Y-224369D01*
X96364Y-224288D01*
X96409Y-224209D01*
X96457Y-224132D01*
X96509Y-224057D01*
X96563Y-223984D01*
X96620Y-223913D01*
X96681Y-223845D01*
X96744Y-223780D01*
X96809Y-223717D01*
X96877Y-223656D01*
X96948Y-223599D01*
X97021Y-223545D01*
X97096Y-223493D01*
X97173Y-223445D01*
X97252Y-223400D01*
X97333Y-223359D01*
X97416Y-223320D01*
X97500Y-223286D01*
X97585Y-223254D01*
X97672Y-223227D01*
X97760Y-223202D01*
X97848Y-223182D01*
X97938Y-223165D01*
X98028Y-223152D01*
X98118Y-223143D01*
X98209Y-223137D01*
X98300Y-223135D01*
X101969Y-223135D01*
X108911Y-190604D02*
X104508Y-177396D01*
X113313Y-177396D02*
X108911Y-190604D01*
X118043Y-180331D02*
X121712Y-177396D01*
X121712Y-190604D01*
X118043Y-190604D02*
X125381Y-190604D01*
X130306Y-190604D02*
X130306Y-189870D01*
X131040Y-189870D01*
X131040Y-190604D01*
X130306Y-190604D01*
X135966Y-184000D02*
X135969Y-183740D01*
X135978Y-183481D01*
X135994Y-183221D01*
X136016Y-182962D01*
X136043Y-182704D01*
X136077Y-182446D01*
X136118Y-182190D01*
X136164Y-181934D01*
X136216Y-181679D01*
X136275Y-181426D01*
X136339Y-181175D01*
X136410Y-180924D01*
X136486Y-180676D01*
X136568Y-180430D01*
X136656Y-180185D01*
X136750Y-179943D01*
X136850Y-179703D01*
X136956Y-179466D01*
X137067Y-179231D01*
X137066Y-179230D02*
X137101Y-179135D01*
X137139Y-179040D01*
X137181Y-178947D01*
X137227Y-178856D01*
X137276Y-178766D01*
X137328Y-178678D01*
X137383Y-178593D01*
X137442Y-178509D01*
X137504Y-178428D01*
X137568Y-178349D01*
X137636Y-178273D01*
X137707Y-178199D01*
X137780Y-178128D01*
X137856Y-178060D01*
X137934Y-177994D01*
X138015Y-177932D01*
X138098Y-177872D01*
X138183Y-177816D01*
X138270Y-177763D01*
X138359Y-177714D01*
X138450Y-177668D01*
X138543Y-177625D01*
X138637Y-177586D01*
X138733Y-177550D01*
X138830Y-177518D01*
X138928Y-177489D01*
X139027Y-177465D01*
X139127Y-177444D01*
X139227Y-177427D01*
X139328Y-177413D01*
X139430Y-177404D01*
X139532Y-177398D01*
X139634Y-177396D01*
X139736Y-177398D01*
X139838Y-177404D01*
X139940Y-177413D01*
X140041Y-177427D01*
X140141Y-177444D01*
X140241Y-177465D01*
X140340Y-177489D01*
X140438Y-177518D01*
X140535Y-177550D01*
X140631Y-177586D01*
X140725Y-177625D01*
X140818Y-177668D01*
X140909Y-177714D01*
X140998Y-177763D01*
X141085Y-177816D01*
X141170Y-177872D01*
X141253Y-177932D01*
X141334Y-177994D01*
X141412Y-178060D01*
X141488Y-178128D01*
X141562Y-178199D01*
X141632Y-178273D01*
X141700Y-178349D01*
X141764Y-178428D01*
X141826Y-178509D01*
X141885Y-178593D01*
X141940Y-178678D01*
X141993Y-178766D01*
X142041Y-178856D01*
X142087Y-178947D01*
X142129Y-179040D01*
X142167Y-179135D01*
X142202Y-179231D01*
X142313Y-179466D01*
X142419Y-179703D01*
X142519Y-179943D01*
X142613Y-180185D01*
X142701Y-180430D01*
X142783Y-180676D01*
X142859Y-180924D01*
X142930Y-181175D01*
X142994Y-181426D01*
X143053Y-181679D01*
X143105Y-181934D01*
X143151Y-182190D01*
X143192Y-182446D01*
X143226Y-182704D01*
X143253Y-182962D01*
X143275Y-183221D01*
X143291Y-183481D01*
X143300Y-183740D01*
X143303Y-184000D01*
X135966Y-184000D02*
X135969Y-184260D01*
X135978Y-184519D01*
X135994Y-184779D01*
X136016Y-185038D01*
X136043Y-185296D01*
X136077Y-185554D01*
X136118Y-185810D01*
X136164Y-186066D01*
X136216Y-186321D01*
X136275Y-186574D01*
X136339Y-186825D01*
X136410Y-187076D01*
X136486Y-187324D01*
X136568Y-187570D01*
X136656Y-187815D01*
X136750Y-188057D01*
X136850Y-188297D01*
X136956Y-188534D01*
X137067Y-188769D01*
X137066Y-188770D02*
X137101Y-188865D01*
X137139Y-188960D01*
X137181Y-189053D01*
X137227Y-189144D01*
X137276Y-189234D01*
X137328Y-189322D01*
X137383Y-189407D01*
X137442Y-189491D01*
X137504Y-189572D01*
X137568Y-189651D01*
X137636Y-189727D01*
X137707Y-189801D01*
X137780Y-189872D01*
X137856Y-189940D01*
X137934Y-190006D01*
X138015Y-190068D01*
X138098Y-190128D01*
X138183Y-190184D01*
X138270Y-190237D01*
X138359Y-190286D01*
X138450Y-190332D01*
X138543Y-190375D01*
X138637Y-190414D01*
X138733Y-190450D01*
X138830Y-190482D01*
X138928Y-190511D01*
X139027Y-190535D01*
X139127Y-190556D01*
X139227Y-190573D01*
X139328Y-190587D01*
X139430Y-190596D01*
X139532Y-190602D01*
X139634Y-190604D01*
X142203Y-188770D02*
X142314Y-188535D01*
X142420Y-188297D01*
X142520Y-188057D01*
X142614Y-187815D01*
X142702Y-187571D01*
X142784Y-187324D01*
X142860Y-187076D01*
X142931Y-186826D01*
X142995Y-186574D01*
X143054Y-186321D01*
X143106Y-186066D01*
X143152Y-185811D01*
X143193Y-185554D01*
X143227Y-185296D01*
X143254Y-185038D01*
X143276Y-184779D01*
X143292Y-184520D01*
X143301Y-184260D01*
X143304Y-184000D01*
X142202Y-188770D02*
X142167Y-188865D01*
X142129Y-188960D01*
X142087Y-189053D01*
X142041Y-189144D01*
X141992Y-189234D01*
X141940Y-189322D01*
X141885Y-189407D01*
X141826Y-189491D01*
X141764Y-189572D01*
X141700Y-189651D01*
X141632Y-189727D01*
X141561Y-189801D01*
X141488Y-189872D01*
X141412Y-189940D01*
X141334Y-190006D01*
X141253Y-190068D01*
X141170Y-190128D01*
X141085Y-190184D01*
X140998Y-190237D01*
X140909Y-190286D01*
X140818Y-190332D01*
X140725Y-190375D01*
X140631Y-190414D01*
X140535Y-190450D01*
X140438Y-190482D01*
X140340Y-190511D01*
X140241Y-190535D01*
X140141Y-190556D01*
X140041Y-190573D01*
X139940Y-190587D01*
X139838Y-190596D01*
X139736Y-190602D01*
X139634Y-190604D01*
X136699Y-187669D02*
X142570Y-180331D01*
X111863Y165901D02*
X113420Y167458D01*
X118608Y162269D01*
X115495Y159156D01*
X115418Y159081D01*
X115338Y159010D01*
X115256Y158941D01*
X115171Y158876D01*
X115084Y158813D01*
X114994Y158754D01*
X114903Y158698D01*
X114809Y158646D01*
X114714Y158597D01*
X114617Y158551D01*
X114518Y158509D01*
X114418Y158471D01*
X114317Y158436D01*
X114214Y158405D01*
X114110Y158378D01*
X114006Y158355D01*
X113900Y158336D01*
X113794Y158320D01*
X113688Y158308D01*
X113581Y158300D01*
X113474Y158296D01*
X113366Y158296D01*
X113259Y158300D01*
X113152Y158308D01*
X113046Y158320D01*
X112940Y158336D01*
X112834Y158355D01*
X112730Y158378D01*
X112626Y158405D01*
X112523Y158436D01*
X112422Y158471D01*
X112322Y158509D01*
X112223Y158551D01*
X112126Y158597D01*
X112031Y158646D01*
X111937Y158698D01*
X111846Y158754D01*
X111756Y158813D01*
X111669Y158876D01*
X111584Y158941D01*
X111502Y159010D01*
X111422Y159081D01*
X111345Y159156D01*
X111344Y159156D02*
X106156Y164344D01*
X106156Y164345D02*
X106081Y164422D01*
X106010Y164502D01*
X105941Y164584D01*
X105876Y164669D01*
X105813Y164756D01*
X105754Y164846D01*
X105698Y164937D01*
X105646Y165031D01*
X105597Y165126D01*
X105551Y165223D01*
X105509Y165322D01*
X105471Y165422D01*
X105436Y165523D01*
X105405Y165626D01*
X105378Y165730D01*
X105355Y165834D01*
X105336Y165940D01*
X105320Y166046D01*
X105308Y166152D01*
X105300Y166259D01*
X105296Y166366D01*
X105296Y166474D01*
X105300Y166581D01*
X105308Y166688D01*
X105320Y166794D01*
X105336Y166900D01*
X105355Y167006D01*
X105378Y167110D01*
X105405Y167214D01*
X105436Y167317D01*
X105471Y167418D01*
X105509Y167518D01*
X105551Y167617D01*
X105597Y167714D01*
X105646Y167809D01*
X105698Y167903D01*
X105754Y167994D01*
X105813Y168084D01*
X105876Y168171D01*
X105941Y168256D01*
X106010Y168338D01*
X106081Y168418D01*
X106156Y168495D01*
X109269Y171608D01*
X113736Y176075D02*
X123075Y166736D01*
X128264Y171924D02*
X113736Y176075D01*
X118924Y181264D02*
X128264Y171924D01*
X132731Y176391D02*
X123391Y185731D01*
X125986Y188325D01*
X126072Y188409D01*
X126161Y188489D01*
X126252Y188567D01*
X126346Y188642D01*
X126443Y188713D01*
X126542Y188782D01*
X126643Y188847D01*
X126745Y188908D01*
X126850Y188967D01*
X126957Y189022D01*
X127066Y189073D01*
X127176Y189121D01*
X127288Y189165D01*
X127401Y189205D01*
X127515Y189242D01*
X127630Y189275D01*
X127747Y189304D01*
X127864Y189330D01*
X127982Y189351D01*
X128101Y189369D01*
X128220Y189382D01*
X128340Y189392D01*
X128460Y189398D01*
X128580Y189400D01*
X128700Y189398D01*
X128820Y189392D01*
X128940Y189382D01*
X129059Y189369D01*
X129178Y189351D01*
X129296Y189329D01*
X129413Y189304D01*
X129530Y189275D01*
X129645Y189242D01*
X129759Y189205D01*
X129872Y189165D01*
X129984Y189121D01*
X130094Y189073D01*
X130203Y189022D01*
X130310Y188967D01*
X130415Y188908D01*
X130518Y188847D01*
X130618Y188782D01*
X130717Y188713D01*
X130814Y188642D01*
X130908Y188567D01*
X130999Y188489D01*
X131088Y188409D01*
X131174Y188325D01*
X135325Y184174D01*
X135409Y184088D01*
X135490Y183999D01*
X135567Y183908D01*
X135642Y183814D01*
X135713Y183717D01*
X135782Y183618D01*
X135847Y183517D01*
X135908Y183415D01*
X135967Y183310D01*
X136022Y183203D01*
X136073Y183094D01*
X136121Y182984D01*
X136165Y182872D01*
X136205Y182759D01*
X136242Y182645D01*
X136275Y182530D01*
X136304Y182413D01*
X136330Y182296D01*
X136351Y182178D01*
X136369Y182059D01*
X136382Y181940D01*
X136392Y181820D01*
X136398Y181700D01*
X136400Y181580D01*
X136398Y181460D01*
X136392Y181340D01*
X136382Y181220D01*
X136369Y181101D01*
X136351Y180982D01*
X136330Y180864D01*
X136304Y180747D01*
X136275Y180630D01*
X136242Y180515D01*
X136205Y180401D01*
X136165Y180288D01*
X136121Y180176D01*
X136073Y180066D01*
X136022Y179957D01*
X135967Y179850D01*
X135908Y179746D01*
X135847Y179643D01*
X135782Y179542D01*
X135713Y179443D01*
X135642Y179346D01*
X135567Y179252D01*
X135490Y179161D01*
X135409Y179072D01*
X135325Y178986D01*
X132731Y176391D01*
X165797Y110722D02*
X159571Y104495D01*
X165797Y104495D02*
X159571Y110722D01*
X173377Y111038D02*
X176490Y114151D01*
X176565Y114228D01*
X176636Y114308D01*
X176705Y114390D01*
X176770Y114475D01*
X176833Y114562D01*
X176892Y114652D01*
X176948Y114743D01*
X177000Y114837D01*
X177049Y114932D01*
X177095Y115029D01*
X177137Y115128D01*
X177175Y115228D01*
X177210Y115329D01*
X177241Y115432D01*
X177268Y115536D01*
X177291Y115640D01*
X177310Y115746D01*
X177326Y115852D01*
X177338Y115958D01*
X177346Y116065D01*
X177350Y116172D01*
X177350Y116280D01*
X177346Y116387D01*
X177338Y116494D01*
X177326Y116600D01*
X177310Y116706D01*
X177291Y116812D01*
X177268Y116916D01*
X177241Y117020D01*
X177210Y117123D01*
X177175Y117224D01*
X177137Y117324D01*
X177095Y117423D01*
X177049Y117520D01*
X177000Y117615D01*
X176948Y117709D01*
X176892Y117800D01*
X176833Y117890D01*
X176770Y117977D01*
X176705Y118062D01*
X176636Y118144D01*
X176565Y118224D01*
X176490Y118301D01*
X176490Y118302D02*
X175452Y119339D01*
X175375Y119414D01*
X175295Y119485D01*
X175213Y119554D01*
X175128Y119619D01*
X175041Y119682D01*
X174951Y119741D01*
X174860Y119797D01*
X174766Y119849D01*
X174671Y119898D01*
X174574Y119944D01*
X174475Y119986D01*
X174375Y120024D01*
X174274Y120059D01*
X174171Y120090D01*
X174067Y120117D01*
X173963Y120140D01*
X173857Y120159D01*
X173751Y120175D01*
X173645Y120187D01*
X173538Y120195D01*
X173431Y120199D01*
X173323Y120199D01*
X173216Y120195D01*
X173109Y120187D01*
X173003Y120175D01*
X172897Y120159D01*
X172791Y120140D01*
X172687Y120117D01*
X172583Y120090D01*
X172480Y120059D01*
X172379Y120024D01*
X172279Y119986D01*
X172180Y119944D01*
X172083Y119898D01*
X171988Y119849D01*
X171894Y119797D01*
X171803Y119741D01*
X171713Y119682D01*
X171626Y119619D01*
X171541Y119554D01*
X171459Y119485D01*
X171379Y119414D01*
X171302Y119339D01*
X168188Y116226D01*
X164038Y120377D01*
X169226Y125566D01*
X172571Y128910D02*
X185023Y122684D01*
X178797Y135137D01*
X151726Y129537D02*
X151801Y129460D01*
X151872Y129380D01*
X151941Y129298D01*
X152006Y129213D01*
X152069Y129126D01*
X152128Y129036D01*
X152184Y128945D01*
X152236Y128851D01*
X152285Y128756D01*
X152331Y128659D01*
X152373Y128560D01*
X152411Y128460D01*
X152446Y128359D01*
X152477Y128256D01*
X152504Y128152D01*
X152527Y128048D01*
X152546Y127942D01*
X152562Y127836D01*
X152574Y127730D01*
X152582Y127623D01*
X152586Y127516D01*
X152586Y127408D01*
X152582Y127301D01*
X152574Y127194D01*
X152562Y127088D01*
X152546Y126982D01*
X152527Y126876D01*
X152504Y126772D01*
X152477Y126668D01*
X152446Y126565D01*
X152411Y126464D01*
X152373Y126364D01*
X152331Y126265D01*
X152285Y126168D01*
X152236Y126073D01*
X152184Y125979D01*
X152128Y125888D01*
X152069Y125798D01*
X152006Y125711D01*
X151941Y125626D01*
X151872Y125544D01*
X151801Y125464D01*
X151726Y125387D01*
X151726Y125386D02*
X151617Y125279D01*
X151505Y125175D01*
X151390Y125074D01*
X151273Y124975D01*
X151153Y124880D01*
X151032Y124787D01*
X150907Y124698D01*
X150781Y124611D01*
X150653Y124528D01*
X150523Y124448D01*
X150390Y124371D01*
X150256Y124298D01*
X150120Y124227D01*
X149983Y124160D01*
X149843Y124097D01*
X149703Y124037D01*
X149560Y123980D01*
X149417Y123928D01*
X149272Y123878D01*
X149126Y123832D01*
X148979Y123790D01*
X148831Y123751D01*
X148682Y123717D01*
X148532Y123685D01*
X148382Y123658D01*
X148231Y123634D01*
X148079Y123614D01*
X147927Y123598D01*
X147774Y123585D01*
X147622Y123576D01*
X147469Y123571D01*
X147316Y123570D01*
X141609Y129797D02*
X141534Y129874D01*
X141463Y129954D01*
X141394Y130036D01*
X141329Y130121D01*
X141266Y130208D01*
X141207Y130298D01*
X141151Y130389D01*
X141099Y130483D01*
X141050Y130578D01*
X141004Y130675D01*
X140962Y130774D01*
X140924Y130874D01*
X140889Y130975D01*
X140858Y131078D01*
X140831Y131182D01*
X140808Y131286D01*
X140789Y131392D01*
X140773Y131498D01*
X140761Y131604D01*
X140753Y131711D01*
X140749Y131818D01*
X140749Y131926D01*
X140753Y132033D01*
X140761Y132140D01*
X140773Y132246D01*
X140789Y132352D01*
X140808Y132458D01*
X140831Y132562D01*
X140858Y132666D01*
X140889Y132769D01*
X140924Y132870D01*
X140962Y132970D01*
X141004Y133069D01*
X141050Y133166D01*
X141099Y133261D01*
X141151Y133355D01*
X141207Y133446D01*
X141266Y133536D01*
X141329Y133623D01*
X141394Y133708D01*
X141463Y133790D01*
X141534Y133870D01*
X141609Y133947D01*
X141715Y134050D01*
X141823Y134150D01*
X141934Y134247D01*
X142048Y134341D01*
X142164Y134432D01*
X142282Y134520D01*
X142403Y134605D01*
X142526Y134686D01*
X142651Y134764D01*
X142779Y134839D01*
X142908Y134910D01*
X143039Y134978D01*
X143172Y135042D01*
X143306Y135103D01*
X143442Y135160D01*
X143580Y135213D01*
X143719Y135263D01*
X143859Y135309D01*
X144001Y135351D01*
X144143Y135389D01*
X144287Y135424D01*
X144431Y135454D01*
X144576Y135481D01*
X144722Y135504D01*
X144462Y129019D02*
X144358Y128994D01*
X144253Y128973D01*
X144148Y128955D01*
X144042Y128942D01*
X143936Y128932D01*
X143829Y128926D01*
X143723Y128924D01*
X143616Y128926D01*
X143509Y128931D01*
X143403Y128940D01*
X143297Y128954D01*
X143192Y128970D01*
X143087Y128991D01*
X142983Y129015D01*
X142880Y129044D01*
X142778Y129075D01*
X142678Y129111D01*
X142578Y129150D01*
X142480Y129192D01*
X142384Y129238D01*
X142290Y129287D01*
X142197Y129340D01*
X142106Y129396D01*
X142017Y129455D01*
X141931Y129518D01*
X141846Y129583D01*
X141764Y129652D01*
X141685Y129723D01*
X141608Y129797D01*
X148872Y130315D02*
X148976Y130340D01*
X149081Y130361D01*
X149186Y130379D01*
X149292Y130392D01*
X149398Y130402D01*
X149505Y130408D01*
X149611Y130410D01*
X149718Y130408D01*
X149825Y130403D01*
X149931Y130394D01*
X150037Y130380D01*
X150142Y130364D01*
X150247Y130343D01*
X150351Y130319D01*
X150454Y130290D01*
X150556Y130259D01*
X150656Y130223D01*
X150756Y130184D01*
X150854Y130142D01*
X150950Y130096D01*
X151044Y130047D01*
X151137Y129994D01*
X151228Y129938D01*
X151317Y129879D01*
X151403Y129816D01*
X151488Y129751D01*
X151570Y129682D01*
X151649Y129611D01*
X151726Y129537D01*
X148872Y130316D02*
X144462Y129019D01*
X148326Y140665D02*
X157665Y131326D01*
X148326Y140665D02*
X150920Y143259D01*
X151006Y143343D01*
X151095Y143423D01*
X151186Y143501D01*
X151280Y143576D01*
X151377Y143647D01*
X151476Y143716D01*
X151577Y143781D01*
X151679Y143842D01*
X151784Y143901D01*
X151891Y143956D01*
X152000Y144007D01*
X152110Y144055D01*
X152222Y144099D01*
X152335Y144139D01*
X152449Y144176D01*
X152564Y144209D01*
X152681Y144238D01*
X152798Y144264D01*
X152916Y144285D01*
X153035Y144303D01*
X153154Y144316D01*
X153274Y144326D01*
X153394Y144332D01*
X153514Y144334D01*
X153634Y144332D01*
X153754Y144326D01*
X153874Y144316D01*
X153993Y144303D01*
X154112Y144285D01*
X154230Y144263D01*
X154347Y144238D01*
X154464Y144209D01*
X154579Y144176D01*
X154693Y144139D01*
X154806Y144099D01*
X154918Y144055D01*
X155028Y144007D01*
X155137Y143956D01*
X155244Y143901D01*
X155349Y143842D01*
X155452Y143781D01*
X155552Y143716D01*
X155651Y143647D01*
X155748Y143576D01*
X155842Y143501D01*
X155933Y143423D01*
X156022Y143343D01*
X156108Y143259D01*
X160259Y139108D01*
X160343Y139022D01*
X160424Y138933D01*
X160501Y138842D01*
X160576Y138748D01*
X160647Y138651D01*
X160716Y138552D01*
X160781Y138451D01*
X160842Y138349D01*
X160901Y138244D01*
X160956Y138137D01*
X161007Y138028D01*
X161055Y137918D01*
X161099Y137806D01*
X161139Y137693D01*
X161176Y137579D01*
X161209Y137464D01*
X161238Y137347D01*
X161264Y137230D01*
X161285Y137112D01*
X161303Y136993D01*
X161316Y136874D01*
X161326Y136754D01*
X161332Y136634D01*
X161334Y136514D01*
X161332Y136394D01*
X161326Y136274D01*
X161316Y136154D01*
X161303Y136035D01*
X161285Y135916D01*
X161264Y135798D01*
X161238Y135681D01*
X161209Y135564D01*
X161176Y135449D01*
X161139Y135335D01*
X161099Y135222D01*
X161055Y135110D01*
X161007Y135000D01*
X160956Y134891D01*
X160901Y134784D01*
X160842Y134680D01*
X160781Y134577D01*
X160716Y134476D01*
X160647Y134377D01*
X160576Y134280D01*
X160501Y134186D01*
X160424Y134095D01*
X160343Y134006D01*
X160259Y133920D01*
X157665Y131326D01*
X166500Y140160D02*
X160274Y152613D01*
X172726Y146387D01*
X169613Y147943D02*
X164943Y143274D01*
X135401Y143062D02*
X135476Y143139D01*
X135547Y143219D01*
X135616Y143301D01*
X135681Y143386D01*
X135744Y143473D01*
X135803Y143563D01*
X135859Y143654D01*
X135911Y143748D01*
X135960Y143843D01*
X136006Y143940D01*
X136048Y144039D01*
X136086Y144139D01*
X136121Y144240D01*
X136152Y144343D01*
X136179Y144447D01*
X136202Y144551D01*
X136221Y144657D01*
X136237Y144763D01*
X136249Y144869D01*
X136257Y144976D01*
X136261Y145083D01*
X136261Y145191D01*
X136257Y145298D01*
X136249Y145405D01*
X136237Y145511D01*
X136221Y145617D01*
X136202Y145723D01*
X136179Y145827D01*
X136152Y145931D01*
X136121Y146034D01*
X136086Y146135D01*
X136048Y146235D01*
X136006Y146334D01*
X135960Y146431D01*
X135911Y146526D01*
X135859Y146620D01*
X135803Y146711D01*
X135744Y146801D01*
X135681Y146888D01*
X135616Y146973D01*
X135547Y147055D01*
X135476Y147135D01*
X135401Y147212D01*
X135401Y143062D02*
X135292Y142955D01*
X135180Y142851D01*
X135065Y142750D01*
X134948Y142651D01*
X134828Y142556D01*
X134707Y142463D01*
X134582Y142374D01*
X134456Y142287D01*
X134328Y142204D01*
X134198Y142124D01*
X134065Y142047D01*
X133931Y141974D01*
X133795Y141903D01*
X133658Y141836D01*
X133518Y141773D01*
X133378Y141713D01*
X133235Y141656D01*
X133092Y141604D01*
X132947Y141554D01*
X132801Y141508D01*
X132654Y141466D01*
X132506Y141427D01*
X132357Y141393D01*
X132207Y141361D01*
X132057Y141334D01*
X131906Y141310D01*
X131754Y141290D01*
X131602Y141274D01*
X131449Y141261D01*
X131297Y141252D01*
X131144Y141247D01*
X130991Y141246D01*
X125284Y147472D02*
X125209Y147549D01*
X125138Y147629D01*
X125069Y147711D01*
X125004Y147796D01*
X124941Y147883D01*
X124882Y147973D01*
X124826Y148064D01*
X124774Y148158D01*
X124725Y148253D01*
X124679Y148350D01*
X124637Y148449D01*
X124599Y148549D01*
X124564Y148650D01*
X124533Y148753D01*
X124506Y148857D01*
X124483Y148961D01*
X124464Y149067D01*
X124448Y149173D01*
X124436Y149279D01*
X124428Y149386D01*
X124424Y149493D01*
X124424Y149601D01*
X124428Y149708D01*
X124436Y149815D01*
X124448Y149921D01*
X124464Y150027D01*
X124483Y150133D01*
X124506Y150237D01*
X124533Y150341D01*
X124564Y150444D01*
X124599Y150545D01*
X124637Y150645D01*
X124679Y150744D01*
X124725Y150841D01*
X124774Y150936D01*
X124826Y151030D01*
X124882Y151121D01*
X124941Y151211D01*
X125004Y151298D01*
X125069Y151383D01*
X125138Y151465D01*
X125209Y151545D01*
X125284Y151622D01*
X125284Y151623D02*
X125390Y151726D01*
X125498Y151826D01*
X125609Y151923D01*
X125723Y152017D01*
X125839Y152108D01*
X125957Y152196D01*
X126078Y152281D01*
X126201Y152362D01*
X126326Y152440D01*
X126454Y152515D01*
X126583Y152586D01*
X126714Y152654D01*
X126847Y152718D01*
X126981Y152779D01*
X127117Y152836D01*
X127255Y152889D01*
X127394Y152939D01*
X127534Y152985D01*
X127676Y153027D01*
X127818Y153065D01*
X127962Y153100D01*
X128106Y153130D01*
X128251Y153157D01*
X128397Y153180D01*
X128137Y146694D02*
X128033Y146669D01*
X127928Y146648D01*
X127823Y146630D01*
X127717Y146617D01*
X127611Y146607D01*
X127504Y146601D01*
X127398Y146599D01*
X127291Y146601D01*
X127184Y146606D01*
X127078Y146615D01*
X126972Y146629D01*
X126867Y146645D01*
X126762Y146666D01*
X126658Y146690D01*
X126555Y146719D01*
X126453Y146750D01*
X126353Y146786D01*
X126253Y146825D01*
X126155Y146867D01*
X126059Y146913D01*
X125965Y146962D01*
X125872Y147015D01*
X125781Y147071D01*
X125692Y147130D01*
X125606Y147193D01*
X125521Y147258D01*
X125439Y147327D01*
X125360Y147398D01*
X125283Y147472D01*
X132547Y147990D02*
X132651Y148015D01*
X132756Y148036D01*
X132861Y148054D01*
X132967Y148067D01*
X133073Y148077D01*
X133180Y148083D01*
X133286Y148085D01*
X133393Y148083D01*
X133500Y148078D01*
X133606Y148069D01*
X133712Y148055D01*
X133817Y148039D01*
X133922Y148018D01*
X134026Y147994D01*
X134129Y147965D01*
X134231Y147934D01*
X134331Y147898D01*
X134431Y147859D01*
X134529Y147817D01*
X134625Y147771D01*
X134719Y147722D01*
X134812Y147669D01*
X134903Y147613D01*
X134992Y147554D01*
X135078Y147491D01*
X135163Y147426D01*
X135245Y147357D01*
X135324Y147286D01*
X135401Y147212D01*
X132547Y147991D02*
X128137Y146694D01*
X143089Y150749D02*
X145164Y152825D01*
X143088Y150750D02*
X143011Y150675D01*
X142931Y150604D01*
X142849Y150535D01*
X142764Y150470D01*
X142677Y150407D01*
X142587Y150348D01*
X142496Y150292D01*
X142402Y150240D01*
X142307Y150191D01*
X142210Y150145D01*
X142111Y150103D01*
X142011Y150065D01*
X141910Y150030D01*
X141807Y149999D01*
X141703Y149972D01*
X141599Y149949D01*
X141493Y149930D01*
X141387Y149914D01*
X141281Y149902D01*
X141174Y149894D01*
X141067Y149890D01*
X140959Y149890D01*
X140852Y149894D01*
X140745Y149902D01*
X140639Y149914D01*
X140533Y149930D01*
X140427Y149949D01*
X140323Y149972D01*
X140219Y149999D01*
X140116Y150030D01*
X140015Y150065D01*
X139915Y150103D01*
X139816Y150145D01*
X139719Y150191D01*
X139624Y150240D01*
X139530Y150292D01*
X139439Y150348D01*
X139349Y150407D01*
X139262Y150470D01*
X139177Y150535D01*
X139095Y150604D01*
X139015Y150675D01*
X138938Y150750D01*
X138938Y150749D02*
X133749Y155938D01*
X133750Y155938D02*
X133675Y156015D01*
X133604Y156095D01*
X133535Y156177D01*
X133470Y156262D01*
X133407Y156349D01*
X133348Y156439D01*
X133292Y156530D01*
X133240Y156624D01*
X133191Y156719D01*
X133145Y156816D01*
X133103Y156915D01*
X133065Y157015D01*
X133030Y157116D01*
X132999Y157219D01*
X132972Y157323D01*
X132949Y157427D01*
X132930Y157533D01*
X132914Y157639D01*
X132902Y157745D01*
X132894Y157852D01*
X132890Y157959D01*
X132890Y158067D01*
X132894Y158174D01*
X132902Y158281D01*
X132914Y158387D01*
X132930Y158493D01*
X132949Y158599D01*
X132972Y158703D01*
X132999Y158807D01*
X133030Y158910D01*
X133065Y159011D01*
X133103Y159111D01*
X133145Y159210D01*
X133191Y159307D01*
X133240Y159402D01*
X133292Y159496D01*
X133348Y159587D01*
X133407Y159677D01*
X133470Y159764D01*
X133535Y159849D01*
X133604Y159931D01*
X133675Y160011D01*
X133750Y160088D01*
X133749Y160089D02*
X135825Y162164D01*
X139561Y165900D02*
X148900Y156561D01*
X153051Y160712D01*
X-188396Y106592D02*
X-188398Y106699D01*
X-188404Y106806D01*
X-188414Y106913D01*
X-188427Y107019D01*
X-188445Y107125D01*
X-188466Y107230D01*
X-188491Y107334D01*
X-188520Y107438D01*
X-188553Y107540D01*
X-188590Y107640D01*
X-188630Y107740D01*
X-188674Y107838D01*
X-188721Y107934D01*
X-188772Y108028D01*
X-188826Y108121D01*
X-188883Y108211D01*
X-188944Y108300D01*
X-189008Y108386D01*
X-189075Y108469D01*
X-189145Y108551D01*
X-189218Y108629D01*
X-189294Y108705D01*
X-189372Y108778D01*
X-189454Y108848D01*
X-189537Y108915D01*
X-189623Y108979D01*
X-189712Y109040D01*
X-189802Y109097D01*
X-189895Y109151D01*
X-189989Y109202D01*
X-190085Y109249D01*
X-190183Y109293D01*
X-190283Y109333D01*
X-190383Y109370D01*
X-190485Y109403D01*
X-190589Y109432D01*
X-190693Y109457D01*
X-190798Y109478D01*
X-190904Y109496D01*
X-191010Y109509D01*
X-191117Y109519D01*
X-191224Y109525D01*
X-191331Y109527D01*
X-188396Y106592D02*
X-188398Y106439D01*
X-188404Y106286D01*
X-188413Y106134D01*
X-188426Y105981D01*
X-188443Y105829D01*
X-188464Y105678D01*
X-188488Y105526D01*
X-188516Y105376D01*
X-188548Y105226D01*
X-188584Y105078D01*
X-188623Y104930D01*
X-188666Y104783D01*
X-188712Y104637D01*
X-188762Y104493D01*
X-188816Y104349D01*
X-188873Y104207D01*
X-188933Y104067D01*
X-188998Y103928D01*
X-189065Y103791D01*
X-189136Y103655D01*
X-189210Y103521D01*
X-189287Y103389D01*
X-189368Y103259D01*
X-189452Y103131D01*
X-189539Y103005D01*
X-189629Y102882D01*
X-189722Y102760D01*
X-189818Y102641D01*
X-189917Y102525D01*
X-190018Y102410D01*
X-190123Y102299D01*
X-190230Y102190D01*
X-198669Y102557D02*
X-198776Y102559D01*
X-198883Y102565D01*
X-198990Y102575D01*
X-199096Y102588D01*
X-199202Y102606D01*
X-199307Y102627D01*
X-199411Y102652D01*
X-199515Y102681D01*
X-199617Y102714D01*
X-199717Y102751D01*
X-199817Y102791D01*
X-199915Y102835D01*
X-200011Y102882D01*
X-200105Y102933D01*
X-200198Y102987D01*
X-200288Y103044D01*
X-200377Y103105D01*
X-200463Y103169D01*
X-200546Y103236D01*
X-200628Y103306D01*
X-200706Y103379D01*
X-200782Y103455D01*
X-200855Y103533D01*
X-200925Y103615D01*
X-200992Y103698D01*
X-201056Y103784D01*
X-201117Y103873D01*
X-201174Y103963D01*
X-201228Y104056D01*
X-201279Y104150D01*
X-201326Y104246D01*
X-201370Y104344D01*
X-201410Y104444D01*
X-201447Y104544D01*
X-201480Y104646D01*
X-201509Y104750D01*
X-201534Y104854D01*
X-201555Y104959D01*
X-201573Y105065D01*
X-201586Y105171D01*
X-201596Y105278D01*
X-201602Y105385D01*
X-201604Y105492D01*
X-201602Y105640D01*
X-201596Y105787D01*
X-201586Y105934D01*
X-201572Y106081D01*
X-201555Y106228D01*
X-201533Y106373D01*
X-201507Y106519D01*
X-201478Y106663D01*
X-201445Y106807D01*
X-201407Y106950D01*
X-201366Y107092D01*
X-201322Y107232D01*
X-201273Y107372D01*
X-201221Y107510D01*
X-201165Y107646D01*
X-201105Y107781D01*
X-201042Y107914D01*
X-200975Y108046D01*
X-200905Y108176D01*
X-200832Y108304D01*
X-200754Y108429D01*
X-200674Y108553D01*
X-200590Y108675D01*
X-200503Y108794D01*
X-196101Y104024D02*
X-196157Y103933D01*
X-196216Y103844D01*
X-196278Y103757D01*
X-196343Y103673D01*
X-196411Y103590D01*
X-196482Y103511D01*
X-196556Y103434D01*
X-196633Y103360D01*
X-196712Y103288D01*
X-196794Y103220D01*
X-196878Y103154D01*
X-196965Y103091D01*
X-197053Y103032D01*
X-197144Y102976D01*
X-197237Y102923D01*
X-197331Y102873D01*
X-197427Y102827D01*
X-197525Y102784D01*
X-197624Y102745D01*
X-197725Y102709D01*
X-197827Y102677D01*
X-197930Y102649D01*
X-198034Y102625D01*
X-198138Y102604D01*
X-198244Y102587D01*
X-198349Y102573D01*
X-198456Y102564D01*
X-198562Y102558D01*
X-198669Y102556D01*
X-193899Y108059D02*
X-193843Y108150D01*
X-193784Y108239D01*
X-193722Y108326D01*
X-193657Y108410D01*
X-193589Y108493D01*
X-193518Y108572D01*
X-193444Y108649D01*
X-193367Y108723D01*
X-193288Y108795D01*
X-193206Y108863D01*
X-193122Y108929D01*
X-193035Y108992D01*
X-192947Y109051D01*
X-192856Y109107D01*
X-192763Y109160D01*
X-192669Y109210D01*
X-192573Y109256D01*
X-192475Y109299D01*
X-192376Y109338D01*
X-192275Y109374D01*
X-192173Y109406D01*
X-192070Y109434D01*
X-191966Y109458D01*
X-191862Y109479D01*
X-191756Y109496D01*
X-191651Y109510D01*
X-191544Y109519D01*
X-191438Y109525D01*
X-191331Y109527D01*
X-193899Y108060D02*
X-196101Y104024D01*
X-201604Y114070D02*
X-188396Y117005D01*
X-197201Y119940D01*
X-188396Y122875D01*
X-201604Y125810D01*
D11*
X-9550Y85200D02*
X3150Y85200D01*
X-15900Y72500D02*
X-54000Y72500D01*
X-54000Y148700D01*
X47600Y148700D01*
X47600Y72500D01*
X9500Y72500D01*
X9500Y85200D01*
X-15900Y85200D01*
X-15900Y72500D01*
D12*
X-35050Y35050D02*
X-35050Y-35050D01*
X-35050Y35050D02*
X35050Y35050D01*
X35050Y-31500D01*
X31500Y-35050D02*
X-35050Y-35050D01*
X31500Y-35050D02*
X35050Y-31500D01*
X35052Y-36830D02*
X35054Y-36752D01*
X35060Y-36675D01*
X35070Y-36597D01*
X35084Y-36521D01*
X35101Y-36445D01*
X35123Y-36370D01*
X35148Y-36297D01*
X35177Y-36224D01*
X35210Y-36154D01*
X35247Y-36085D01*
X35286Y-36018D01*
X35329Y-35953D01*
X35376Y-35891D01*
X35425Y-35831D01*
X35478Y-35773D01*
X35533Y-35719D01*
X35591Y-35667D01*
X35652Y-35618D01*
X35715Y-35572D01*
X35781Y-35530D01*
X35848Y-35491D01*
X35917Y-35456D01*
X35988Y-35424D01*
X36061Y-35396D01*
X36135Y-35371D01*
X36210Y-35351D01*
X36286Y-35334D01*
X36363Y-35321D01*
X36440Y-35312D01*
X36518Y-35307D01*
X36595Y-35306D01*
X36673Y-35309D01*
X36751Y-35316D01*
X36828Y-35327D01*
X36904Y-35342D01*
X36980Y-35360D01*
X37054Y-35383D01*
X37128Y-35409D01*
X37199Y-35439D01*
X37270Y-35473D01*
X37338Y-35510D01*
X37404Y-35551D01*
X37469Y-35595D01*
X37531Y-35642D01*
X37590Y-35692D01*
X37647Y-35746D01*
X37701Y-35802D01*
X37752Y-35860D01*
X37800Y-35922D01*
X37845Y-35985D01*
X37886Y-36051D01*
X37924Y-36119D01*
X37959Y-36189D01*
X37990Y-36260D01*
X38017Y-36333D01*
X38040Y-36407D01*
X38060Y-36483D01*
X38076Y-36559D01*
X38088Y-36636D01*
X38096Y-36713D01*
X38100Y-36791D01*
X38100Y-36869D01*
X38096Y-36947D01*
X38088Y-37024D01*
X38076Y-37101D01*
X38060Y-37177D01*
X38040Y-37253D01*
X38017Y-37327D01*
X37990Y-37400D01*
X37959Y-37471D01*
X37924Y-37541D01*
X37886Y-37609D01*
X37845Y-37675D01*
X37800Y-37738D01*
X37752Y-37800D01*
X37701Y-37858D01*
X37647Y-37914D01*
X37590Y-37968D01*
X37531Y-38018D01*
X37469Y-38065D01*
X37404Y-38109D01*
X37338Y-38150D01*
X37270Y-38187D01*
X37199Y-38221D01*
X37128Y-38251D01*
X37054Y-38277D01*
X36980Y-38300D01*
X36904Y-38318D01*
X36828Y-38333D01*
X36751Y-38344D01*
X36673Y-38351D01*
X36595Y-38354D01*
X36518Y-38353D01*
X36440Y-38348D01*
X36363Y-38339D01*
X36286Y-38326D01*
X36210Y-38309D01*
X36135Y-38289D01*
X36061Y-38264D01*
X35988Y-38236D01*
X35917Y-38204D01*
X35848Y-38169D01*
X35781Y-38130D01*
X35715Y-38088D01*
X35652Y-38042D01*
X35591Y-37993D01*
X35533Y-37941D01*
X35478Y-37887D01*
X35425Y-37829D01*
X35376Y-37769D01*
X35329Y-37707D01*
X35286Y-37642D01*
X35247Y-37575D01*
X35210Y-37506D01*
X35177Y-37436D01*
X35148Y-37363D01*
X35123Y-37290D01*
X35101Y-37215D01*
X35084Y-37139D01*
X35070Y-37063D01*
X35060Y-36985D01*
X35054Y-36908D01*
X35052Y-36830D01*
X-6982Y-7036D02*
X-6982Y-1166D01*
X-6982Y-7036D02*
X-6980Y-7129D01*
X-6974Y-7222D01*
X-6965Y-7315D01*
X-6951Y-7408D01*
X-6934Y-7499D01*
X-6913Y-7590D01*
X-6888Y-7680D01*
X-6860Y-7769D01*
X-6828Y-7857D01*
X-6792Y-7943D01*
X-6753Y-8028D01*
X-6710Y-8111D01*
X-6664Y-8192D01*
X-6614Y-8271D01*
X-6562Y-8348D01*
X-6506Y-8423D01*
X-6447Y-8495D01*
X-6385Y-8565D01*
X-6321Y-8633D01*
X-6253Y-8697D01*
X-6183Y-8759D01*
X-6111Y-8818D01*
X-6036Y-8874D01*
X-5959Y-8926D01*
X-5880Y-8976D01*
X-5799Y-9022D01*
X-5716Y-9065D01*
X-5631Y-9104D01*
X-5545Y-9140D01*
X-5457Y-9172D01*
X-5368Y-9200D01*
X-5278Y-9225D01*
X-5187Y-9246D01*
X-5096Y-9263D01*
X-5003Y-9277D01*
X-4910Y-9286D01*
X-4817Y-9292D01*
X-4724Y-9294D01*
X-4631Y-9292D01*
X-4538Y-9286D01*
X-4445Y-9277D01*
X-4352Y-9263D01*
X-4261Y-9246D01*
X-4170Y-9225D01*
X-4080Y-9200D01*
X-3991Y-9172D01*
X-3903Y-9140D01*
X-3817Y-9104D01*
X-3732Y-9065D01*
X-3649Y-9022D01*
X-3568Y-8976D01*
X-3489Y-8926D01*
X-3412Y-8874D01*
X-3337Y-8818D01*
X-3265Y-8759D01*
X-3195Y-8697D01*
X-3127Y-8633D01*
X-3063Y-8565D01*
X-3001Y-8495D01*
X-2942Y-8423D01*
X-2886Y-8348D01*
X-2834Y-8271D01*
X-2784Y-8192D01*
X-2738Y-8111D01*
X-2695Y-8028D01*
X-2656Y-7943D01*
X-2620Y-7857D01*
X-2588Y-7769D01*
X-2560Y-7680D01*
X-2535Y-7590D01*
X-2514Y-7499D01*
X-2497Y-7408D01*
X-2483Y-7315D01*
X-2474Y-7222D01*
X-2468Y-7129D01*
X-2466Y-7036D01*
X-2467Y-7036D02*
X-2467Y-1166D01*
X2467Y-2972D02*
X4724Y-1166D01*
X4724Y-9294D01*
X2467Y-9294D02*
X6982Y-9294D01*
D11*
X-256990Y-69850D02*
X-256990Y69850D01*
X-256990Y-69850D02*
X-250640Y-69850D01*
X-66490Y-69850D01*
X-66490Y69850D01*
X-250640Y69850D01*
X-256990Y69850D01*
X-206190Y19050D02*
X-98240Y19050D01*
X-123640Y6350D02*
X-206190Y6350D01*
X-206190Y-6350D02*
X-98240Y-6350D01*
X-123640Y-19050D02*
X-206190Y-19050D01*
X-250640Y-69850D02*
X-250640Y69850D01*
D10*
X-198639Y5842D02*
X-198639Y-5842D01*
X-198639Y5842D02*
X-195394Y5842D01*
X-195281Y5840D01*
X-195168Y5834D01*
X-195055Y5824D01*
X-194942Y5810D01*
X-194830Y5793D01*
X-194719Y5771D01*
X-194609Y5746D01*
X-194499Y5716D01*
X-194391Y5683D01*
X-194284Y5646D01*
X-194178Y5606D01*
X-194074Y5561D01*
X-193971Y5513D01*
X-193870Y5462D01*
X-193771Y5407D01*
X-193674Y5349D01*
X-193579Y5287D01*
X-193486Y5222D01*
X-193396Y5154D01*
X-193308Y5083D01*
X-193222Y5008D01*
X-193139Y4931D01*
X-193059Y4851D01*
X-192982Y4768D01*
X-192907Y4682D01*
X-192836Y4594D01*
X-192768Y4504D01*
X-192703Y4411D01*
X-192641Y4316D01*
X-192583Y4219D01*
X-192528Y4120D01*
X-192477Y4019D01*
X-192429Y3916D01*
X-192384Y3812D01*
X-192344Y3706D01*
X-192307Y3599D01*
X-192274Y3491D01*
X-192244Y3381D01*
X-192219Y3271D01*
X-192197Y3160D01*
X-192180Y3048D01*
X-192166Y2935D01*
X-192156Y2822D01*
X-192150Y2709D01*
X-192148Y2596D01*
X-192150Y2483D01*
X-192156Y2370D01*
X-192166Y2257D01*
X-192180Y2144D01*
X-192197Y2032D01*
X-192219Y1921D01*
X-192244Y1811D01*
X-192274Y1701D01*
X-192307Y1593D01*
X-192344Y1486D01*
X-192384Y1380D01*
X-192429Y1276D01*
X-192477Y1173D01*
X-192528Y1072D01*
X-192583Y973D01*
X-192641Y876D01*
X-192703Y781D01*
X-192768Y688D01*
X-192836Y598D01*
X-192907Y510D01*
X-192982Y424D01*
X-193059Y341D01*
X-193139Y261D01*
X-193222Y184D01*
X-193308Y109D01*
X-193396Y38D01*
X-193486Y-30D01*
X-193579Y-95D01*
X-193674Y-157D01*
X-193771Y-215D01*
X-193870Y-270D01*
X-193971Y-321D01*
X-194074Y-369D01*
X-194178Y-414D01*
X-194284Y-454D01*
X-194391Y-491D01*
X-194499Y-524D01*
X-194609Y-554D01*
X-194719Y-579D01*
X-194830Y-601D01*
X-194942Y-618D01*
X-195055Y-632D01*
X-195168Y-642D01*
X-195281Y-648D01*
X-195394Y-650D01*
X-195394Y-649D02*
X-198639Y-649D01*
X-194745Y-649D02*
X-192148Y-5842D01*
X-184555Y-3246D02*
X-184555Y5842D01*
X-184556Y-3246D02*
X-184558Y-3345D01*
X-184564Y-3445D01*
X-184573Y-3544D01*
X-184586Y-3642D01*
X-184603Y-3740D01*
X-184624Y-3838D01*
X-184649Y-3934D01*
X-184677Y-4029D01*
X-184709Y-4123D01*
X-184744Y-4216D01*
X-184783Y-4308D01*
X-184826Y-4398D01*
X-184871Y-4486D01*
X-184921Y-4573D01*
X-184973Y-4657D01*
X-185029Y-4740D01*
X-185087Y-4820D01*
X-185149Y-4898D01*
X-185214Y-4973D01*
X-185282Y-5046D01*
X-185352Y-5116D01*
X-185425Y-5184D01*
X-185500Y-5249D01*
X-185578Y-5311D01*
X-185658Y-5369D01*
X-185741Y-5425D01*
X-185825Y-5477D01*
X-185912Y-5527D01*
X-186000Y-5572D01*
X-186090Y-5615D01*
X-186182Y-5654D01*
X-186275Y-5689D01*
X-186369Y-5721D01*
X-186464Y-5749D01*
X-186560Y-5774D01*
X-186658Y-5795D01*
X-186756Y-5812D01*
X-186854Y-5825D01*
X-186953Y-5834D01*
X-187053Y-5840D01*
X-187152Y-5842D01*
X-188450Y-5842D01*
X-179282Y3246D02*
X-176036Y5842D01*
X-176036Y-5842D01*
X-172791Y-5842D02*
X-179282Y-5842D01*
X-164282Y5842D02*
X-164175Y5840D01*
X-164069Y5834D01*
X-163963Y5824D01*
X-163857Y5811D01*
X-163751Y5793D01*
X-163647Y5772D01*
X-163543Y5747D01*
X-163440Y5718D01*
X-163339Y5686D01*
X-163239Y5649D01*
X-163140Y5609D01*
X-163042Y5566D01*
X-162946Y5519D01*
X-162852Y5468D01*
X-162760Y5414D01*
X-162670Y5357D01*
X-162582Y5297D01*
X-162497Y5233D01*
X-162414Y5166D01*
X-162333Y5096D01*
X-162255Y5024D01*
X-162179Y4948D01*
X-162107Y4870D01*
X-162037Y4789D01*
X-161970Y4706D01*
X-161906Y4621D01*
X-161846Y4533D01*
X-161789Y4443D01*
X-161735Y4351D01*
X-161684Y4257D01*
X-161637Y4161D01*
X-161594Y4063D01*
X-161554Y3964D01*
X-161517Y3864D01*
X-161485Y3763D01*
X-161456Y3660D01*
X-161431Y3556D01*
X-161410Y3452D01*
X-161392Y3346D01*
X-161379Y3240D01*
X-161369Y3134D01*
X-161363Y3028D01*
X-161361Y2921D01*
X-164282Y5842D02*
X-164403Y5840D01*
X-164524Y5834D01*
X-164644Y5824D01*
X-164765Y5811D01*
X-164884Y5793D01*
X-165004Y5772D01*
X-165122Y5747D01*
X-165239Y5718D01*
X-165356Y5685D01*
X-165471Y5649D01*
X-165585Y5608D01*
X-165698Y5565D01*
X-165810Y5517D01*
X-165919Y5466D01*
X-166027Y5411D01*
X-166134Y5353D01*
X-166238Y5292D01*
X-166340Y5227D01*
X-166440Y5159D01*
X-166538Y5088D01*
X-166634Y5014D01*
X-166727Y4937D01*
X-166817Y4856D01*
X-166905Y4773D01*
X-166990Y4687D01*
X-167073Y4598D01*
X-167152Y4507D01*
X-167229Y4413D01*
X-167302Y4317D01*
X-167372Y4219D01*
X-167439Y4118D01*
X-167503Y4015D01*
X-167564Y3910D01*
X-167621Y3803D01*
X-167674Y3695D01*
X-167724Y3585D01*
X-167770Y3473D01*
X-167813Y3360D01*
X-167852Y3245D01*
X-162335Y649D02*
X-162256Y727D01*
X-162180Y807D01*
X-162107Y890D01*
X-162037Y976D01*
X-161970Y1063D01*
X-161906Y1154D01*
X-161846Y1246D01*
X-161788Y1340D01*
X-161734Y1437D01*
X-161684Y1535D01*
X-161637Y1635D01*
X-161593Y1736D01*
X-161553Y1839D01*
X-161517Y1944D01*
X-161485Y2049D01*
X-161456Y2156D01*
X-161431Y2263D01*
X-161409Y2372D01*
X-161392Y2481D01*
X-161378Y2590D01*
X-161369Y2700D01*
X-161363Y2811D01*
X-161361Y2921D01*
X-162334Y649D02*
X-167852Y-5842D01*
X-161361Y-5842D01*
X-202999Y-127792D02*
X-205596Y-127792D01*
X-205695Y-127790D01*
X-205795Y-127784D01*
X-205894Y-127775D01*
X-205992Y-127762D01*
X-206090Y-127745D01*
X-206188Y-127724D01*
X-206284Y-127699D01*
X-206379Y-127671D01*
X-206473Y-127639D01*
X-206566Y-127604D01*
X-206658Y-127565D01*
X-206748Y-127522D01*
X-206836Y-127477D01*
X-206923Y-127427D01*
X-207007Y-127375D01*
X-207090Y-127319D01*
X-207170Y-127261D01*
X-207248Y-127199D01*
X-207323Y-127134D01*
X-207396Y-127066D01*
X-207466Y-126996D01*
X-207534Y-126923D01*
X-207599Y-126848D01*
X-207661Y-126770D01*
X-207719Y-126690D01*
X-207775Y-126607D01*
X-207827Y-126523D01*
X-207877Y-126436D01*
X-207922Y-126348D01*
X-207965Y-126258D01*
X-208004Y-126166D01*
X-208039Y-126073D01*
X-208071Y-125979D01*
X-208099Y-125884D01*
X-208124Y-125788D01*
X-208145Y-125690D01*
X-208162Y-125592D01*
X-208175Y-125494D01*
X-208184Y-125395D01*
X-208190Y-125295D01*
X-208192Y-125196D01*
X-208192Y-118704D01*
X-208193Y-118704D02*
X-208191Y-118605D01*
X-208185Y-118505D01*
X-208176Y-118406D01*
X-208163Y-118308D01*
X-208145Y-118210D01*
X-208125Y-118112D01*
X-208100Y-118016D01*
X-208072Y-117920D01*
X-208040Y-117826D01*
X-208005Y-117733D01*
X-207966Y-117642D01*
X-207923Y-117552D01*
X-207878Y-117463D01*
X-207828Y-117377D01*
X-207776Y-117292D01*
X-207720Y-117210D01*
X-207661Y-117130D01*
X-207600Y-117052D01*
X-207535Y-116976D01*
X-207467Y-116903D01*
X-207397Y-116833D01*
X-207324Y-116765D01*
X-207248Y-116700D01*
X-207170Y-116639D01*
X-207090Y-116580D01*
X-207008Y-116524D01*
X-206923Y-116472D01*
X-206837Y-116423D01*
X-206748Y-116377D01*
X-206658Y-116334D01*
X-206567Y-116295D01*
X-206474Y-116260D01*
X-206380Y-116228D01*
X-206284Y-116200D01*
X-206188Y-116175D01*
X-206090Y-116155D01*
X-205992Y-116137D01*
X-205894Y-116124D01*
X-205795Y-116115D01*
X-205696Y-116109D01*
X-205596Y-116107D01*
X-205596Y-116108D02*
X-202999Y-116108D01*
X-198634Y-118704D02*
X-195388Y-116108D01*
X-195388Y-127792D01*
X-192143Y-127792D02*
X-198634Y-127792D01*
X-136192Y72208D02*
X-136192Y83892D01*
X-132946Y83892D01*
X-132833Y83890D01*
X-132720Y83884D01*
X-132607Y83874D01*
X-132494Y83860D01*
X-132382Y83843D01*
X-132271Y83821D01*
X-132161Y83796D01*
X-132051Y83766D01*
X-131943Y83733D01*
X-131836Y83696D01*
X-131730Y83656D01*
X-131626Y83611D01*
X-131523Y83563D01*
X-131422Y83512D01*
X-131323Y83457D01*
X-131226Y83399D01*
X-131131Y83337D01*
X-131038Y83272D01*
X-130948Y83204D01*
X-130860Y83133D01*
X-130774Y83058D01*
X-130691Y82981D01*
X-130611Y82901D01*
X-130534Y82818D01*
X-130459Y82732D01*
X-130388Y82644D01*
X-130320Y82554D01*
X-130255Y82461D01*
X-130193Y82366D01*
X-130135Y82269D01*
X-130080Y82170D01*
X-130029Y82069D01*
X-129981Y81966D01*
X-129936Y81862D01*
X-129896Y81756D01*
X-129859Y81649D01*
X-129826Y81541D01*
X-129796Y81431D01*
X-129771Y81321D01*
X-129749Y81210D01*
X-129732Y81098D01*
X-129718Y80985D01*
X-129708Y80872D01*
X-129702Y80759D01*
X-129700Y80646D01*
X-129702Y80533D01*
X-129708Y80420D01*
X-129718Y80307D01*
X-129732Y80194D01*
X-129749Y80082D01*
X-129771Y79971D01*
X-129796Y79861D01*
X-129826Y79751D01*
X-129859Y79643D01*
X-129896Y79536D01*
X-129936Y79430D01*
X-129981Y79326D01*
X-130029Y79223D01*
X-130080Y79122D01*
X-130135Y79023D01*
X-130193Y78926D01*
X-130255Y78831D01*
X-130320Y78738D01*
X-130388Y78648D01*
X-130459Y78560D01*
X-130534Y78474D01*
X-130611Y78391D01*
X-130691Y78311D01*
X-130774Y78234D01*
X-130860Y78159D01*
X-130948Y78088D01*
X-131038Y78020D01*
X-131131Y77955D01*
X-131226Y77893D01*
X-131323Y77835D01*
X-131422Y77780D01*
X-131523Y77729D01*
X-131626Y77681D01*
X-131730Y77636D01*
X-131836Y77596D01*
X-131943Y77559D01*
X-132051Y77526D01*
X-132161Y77496D01*
X-132271Y77471D01*
X-132382Y77449D01*
X-132494Y77432D01*
X-132607Y77418D01*
X-132720Y77408D01*
X-132833Y77402D01*
X-132946Y77400D01*
X-132946Y77401D02*
X-136192Y77401D01*
X-132297Y77401D02*
X-129701Y72208D01*
X-124836Y81296D02*
X-121590Y83892D01*
X-121590Y72208D01*
X-118345Y72208D02*
X-124836Y72208D01*
X-150192Y-116108D02*
X-150192Y-127792D01*
X-150192Y-116108D02*
X-146946Y-116108D01*
X-146833Y-116110D01*
X-146720Y-116116D01*
X-146607Y-116126D01*
X-146494Y-116140D01*
X-146382Y-116157D01*
X-146271Y-116179D01*
X-146161Y-116204D01*
X-146051Y-116234D01*
X-145943Y-116267D01*
X-145836Y-116304D01*
X-145730Y-116344D01*
X-145626Y-116389D01*
X-145523Y-116437D01*
X-145422Y-116488D01*
X-145323Y-116543D01*
X-145226Y-116601D01*
X-145131Y-116663D01*
X-145038Y-116728D01*
X-144948Y-116796D01*
X-144860Y-116867D01*
X-144774Y-116942D01*
X-144691Y-117019D01*
X-144611Y-117099D01*
X-144534Y-117182D01*
X-144459Y-117268D01*
X-144388Y-117356D01*
X-144320Y-117446D01*
X-144255Y-117539D01*
X-144193Y-117634D01*
X-144135Y-117731D01*
X-144080Y-117830D01*
X-144029Y-117931D01*
X-143981Y-118034D01*
X-143936Y-118138D01*
X-143896Y-118244D01*
X-143859Y-118351D01*
X-143826Y-118459D01*
X-143796Y-118569D01*
X-143771Y-118679D01*
X-143749Y-118790D01*
X-143732Y-118902D01*
X-143718Y-119015D01*
X-143708Y-119128D01*
X-143702Y-119241D01*
X-143700Y-119354D01*
X-143702Y-119467D01*
X-143708Y-119580D01*
X-143718Y-119693D01*
X-143732Y-119806D01*
X-143749Y-119918D01*
X-143771Y-120029D01*
X-143796Y-120139D01*
X-143826Y-120249D01*
X-143859Y-120357D01*
X-143896Y-120464D01*
X-143936Y-120570D01*
X-143981Y-120674D01*
X-144029Y-120777D01*
X-144080Y-120878D01*
X-144135Y-120977D01*
X-144193Y-121074D01*
X-144255Y-121169D01*
X-144320Y-121262D01*
X-144388Y-121352D01*
X-144459Y-121440D01*
X-144534Y-121526D01*
X-144611Y-121609D01*
X-144691Y-121689D01*
X-144774Y-121766D01*
X-144860Y-121841D01*
X-144948Y-121912D01*
X-145038Y-121980D01*
X-145131Y-122045D01*
X-145226Y-122107D01*
X-145323Y-122165D01*
X-145422Y-122220D01*
X-145523Y-122271D01*
X-145626Y-122319D01*
X-145730Y-122364D01*
X-145836Y-122404D01*
X-145943Y-122441D01*
X-146051Y-122474D01*
X-146161Y-122504D01*
X-146271Y-122529D01*
X-146382Y-122551D01*
X-146494Y-122568D01*
X-146607Y-122582D01*
X-146720Y-122592D01*
X-146833Y-122598D01*
X-146946Y-122600D01*
X-146946Y-122599D02*
X-150192Y-122599D01*
X-146297Y-122599D02*
X-143701Y-127792D01*
X-132345Y-119029D02*
X-132347Y-118922D01*
X-132353Y-118816D01*
X-132363Y-118710D01*
X-132376Y-118604D01*
X-132394Y-118498D01*
X-132415Y-118394D01*
X-132440Y-118290D01*
X-132469Y-118187D01*
X-132501Y-118086D01*
X-132538Y-117986D01*
X-132578Y-117887D01*
X-132621Y-117789D01*
X-132668Y-117693D01*
X-132719Y-117599D01*
X-132773Y-117507D01*
X-132830Y-117417D01*
X-132890Y-117329D01*
X-132954Y-117244D01*
X-133021Y-117161D01*
X-133091Y-117080D01*
X-133163Y-117002D01*
X-133239Y-116926D01*
X-133317Y-116854D01*
X-133398Y-116784D01*
X-133481Y-116717D01*
X-133566Y-116653D01*
X-133654Y-116593D01*
X-133744Y-116536D01*
X-133836Y-116482D01*
X-133930Y-116431D01*
X-134026Y-116384D01*
X-134124Y-116341D01*
X-134223Y-116301D01*
X-134323Y-116264D01*
X-134424Y-116232D01*
X-134527Y-116203D01*
X-134631Y-116178D01*
X-134735Y-116157D01*
X-134841Y-116139D01*
X-134947Y-116126D01*
X-135053Y-116116D01*
X-135159Y-116110D01*
X-135266Y-116108D01*
X-135387Y-116110D01*
X-135508Y-116116D01*
X-135628Y-116126D01*
X-135749Y-116139D01*
X-135868Y-116157D01*
X-135988Y-116178D01*
X-136106Y-116203D01*
X-136223Y-116232D01*
X-136340Y-116265D01*
X-136455Y-116301D01*
X-136569Y-116342D01*
X-136682Y-116385D01*
X-136794Y-116433D01*
X-136903Y-116484D01*
X-137011Y-116539D01*
X-137118Y-116597D01*
X-137222Y-116658D01*
X-137324Y-116723D01*
X-137424Y-116791D01*
X-137522Y-116862D01*
X-137618Y-116936D01*
X-137711Y-117013D01*
X-137801Y-117094D01*
X-137889Y-117177D01*
X-137974Y-117263D01*
X-138057Y-117352D01*
X-138136Y-117443D01*
X-138213Y-117537D01*
X-138286Y-117633D01*
X-138356Y-117731D01*
X-138423Y-117832D01*
X-138487Y-117935D01*
X-138548Y-118040D01*
X-138605Y-118147D01*
X-138658Y-118255D01*
X-138708Y-118365D01*
X-138755Y-118477D01*
X-138797Y-118590D01*
X-138836Y-118705D01*
X-133319Y-121301D02*
X-133240Y-121223D01*
X-133164Y-121143D01*
X-133091Y-121060D01*
X-133021Y-120974D01*
X-132954Y-120887D01*
X-132890Y-120796D01*
X-132830Y-120704D01*
X-132772Y-120610D01*
X-132718Y-120513D01*
X-132668Y-120415D01*
X-132621Y-120315D01*
X-132577Y-120214D01*
X-132537Y-120111D01*
X-132501Y-120006D01*
X-132469Y-119901D01*
X-132440Y-119794D01*
X-132415Y-119687D01*
X-132393Y-119578D01*
X-132376Y-119469D01*
X-132362Y-119360D01*
X-132353Y-119250D01*
X-132347Y-119139D01*
X-132345Y-119029D01*
X-133318Y-121301D02*
X-138836Y-127792D01*
X-132345Y-127792D01*
D11*
X100900Y58500D02*
X115000Y58500D01*
X115000Y46400D01*
X115000Y-58500D01*
X101200Y-58500D01*
X79000Y-58500D02*
X65000Y-58500D01*
X65000Y58500D01*
X78800Y58500D01*
D10*
X70408Y1711D02*
X82092Y-6078D01*
X82092Y1711D02*
X70408Y-6078D01*
X73004Y6001D02*
X70408Y9246D01*
X82092Y9246D01*
X82092Y6001D02*
X82092Y12492D01*
X128792Y13404D02*
X128792Y16001D01*
X128792Y13404D02*
X128790Y13305D01*
X128784Y13205D01*
X128775Y13106D01*
X128762Y13008D01*
X128745Y12910D01*
X128724Y12812D01*
X128699Y12716D01*
X128671Y12621D01*
X128639Y12527D01*
X128604Y12434D01*
X128565Y12342D01*
X128522Y12252D01*
X128477Y12164D01*
X128427Y12077D01*
X128375Y11993D01*
X128319Y11910D01*
X128261Y11830D01*
X128199Y11752D01*
X128134Y11677D01*
X128066Y11604D01*
X127996Y11534D01*
X127923Y11466D01*
X127848Y11401D01*
X127770Y11339D01*
X127690Y11281D01*
X127607Y11225D01*
X127523Y11173D01*
X127436Y11123D01*
X127348Y11078D01*
X127258Y11035D01*
X127166Y10996D01*
X127073Y10961D01*
X126979Y10929D01*
X126884Y10901D01*
X126788Y10876D01*
X126690Y10855D01*
X126592Y10838D01*
X126494Y10825D01*
X126395Y10816D01*
X126295Y10810D01*
X126196Y10808D01*
X119704Y10808D01*
X119605Y10810D01*
X119505Y10816D01*
X119406Y10825D01*
X119308Y10838D01*
X119210Y10856D01*
X119112Y10876D01*
X119016Y10901D01*
X118920Y10929D01*
X118826Y10961D01*
X118733Y10996D01*
X118642Y11035D01*
X118552Y11078D01*
X118463Y11123D01*
X118377Y11173D01*
X118292Y11225D01*
X118210Y11281D01*
X118130Y11340D01*
X118052Y11401D01*
X117976Y11466D01*
X117903Y11534D01*
X117833Y11604D01*
X117765Y11677D01*
X117700Y11753D01*
X117639Y11831D01*
X117580Y11911D01*
X117524Y11993D01*
X117472Y12078D01*
X117423Y12164D01*
X117377Y12253D01*
X117334Y12343D01*
X117295Y12434D01*
X117260Y12527D01*
X117228Y12621D01*
X117200Y12717D01*
X117175Y12813D01*
X117155Y12911D01*
X117137Y13009D01*
X117124Y13107D01*
X117115Y13206D01*
X117109Y13305D01*
X117107Y13405D01*
X117108Y13404D02*
X117108Y16001D01*
X117108Y23936D02*
X117110Y24043D01*
X117116Y24149D01*
X117126Y24255D01*
X117139Y24361D01*
X117157Y24467D01*
X117178Y24571D01*
X117203Y24675D01*
X117232Y24778D01*
X117264Y24879D01*
X117301Y24979D01*
X117341Y25078D01*
X117384Y25176D01*
X117431Y25272D01*
X117482Y25366D01*
X117536Y25458D01*
X117593Y25548D01*
X117653Y25636D01*
X117717Y25721D01*
X117784Y25804D01*
X117854Y25885D01*
X117926Y25963D01*
X118002Y26039D01*
X118080Y26111D01*
X118161Y26181D01*
X118244Y26248D01*
X118329Y26312D01*
X118417Y26372D01*
X118507Y26429D01*
X118599Y26483D01*
X118693Y26534D01*
X118789Y26581D01*
X118887Y26624D01*
X118986Y26664D01*
X119086Y26701D01*
X119187Y26733D01*
X119290Y26762D01*
X119394Y26787D01*
X119498Y26808D01*
X119604Y26826D01*
X119710Y26839D01*
X119816Y26849D01*
X119922Y26855D01*
X120029Y26857D01*
X117108Y23936D02*
X117110Y23815D01*
X117116Y23694D01*
X117126Y23574D01*
X117139Y23453D01*
X117157Y23334D01*
X117178Y23214D01*
X117203Y23096D01*
X117232Y22979D01*
X117265Y22862D01*
X117301Y22747D01*
X117342Y22633D01*
X117385Y22520D01*
X117433Y22408D01*
X117484Y22299D01*
X117539Y22191D01*
X117597Y22084D01*
X117658Y21980D01*
X117723Y21878D01*
X117791Y21778D01*
X117862Y21680D01*
X117936Y21584D01*
X118013Y21491D01*
X118094Y21401D01*
X118177Y21313D01*
X118263Y21228D01*
X118352Y21145D01*
X118443Y21066D01*
X118537Y20989D01*
X118633Y20916D01*
X118731Y20846D01*
X118832Y20779D01*
X118935Y20715D01*
X119040Y20655D01*
X119147Y20597D01*
X119255Y20544D01*
X119365Y20494D01*
X119477Y20448D01*
X119590Y20405D01*
X119705Y20366D01*
X122301Y25883D02*
X122223Y25962D01*
X122143Y26038D01*
X122060Y26111D01*
X121974Y26181D01*
X121887Y26248D01*
X121796Y26312D01*
X121704Y26372D01*
X121610Y26430D01*
X121513Y26484D01*
X121415Y26534D01*
X121315Y26581D01*
X121214Y26625D01*
X121111Y26665D01*
X121006Y26701D01*
X120901Y26733D01*
X120794Y26762D01*
X120687Y26787D01*
X120578Y26809D01*
X120469Y26826D01*
X120360Y26840D01*
X120250Y26849D01*
X120139Y26855D01*
X120029Y26857D01*
X122301Y25884D02*
X128792Y20366D01*
X128792Y26857D01*
X128792Y-31999D02*
X128792Y-34596D01*
X128790Y-34695D01*
X128784Y-34795D01*
X128775Y-34894D01*
X128762Y-34992D01*
X128745Y-35090D01*
X128724Y-35188D01*
X128699Y-35284D01*
X128671Y-35379D01*
X128639Y-35473D01*
X128604Y-35566D01*
X128565Y-35658D01*
X128522Y-35748D01*
X128477Y-35836D01*
X128427Y-35923D01*
X128375Y-36007D01*
X128319Y-36090D01*
X128261Y-36170D01*
X128199Y-36248D01*
X128134Y-36323D01*
X128066Y-36396D01*
X127996Y-36466D01*
X127923Y-36534D01*
X127848Y-36599D01*
X127770Y-36661D01*
X127690Y-36719D01*
X127607Y-36775D01*
X127523Y-36827D01*
X127436Y-36877D01*
X127348Y-36922D01*
X127258Y-36965D01*
X127166Y-37004D01*
X127073Y-37039D01*
X126979Y-37071D01*
X126884Y-37099D01*
X126788Y-37124D01*
X126690Y-37145D01*
X126592Y-37162D01*
X126494Y-37175D01*
X126395Y-37184D01*
X126295Y-37190D01*
X126196Y-37192D01*
X119704Y-37192D01*
X119704Y-37193D02*
X119605Y-37191D01*
X119505Y-37185D01*
X119406Y-37176D01*
X119308Y-37163D01*
X119210Y-37145D01*
X119112Y-37125D01*
X119016Y-37100D01*
X118920Y-37072D01*
X118826Y-37040D01*
X118733Y-37005D01*
X118642Y-36966D01*
X118552Y-36923D01*
X118463Y-36878D01*
X118377Y-36828D01*
X118292Y-36776D01*
X118210Y-36720D01*
X118130Y-36661D01*
X118052Y-36600D01*
X117976Y-36535D01*
X117903Y-36467D01*
X117833Y-36397D01*
X117765Y-36324D01*
X117700Y-36248D01*
X117639Y-36170D01*
X117580Y-36090D01*
X117524Y-36008D01*
X117472Y-35923D01*
X117423Y-35837D01*
X117377Y-35748D01*
X117334Y-35658D01*
X117295Y-35567D01*
X117260Y-35474D01*
X117228Y-35380D01*
X117200Y-35284D01*
X117175Y-35188D01*
X117155Y-35090D01*
X117137Y-34992D01*
X117124Y-34894D01*
X117115Y-34795D01*
X117109Y-34696D01*
X117107Y-34596D01*
X117108Y-34596D02*
X117108Y-31999D01*
X128792Y-27634D02*
X128792Y-24388D01*
X128790Y-24275D01*
X128784Y-24162D01*
X128774Y-24049D01*
X128760Y-23936D01*
X128743Y-23824D01*
X128721Y-23713D01*
X128696Y-23603D01*
X128666Y-23493D01*
X128633Y-23385D01*
X128596Y-23278D01*
X128556Y-23172D01*
X128511Y-23068D01*
X128463Y-22965D01*
X128412Y-22864D01*
X128357Y-22765D01*
X128299Y-22668D01*
X128237Y-22573D01*
X128172Y-22480D01*
X128104Y-22390D01*
X128033Y-22302D01*
X127958Y-22216D01*
X127881Y-22133D01*
X127801Y-22053D01*
X127718Y-21976D01*
X127632Y-21901D01*
X127544Y-21830D01*
X127454Y-21762D01*
X127361Y-21697D01*
X127266Y-21635D01*
X127169Y-21577D01*
X127070Y-21522D01*
X126969Y-21471D01*
X126866Y-21423D01*
X126762Y-21378D01*
X126656Y-21338D01*
X126549Y-21301D01*
X126441Y-21268D01*
X126331Y-21238D01*
X126221Y-21213D01*
X126110Y-21191D01*
X125998Y-21174D01*
X125885Y-21160D01*
X125772Y-21150D01*
X125659Y-21144D01*
X125546Y-21142D01*
X125433Y-21144D01*
X125320Y-21150D01*
X125207Y-21160D01*
X125094Y-21174D01*
X124982Y-21191D01*
X124871Y-21213D01*
X124761Y-21238D01*
X124651Y-21268D01*
X124543Y-21301D01*
X124436Y-21338D01*
X124330Y-21378D01*
X124226Y-21423D01*
X124123Y-21471D01*
X124022Y-21522D01*
X123923Y-21577D01*
X123826Y-21635D01*
X123731Y-21697D01*
X123638Y-21762D01*
X123548Y-21830D01*
X123460Y-21901D01*
X123374Y-21976D01*
X123291Y-22053D01*
X123211Y-22133D01*
X123134Y-22216D01*
X123059Y-22302D01*
X122988Y-22390D01*
X122920Y-22480D01*
X122855Y-22573D01*
X122793Y-22668D01*
X122735Y-22765D01*
X122680Y-22864D01*
X122629Y-22965D01*
X122581Y-23068D01*
X122536Y-23172D01*
X122496Y-23278D01*
X122459Y-23385D01*
X122426Y-23493D01*
X122396Y-23603D01*
X122371Y-23713D01*
X122349Y-23824D01*
X122332Y-23936D01*
X122318Y-24049D01*
X122308Y-24162D01*
X122302Y-24275D01*
X122300Y-24388D01*
X117108Y-23739D02*
X117108Y-27634D01*
X117108Y-23739D02*
X117110Y-23638D01*
X117116Y-23538D01*
X117126Y-23438D01*
X117139Y-23338D01*
X117157Y-23239D01*
X117178Y-23140D01*
X117203Y-23043D01*
X117232Y-22946D01*
X117265Y-22851D01*
X117301Y-22757D01*
X117341Y-22665D01*
X117384Y-22574D01*
X117431Y-22485D01*
X117481Y-22398D01*
X117535Y-22312D01*
X117592Y-22229D01*
X117652Y-22149D01*
X117715Y-22070D01*
X117782Y-21994D01*
X117851Y-21921D01*
X117923Y-21851D01*
X117997Y-21783D01*
X118074Y-21718D01*
X118154Y-21657D01*
X118236Y-21598D01*
X118320Y-21543D01*
X118406Y-21491D01*
X118494Y-21442D01*
X118584Y-21397D01*
X118676Y-21355D01*
X118769Y-21317D01*
X118864Y-21283D01*
X118959Y-21252D01*
X119056Y-21225D01*
X119154Y-21202D01*
X119253Y-21182D01*
X119353Y-21167D01*
X119453Y-21155D01*
X119553Y-21147D01*
X119654Y-21143D01*
X119754Y-21143D01*
X119855Y-21147D01*
X119955Y-21155D01*
X120055Y-21167D01*
X120155Y-21182D01*
X120254Y-21202D01*
X120352Y-21225D01*
X120449Y-21252D01*
X120544Y-21283D01*
X120639Y-21317D01*
X120732Y-21355D01*
X120824Y-21397D01*
X120914Y-21442D01*
X121002Y-21491D01*
X121088Y-21543D01*
X121172Y-21598D01*
X121254Y-21657D01*
X121334Y-21718D01*
X121411Y-21783D01*
X121485Y-21851D01*
X121557Y-21921D01*
X121626Y-21994D01*
X121693Y-22070D01*
X121756Y-22149D01*
X121816Y-22229D01*
X121873Y-22312D01*
X121927Y-22398D01*
X121977Y-22485D01*
X122024Y-22574D01*
X122067Y-22665D01*
X122107Y-22757D01*
X122143Y-22851D01*
X122176Y-22946D01*
X122205Y-23043D01*
X122230Y-23140D01*
X122251Y-23239D01*
X122269Y-23338D01*
X122282Y-23438D01*
X122292Y-23538D01*
X122298Y-23638D01*
X122300Y-23739D01*
X122301Y-23739D02*
X122301Y-26336D01*
X-90192Y72208D02*
X-90192Y83892D01*
X-86946Y83892D01*
X-86833Y83890D01*
X-86720Y83884D01*
X-86607Y83874D01*
X-86494Y83860D01*
X-86382Y83843D01*
X-86271Y83821D01*
X-86161Y83796D01*
X-86051Y83766D01*
X-85943Y83733D01*
X-85836Y83696D01*
X-85730Y83656D01*
X-85626Y83611D01*
X-85523Y83563D01*
X-85422Y83512D01*
X-85323Y83457D01*
X-85226Y83399D01*
X-85131Y83337D01*
X-85038Y83272D01*
X-84948Y83204D01*
X-84860Y83133D01*
X-84774Y83058D01*
X-84691Y82981D01*
X-84611Y82901D01*
X-84534Y82818D01*
X-84459Y82732D01*
X-84388Y82644D01*
X-84320Y82554D01*
X-84255Y82461D01*
X-84193Y82366D01*
X-84135Y82269D01*
X-84080Y82170D01*
X-84029Y82069D01*
X-83981Y81966D01*
X-83936Y81862D01*
X-83896Y81756D01*
X-83859Y81649D01*
X-83826Y81541D01*
X-83796Y81431D01*
X-83771Y81321D01*
X-83749Y81210D01*
X-83732Y81098D01*
X-83718Y80985D01*
X-83708Y80872D01*
X-83702Y80759D01*
X-83700Y80646D01*
X-83702Y80533D01*
X-83708Y80420D01*
X-83718Y80307D01*
X-83732Y80194D01*
X-83749Y80082D01*
X-83771Y79971D01*
X-83796Y79861D01*
X-83826Y79751D01*
X-83859Y79643D01*
X-83896Y79536D01*
X-83936Y79430D01*
X-83981Y79326D01*
X-84029Y79223D01*
X-84080Y79122D01*
X-84135Y79023D01*
X-84193Y78926D01*
X-84255Y78831D01*
X-84320Y78738D01*
X-84388Y78648D01*
X-84459Y78560D01*
X-84534Y78474D01*
X-84611Y78391D01*
X-84691Y78311D01*
X-84774Y78234D01*
X-84860Y78159D01*
X-84948Y78088D01*
X-85038Y78020D01*
X-85131Y77955D01*
X-85226Y77893D01*
X-85323Y77835D01*
X-85422Y77780D01*
X-85523Y77729D01*
X-85626Y77681D01*
X-85730Y77636D01*
X-85836Y77596D01*
X-85943Y77559D01*
X-86051Y77526D01*
X-86161Y77496D01*
X-86271Y77471D01*
X-86382Y77449D01*
X-86494Y77432D01*
X-86607Y77418D01*
X-86720Y77408D01*
X-86833Y77402D01*
X-86946Y77400D01*
X-86946Y77401D02*
X-90192Y77401D01*
X-86297Y77401D02*
X-83701Y72208D01*
X-78836Y72208D02*
X-75590Y72208D01*
X-75477Y72210D01*
X-75364Y72216D01*
X-75251Y72226D01*
X-75138Y72240D01*
X-75026Y72257D01*
X-74915Y72279D01*
X-74805Y72304D01*
X-74695Y72334D01*
X-74587Y72367D01*
X-74480Y72404D01*
X-74374Y72444D01*
X-74270Y72489D01*
X-74167Y72537D01*
X-74066Y72588D01*
X-73967Y72643D01*
X-73870Y72701D01*
X-73775Y72763D01*
X-73682Y72828D01*
X-73592Y72896D01*
X-73504Y72967D01*
X-73418Y73042D01*
X-73335Y73119D01*
X-73255Y73199D01*
X-73178Y73282D01*
X-73103Y73368D01*
X-73032Y73456D01*
X-72964Y73546D01*
X-72899Y73639D01*
X-72837Y73734D01*
X-72779Y73831D01*
X-72724Y73930D01*
X-72673Y74031D01*
X-72625Y74134D01*
X-72580Y74238D01*
X-72540Y74344D01*
X-72503Y74451D01*
X-72470Y74559D01*
X-72440Y74669D01*
X-72415Y74779D01*
X-72393Y74890D01*
X-72376Y75002D01*
X-72362Y75115D01*
X-72352Y75228D01*
X-72346Y75341D01*
X-72344Y75454D01*
X-72346Y75567D01*
X-72352Y75680D01*
X-72362Y75793D01*
X-72376Y75906D01*
X-72393Y76018D01*
X-72415Y76129D01*
X-72440Y76239D01*
X-72470Y76349D01*
X-72503Y76457D01*
X-72540Y76564D01*
X-72580Y76670D01*
X-72625Y76774D01*
X-72673Y76877D01*
X-72724Y76978D01*
X-72779Y77077D01*
X-72837Y77174D01*
X-72899Y77269D01*
X-72964Y77362D01*
X-73032Y77452D01*
X-73103Y77540D01*
X-73178Y77626D01*
X-73255Y77709D01*
X-73335Y77789D01*
X-73418Y77866D01*
X-73504Y77941D01*
X-73592Y78012D01*
X-73682Y78080D01*
X-73775Y78145D01*
X-73870Y78207D01*
X-73967Y78265D01*
X-74066Y78320D01*
X-74167Y78371D01*
X-74270Y78419D01*
X-74374Y78464D01*
X-74480Y78504D01*
X-74587Y78541D01*
X-74695Y78574D01*
X-74805Y78604D01*
X-74915Y78629D01*
X-75026Y78651D01*
X-75138Y78668D01*
X-75251Y78682D01*
X-75364Y78692D01*
X-75477Y78698D01*
X-75590Y78700D01*
X-74941Y83892D02*
X-78836Y83892D01*
X-74941Y83892D02*
X-74840Y83890D01*
X-74740Y83884D01*
X-74640Y83874D01*
X-74540Y83861D01*
X-74441Y83843D01*
X-74342Y83822D01*
X-74245Y83797D01*
X-74148Y83768D01*
X-74053Y83735D01*
X-73959Y83699D01*
X-73867Y83659D01*
X-73776Y83616D01*
X-73687Y83569D01*
X-73600Y83519D01*
X-73514Y83465D01*
X-73431Y83408D01*
X-73351Y83348D01*
X-73272Y83285D01*
X-73196Y83218D01*
X-73123Y83149D01*
X-73053Y83077D01*
X-72985Y83003D01*
X-72920Y82926D01*
X-72859Y82846D01*
X-72800Y82764D01*
X-72745Y82680D01*
X-72693Y82594D01*
X-72644Y82506D01*
X-72599Y82416D01*
X-72557Y82324D01*
X-72519Y82231D01*
X-72485Y82136D01*
X-72454Y82041D01*
X-72427Y81944D01*
X-72404Y81846D01*
X-72384Y81747D01*
X-72369Y81647D01*
X-72357Y81547D01*
X-72349Y81447D01*
X-72345Y81346D01*
X-72345Y81246D01*
X-72349Y81145D01*
X-72357Y81045D01*
X-72369Y80945D01*
X-72384Y80845D01*
X-72404Y80746D01*
X-72427Y80648D01*
X-72454Y80551D01*
X-72485Y80456D01*
X-72519Y80361D01*
X-72557Y80268D01*
X-72599Y80176D01*
X-72644Y80086D01*
X-72693Y79998D01*
X-72745Y79912D01*
X-72800Y79828D01*
X-72859Y79746D01*
X-72920Y79666D01*
X-72985Y79589D01*
X-73053Y79515D01*
X-73123Y79443D01*
X-73196Y79374D01*
X-73272Y79307D01*
X-73351Y79244D01*
X-73431Y79184D01*
X-73514Y79127D01*
X-73600Y79073D01*
X-73687Y79023D01*
X-73776Y78976D01*
X-73867Y78933D01*
X-73959Y78893D01*
X-74053Y78857D01*
X-74148Y78824D01*
X-74245Y78795D01*
X-74342Y78770D01*
X-74441Y78749D01*
X-74540Y78731D01*
X-74640Y78718D01*
X-74740Y78708D01*
X-74840Y78702D01*
X-74941Y78700D01*
X-74941Y78699D02*
X-77537Y78699D01*
D13*
X113300Y32000D02*
X113300Y-32000D01*
X113293Y-32567D01*
X113272Y-33134D01*
X113238Y-33701D01*
X113190Y-34266D01*
X113127Y-34830D01*
X113052Y-35393D01*
X112962Y-35953D01*
X112859Y-36511D01*
X112743Y-37066D01*
X112612Y-37618D01*
X112469Y-38167D01*
X112312Y-38713D01*
X112142Y-39254D01*
X111959Y-39791D01*
X111763Y-40323D01*
X111553Y-40851D01*
X111332Y-41373D01*
X111097Y-41890D01*
X110850Y-42401D01*
X110590Y-42905D01*
X110319Y-43403D01*
X110035Y-43895D01*
X109739Y-44379D01*
X109432Y-44856D01*
X109113Y-45326D01*
X108783Y-45787D01*
X108442Y-46240D01*
X108090Y-46685D01*
X107727Y-47121D01*
X107353Y-47549D01*
X106969Y-47966D01*
X106576Y-48375D01*
X106172Y-48774D01*
X105759Y-49163D01*
X105336Y-49541D01*
X104904Y-49909D01*
X104464Y-50267D01*
X104015Y-50614D01*
X103557Y-50950D01*
X103092Y-51274D01*
X102619Y-51587D01*
X102138Y-51889D01*
X101650Y-52178D01*
X101155Y-52456D01*
X100654Y-52722D01*
X100146Y-52975D01*
X99632Y-53216D01*
X99113Y-53444D01*
X98588Y-53660D01*
X98058Y-53862D01*
X97523Y-54052D01*
X96984Y-54229D01*
X96441Y-54392D01*
X95893Y-54542D01*
X95343Y-54679D01*
X94789Y-54803D01*
X94232Y-54912D01*
X93673Y-55009D01*
X93112Y-55091D01*
X92548Y-55160D01*
X91984Y-55215D01*
X91418Y-55257D01*
X90851Y-55284D01*
X90284Y-55298D01*
X89716Y-55298D01*
X89149Y-55284D01*
X88582Y-55257D01*
X88016Y-55215D01*
X87452Y-55160D01*
X86888Y-55091D01*
X86327Y-55009D01*
X85768Y-54912D01*
X85211Y-54803D01*
X84657Y-54679D01*
X84107Y-54542D01*
X83559Y-54392D01*
X83016Y-54229D01*
X82477Y-54052D01*
X81942Y-53862D01*
X81412Y-53660D01*
X80887Y-53444D01*
X80368Y-53216D01*
X79854Y-52975D01*
X79346Y-52722D01*
X78845Y-52456D01*
X78350Y-52178D01*
X77862Y-51889D01*
X77381Y-51587D01*
X76908Y-51274D01*
X76443Y-50950D01*
X75985Y-50614D01*
X75536Y-50267D01*
X75096Y-49909D01*
X74664Y-49541D01*
X74241Y-49163D01*
X73828Y-48774D01*
X73424Y-48375D01*
X73031Y-47966D01*
X72647Y-47549D01*
X72273Y-47121D01*
X71910Y-46685D01*
X71558Y-46240D01*
X71217Y-45787D01*
X70887Y-45326D01*
X70568Y-44856D01*
X70261Y-44379D01*
X69965Y-43895D01*
X69681Y-43403D01*
X69410Y-42905D01*
X69150Y-42401D01*
X68903Y-41890D01*
X68668Y-41373D01*
X68447Y-40851D01*
X68237Y-40323D01*
X68041Y-39791D01*
X67858Y-39254D01*
X67688Y-38713D01*
X67531Y-38167D01*
X67388Y-37618D01*
X67257Y-37066D01*
X67141Y-36511D01*
X67038Y-35953D01*
X66948Y-35393D01*
X66873Y-34830D01*
X66810Y-34266D01*
X66762Y-33701D01*
X66728Y-33134D01*
X66707Y-32567D01*
X66700Y-32000D01*
X66700Y32000D01*
X66707Y32567D01*
X66728Y33134D01*
X66762Y33701D01*
X66810Y34266D01*
X66873Y34830D01*
X66948Y35393D01*
X67038Y35953D01*
X67141Y36511D01*
X67257Y37066D01*
X67388Y37618D01*
X67531Y38167D01*
X67688Y38713D01*
X67858Y39254D01*
X68041Y39791D01*
X68237Y40323D01*
X68447Y40851D01*
X68668Y41373D01*
X68903Y41890D01*
X69150Y42401D01*
X69410Y42905D01*
X69681Y43403D01*
X69965Y43895D01*
X70261Y44379D01*
X70568Y44856D01*
X70887Y45326D01*
X71217Y45787D01*
X71558Y46240D01*
X71910Y46685D01*
X72273Y47121D01*
X72647Y47549D01*
X73031Y47966D01*
X73424Y48375D01*
X73828Y48774D01*
X74241Y49163D01*
X74664Y49541D01*
X75096Y49909D01*
X75536Y50267D01*
X75985Y50614D01*
X76443Y50950D01*
X76908Y51274D01*
X77381Y51587D01*
X77862Y51889D01*
X78350Y52178D01*
X78845Y52456D01*
X79346Y52722D01*
X79854Y52975D01*
X80368Y53216D01*
X80887Y53444D01*
X81412Y53660D01*
X81942Y53862D01*
X82477Y54052D01*
X83016Y54229D01*
X83559Y54392D01*
X84107Y54542D01*
X84657Y54679D01*
X85211Y54803D01*
X85768Y54912D01*
X86327Y55009D01*
X86888Y55091D01*
X87452Y55160D01*
X88016Y55215D01*
X88582Y55257D01*
X89149Y55284D01*
X89716Y55298D01*
X90284Y55298D01*
X90851Y55284D01*
X91418Y55257D01*
X91984Y55215D01*
X92548Y55160D01*
X93112Y55091D01*
X93673Y55009D01*
X94232Y54912D01*
X94789Y54803D01*
X95343Y54679D01*
X95893Y54542D01*
X96441Y54392D01*
X96984Y54229D01*
X97523Y54052D01*
X98058Y53862D01*
X98588Y53660D01*
X99113Y53444D01*
X99632Y53216D01*
X100146Y52975D01*
X100654Y52722D01*
X101155Y52456D01*
X101650Y52178D01*
X102138Y51889D01*
X102619Y51587D01*
X103092Y51274D01*
X103557Y50950D01*
X104015Y50614D01*
X104464Y50267D01*
X104904Y49909D01*
X105336Y49541D01*
X105759Y49163D01*
X106172Y48774D01*
X106576Y48375D01*
X106969Y47966D01*
X107353Y47549D01*
X107727Y47121D01*
X108090Y46685D01*
X108442Y46240D01*
X108783Y45787D01*
X109113Y45326D01*
X109432Y44856D01*
X109739Y44379D01*
X110035Y43895D01*
X110319Y43403D01*
X110590Y42905D01*
X110850Y42401D01*
X111097Y41890D01*
X111332Y41373D01*
X111553Y40851D01*
X111763Y40323D01*
X111959Y39791D01*
X112142Y39254D01*
X112312Y38713D01*
X112469Y38167D01*
X112612Y37618D01*
X112743Y37066D01*
X112859Y36511D01*
X112962Y35953D01*
X113052Y35393D01*
X113127Y34830D01*
X113190Y34266D01*
X113238Y33701D01*
X113272Y33134D01*
X113293Y32567D01*
X113300Y32000D01*
D11*
X-206800Y95200D02*
X-206800Y133200D01*
X-244800Y133200D02*
X-244800Y128200D01*
X-244800Y100200D02*
X-244800Y95200D01*
D14*
X-223962Y107961D02*
X-223888Y107959D01*
X-223813Y107953D01*
X-223740Y107944D01*
X-223666Y107931D01*
X-223594Y107914D01*
X-223523Y107894D01*
X-223452Y107870D01*
X-223383Y107842D01*
X-223316Y107811D01*
X-223250Y107777D01*
X-223185Y107739D01*
X-223123Y107698D01*
X-223063Y107654D01*
X-223006Y107607D01*
X-222951Y107557D01*
X-222898Y107504D01*
X-222848Y107449D01*
X-222801Y107392D01*
X-222757Y107332D01*
X-222716Y107270D01*
X-222678Y107205D01*
X-222644Y107139D01*
X-222613Y107072D01*
X-222585Y107003D01*
X-222561Y106932D01*
X-222541Y106861D01*
X-222524Y106789D01*
X-222511Y106715D01*
X-222502Y106642D01*
X-222496Y106567D01*
X-222494Y106493D01*
X-222496Y106382D01*
X-222502Y106271D01*
X-222512Y106160D01*
X-222526Y106049D01*
X-222544Y105940D01*
X-222566Y105831D01*
X-222591Y105722D01*
X-222621Y105615D01*
X-222654Y105509D01*
X-222692Y105404D01*
X-222732Y105301D01*
X-222777Y105199D01*
X-222825Y105099D01*
X-222877Y105000D01*
X-222932Y104904D01*
X-222991Y104809D01*
X-223053Y104717D01*
X-223119Y104627D01*
X-223187Y104539D01*
X-223259Y104454D01*
X-223334Y104372D01*
X-223411Y104292D01*
X-227630Y104475D02*
X-227704Y104477D01*
X-227779Y104483D01*
X-227852Y104492D01*
X-227926Y104505D01*
X-227998Y104522D01*
X-228069Y104542D01*
X-228140Y104566D01*
X-228209Y104594D01*
X-228276Y104625D01*
X-228342Y104659D01*
X-228407Y104697D01*
X-228469Y104738D01*
X-228529Y104782D01*
X-228586Y104829D01*
X-228641Y104879D01*
X-228694Y104932D01*
X-228744Y104987D01*
X-228791Y105044D01*
X-228835Y105104D01*
X-228876Y105166D01*
X-228914Y105231D01*
X-228948Y105297D01*
X-228979Y105364D01*
X-229007Y105433D01*
X-229031Y105504D01*
X-229051Y105575D01*
X-229068Y105647D01*
X-229081Y105721D01*
X-229090Y105794D01*
X-229096Y105869D01*
X-229098Y105943D01*
X-229096Y106047D01*
X-229090Y106151D01*
X-229080Y106255D01*
X-229067Y106358D01*
X-229049Y106461D01*
X-229027Y106563D01*
X-229002Y106664D01*
X-228973Y106764D01*
X-228940Y106863D01*
X-228903Y106960D01*
X-228863Y107056D01*
X-228819Y107151D01*
X-228771Y107243D01*
X-228721Y107334D01*
X-228666Y107423D01*
X-228609Y107510D01*
X-228548Y107594D01*
X-226345Y105209D02*
X-226384Y105146D01*
X-226426Y105086D01*
X-226471Y105028D01*
X-226519Y104971D01*
X-226570Y104918D01*
X-226623Y104867D01*
X-226678Y104818D01*
X-226736Y104773D01*
X-226796Y104730D01*
X-226858Y104690D01*
X-226922Y104654D01*
X-226988Y104620D01*
X-227056Y104590D01*
X-227124Y104563D01*
X-227194Y104540D01*
X-227265Y104520D01*
X-227337Y104504D01*
X-227410Y104491D01*
X-227483Y104482D01*
X-227556Y104477D01*
X-227630Y104475D01*
X-225247Y107227D02*
X-225208Y107290D01*
X-225166Y107350D01*
X-225121Y107409D01*
X-225073Y107465D01*
X-225022Y107518D01*
X-224969Y107569D01*
X-224914Y107618D01*
X-224856Y107663D01*
X-224796Y107706D01*
X-224734Y107746D01*
X-224670Y107782D01*
X-224604Y107816D01*
X-224536Y107846D01*
X-224468Y107873D01*
X-224398Y107896D01*
X-224327Y107916D01*
X-224255Y107932D01*
X-224182Y107945D01*
X-224109Y107954D01*
X-224036Y107959D01*
X-223962Y107961D01*
X-225246Y107227D02*
X-226346Y105209D01*
X-229098Y111238D02*
X-222494Y112705D01*
X-226897Y114173D01*
X-222494Y115641D01*
X-229098Y117108D01*
X-227630Y120629D02*
X-229098Y122464D01*
X-222494Y122464D01*
X-222494Y124298D02*
X-222494Y120629D01*
X106530Y115510D02*
X115510Y115510D01*
X106530Y115510D02*
X97549Y124490D01*
X97549Y133470D01*
X106530Y142451D01*
X115510Y142451D01*
X124490Y133470D01*
X124490Y124490D01*
X133470Y88569D02*
X142451Y79589D01*
X133470Y88569D02*
X133470Y97549D01*
X142451Y106530D01*
X151431Y106530D01*
X133470Y97549D02*
X124490Y97549D01*
X115510Y106530D01*
X115510Y115510D01*
X124490Y124490D01*
X133470Y124490D01*
X142451Y115510D01*
X142451Y106530D01*
X160411Y88569D02*
X151431Y79589D01*
X142451Y79589D01*
X160411Y88569D02*
X160411Y97549D01*
X151431Y106530D01*
X88569Y133470D02*
X79589Y142451D01*
X79589Y151431D01*
X88569Y160411D01*
X97549Y160411D01*
X97549Y133470D02*
X88569Y133470D01*
X106530Y142451D02*
X106530Y151431D01*
X97549Y160411D01*
D11*
X92032Y114127D02*
X83949Y106045D01*
X83051Y106943D02*
X84847Y105147D01*
X92930Y113229D02*
X91134Y115025D01*
X98722Y107437D02*
X98796Y107360D01*
X98867Y107280D01*
X98936Y107198D01*
X99001Y107113D01*
X99062Y107026D01*
X99121Y106937D01*
X99176Y106845D01*
X99228Y106751D01*
X99276Y106656D01*
X99321Y106559D01*
X99361Y106460D01*
X99399Y106360D01*
X99432Y106258D01*
X99462Y106156D01*
X99487Y106052D01*
X99509Y105947D01*
X99527Y105842D01*
X99541Y105736D01*
X99551Y105630D01*
X99557Y105523D01*
X99559Y105416D01*
X99557Y105309D01*
X99551Y105202D01*
X99541Y105096D01*
X99527Y104990D01*
X99509Y104885D01*
X99487Y104780D01*
X99462Y104676D01*
X99432Y104574D01*
X99399Y104472D01*
X99361Y104372D01*
X99321Y104273D01*
X99276Y104176D01*
X99228Y104081D01*
X99176Y103987D01*
X99121Y103895D01*
X99062Y103806D01*
X99001Y103719D01*
X98936Y103634D01*
X98867Y103552D01*
X98796Y103472D01*
X98722Y103395D01*
X98722Y107437D02*
X98637Y107519D01*
X98549Y107599D01*
X98459Y107675D01*
X98366Y107749D01*
X98271Y107820D01*
X98174Y107887D01*
X98075Y107952D01*
X97974Y108013D01*
X97870Y108071D01*
X97765Y108126D01*
X97659Y108177D01*
X97550Y108224D01*
X97440Y108269D01*
X97329Y108309D01*
X97217Y108346D01*
X97103Y108380D01*
X96989Y108409D01*
X96873Y108435D01*
X96757Y108457D01*
X96640Y108476D01*
X96523Y108491D01*
X96405Y108501D01*
X96286Y108508D01*
X96168Y108512D01*
X96050Y108511D01*
X95931Y108507D01*
X95813Y108499D01*
X95696Y108487D01*
X95578Y108471D01*
X95462Y108451D01*
X95345Y108428D01*
X95230Y108401D01*
X95116Y108370D01*
X95003Y108336D01*
X94891Y108298D01*
X94780Y108256D01*
X94670Y108211D01*
X94562Y108162D01*
X94456Y108110D01*
X96476Y102498D02*
X96584Y102497D01*
X96692Y102500D01*
X96800Y102507D01*
X96908Y102518D01*
X97015Y102532D01*
X97121Y102550D01*
X97227Y102572D01*
X97332Y102598D01*
X97436Y102627D01*
X97539Y102660D01*
X97640Y102697D01*
X97741Y102737D01*
X97840Y102781D01*
X97937Y102828D01*
X98032Y102878D01*
X98126Y102932D01*
X98218Y102989D01*
X98307Y103049D01*
X98395Y103113D01*
X98480Y103179D01*
X98563Y103249D01*
X98643Y103321D01*
X98721Y103396D01*
X96477Y102498D02*
X88170Y101824D01*
X92660Y97334D01*
X98022Y91972D02*
X99818Y90176D01*
X98022Y91972D02*
X97953Y92044D01*
X97887Y92118D01*
X97823Y92196D01*
X97763Y92275D01*
X97706Y92357D01*
X97652Y92441D01*
X97602Y92527D01*
X97555Y92615D01*
X97511Y92705D01*
X97471Y92796D01*
X97435Y92889D01*
X97402Y92983D01*
X97373Y93079D01*
X97348Y93175D01*
X97327Y93272D01*
X97309Y93371D01*
X97296Y93469D01*
X97286Y93569D01*
X97280Y93668D01*
X97278Y93768D01*
X97280Y93868D01*
X97286Y93967D01*
X97296Y94067D01*
X97309Y94165D01*
X97327Y94264D01*
X97348Y94361D01*
X97373Y94457D01*
X97402Y94553D01*
X97435Y94647D01*
X97471Y94740D01*
X97511Y94831D01*
X97555Y94921D01*
X97602Y95009D01*
X97652Y95095D01*
X97706Y95179D01*
X97763Y95261D01*
X97823Y95341D01*
X97887Y95418D01*
X97953Y95492D01*
X98022Y95564D01*
X102512Y100055D01*
X102512Y100054D02*
X102584Y100123D01*
X102658Y100189D01*
X102736Y100253D01*
X102815Y100313D01*
X102897Y100370D01*
X102981Y100424D01*
X103067Y100474D01*
X103155Y100521D01*
X103245Y100565D01*
X103336Y100605D01*
X103429Y100641D01*
X103523Y100674D01*
X103619Y100703D01*
X103715Y100728D01*
X103812Y100749D01*
X103911Y100767D01*
X104009Y100780D01*
X104109Y100790D01*
X104208Y100796D01*
X104308Y100798D01*
X104408Y100796D01*
X104507Y100790D01*
X104607Y100780D01*
X104705Y100767D01*
X104804Y100749D01*
X104901Y100728D01*
X104997Y100703D01*
X105093Y100674D01*
X105187Y100641D01*
X105280Y100605D01*
X105371Y100565D01*
X105461Y100521D01*
X105549Y100474D01*
X105635Y100424D01*
X105719Y100370D01*
X105801Y100313D01*
X105880Y100253D01*
X105958Y100189D01*
X106032Y100123D01*
X106104Y100054D01*
X106104Y100055D02*
X107900Y98259D01*
D14*
X142451Y-115510D02*
X133470Y-124490D01*
X124490Y-124490D01*
X115510Y-115510D01*
X115510Y-106530D01*
X133470Y-97549D02*
X142451Y-106530D01*
X142451Y-115510D01*
X133470Y-97549D02*
X124490Y-97549D01*
X115510Y-106530D01*
X124490Y-124490D02*
X124490Y-133470D01*
X115510Y-142451D01*
X106530Y-142451D01*
X97549Y-133470D01*
X97549Y-124490D01*
X106530Y-115510D01*
X115510Y-115510D01*
D11*
X121871Y-148073D02*
X127708Y-153910D01*
X127789Y-153988D01*
X127872Y-154063D01*
X127958Y-154135D01*
X128046Y-154204D01*
X128137Y-154269D01*
X128230Y-154332D01*
X128325Y-154391D01*
X128422Y-154447D01*
X128522Y-154499D01*
X128622Y-154548D01*
X128725Y-154593D01*
X128829Y-154634D01*
X128935Y-154672D01*
X129041Y-154706D01*
X129149Y-154737D01*
X129258Y-154763D01*
X129368Y-154786D01*
X129478Y-154804D01*
X129590Y-154819D01*
X129701Y-154830D01*
X129813Y-154837D01*
X129925Y-154840D01*
X130037Y-154839D01*
X130149Y-154834D01*
X130261Y-154825D01*
X130372Y-154812D01*
X130483Y-154795D01*
X130593Y-154775D01*
X130702Y-154750D01*
X130811Y-154722D01*
X130918Y-154690D01*
X131024Y-154654D01*
X131129Y-154614D01*
X131232Y-154571D01*
X131334Y-154524D01*
X131434Y-154473D01*
X131532Y-154419D01*
X131629Y-154362D01*
X131723Y-154301D01*
X131815Y-154237D01*
X131904Y-154170D01*
X131991Y-154099D01*
X132076Y-154026D01*
X132158Y-153949D01*
X132237Y-153870D01*
X132314Y-153788D01*
X132387Y-153703D01*
X132458Y-153616D01*
X132525Y-153527D01*
X132589Y-153435D01*
X132650Y-153341D01*
X132707Y-153244D01*
X132761Y-153146D01*
X132812Y-153046D01*
X132859Y-152944D01*
X132902Y-152841D01*
X132942Y-152736D01*
X132978Y-152630D01*
X133010Y-152523D01*
X133038Y-152414D01*
X133063Y-152305D01*
X133083Y-152195D01*
X133100Y-152084D01*
X133113Y-151973D01*
X133122Y-151861D01*
X133127Y-151749D01*
X133128Y-151637D01*
X133125Y-151525D01*
X133118Y-151413D01*
X133107Y-151302D01*
X133092Y-151190D01*
X133074Y-151080D01*
X133051Y-150970D01*
X133025Y-150861D01*
X132994Y-150753D01*
X132960Y-150647D01*
X132922Y-150541D01*
X132881Y-150437D01*
X132836Y-150335D01*
X132787Y-150234D01*
X132735Y-150134D01*
X132679Y-150037D01*
X132620Y-149942D01*
X132557Y-149849D01*
X132492Y-149758D01*
X132423Y-149670D01*
X132351Y-149584D01*
X132276Y-149501D01*
X132198Y-149420D01*
X132199Y-149420D02*
X126361Y-143583D01*
X132468Y-137476D02*
X137856Y-148253D01*
X143244Y-142865D02*
X132468Y-137476D01*
X140550Y-141517D02*
X136509Y-145559D01*
X146715Y-139393D02*
X138633Y-131311D01*
X140878Y-129066D01*
X140959Y-128988D01*
X141042Y-128913D01*
X141128Y-128841D01*
X141216Y-128772D01*
X141307Y-128707D01*
X141400Y-128644D01*
X141495Y-128585D01*
X141592Y-128529D01*
X141692Y-128477D01*
X141792Y-128428D01*
X141895Y-128383D01*
X141999Y-128342D01*
X142105Y-128304D01*
X142211Y-128270D01*
X142319Y-128239D01*
X142428Y-128213D01*
X142538Y-128190D01*
X142648Y-128172D01*
X142760Y-128157D01*
X142871Y-128146D01*
X142983Y-128139D01*
X143095Y-128136D01*
X143207Y-128137D01*
X143319Y-128142D01*
X143431Y-128151D01*
X143542Y-128164D01*
X143653Y-128181D01*
X143763Y-128201D01*
X143872Y-128226D01*
X143981Y-128254D01*
X144088Y-128286D01*
X144194Y-128322D01*
X144299Y-128362D01*
X144402Y-128405D01*
X144504Y-128452D01*
X144604Y-128503D01*
X144702Y-128557D01*
X144799Y-128614D01*
X144893Y-128675D01*
X144985Y-128739D01*
X145074Y-128806D01*
X145161Y-128877D01*
X145246Y-128950D01*
X145328Y-129027D01*
X145407Y-129106D01*
X145484Y-129188D01*
X145557Y-129273D01*
X145628Y-129360D01*
X145695Y-129449D01*
X145759Y-129541D01*
X145820Y-129635D01*
X145877Y-129732D01*
X145931Y-129830D01*
X145982Y-129930D01*
X146029Y-130032D01*
X146072Y-130135D01*
X146112Y-130240D01*
X146148Y-130346D01*
X146180Y-130453D01*
X146208Y-130562D01*
X146233Y-130671D01*
X146253Y-130781D01*
X146270Y-130892D01*
X146283Y-131003D01*
X146292Y-131115D01*
X146297Y-131227D01*
X146298Y-131339D01*
X146295Y-131451D01*
X146288Y-131563D01*
X146277Y-131674D01*
X146262Y-131786D01*
X146244Y-131896D01*
X146221Y-132006D01*
X146195Y-132115D01*
X146164Y-132223D01*
X146130Y-132329D01*
X146092Y-132435D01*
X146051Y-132539D01*
X146006Y-132642D01*
X145957Y-132742D01*
X145905Y-132842D01*
X145849Y-132939D01*
X145790Y-133034D01*
X145727Y-133127D01*
X145662Y-133218D01*
X145593Y-133306D01*
X145521Y-133392D01*
X145446Y-133475D01*
X145368Y-133556D01*
X143123Y-135801D01*
X145817Y-133107D02*
X151205Y-134903D01*
X156445Y-129663D02*
X148363Y-121581D01*
X146118Y-123826D02*
X150608Y-119336D01*
D10*
X-53108Y-114261D02*
X-53108Y-111664D01*
X-53108Y-114261D02*
X-53110Y-114360D01*
X-53116Y-114460D01*
X-53125Y-114559D01*
X-53138Y-114657D01*
X-53155Y-114755D01*
X-53176Y-114853D01*
X-53201Y-114949D01*
X-53229Y-115044D01*
X-53261Y-115138D01*
X-53296Y-115231D01*
X-53335Y-115323D01*
X-53378Y-115413D01*
X-53423Y-115501D01*
X-53473Y-115588D01*
X-53525Y-115672D01*
X-53581Y-115755D01*
X-53639Y-115835D01*
X-53701Y-115913D01*
X-53766Y-115988D01*
X-53834Y-116061D01*
X-53904Y-116131D01*
X-53977Y-116199D01*
X-54052Y-116264D01*
X-54130Y-116326D01*
X-54210Y-116384D01*
X-54293Y-116440D01*
X-54377Y-116492D01*
X-54464Y-116542D01*
X-54552Y-116587D01*
X-54642Y-116630D01*
X-54734Y-116669D01*
X-54827Y-116704D01*
X-54921Y-116736D01*
X-55016Y-116764D01*
X-55112Y-116789D01*
X-55210Y-116810D01*
X-55308Y-116827D01*
X-55406Y-116840D01*
X-55505Y-116849D01*
X-55605Y-116855D01*
X-55704Y-116857D01*
X-62196Y-116857D01*
X-62295Y-116855D01*
X-62395Y-116849D01*
X-62494Y-116840D01*
X-62592Y-116827D01*
X-62690Y-116810D01*
X-62788Y-116789D01*
X-62884Y-116764D01*
X-62979Y-116736D01*
X-63073Y-116704D01*
X-63166Y-116669D01*
X-63258Y-116630D01*
X-63348Y-116587D01*
X-63436Y-116542D01*
X-63523Y-116492D01*
X-63607Y-116440D01*
X-63690Y-116384D01*
X-63770Y-116326D01*
X-63848Y-116264D01*
X-63923Y-116199D01*
X-63996Y-116131D01*
X-64066Y-116061D01*
X-64134Y-115988D01*
X-64199Y-115913D01*
X-64261Y-115835D01*
X-64319Y-115755D01*
X-64375Y-115672D01*
X-64427Y-115588D01*
X-64477Y-115501D01*
X-64522Y-115413D01*
X-64565Y-115323D01*
X-64604Y-115231D01*
X-64639Y-115139D01*
X-64671Y-115044D01*
X-64699Y-114949D01*
X-64724Y-114853D01*
X-64745Y-114755D01*
X-64762Y-114657D01*
X-64775Y-114559D01*
X-64784Y-114460D01*
X-64790Y-114360D01*
X-64792Y-114261D01*
X-64792Y-111664D01*
X-64792Y-104703D02*
X-55704Y-107299D01*
X-55704Y-100808D01*
X-58301Y-102755D02*
X-53108Y-102755D01*
D12*
X-26500Y-118500D02*
X17500Y-118500D01*
X-26500Y-118500D02*
X-26500Y-103000D01*
X-26500Y-81000D02*
X-26500Y-65500D01*
X17500Y-65500D01*
X26500Y-74500D02*
X26500Y-81000D01*
X26500Y-103000D02*
X26500Y-109500D01*
X17500Y-118500D01*
X26500Y-74500D02*
X17500Y-65500D01*
X22000Y-101500D02*
X21761Y-102036D01*
X21509Y-102566D01*
X21244Y-103089D01*
X20966Y-103606D01*
X20675Y-104116D01*
X20373Y-104619D01*
X20058Y-105114D01*
X19730Y-105601D01*
X19391Y-106080D01*
X19041Y-106550D01*
X18679Y-107012D01*
X18306Y-107465D01*
X17922Y-107909D01*
X17527Y-108343D01*
X17121Y-108767D01*
X16706Y-109181D01*
X16280Y-109585D01*
X15844Y-109979D01*
X15399Y-110361D01*
X14945Y-110733D01*
X14482Y-111093D01*
X14010Y-111442D01*
X13530Y-111779D01*
X13042Y-112104D01*
X12546Y-112418D01*
X12042Y-112719D01*
X11531Y-113007D01*
X11013Y-113283D01*
X10489Y-113547D01*
X9958Y-113797D01*
X9421Y-114034D01*
X8879Y-114258D01*
X8331Y-114469D01*
X7779Y-114666D01*
X7221Y-114850D01*
X6660Y-115020D01*
X6094Y-115176D01*
X5525Y-115318D01*
X4952Y-115447D01*
X4376Y-115561D01*
X3798Y-115661D01*
X3218Y-115747D01*
X2635Y-115819D01*
X2051Y-115876D01*
X1466Y-115919D01*
X880Y-115948D01*
X293Y-115962D01*
X-293Y-115962D01*
X-880Y-115948D01*
X-1466Y-115919D01*
X-2051Y-115876D01*
X-2635Y-115819D01*
X-3218Y-115747D01*
X-3798Y-115661D01*
X-4376Y-115561D01*
X-4952Y-115447D01*
X-5525Y-115318D01*
X-6094Y-115176D01*
X-6660Y-115020D01*
X-7221Y-114850D01*
X-7779Y-114666D01*
X-8331Y-114469D01*
X-8879Y-114258D01*
X-9421Y-114034D01*
X-9958Y-113797D01*
X-10489Y-113547D01*
X-11013Y-113283D01*
X-11531Y-113007D01*
X-12042Y-112719D01*
X-12546Y-112418D01*
X-13042Y-112104D01*
X-13530Y-111779D01*
X-14010Y-111442D01*
X-14482Y-111093D01*
X-14945Y-110733D01*
X-15399Y-110361D01*
X-15844Y-109979D01*
X-16280Y-109585D01*
X-16706Y-109181D01*
X-17121Y-108767D01*
X-17527Y-108343D01*
X-17922Y-107909D01*
X-18306Y-107465D01*
X-18679Y-107012D01*
X-19041Y-106550D01*
X-19391Y-106080D01*
X-19730Y-105601D01*
X-20058Y-105114D01*
X-20373Y-104619D01*
X-20675Y-104116D01*
X-20966Y-103606D01*
X-21244Y-103089D01*
X-21509Y-102566D01*
X-21761Y-102036D01*
X-22000Y-101500D01*
X-22000Y-82500D02*
X-21761Y-81964D01*
X-21509Y-81434D01*
X-21244Y-80911D01*
X-20966Y-80394D01*
X-20675Y-79884D01*
X-20373Y-79381D01*
X-20058Y-78886D01*
X-19730Y-78399D01*
X-19391Y-77920D01*
X-19041Y-77450D01*
X-18679Y-76988D01*
X-18306Y-76535D01*
X-17922Y-76091D01*
X-17527Y-75657D01*
X-17121Y-75233D01*
X-16706Y-74819D01*
X-16280Y-74415D01*
X-15844Y-74021D01*
X-15399Y-73639D01*
X-14945Y-73267D01*
X-14482Y-72907D01*
X-14010Y-72558D01*
X-13530Y-72221D01*
X-13042Y-71896D01*
X-12546Y-71582D01*
X-12042Y-71281D01*
X-11531Y-70993D01*
X-11013Y-70717D01*
X-10489Y-70453D01*
X-9958Y-70203D01*
X-9421Y-69966D01*
X-8879Y-69742D01*
X-8331Y-69531D01*
X-7779Y-69334D01*
X-7221Y-69150D01*
X-6660Y-68980D01*
X-6094Y-68824D01*
X-5525Y-68682D01*
X-4952Y-68553D01*
X-4376Y-68439D01*
X-3798Y-68339D01*
X-3218Y-68253D01*
X-2635Y-68181D01*
X-2051Y-68124D01*
X-1466Y-68081D01*
X-880Y-68052D01*
X-293Y-68038D01*
X293Y-68038D01*
X880Y-68052D01*
X1466Y-68081D01*
X2051Y-68124D01*
X2635Y-68181D01*
X3218Y-68253D01*
X3798Y-68339D01*
X4376Y-68439D01*
X4952Y-68553D01*
X5525Y-68682D01*
X6094Y-68824D01*
X6660Y-68980D01*
X7221Y-69150D01*
X7779Y-69334D01*
X8331Y-69531D01*
X8879Y-69742D01*
X9421Y-69966D01*
X9958Y-70203D01*
X10489Y-70453D01*
X11013Y-70717D01*
X11531Y-70993D01*
X12042Y-71281D01*
X12546Y-71582D01*
X13042Y-71896D01*
X13530Y-72221D01*
X14010Y-72558D01*
X14482Y-72907D01*
X14945Y-73267D01*
X15399Y-73639D01*
X15844Y-74021D01*
X16280Y-74415D01*
X16706Y-74819D01*
X17121Y-75233D01*
X17527Y-75657D01*
X17922Y-76091D01*
X18306Y-76535D01*
X18679Y-76988D01*
X19041Y-77450D01*
X19391Y-77920D01*
X19730Y-78399D01*
X20058Y-78886D01*
X20373Y-79381D01*
X20675Y-79884D01*
X20966Y-80394D01*
X21244Y-80911D01*
X21509Y-81434D01*
X21761Y-81964D01*
X22000Y-82500D01*
D10*
X-6199Y-82192D02*
X-8796Y-82192D01*
X-8895Y-82190D01*
X-8995Y-82184D01*
X-9094Y-82175D01*
X-9192Y-82162D01*
X-9290Y-82145D01*
X-9388Y-82124D01*
X-9484Y-82099D01*
X-9579Y-82071D01*
X-9673Y-82039D01*
X-9766Y-82004D01*
X-9858Y-81965D01*
X-9948Y-81922D01*
X-10036Y-81877D01*
X-10123Y-81827D01*
X-10207Y-81775D01*
X-10290Y-81719D01*
X-10370Y-81661D01*
X-10448Y-81599D01*
X-10523Y-81534D01*
X-10596Y-81466D01*
X-10666Y-81396D01*
X-10734Y-81323D01*
X-10799Y-81248D01*
X-10861Y-81170D01*
X-10919Y-81090D01*
X-10975Y-81007D01*
X-11027Y-80923D01*
X-11077Y-80836D01*
X-11122Y-80748D01*
X-11165Y-80658D01*
X-11204Y-80566D01*
X-11239Y-80473D01*
X-11271Y-80379D01*
X-11299Y-80284D01*
X-11324Y-80188D01*
X-11345Y-80090D01*
X-11362Y-79992D01*
X-11375Y-79894D01*
X-11384Y-79795D01*
X-11390Y-79695D01*
X-11392Y-79596D01*
X-11392Y-73104D01*
X-11393Y-73104D02*
X-11391Y-73005D01*
X-11385Y-72905D01*
X-11376Y-72806D01*
X-11363Y-72708D01*
X-11345Y-72610D01*
X-11325Y-72512D01*
X-11300Y-72416D01*
X-11272Y-72320D01*
X-11240Y-72226D01*
X-11205Y-72133D01*
X-11166Y-72042D01*
X-11123Y-71952D01*
X-11078Y-71863D01*
X-11028Y-71777D01*
X-10976Y-71692D01*
X-10920Y-71610D01*
X-10861Y-71530D01*
X-10800Y-71452D01*
X-10735Y-71376D01*
X-10667Y-71303D01*
X-10597Y-71233D01*
X-10524Y-71165D01*
X-10448Y-71100D01*
X-10370Y-71039D01*
X-10290Y-70980D01*
X-10208Y-70924D01*
X-10123Y-70872D01*
X-10037Y-70823D01*
X-9948Y-70777D01*
X-9858Y-70734D01*
X-9767Y-70695D01*
X-9674Y-70660D01*
X-9580Y-70628D01*
X-9484Y-70600D01*
X-9388Y-70575D01*
X-9290Y-70555D01*
X-9192Y-70537D01*
X-9094Y-70524D01*
X-8995Y-70515D01*
X-8896Y-70509D01*
X-8796Y-70507D01*
X-8796Y-70508D02*
X-6199Y-70508D01*
X-1834Y-75701D02*
X2061Y-75701D01*
X2160Y-75703D01*
X2260Y-75709D01*
X2359Y-75718D01*
X2457Y-75731D01*
X2555Y-75748D01*
X2653Y-75769D01*
X2749Y-75794D01*
X2844Y-75822D01*
X2938Y-75854D01*
X3031Y-75889D01*
X3123Y-75928D01*
X3213Y-75971D01*
X3301Y-76016D01*
X3388Y-76066D01*
X3472Y-76118D01*
X3555Y-76174D01*
X3635Y-76232D01*
X3713Y-76294D01*
X3788Y-76359D01*
X3861Y-76427D01*
X3931Y-76497D01*
X3999Y-76570D01*
X4064Y-76645D01*
X4126Y-76723D01*
X4184Y-76803D01*
X4240Y-76886D01*
X4292Y-76970D01*
X4342Y-77057D01*
X4387Y-77145D01*
X4430Y-77235D01*
X4469Y-77327D01*
X4504Y-77420D01*
X4536Y-77514D01*
X4564Y-77609D01*
X4589Y-77705D01*
X4610Y-77803D01*
X4627Y-77901D01*
X4640Y-77999D01*
X4649Y-78098D01*
X4655Y-78198D01*
X4657Y-78297D01*
X4657Y-78946D01*
X4658Y-78946D02*
X4656Y-79059D01*
X4650Y-79172D01*
X4640Y-79285D01*
X4626Y-79398D01*
X4609Y-79510D01*
X4587Y-79621D01*
X4562Y-79731D01*
X4532Y-79841D01*
X4499Y-79949D01*
X4462Y-80056D01*
X4422Y-80162D01*
X4377Y-80266D01*
X4329Y-80369D01*
X4278Y-80470D01*
X4223Y-80569D01*
X4165Y-80666D01*
X4103Y-80761D01*
X4038Y-80854D01*
X3970Y-80944D01*
X3899Y-81032D01*
X3824Y-81118D01*
X3747Y-81201D01*
X3667Y-81281D01*
X3584Y-81358D01*
X3498Y-81433D01*
X3410Y-81504D01*
X3320Y-81572D01*
X3227Y-81637D01*
X3132Y-81699D01*
X3035Y-81757D01*
X2936Y-81812D01*
X2835Y-81863D01*
X2732Y-81911D01*
X2628Y-81956D01*
X2522Y-81996D01*
X2415Y-82033D01*
X2307Y-82066D01*
X2197Y-82096D01*
X2087Y-82121D01*
X1976Y-82143D01*
X1864Y-82160D01*
X1751Y-82174D01*
X1638Y-82184D01*
X1525Y-82190D01*
X1412Y-82192D01*
X1299Y-82190D01*
X1186Y-82184D01*
X1073Y-82174D01*
X960Y-82160D01*
X848Y-82143D01*
X737Y-82121D01*
X627Y-82096D01*
X517Y-82066D01*
X409Y-82033D01*
X302Y-81996D01*
X196Y-81956D01*
X92Y-81911D01*
X-11Y-81863D01*
X-112Y-81812D01*
X-211Y-81757D01*
X-308Y-81699D01*
X-403Y-81637D01*
X-496Y-81572D01*
X-586Y-81504D01*
X-674Y-81433D01*
X-760Y-81358D01*
X-843Y-81281D01*
X-923Y-81201D01*
X-1000Y-81118D01*
X-1075Y-81032D01*
X-1146Y-80944D01*
X-1214Y-80854D01*
X-1279Y-80761D01*
X-1341Y-80666D01*
X-1399Y-80569D01*
X-1454Y-80470D01*
X-1505Y-80369D01*
X-1553Y-80266D01*
X-1598Y-80162D01*
X-1638Y-80056D01*
X-1675Y-79949D01*
X-1708Y-79841D01*
X-1738Y-79731D01*
X-1763Y-79621D01*
X-1785Y-79510D01*
X-1802Y-79398D01*
X-1816Y-79285D01*
X-1826Y-79172D01*
X-1832Y-79059D01*
X-1834Y-78946D01*
X-1834Y-75701D01*
X-1832Y-75558D01*
X-1826Y-75415D01*
X-1816Y-75272D01*
X-1802Y-75130D01*
X-1785Y-74988D01*
X-1763Y-74846D01*
X-1738Y-74705D01*
X-1708Y-74565D01*
X-1675Y-74426D01*
X-1638Y-74288D01*
X-1597Y-74151D01*
X-1553Y-74015D01*
X-1504Y-73880D01*
X-1452Y-73747D01*
X-1397Y-73615D01*
X-1337Y-73485D01*
X-1274Y-73356D01*
X-1208Y-73229D01*
X-1138Y-73105D01*
X-1065Y-72982D01*
X-988Y-72861D01*
X-909Y-72742D01*
X-825Y-72626D01*
X-739Y-72511D01*
X-650Y-72400D01*
X-557Y-72291D01*
X-462Y-72184D01*
X-363Y-72080D01*
X-262Y-71979D01*
X-158Y-71880D01*
X-52Y-71785D01*
X58Y-71692D01*
X169Y-71603D01*
X283Y-71517D01*
X400Y-71434D01*
X519Y-71354D01*
X640Y-71277D01*
X762Y-71204D01*
X887Y-71134D01*
X1014Y-71068D01*
X1143Y-71005D01*
X1273Y-70945D01*
X1405Y-70890D01*
X1538Y-70838D01*
X1673Y-70789D01*
X1809Y-70745D01*
X1946Y-70704D01*
X2084Y-70667D01*
X2223Y-70634D01*
X2363Y-70604D01*
X2504Y-70579D01*
X2646Y-70557D01*
X2788Y-70540D01*
X2930Y-70526D01*
X3073Y-70516D01*
X3216Y-70510D01*
X3359Y-70508D01*
M02*
