G04 EAGLE Gerber RS-274X export*
G75*
%MOMM*%
%FSLAX34Y34*%
%LPD*%
%INSoldermask Bottom*%
%IPPOS*%
%AMOC8*
5,1,8,0,0,1.08239X$1,22.5*%
G01*
%ADD10R,2.032000X2.032000*%
%ADD11P,2.199416X8X22.500000*%
%ADD12C,9.203200*%
%ADD13C,1.511200*%
%ADD14C,3.453200*%
%ADD15C,1.361200*%
%ADD16C,1.727200*%
%ADD17C,0.959600*%


D10*
X-28600Y97900D03*
D11*
X-3200Y97900D03*
X22200Y97900D03*
X22200Y123300D03*
X-3200Y123300D03*
X-28600Y123300D03*
D12*
X-199250Y199250D03*
X-199250Y-199250D03*
X199250Y-199250D03*
X199250Y199250D03*
D13*
X-110940Y-19050D03*
X-110940Y6350D03*
X-85540Y19050D03*
X-85540Y-6350D03*
X-85540Y-31750D03*
X-110940Y31750D03*
D14*
X-174440Y-50800D03*
X-174440Y50800D03*
D15*
X90000Y24400D03*
X90000Y-24400D03*
D16*
X141553Y87671D02*
X152329Y98447D01*
X134368Y116408D02*
X123592Y105632D01*
X105632Y123592D02*
X116408Y134368D01*
X98447Y152329D02*
X87671Y141553D01*
X123592Y-105632D02*
X134368Y-116408D01*
X116408Y-134368D02*
X105632Y-123592D01*
D12*
X0Y-199250D03*
X0Y199250D03*
X199250Y0D03*
D17*
X28000Y28000D03*
X26424Y-17000D03*
X24682Y1000D03*
X-199000Y86000D03*
X-47000Y-92000D03*
X-176000Y-116000D03*
X122000Y37000D03*
X111000Y-1000D03*
X-56000Y-4000D03*
X62000Y-11000D03*
X18000Y-8000D03*
X26576Y14000D03*
X-21000Y14000D03*
X33000Y57600D03*
X-65000Y47000D03*
X33000Y83000D03*
X-89961Y60961D03*
X3000Y-58000D03*
X-71000Y-51000D03*
X90000Y0D03*
X-16000Y69000D03*
M02*
