G04 EAGLE Gerber RS-274X export*
G75*
%MOMM*%
%FSLAX34Y34*%
%LPD*%
%INSoldermask Top*%
%IPPOS*%
%AMOC8*
5,1,8,0,0,1.08239X$1,22.5*%
G01*
%ADD10R,2.032000X2.032000*%
%ADD11P,2.199416X8X22.500000*%
%ADD12C,9.203200*%
%ADD13R,1.473200X0.762000*%
%ADD14R,0.762000X1.473200*%
%ADD15C,1.511200*%
%ADD16C,3.453200*%
%ADD17R,1.803200X2.003200*%
%ADD18R,1.803200X2.203200*%
%ADD19R,2.003200X1.803200*%
%ADD20R,2.203200X1.803200*%
%ADD21R,3.903200X1.903200*%
%ADD22C,1.727200*%
%ADD23R,1.727200X0.965200*%
%ADD24R,1.403200X2.203200*%
%ADD25C,0.959600*%


D10*
X-28600Y97900D03*
D11*
X-3200Y97900D03*
X22200Y97900D03*
X22200Y123300D03*
X-3200Y123300D03*
X-28600Y123300D03*
D12*
X-199250Y199250D03*
D13*
X42926Y-28000D03*
X42926Y-20000D03*
X42926Y-12000D03*
X42926Y-4000D03*
X42926Y4000D03*
X42926Y12000D03*
X42926Y20000D03*
X42926Y28000D03*
D14*
X28000Y42926D03*
X20000Y42926D03*
X12000Y42926D03*
X4000Y42926D03*
X-4000Y42926D03*
X-12000Y42926D03*
X-20000Y42926D03*
X-28000Y42926D03*
D13*
X-42926Y28000D03*
X-42926Y20000D03*
X-42926Y12000D03*
X-42926Y4000D03*
X-42926Y-4000D03*
X-42926Y-12000D03*
X-42926Y-20000D03*
X-42926Y-28000D03*
D14*
X-28000Y-42926D03*
X-20000Y-42926D03*
X-12000Y-42926D03*
X-4000Y-42926D03*
X4000Y-42926D03*
X12000Y-42926D03*
X20000Y-42926D03*
X28000Y-42926D03*
D12*
X-199250Y-199250D03*
X199250Y-199250D03*
X199250Y199250D03*
D15*
X-110940Y-19050D03*
X-110940Y6350D03*
X-85540Y19050D03*
X-85540Y-6350D03*
X-85540Y-31750D03*
X-110940Y31750D03*
D16*
X-174440Y-50800D03*
X-174440Y50800D03*
D17*
X-204000Y-100000D03*
X-176000Y-100000D03*
D18*
X-139000Y100000D03*
X-111000Y100000D03*
X-139000Y-100000D03*
X-111000Y-100000D03*
D19*
X140000Y11000D03*
X140000Y39000D03*
X140000Y-39000D03*
X140000Y-11000D03*
D20*
X-80000Y124000D03*
X-80000Y96000D03*
D21*
X-225800Y143700D03*
X-225800Y84700D03*
D22*
X141553Y87671D02*
X152329Y98447D01*
X134368Y116408D02*
X123592Y105632D01*
X105632Y123592D02*
X116408Y134368D01*
X98447Y152329D02*
X87671Y141553D01*
D19*
X-80000Y-124000D03*
X-80000Y-96000D03*
D12*
X0Y-199250D03*
X0Y199250D03*
X199250Y0D03*
D22*
X141553Y-87671D02*
X152329Y-98447D01*
X134368Y-116408D02*
X123592Y-105632D01*
X105632Y-123592D02*
X116408Y-134368D01*
X98447Y-152329D02*
X87671Y-141553D01*
D23*
X-233440Y133550D03*
X-177560Y133550D03*
X-233440Y95450D03*
X-177560Y95450D03*
D17*
X-14000Y-84000D03*
X14000Y-84000D03*
D24*
X79000Y18500D03*
X101000Y18500D03*
X101000Y-18500D03*
X79000Y-18500D03*
D25*
X28000Y28000D03*
X26424Y-17000D03*
X24682Y1000D03*
X-199500Y86500D03*
X-176000Y-116000D03*
X122000Y37000D03*
X111000Y-1000D03*
X-56000Y-4000D03*
X62000Y-11000D03*
X18000Y-8000D03*
X26576Y14000D03*
X-21000Y14000D03*
X33000Y57600D03*
X-65000Y47000D03*
X33000Y83000D03*
X-89961Y60961D03*
X3000Y-58000D03*
X-71000Y-51000D03*
X120951Y18500D03*
X121250Y-38750D03*
X-16000Y69000D03*
X-60000Y-20000D03*
M02*
