G04 EAGLE Gerber RS-274X export*
G75*
%MOMM*%
%FSLAX34Y34*%
%LPD*%
%INSolderpaste Top*%
%IPPOS*%
%AMOC8*
5,1,8,0,0,1.08239X$1,22.5*%
G01*
%ADD10R,1.270000X0.558800*%
%ADD11R,0.558800X1.270000*%
%ADD12R,1.600000X1.800000*%
%ADD13R,1.600000X2.000000*%
%ADD14R,1.800000X1.600000*%
%ADD15R,2.000000X1.600000*%
%ADD16R,3.700000X1.700000*%
%ADD17R,1.524000X0.762000*%
%ADD18R,1.200000X2.000000*%
%ADD19R,1.803000X1.600000*%


D10*
X42926Y-28000D03*
X42926Y-20000D03*
X42926Y-12000D03*
X42926Y-4000D03*
X42926Y4000D03*
X42926Y12000D03*
X42926Y20000D03*
X42926Y28000D03*
D11*
X28000Y42926D03*
X20000Y42926D03*
X12000Y42926D03*
X4000Y42926D03*
X-4000Y42926D03*
X-12000Y42926D03*
X-20000Y42926D03*
X-28000Y42926D03*
D10*
X-42926Y28000D03*
X-42926Y20000D03*
X-42926Y12000D03*
X-42926Y4000D03*
X-42926Y-4000D03*
X-42926Y-12000D03*
X-42926Y-20000D03*
X-42926Y-28000D03*
D11*
X-28000Y-42926D03*
X-20000Y-42926D03*
X-12000Y-42926D03*
X-4000Y-42926D03*
X4000Y-42926D03*
X12000Y-42926D03*
X20000Y-42926D03*
X28000Y-42926D03*
D12*
X-226500Y-100500D03*
X-198500Y-100500D03*
D13*
X-139000Y100000D03*
X-111000Y100000D03*
X-169000Y-100000D03*
X-141000Y-100000D03*
D14*
X140000Y11000D03*
X140000Y39000D03*
X140000Y-39000D03*
X140000Y-11000D03*
D15*
X-80000Y124000D03*
X-80000Y96000D03*
D16*
X-225800Y143700D03*
X-225800Y84700D03*
D14*
X-113000Y-124000D03*
X-113000Y-96000D03*
D17*
X-233440Y133550D03*
X-177560Y133550D03*
X-233440Y95450D03*
X-177560Y95450D03*
D12*
X-14000Y-73000D03*
X14000Y-73000D03*
D18*
X79000Y18500D03*
X101000Y18500D03*
X101000Y-18500D03*
X79000Y-18500D03*
D19*
X-80000Y-124220D03*
X-80000Y-95780D03*
X-59500Y-124220D03*
X-59500Y-95780D03*
D13*
X-14000Y-98500D03*
X14000Y-98500D03*
X-14000Y-129000D03*
X14000Y-129000D03*
M02*
