G04 EAGLE Gerber RS-274X export*
G75*
%MOMM*%
%FSLAX34Y34*%
%LPD*%
%INSilkscreen Top*%
%IPPOS*%
%AMOC8*
5,1,8,0,0,1.08239X$1,22.5*%
G01*
%ADD10C,0.101600*%
%ADD11C,0.127000*%
%ADD12C,0.203200*%
%ADD13C,0.152400*%
%ADD14C,0.200000*%
%ADD15R,0.200000X0.200000*%
%ADD16R,0.250000X0.150000*%

G36*
X117519Y-243131D02*
X117519Y-243131D01*
X117572Y-243132D01*
X117595Y-243121D01*
X117606Y-243119D01*
X117616Y-243111D01*
X117646Y-243097D01*
X122727Y-239627D01*
X125514Y-241081D01*
X125547Y-241087D01*
X125577Y-241103D01*
X125615Y-241101D01*
X125652Y-241108D01*
X125684Y-241096D01*
X125717Y-241094D01*
X125748Y-241072D01*
X125784Y-241058D01*
X125804Y-241031D01*
X125831Y-241011D01*
X125864Y-240950D01*
X125868Y-240945D01*
X125868Y-240943D01*
X125870Y-240940D01*
X129426Y-230780D01*
X129430Y-230710D01*
X129434Y-230641D01*
X129434Y-230640D01*
X129434Y-230639D01*
X129400Y-230579D01*
X129366Y-230517D01*
X129365Y-230516D01*
X129363Y-230515D01*
X129300Y-230470D01*
X128062Y-229850D01*
X127007Y-228997D01*
X126848Y-228799D01*
X126158Y-227938D01*
X125556Y-226722D01*
X125229Y-225405D01*
X125191Y-224048D01*
X125444Y-222715D01*
X125977Y-221467D01*
X126765Y-220362D01*
X127771Y-219451D01*
X128949Y-218777D01*
X130243Y-218370D01*
X131596Y-218251D01*
X132904Y-218411D01*
X134152Y-218835D01*
X135288Y-219505D01*
X136264Y-220393D01*
X137037Y-221460D01*
X137577Y-222663D01*
X137861Y-223951D01*
X137875Y-225270D01*
X137621Y-226563D01*
X137108Y-227778D01*
X136358Y-228863D01*
X135403Y-229772D01*
X134261Y-230481D01*
X134218Y-230528D01*
X134173Y-230573D01*
X134171Y-230580D01*
X134166Y-230585D01*
X134155Y-230648D01*
X134141Y-230710D01*
X134143Y-230719D01*
X134142Y-230724D01*
X134146Y-230734D01*
X134159Y-230790D01*
X138096Y-240696D01*
X138107Y-240710D01*
X138111Y-240727D01*
X138149Y-240764D01*
X138182Y-240807D01*
X138199Y-240813D01*
X138212Y-240825D01*
X138264Y-240836D01*
X138315Y-240855D01*
X138332Y-240851D01*
X138349Y-240855D01*
X138428Y-240836D01*
X139952Y-240201D01*
X139962Y-240193D01*
X139995Y-240178D01*
X141376Y-239258D01*
X146314Y-242714D01*
X146367Y-242732D01*
X146417Y-242757D01*
X146432Y-242755D01*
X146447Y-242760D01*
X146501Y-242747D01*
X146557Y-242741D01*
X146575Y-242729D01*
X146584Y-242727D01*
X146593Y-242718D01*
X146626Y-242698D01*
X147642Y-241809D01*
X147645Y-241804D01*
X147654Y-241797D01*
X148543Y-240908D01*
X148546Y-240904D01*
X148553Y-240897D01*
X149569Y-239754D01*
X149572Y-239749D01*
X149580Y-239741D01*
X150469Y-238598D01*
X150487Y-238554D01*
X150512Y-238513D01*
X150512Y-238490D01*
X150521Y-238468D01*
X150512Y-238420D01*
X150512Y-238372D01*
X150497Y-238341D01*
X150495Y-238329D01*
X150488Y-238321D01*
X150477Y-238299D01*
X146886Y-233098D01*
X147694Y-231713D01*
X147697Y-231700D01*
X147715Y-231665D01*
X148223Y-230141D01*
X148224Y-230134D01*
X148229Y-230122D01*
X148697Y-228249D01*
X154760Y-227135D01*
X154816Y-227107D01*
X154874Y-227082D01*
X154879Y-227076D01*
X154886Y-227072D01*
X154919Y-227018D01*
X154954Y-226966D01*
X154956Y-226956D01*
X154959Y-226951D01*
X154958Y-226940D01*
X154967Y-226886D01*
X154967Y-223965D01*
X154965Y-223958D01*
X154966Y-223942D01*
X154839Y-222545D01*
X154839Y-222544D01*
X154839Y-222543D01*
X154712Y-221273D01*
X154693Y-221226D01*
X154682Y-221176D01*
X154667Y-221161D01*
X154660Y-221142D01*
X154618Y-221112D01*
X154582Y-221076D01*
X154555Y-221066D01*
X154545Y-221060D01*
X154534Y-221059D01*
X154506Y-221049D01*
X148434Y-219934D01*
X147971Y-218430D01*
X147966Y-218421D01*
X147960Y-218399D01*
X147325Y-217002D01*
X147319Y-216996D01*
X147313Y-216979D01*
X146428Y-215462D01*
X146373Y-215353D01*
X149840Y-210524D01*
X149857Y-210475D01*
X149882Y-210429D01*
X149880Y-210409D01*
X149887Y-210391D01*
X149875Y-210340D01*
X149872Y-210289D01*
X149858Y-210265D01*
X149856Y-210253D01*
X149847Y-210245D01*
X149832Y-210218D01*
X148816Y-208948D01*
X148808Y-208943D01*
X148797Y-208927D01*
X147527Y-207657D01*
X147522Y-207654D01*
X147515Y-207645D01*
X146499Y-206756D01*
X146491Y-206753D01*
X146479Y-206741D01*
X145590Y-206106D01*
X145548Y-206091D01*
X145511Y-206068D01*
X145483Y-206068D01*
X145457Y-206059D01*
X145414Y-206069D01*
X145370Y-206070D01*
X145332Y-206088D01*
X145320Y-206091D01*
X145314Y-206097D01*
X145297Y-206105D01*
X140220Y-209696D01*
X139216Y-209139D01*
X139209Y-209137D01*
X139196Y-209129D01*
X136910Y-208113D01*
X136897Y-208111D01*
X136862Y-208097D01*
X135883Y-207879D01*
X134770Y-201821D01*
X134746Y-201774D01*
X134730Y-201724D01*
X134715Y-201712D01*
X134707Y-201695D01*
X134662Y-201668D01*
X134621Y-201634D01*
X134596Y-201628D01*
X134586Y-201622D01*
X134574Y-201623D01*
X134542Y-201615D01*
X133018Y-201488D01*
X133011Y-201489D01*
X132997Y-201487D01*
X130076Y-201487D01*
X130068Y-201489D01*
X130051Y-201488D01*
X128781Y-201615D01*
X128732Y-201635D01*
X128680Y-201647D01*
X128667Y-201661D01*
X128650Y-201668D01*
X128619Y-201710D01*
X128582Y-201748D01*
X128574Y-201773D01*
X128568Y-201782D01*
X128567Y-201794D01*
X128556Y-201825D01*
X127565Y-207771D01*
X125805Y-208358D01*
X125801Y-208361D01*
X125791Y-208363D01*
X124521Y-208871D01*
X124513Y-208877D01*
X124489Y-208886D01*
X122853Y-209821D01*
X117906Y-206234D01*
X117858Y-206217D01*
X117813Y-206192D01*
X117793Y-206193D01*
X117773Y-206186D01*
X117723Y-206197D01*
X117673Y-206200D01*
X117647Y-206214D01*
X117635Y-206217D01*
X117627Y-206225D01*
X117602Y-206239D01*
X116459Y-207128D01*
X116453Y-207136D01*
X116435Y-207149D01*
X115165Y-208419D01*
X115162Y-208423D01*
X115155Y-208430D01*
X114143Y-209567D01*
X113514Y-210197D01*
X113484Y-210252D01*
X113450Y-210304D01*
X113450Y-210313D01*
X113446Y-210320D01*
X113450Y-210383D01*
X113449Y-210445D01*
X113454Y-210455D01*
X113454Y-210461D01*
X113461Y-210470D01*
X113484Y-210519D01*
X116948Y-215592D01*
X116270Y-216723D01*
X116268Y-216731D01*
X116257Y-216747D01*
X115495Y-218398D01*
X115493Y-218410D01*
X115481Y-218437D01*
X115104Y-219817D01*
X114785Y-220562D01*
X108699Y-221556D01*
X108640Y-221584D01*
X108580Y-221610D01*
X108577Y-221614D01*
X108572Y-221617D01*
X108537Y-221672D01*
X108500Y-221726D01*
X108499Y-221733D01*
X108497Y-221736D01*
X108497Y-221745D01*
X108487Y-221806D01*
X108487Y-227394D01*
X108505Y-227457D01*
X108521Y-227521D01*
X108524Y-227524D01*
X108526Y-227529D01*
X108575Y-227573D01*
X108622Y-227618D01*
X108629Y-227620D01*
X108631Y-227623D01*
X108640Y-227624D01*
X108699Y-227644D01*
X114764Y-228634D01*
X115228Y-230258D01*
X115228Y-230259D01*
X115228Y-230261D01*
X115609Y-231531D01*
X115616Y-231541D01*
X115626Y-231571D01*
X116134Y-232587D01*
X116137Y-232591D01*
X116141Y-232602D01*
X116947Y-233983D01*
X113361Y-238929D01*
X113341Y-238985D01*
X113316Y-239038D01*
X113318Y-239050D01*
X113313Y-239062D01*
X113325Y-239116D01*
X113325Y-239120D01*
X113327Y-239125D01*
X113333Y-239178D01*
X113342Y-239192D01*
X113344Y-239200D01*
X113353Y-239209D01*
X113377Y-239246D01*
X114393Y-240389D01*
X114397Y-240392D01*
X114403Y-240400D01*
X115292Y-241289D01*
X115296Y-241292D01*
X115303Y-241299D01*
X116446Y-242315D01*
X116447Y-242316D01*
X116449Y-242318D01*
X117338Y-243080D01*
X117387Y-243102D01*
X117431Y-243131D01*
X117450Y-243131D01*
X117466Y-243139D01*
X117519Y-243131D01*
G37*
D10*
X52508Y-176060D02*
X52508Y-189268D01*
X58378Y-189268D01*
X65234Y-189268D02*
X68903Y-189268D01*
X65234Y-189268D02*
X65143Y-189266D01*
X65052Y-189260D01*
X64962Y-189251D01*
X64872Y-189238D01*
X64782Y-189221D01*
X64694Y-189201D01*
X64606Y-189176D01*
X64519Y-189149D01*
X64434Y-189117D01*
X64350Y-189083D01*
X64267Y-189044D01*
X64186Y-189003D01*
X64107Y-188958D01*
X64030Y-188910D01*
X63955Y-188858D01*
X63882Y-188804D01*
X63811Y-188747D01*
X63743Y-188686D01*
X63678Y-188623D01*
X63615Y-188558D01*
X63554Y-188490D01*
X63497Y-188419D01*
X63443Y-188346D01*
X63391Y-188271D01*
X63343Y-188194D01*
X63298Y-188115D01*
X63257Y-188034D01*
X63218Y-187951D01*
X63184Y-187867D01*
X63152Y-187782D01*
X63125Y-187695D01*
X63100Y-187607D01*
X63080Y-187519D01*
X63063Y-187429D01*
X63050Y-187339D01*
X63041Y-187249D01*
X63035Y-187158D01*
X63033Y-187067D01*
X63032Y-187067D02*
X63032Y-183398D01*
X63033Y-183398D02*
X63035Y-183291D01*
X63041Y-183184D01*
X63051Y-183077D01*
X63064Y-182971D01*
X63082Y-182865D01*
X63103Y-182760D01*
X63128Y-182656D01*
X63157Y-182552D01*
X63190Y-182450D01*
X63227Y-182350D01*
X63267Y-182250D01*
X63311Y-182152D01*
X63358Y-182056D01*
X63409Y-181962D01*
X63463Y-181869D01*
X63520Y-181779D01*
X63581Y-181690D01*
X63645Y-181604D01*
X63712Y-181521D01*
X63782Y-181439D01*
X63855Y-181361D01*
X63931Y-181285D01*
X64009Y-181212D01*
X64091Y-181142D01*
X64174Y-181075D01*
X64260Y-181011D01*
X64349Y-180950D01*
X64439Y-180893D01*
X64532Y-180839D01*
X64626Y-180788D01*
X64722Y-180741D01*
X64820Y-180697D01*
X64920Y-180657D01*
X65020Y-180620D01*
X65122Y-180587D01*
X65226Y-180558D01*
X65330Y-180533D01*
X65435Y-180512D01*
X65541Y-180494D01*
X65647Y-180481D01*
X65754Y-180471D01*
X65861Y-180465D01*
X65968Y-180463D01*
X66075Y-180465D01*
X66182Y-180471D01*
X66289Y-180481D01*
X66395Y-180494D01*
X66501Y-180512D01*
X66606Y-180533D01*
X66710Y-180558D01*
X66814Y-180587D01*
X66916Y-180620D01*
X67016Y-180657D01*
X67116Y-180697D01*
X67214Y-180741D01*
X67310Y-180788D01*
X67404Y-180839D01*
X67497Y-180893D01*
X67587Y-180950D01*
X67676Y-181011D01*
X67762Y-181075D01*
X67845Y-181142D01*
X67927Y-181212D01*
X68005Y-181285D01*
X68081Y-181361D01*
X68154Y-181439D01*
X68224Y-181521D01*
X68291Y-181604D01*
X68355Y-181690D01*
X68416Y-181779D01*
X68473Y-181869D01*
X68527Y-181962D01*
X68578Y-182056D01*
X68625Y-182152D01*
X68669Y-182250D01*
X68709Y-182350D01*
X68746Y-182450D01*
X68779Y-182552D01*
X68808Y-182656D01*
X68833Y-182760D01*
X68854Y-182865D01*
X68872Y-182971D01*
X68885Y-183077D01*
X68895Y-183184D01*
X68901Y-183291D01*
X68903Y-183398D01*
X68903Y-184865D01*
X63032Y-184865D01*
X76266Y-189268D02*
X79935Y-189268D01*
X76266Y-189268D02*
X76175Y-189266D01*
X76084Y-189260D01*
X75994Y-189251D01*
X75904Y-189238D01*
X75814Y-189221D01*
X75726Y-189201D01*
X75638Y-189176D01*
X75551Y-189149D01*
X75466Y-189117D01*
X75382Y-189083D01*
X75299Y-189044D01*
X75218Y-189003D01*
X75139Y-188958D01*
X75062Y-188910D01*
X74987Y-188858D01*
X74914Y-188804D01*
X74843Y-188747D01*
X74775Y-188686D01*
X74710Y-188623D01*
X74647Y-188558D01*
X74586Y-188490D01*
X74529Y-188419D01*
X74475Y-188346D01*
X74423Y-188271D01*
X74375Y-188194D01*
X74330Y-188115D01*
X74289Y-188034D01*
X74250Y-187951D01*
X74216Y-187867D01*
X74184Y-187782D01*
X74157Y-187695D01*
X74132Y-187607D01*
X74112Y-187519D01*
X74095Y-187429D01*
X74082Y-187339D01*
X74073Y-187249D01*
X74067Y-187158D01*
X74065Y-187067D01*
X74065Y-182664D01*
X74067Y-182573D01*
X74073Y-182482D01*
X74082Y-182392D01*
X74095Y-182302D01*
X74112Y-182212D01*
X74132Y-182124D01*
X74157Y-182036D01*
X74184Y-181949D01*
X74216Y-181864D01*
X74250Y-181780D01*
X74289Y-181697D01*
X74330Y-181616D01*
X74375Y-181537D01*
X74423Y-181460D01*
X74475Y-181385D01*
X74529Y-181312D01*
X74586Y-181241D01*
X74647Y-181173D01*
X74710Y-181108D01*
X74775Y-181045D01*
X74843Y-180984D01*
X74914Y-180927D01*
X74987Y-180873D01*
X75062Y-180821D01*
X75139Y-180773D01*
X75218Y-180728D01*
X75299Y-180687D01*
X75382Y-180648D01*
X75466Y-180614D01*
X75551Y-180582D01*
X75638Y-180555D01*
X75726Y-180530D01*
X75814Y-180510D01*
X75904Y-180493D01*
X75994Y-180480D01*
X76084Y-180471D01*
X76175Y-180465D01*
X76266Y-180463D01*
X79935Y-180463D01*
X79935Y-191469D01*
X79933Y-191560D01*
X79927Y-191651D01*
X79918Y-191741D01*
X79905Y-191831D01*
X79888Y-191921D01*
X79868Y-192009D01*
X79843Y-192097D01*
X79816Y-192184D01*
X79784Y-192269D01*
X79750Y-192353D01*
X79711Y-192436D01*
X79670Y-192517D01*
X79625Y-192596D01*
X79577Y-192673D01*
X79525Y-192748D01*
X79471Y-192821D01*
X79414Y-192892D01*
X79353Y-192960D01*
X79290Y-193025D01*
X79225Y-193088D01*
X79157Y-193149D01*
X79086Y-193206D01*
X79013Y-193260D01*
X78938Y-193312D01*
X78861Y-193360D01*
X78782Y-193405D01*
X78701Y-193446D01*
X78618Y-193485D01*
X78534Y-193519D01*
X78449Y-193551D01*
X78362Y-193578D01*
X78274Y-193603D01*
X78186Y-193623D01*
X78096Y-193640D01*
X78006Y-193653D01*
X77916Y-193662D01*
X77825Y-193668D01*
X77734Y-193670D01*
X77734Y-193671D02*
X74798Y-193671D01*
X85649Y-186333D02*
X85649Y-183398D01*
X85651Y-183291D01*
X85657Y-183184D01*
X85667Y-183077D01*
X85680Y-182971D01*
X85698Y-182865D01*
X85719Y-182760D01*
X85744Y-182656D01*
X85773Y-182552D01*
X85806Y-182450D01*
X85843Y-182350D01*
X85883Y-182250D01*
X85927Y-182152D01*
X85974Y-182056D01*
X86025Y-181962D01*
X86079Y-181869D01*
X86136Y-181779D01*
X86197Y-181690D01*
X86261Y-181604D01*
X86328Y-181521D01*
X86398Y-181439D01*
X86471Y-181361D01*
X86547Y-181285D01*
X86625Y-181212D01*
X86707Y-181142D01*
X86790Y-181075D01*
X86876Y-181011D01*
X86965Y-180950D01*
X87055Y-180893D01*
X87148Y-180839D01*
X87242Y-180788D01*
X87338Y-180741D01*
X87436Y-180697D01*
X87536Y-180657D01*
X87636Y-180620D01*
X87738Y-180587D01*
X87842Y-180558D01*
X87946Y-180533D01*
X88051Y-180512D01*
X88157Y-180494D01*
X88263Y-180481D01*
X88370Y-180471D01*
X88477Y-180465D01*
X88584Y-180463D01*
X88691Y-180465D01*
X88798Y-180471D01*
X88905Y-180481D01*
X89011Y-180494D01*
X89117Y-180512D01*
X89222Y-180533D01*
X89326Y-180558D01*
X89430Y-180587D01*
X89532Y-180620D01*
X89632Y-180657D01*
X89732Y-180697D01*
X89830Y-180741D01*
X89926Y-180788D01*
X90020Y-180839D01*
X90113Y-180893D01*
X90203Y-180950D01*
X90292Y-181011D01*
X90378Y-181075D01*
X90461Y-181142D01*
X90543Y-181212D01*
X90621Y-181285D01*
X90697Y-181361D01*
X90770Y-181439D01*
X90840Y-181521D01*
X90907Y-181604D01*
X90971Y-181690D01*
X91032Y-181779D01*
X91089Y-181869D01*
X91143Y-181962D01*
X91194Y-182056D01*
X91241Y-182152D01*
X91285Y-182250D01*
X91325Y-182350D01*
X91362Y-182450D01*
X91395Y-182552D01*
X91424Y-182656D01*
X91449Y-182760D01*
X91470Y-182865D01*
X91488Y-182971D01*
X91501Y-183077D01*
X91511Y-183184D01*
X91517Y-183291D01*
X91519Y-183398D01*
X91519Y-186333D01*
X91517Y-186440D01*
X91511Y-186547D01*
X91501Y-186654D01*
X91488Y-186760D01*
X91470Y-186866D01*
X91449Y-186971D01*
X91424Y-187075D01*
X91395Y-187179D01*
X91362Y-187281D01*
X91325Y-187381D01*
X91285Y-187481D01*
X91241Y-187579D01*
X91194Y-187675D01*
X91143Y-187769D01*
X91089Y-187862D01*
X91032Y-187952D01*
X90971Y-188041D01*
X90907Y-188127D01*
X90840Y-188210D01*
X90770Y-188292D01*
X90697Y-188370D01*
X90621Y-188446D01*
X90543Y-188519D01*
X90461Y-188589D01*
X90378Y-188656D01*
X90292Y-188720D01*
X90203Y-188781D01*
X90113Y-188838D01*
X90020Y-188892D01*
X89926Y-188943D01*
X89830Y-188990D01*
X89732Y-189034D01*
X89632Y-189074D01*
X89532Y-189111D01*
X89430Y-189144D01*
X89326Y-189173D01*
X89222Y-189198D01*
X89117Y-189219D01*
X89011Y-189237D01*
X88905Y-189250D01*
X88798Y-189260D01*
X88691Y-189266D01*
X88584Y-189268D01*
X88477Y-189266D01*
X88370Y-189260D01*
X88263Y-189250D01*
X88157Y-189237D01*
X88051Y-189219D01*
X87946Y-189198D01*
X87842Y-189173D01*
X87738Y-189144D01*
X87636Y-189111D01*
X87536Y-189074D01*
X87436Y-189034D01*
X87338Y-188990D01*
X87242Y-188943D01*
X87148Y-188892D01*
X87055Y-188838D01*
X86965Y-188781D01*
X86876Y-188720D01*
X86790Y-188656D01*
X86707Y-188589D01*
X86625Y-188519D01*
X86547Y-188446D01*
X86471Y-188370D01*
X86398Y-188292D01*
X86328Y-188210D01*
X86261Y-188127D01*
X86197Y-188041D01*
X86136Y-187952D01*
X86079Y-187862D01*
X86025Y-187769D01*
X85974Y-187675D01*
X85927Y-187579D01*
X85883Y-187481D01*
X85843Y-187381D01*
X85806Y-187281D01*
X85773Y-187179D01*
X85744Y-187075D01*
X85719Y-186971D01*
X85698Y-186866D01*
X85680Y-186760D01*
X85667Y-186654D01*
X85657Y-186547D01*
X85651Y-186440D01*
X85649Y-186333D01*
X59846Y-207669D02*
X59844Y-207776D01*
X59838Y-207883D01*
X59828Y-207990D01*
X59815Y-208096D01*
X59797Y-208202D01*
X59776Y-208307D01*
X59751Y-208411D01*
X59722Y-208515D01*
X59689Y-208617D01*
X59652Y-208717D01*
X59612Y-208817D01*
X59568Y-208915D01*
X59521Y-209011D01*
X59470Y-209105D01*
X59416Y-209198D01*
X59359Y-209288D01*
X59298Y-209377D01*
X59234Y-209463D01*
X59167Y-209546D01*
X59097Y-209628D01*
X59024Y-209706D01*
X58948Y-209782D01*
X58870Y-209855D01*
X58788Y-209925D01*
X58705Y-209992D01*
X58619Y-210056D01*
X58530Y-210117D01*
X58440Y-210174D01*
X58347Y-210228D01*
X58253Y-210279D01*
X58157Y-210326D01*
X58059Y-210370D01*
X57959Y-210410D01*
X57859Y-210447D01*
X57757Y-210480D01*
X57653Y-210509D01*
X57549Y-210534D01*
X57444Y-210555D01*
X57338Y-210573D01*
X57232Y-210586D01*
X57125Y-210596D01*
X57018Y-210602D01*
X56911Y-210604D01*
X56758Y-210602D01*
X56605Y-210596D01*
X56452Y-210587D01*
X56300Y-210574D01*
X56148Y-210557D01*
X55996Y-210536D01*
X55845Y-210512D01*
X55695Y-210484D01*
X55545Y-210452D01*
X55397Y-210416D01*
X55249Y-210377D01*
X55102Y-210334D01*
X54956Y-210288D01*
X54812Y-210238D01*
X54668Y-210184D01*
X54526Y-210127D01*
X54386Y-210067D01*
X54247Y-210002D01*
X54110Y-209935D01*
X53974Y-209864D01*
X53840Y-209790D01*
X53708Y-209713D01*
X53578Y-209632D01*
X53450Y-209548D01*
X53324Y-209461D01*
X53201Y-209371D01*
X53079Y-209278D01*
X52960Y-209182D01*
X52844Y-209083D01*
X52729Y-208982D01*
X52618Y-208877D01*
X52509Y-208770D01*
X52875Y-200331D02*
X52877Y-200224D01*
X52883Y-200117D01*
X52893Y-200010D01*
X52906Y-199904D01*
X52924Y-199798D01*
X52945Y-199693D01*
X52970Y-199589D01*
X52999Y-199485D01*
X53032Y-199383D01*
X53069Y-199283D01*
X53109Y-199183D01*
X53153Y-199085D01*
X53200Y-198989D01*
X53251Y-198895D01*
X53305Y-198802D01*
X53362Y-198712D01*
X53423Y-198623D01*
X53487Y-198537D01*
X53554Y-198454D01*
X53624Y-198372D01*
X53697Y-198294D01*
X53773Y-198218D01*
X53851Y-198145D01*
X53933Y-198075D01*
X54016Y-198008D01*
X54102Y-197944D01*
X54191Y-197883D01*
X54281Y-197826D01*
X54374Y-197772D01*
X54468Y-197721D01*
X54564Y-197674D01*
X54662Y-197630D01*
X54762Y-197590D01*
X54862Y-197553D01*
X54964Y-197520D01*
X55068Y-197491D01*
X55172Y-197466D01*
X55277Y-197445D01*
X55383Y-197427D01*
X55489Y-197414D01*
X55596Y-197404D01*
X55703Y-197398D01*
X55810Y-197396D01*
X55958Y-197398D01*
X56105Y-197404D01*
X56252Y-197414D01*
X56399Y-197428D01*
X56546Y-197445D01*
X56691Y-197467D01*
X56837Y-197493D01*
X56981Y-197522D01*
X57125Y-197555D01*
X57268Y-197593D01*
X57410Y-197634D01*
X57550Y-197678D01*
X57690Y-197727D01*
X57828Y-197779D01*
X57964Y-197835D01*
X58099Y-197895D01*
X58232Y-197958D01*
X58364Y-198025D01*
X58494Y-198095D01*
X58622Y-198168D01*
X58747Y-198246D01*
X58871Y-198326D01*
X58993Y-198410D01*
X59112Y-198497D01*
X54343Y-202899D02*
X54252Y-202843D01*
X54163Y-202784D01*
X54076Y-202722D01*
X53992Y-202657D01*
X53909Y-202589D01*
X53830Y-202518D01*
X53753Y-202444D01*
X53679Y-202367D01*
X53607Y-202288D01*
X53539Y-202206D01*
X53473Y-202122D01*
X53410Y-202035D01*
X53351Y-201947D01*
X53295Y-201856D01*
X53242Y-201763D01*
X53192Y-201669D01*
X53146Y-201573D01*
X53103Y-201475D01*
X53064Y-201376D01*
X53028Y-201275D01*
X52996Y-201173D01*
X52968Y-201070D01*
X52944Y-200966D01*
X52923Y-200862D01*
X52906Y-200756D01*
X52892Y-200651D01*
X52883Y-200544D01*
X52877Y-200438D01*
X52875Y-200331D01*
X58378Y-205101D02*
X58469Y-205157D01*
X58558Y-205216D01*
X58645Y-205278D01*
X58730Y-205343D01*
X58812Y-205411D01*
X58891Y-205482D01*
X58968Y-205556D01*
X59042Y-205633D01*
X59114Y-205712D01*
X59182Y-205794D01*
X59248Y-205878D01*
X59311Y-205965D01*
X59370Y-206053D01*
X59426Y-206144D01*
X59479Y-206237D01*
X59529Y-206331D01*
X59575Y-206427D01*
X59618Y-206525D01*
X59657Y-206624D01*
X59693Y-206725D01*
X59725Y-206827D01*
X59753Y-206930D01*
X59777Y-207034D01*
X59798Y-207138D01*
X59815Y-207244D01*
X59829Y-207349D01*
X59838Y-207456D01*
X59844Y-207562D01*
X59846Y-207669D01*
X58378Y-205101D02*
X54342Y-202899D01*
X66965Y-210604D02*
X70633Y-210604D01*
X66965Y-210604D02*
X66874Y-210602D01*
X66783Y-210596D01*
X66693Y-210587D01*
X66603Y-210574D01*
X66513Y-210557D01*
X66425Y-210537D01*
X66337Y-210512D01*
X66250Y-210485D01*
X66165Y-210453D01*
X66081Y-210419D01*
X65998Y-210380D01*
X65917Y-210339D01*
X65838Y-210294D01*
X65761Y-210246D01*
X65686Y-210194D01*
X65613Y-210140D01*
X65542Y-210083D01*
X65474Y-210022D01*
X65409Y-209959D01*
X65346Y-209894D01*
X65285Y-209826D01*
X65228Y-209755D01*
X65174Y-209682D01*
X65122Y-209607D01*
X65074Y-209530D01*
X65029Y-209451D01*
X64988Y-209370D01*
X64949Y-209287D01*
X64915Y-209203D01*
X64883Y-209118D01*
X64856Y-209031D01*
X64831Y-208943D01*
X64811Y-208855D01*
X64794Y-208765D01*
X64781Y-208675D01*
X64772Y-208585D01*
X64766Y-208494D01*
X64764Y-208403D01*
X64763Y-208403D02*
X64763Y-204734D01*
X64765Y-204627D01*
X64771Y-204520D01*
X64781Y-204413D01*
X64794Y-204307D01*
X64812Y-204201D01*
X64833Y-204096D01*
X64858Y-203992D01*
X64887Y-203888D01*
X64920Y-203786D01*
X64957Y-203686D01*
X64997Y-203586D01*
X65041Y-203488D01*
X65088Y-203392D01*
X65139Y-203298D01*
X65193Y-203205D01*
X65250Y-203115D01*
X65311Y-203026D01*
X65375Y-202940D01*
X65442Y-202857D01*
X65512Y-202775D01*
X65585Y-202697D01*
X65661Y-202621D01*
X65739Y-202548D01*
X65821Y-202478D01*
X65904Y-202411D01*
X65990Y-202347D01*
X66079Y-202286D01*
X66169Y-202229D01*
X66262Y-202175D01*
X66356Y-202124D01*
X66452Y-202077D01*
X66550Y-202033D01*
X66650Y-201993D01*
X66750Y-201956D01*
X66852Y-201923D01*
X66956Y-201894D01*
X67060Y-201869D01*
X67165Y-201848D01*
X67271Y-201830D01*
X67377Y-201817D01*
X67484Y-201807D01*
X67591Y-201801D01*
X67698Y-201799D01*
X67805Y-201801D01*
X67912Y-201807D01*
X68019Y-201817D01*
X68125Y-201830D01*
X68231Y-201848D01*
X68336Y-201869D01*
X68440Y-201894D01*
X68544Y-201923D01*
X68646Y-201956D01*
X68746Y-201993D01*
X68846Y-202033D01*
X68944Y-202077D01*
X69040Y-202124D01*
X69134Y-202175D01*
X69227Y-202229D01*
X69317Y-202286D01*
X69406Y-202347D01*
X69492Y-202411D01*
X69575Y-202478D01*
X69657Y-202548D01*
X69735Y-202621D01*
X69811Y-202697D01*
X69884Y-202775D01*
X69954Y-202857D01*
X70021Y-202940D01*
X70085Y-203026D01*
X70146Y-203115D01*
X70203Y-203205D01*
X70257Y-203298D01*
X70308Y-203392D01*
X70355Y-203488D01*
X70399Y-203586D01*
X70439Y-203686D01*
X70476Y-203786D01*
X70509Y-203888D01*
X70538Y-203992D01*
X70563Y-204096D01*
X70584Y-204201D01*
X70602Y-204307D01*
X70615Y-204413D01*
X70625Y-204520D01*
X70631Y-204627D01*
X70633Y-204734D01*
X70633Y-206201D01*
X64763Y-206201D01*
X76285Y-210604D02*
X76285Y-201799D01*
X79954Y-201799D01*
X80047Y-201801D01*
X80141Y-201807D01*
X80234Y-201817D01*
X80326Y-201831D01*
X80418Y-201848D01*
X80509Y-201870D01*
X80598Y-201895D01*
X80687Y-201925D01*
X80775Y-201958D01*
X80861Y-201994D01*
X80945Y-202035D01*
X81027Y-202078D01*
X81108Y-202126D01*
X81186Y-202176D01*
X81263Y-202230D01*
X81337Y-202288D01*
X81408Y-202348D01*
X81477Y-202411D01*
X81543Y-202477D01*
X81606Y-202546D01*
X81666Y-202617D01*
X81724Y-202691D01*
X81778Y-202767D01*
X81828Y-202846D01*
X81875Y-202927D01*
X81919Y-203009D01*
X81960Y-203093D01*
X81996Y-203179D01*
X82029Y-203267D01*
X82059Y-203355D01*
X82084Y-203445D01*
X82106Y-203536D01*
X82123Y-203628D01*
X82137Y-203720D01*
X82147Y-203813D01*
X82153Y-203907D01*
X82155Y-204000D01*
X82155Y-210604D01*
X88907Y-205468D02*
X92576Y-206935D01*
X88906Y-205468D02*
X88827Y-205434D01*
X88749Y-205396D01*
X88672Y-205355D01*
X88598Y-205311D01*
X88526Y-205263D01*
X88456Y-205212D01*
X88389Y-205158D01*
X88324Y-205101D01*
X88261Y-205040D01*
X88202Y-204978D01*
X88145Y-204912D01*
X88092Y-204844D01*
X88041Y-204774D01*
X87994Y-204701D01*
X87950Y-204626D01*
X87910Y-204550D01*
X87873Y-204471D01*
X87840Y-204392D01*
X87810Y-204310D01*
X87784Y-204228D01*
X87762Y-204144D01*
X87744Y-204059D01*
X87730Y-203974D01*
X87719Y-203888D01*
X87713Y-203802D01*
X87710Y-203715D01*
X87711Y-203628D01*
X87717Y-203542D01*
X87726Y-203456D01*
X87739Y-203370D01*
X87756Y-203285D01*
X87777Y-203201D01*
X87801Y-203118D01*
X87830Y-203037D01*
X87862Y-202956D01*
X87897Y-202877D01*
X87937Y-202800D01*
X87979Y-202725D01*
X88026Y-202652D01*
X88075Y-202580D01*
X88127Y-202512D01*
X88183Y-202445D01*
X88242Y-202382D01*
X88303Y-202321D01*
X88367Y-202262D01*
X88434Y-202207D01*
X88503Y-202155D01*
X88575Y-202106D01*
X88648Y-202061D01*
X88724Y-202019D01*
X88801Y-201980D01*
X88880Y-201945D01*
X88961Y-201913D01*
X89043Y-201885D01*
X89126Y-201861D01*
X89210Y-201841D01*
X89295Y-201825D01*
X89381Y-201812D01*
X89467Y-201804D01*
X89554Y-201799D01*
X89640Y-201798D01*
X89640Y-201799D02*
X89840Y-201804D01*
X90040Y-201814D01*
X90240Y-201829D01*
X90440Y-201849D01*
X90639Y-201873D01*
X90837Y-201903D01*
X91034Y-201937D01*
X91231Y-201975D01*
X91426Y-202019D01*
X91621Y-202067D01*
X91814Y-202120D01*
X92006Y-202177D01*
X92197Y-202239D01*
X92386Y-202306D01*
X92573Y-202377D01*
X92758Y-202453D01*
X92942Y-202533D01*
X92576Y-206935D02*
X92655Y-206969D01*
X92733Y-207007D01*
X92810Y-207048D01*
X92884Y-207092D01*
X92956Y-207140D01*
X93026Y-207191D01*
X93093Y-207245D01*
X93158Y-207302D01*
X93221Y-207363D01*
X93280Y-207425D01*
X93337Y-207491D01*
X93390Y-207559D01*
X93441Y-207629D01*
X93488Y-207702D01*
X93532Y-207777D01*
X93572Y-207853D01*
X93609Y-207932D01*
X93642Y-208011D01*
X93672Y-208093D01*
X93698Y-208175D01*
X93720Y-208259D01*
X93738Y-208344D01*
X93752Y-208429D01*
X93763Y-208515D01*
X93769Y-208601D01*
X93772Y-208688D01*
X93771Y-208775D01*
X93765Y-208861D01*
X93756Y-208947D01*
X93743Y-209033D01*
X93726Y-209118D01*
X93705Y-209202D01*
X93681Y-209285D01*
X93652Y-209366D01*
X93620Y-209447D01*
X93585Y-209526D01*
X93545Y-209603D01*
X93503Y-209678D01*
X93456Y-209751D01*
X93407Y-209823D01*
X93355Y-209891D01*
X93299Y-209958D01*
X93240Y-210021D01*
X93179Y-210082D01*
X93115Y-210141D01*
X93048Y-210196D01*
X92979Y-210248D01*
X92907Y-210297D01*
X92834Y-210342D01*
X92758Y-210384D01*
X92681Y-210423D01*
X92602Y-210458D01*
X92521Y-210490D01*
X92439Y-210518D01*
X92356Y-210542D01*
X92272Y-210562D01*
X92187Y-210578D01*
X92101Y-210591D01*
X92015Y-210599D01*
X91928Y-210604D01*
X91842Y-210605D01*
X91842Y-210604D02*
X91548Y-210596D01*
X91254Y-210581D01*
X90960Y-210560D01*
X90667Y-210531D01*
X90375Y-210496D01*
X90084Y-210453D01*
X89794Y-210404D01*
X89505Y-210348D01*
X89217Y-210285D01*
X88931Y-210216D01*
X88647Y-210139D01*
X88365Y-210056D01*
X88085Y-209966D01*
X87806Y-209870D01*
X98901Y-207669D02*
X98901Y-204734D01*
X98903Y-204627D01*
X98909Y-204520D01*
X98919Y-204413D01*
X98932Y-204307D01*
X98950Y-204201D01*
X98971Y-204096D01*
X98996Y-203992D01*
X99025Y-203888D01*
X99058Y-203786D01*
X99095Y-203686D01*
X99135Y-203586D01*
X99179Y-203488D01*
X99226Y-203392D01*
X99277Y-203298D01*
X99331Y-203205D01*
X99388Y-203115D01*
X99449Y-203026D01*
X99513Y-202940D01*
X99580Y-202857D01*
X99650Y-202775D01*
X99723Y-202697D01*
X99799Y-202621D01*
X99877Y-202548D01*
X99959Y-202478D01*
X100042Y-202411D01*
X100128Y-202347D01*
X100217Y-202286D01*
X100307Y-202229D01*
X100400Y-202175D01*
X100494Y-202124D01*
X100590Y-202077D01*
X100688Y-202033D01*
X100788Y-201993D01*
X100888Y-201956D01*
X100990Y-201923D01*
X101094Y-201894D01*
X101198Y-201869D01*
X101303Y-201848D01*
X101409Y-201830D01*
X101515Y-201817D01*
X101622Y-201807D01*
X101729Y-201801D01*
X101836Y-201799D01*
X101943Y-201801D01*
X102050Y-201807D01*
X102157Y-201817D01*
X102263Y-201830D01*
X102369Y-201848D01*
X102474Y-201869D01*
X102578Y-201894D01*
X102682Y-201923D01*
X102784Y-201956D01*
X102884Y-201993D01*
X102984Y-202033D01*
X103082Y-202077D01*
X103178Y-202124D01*
X103272Y-202175D01*
X103365Y-202229D01*
X103455Y-202286D01*
X103544Y-202347D01*
X103630Y-202411D01*
X103713Y-202478D01*
X103795Y-202548D01*
X103873Y-202621D01*
X103949Y-202697D01*
X104022Y-202775D01*
X104092Y-202857D01*
X104159Y-202940D01*
X104223Y-203026D01*
X104284Y-203115D01*
X104341Y-203205D01*
X104395Y-203298D01*
X104446Y-203392D01*
X104493Y-203488D01*
X104537Y-203586D01*
X104577Y-203686D01*
X104614Y-203786D01*
X104647Y-203888D01*
X104676Y-203992D01*
X104701Y-204096D01*
X104722Y-204201D01*
X104740Y-204307D01*
X104753Y-204413D01*
X104763Y-204520D01*
X104769Y-204627D01*
X104771Y-204734D01*
X104771Y-207669D01*
X104769Y-207776D01*
X104763Y-207883D01*
X104753Y-207990D01*
X104740Y-208096D01*
X104722Y-208202D01*
X104701Y-208307D01*
X104676Y-208411D01*
X104647Y-208515D01*
X104614Y-208617D01*
X104577Y-208717D01*
X104537Y-208817D01*
X104493Y-208915D01*
X104446Y-209011D01*
X104395Y-209105D01*
X104341Y-209198D01*
X104284Y-209288D01*
X104223Y-209377D01*
X104159Y-209463D01*
X104092Y-209546D01*
X104022Y-209628D01*
X103949Y-209706D01*
X103873Y-209782D01*
X103795Y-209855D01*
X103713Y-209925D01*
X103630Y-209992D01*
X103544Y-210056D01*
X103455Y-210117D01*
X103365Y-210174D01*
X103272Y-210228D01*
X103178Y-210279D01*
X103082Y-210326D01*
X102984Y-210370D01*
X102884Y-210410D01*
X102784Y-210447D01*
X102682Y-210480D01*
X102578Y-210509D01*
X102474Y-210534D01*
X102369Y-210555D01*
X102263Y-210573D01*
X102157Y-210586D01*
X102050Y-210596D01*
X101943Y-210602D01*
X101836Y-210604D01*
X101729Y-210602D01*
X101622Y-210596D01*
X101515Y-210586D01*
X101409Y-210573D01*
X101303Y-210555D01*
X101198Y-210534D01*
X101094Y-210509D01*
X100990Y-210480D01*
X100888Y-210447D01*
X100788Y-210410D01*
X100688Y-210370D01*
X100590Y-210326D01*
X100494Y-210279D01*
X100400Y-210228D01*
X100307Y-210174D01*
X100217Y-210117D01*
X100128Y-210056D01*
X100042Y-209992D01*
X99959Y-209925D01*
X99877Y-209855D01*
X99799Y-209782D01*
X99723Y-209706D01*
X99650Y-209628D01*
X99580Y-209546D01*
X99513Y-209463D01*
X99449Y-209377D01*
X99388Y-209288D01*
X99331Y-209198D01*
X99277Y-209105D01*
X99226Y-209011D01*
X99179Y-208915D01*
X99135Y-208817D01*
X99095Y-208717D01*
X99058Y-208617D01*
X99025Y-208515D01*
X98996Y-208411D01*
X98971Y-208307D01*
X98950Y-208202D01*
X98932Y-208096D01*
X98919Y-207990D01*
X98909Y-207883D01*
X98903Y-207776D01*
X98901Y-207669D01*
X110493Y-210604D02*
X110493Y-201799D01*
X114895Y-201799D01*
X114895Y-203266D01*
X56177Y-224602D02*
X52508Y-224602D01*
X56177Y-224602D02*
X56297Y-224604D01*
X56417Y-224610D01*
X56537Y-224620D01*
X56656Y-224633D01*
X56775Y-224651D01*
X56893Y-224672D01*
X57010Y-224698D01*
X57127Y-224727D01*
X57242Y-224760D01*
X57356Y-224797D01*
X57469Y-224837D01*
X57581Y-224881D01*
X57691Y-224929D01*
X57800Y-224980D01*
X57907Y-225035D01*
X58011Y-225094D01*
X58114Y-225155D01*
X58215Y-225220D01*
X58314Y-225289D01*
X58411Y-225360D01*
X58505Y-225435D01*
X58596Y-225512D01*
X58685Y-225593D01*
X58771Y-225677D01*
X58855Y-225763D01*
X58936Y-225852D01*
X59013Y-225943D01*
X59088Y-226037D01*
X59159Y-226134D01*
X59228Y-226233D01*
X59293Y-226334D01*
X59354Y-226436D01*
X59413Y-226541D01*
X59468Y-226648D01*
X59519Y-226757D01*
X59567Y-226867D01*
X59611Y-226979D01*
X59651Y-227092D01*
X59688Y-227206D01*
X59721Y-227321D01*
X59750Y-227438D01*
X59776Y-227555D01*
X59797Y-227673D01*
X59815Y-227792D01*
X59828Y-227911D01*
X59838Y-228031D01*
X59844Y-228151D01*
X59846Y-228271D01*
X59844Y-228391D01*
X59838Y-228511D01*
X59828Y-228631D01*
X59815Y-228750D01*
X59797Y-228869D01*
X59776Y-228987D01*
X59750Y-229104D01*
X59721Y-229221D01*
X59688Y-229336D01*
X59651Y-229450D01*
X59611Y-229563D01*
X59567Y-229675D01*
X59519Y-229785D01*
X59468Y-229894D01*
X59413Y-230001D01*
X59354Y-230105D01*
X59293Y-230208D01*
X59228Y-230309D01*
X59159Y-230408D01*
X59088Y-230505D01*
X59013Y-230599D01*
X58936Y-230690D01*
X58855Y-230779D01*
X58771Y-230865D01*
X58685Y-230949D01*
X58596Y-231030D01*
X58505Y-231107D01*
X58411Y-231182D01*
X58314Y-231253D01*
X58215Y-231322D01*
X58114Y-231387D01*
X58012Y-231448D01*
X57907Y-231507D01*
X57800Y-231562D01*
X57691Y-231613D01*
X57581Y-231661D01*
X57469Y-231705D01*
X57356Y-231745D01*
X57242Y-231782D01*
X57127Y-231815D01*
X57010Y-231844D01*
X56893Y-231870D01*
X56775Y-231891D01*
X56656Y-231909D01*
X56537Y-231922D01*
X56417Y-231932D01*
X56297Y-231938D01*
X56177Y-231940D01*
X52508Y-231940D01*
X52508Y-218732D01*
X56177Y-218732D01*
X56284Y-218734D01*
X56391Y-218740D01*
X56498Y-218750D01*
X56604Y-218763D01*
X56710Y-218781D01*
X56815Y-218802D01*
X56919Y-218827D01*
X57023Y-218856D01*
X57125Y-218889D01*
X57225Y-218926D01*
X57325Y-218966D01*
X57423Y-219010D01*
X57519Y-219057D01*
X57613Y-219108D01*
X57706Y-219162D01*
X57796Y-219219D01*
X57885Y-219280D01*
X57971Y-219344D01*
X58054Y-219411D01*
X58136Y-219481D01*
X58214Y-219554D01*
X58290Y-219630D01*
X58363Y-219708D01*
X58433Y-219790D01*
X58500Y-219873D01*
X58564Y-219959D01*
X58625Y-220048D01*
X58682Y-220138D01*
X58736Y-220231D01*
X58787Y-220325D01*
X58834Y-220421D01*
X58878Y-220519D01*
X58918Y-220619D01*
X58955Y-220719D01*
X58988Y-220821D01*
X59017Y-220925D01*
X59042Y-221029D01*
X59063Y-221134D01*
X59081Y-221240D01*
X59094Y-221346D01*
X59104Y-221453D01*
X59110Y-221560D01*
X59112Y-221667D01*
X59110Y-221774D01*
X59104Y-221881D01*
X59094Y-221988D01*
X59081Y-222094D01*
X59063Y-222200D01*
X59042Y-222305D01*
X59017Y-222409D01*
X58988Y-222513D01*
X58955Y-222615D01*
X58918Y-222715D01*
X58878Y-222815D01*
X58834Y-222913D01*
X58787Y-223009D01*
X58736Y-223103D01*
X58682Y-223196D01*
X58625Y-223286D01*
X58564Y-223375D01*
X58500Y-223461D01*
X58433Y-223544D01*
X58363Y-223626D01*
X58290Y-223704D01*
X58214Y-223780D01*
X58136Y-223853D01*
X58054Y-223923D01*
X57971Y-223990D01*
X57885Y-224054D01*
X57796Y-224115D01*
X57706Y-224172D01*
X57613Y-224226D01*
X57519Y-224277D01*
X57423Y-224324D01*
X57325Y-224368D01*
X57225Y-224408D01*
X57125Y-224445D01*
X57023Y-224478D01*
X56919Y-224507D01*
X56815Y-224532D01*
X56710Y-224553D01*
X56604Y-224571D01*
X56498Y-224584D01*
X56391Y-224594D01*
X56284Y-224600D01*
X56177Y-224602D01*
X64584Y-226070D02*
X64584Y-229005D01*
X64584Y-226070D02*
X64586Y-225963D01*
X64592Y-225856D01*
X64602Y-225749D01*
X64615Y-225643D01*
X64633Y-225537D01*
X64654Y-225432D01*
X64679Y-225328D01*
X64708Y-225224D01*
X64741Y-225122D01*
X64778Y-225022D01*
X64818Y-224922D01*
X64862Y-224824D01*
X64909Y-224728D01*
X64960Y-224634D01*
X65014Y-224541D01*
X65071Y-224451D01*
X65132Y-224362D01*
X65196Y-224276D01*
X65263Y-224193D01*
X65333Y-224111D01*
X65406Y-224033D01*
X65482Y-223957D01*
X65560Y-223884D01*
X65642Y-223814D01*
X65725Y-223747D01*
X65811Y-223683D01*
X65900Y-223622D01*
X65990Y-223565D01*
X66083Y-223511D01*
X66177Y-223460D01*
X66273Y-223413D01*
X66371Y-223369D01*
X66471Y-223329D01*
X66571Y-223292D01*
X66673Y-223259D01*
X66777Y-223230D01*
X66881Y-223205D01*
X66986Y-223184D01*
X67092Y-223166D01*
X67198Y-223153D01*
X67305Y-223143D01*
X67412Y-223137D01*
X67519Y-223135D01*
X67626Y-223137D01*
X67733Y-223143D01*
X67840Y-223153D01*
X67946Y-223166D01*
X68052Y-223184D01*
X68157Y-223205D01*
X68261Y-223230D01*
X68365Y-223259D01*
X68467Y-223292D01*
X68567Y-223329D01*
X68667Y-223369D01*
X68765Y-223413D01*
X68861Y-223460D01*
X68955Y-223511D01*
X69048Y-223565D01*
X69138Y-223622D01*
X69227Y-223683D01*
X69313Y-223747D01*
X69396Y-223814D01*
X69478Y-223884D01*
X69556Y-223957D01*
X69632Y-224033D01*
X69705Y-224111D01*
X69775Y-224193D01*
X69842Y-224276D01*
X69906Y-224362D01*
X69967Y-224451D01*
X70024Y-224541D01*
X70078Y-224634D01*
X70129Y-224728D01*
X70176Y-224824D01*
X70220Y-224922D01*
X70260Y-225022D01*
X70297Y-225122D01*
X70330Y-225224D01*
X70359Y-225328D01*
X70384Y-225432D01*
X70405Y-225537D01*
X70423Y-225643D01*
X70436Y-225749D01*
X70446Y-225856D01*
X70452Y-225963D01*
X70454Y-226070D01*
X70454Y-229005D01*
X70452Y-229112D01*
X70446Y-229219D01*
X70436Y-229326D01*
X70423Y-229432D01*
X70405Y-229538D01*
X70384Y-229643D01*
X70359Y-229747D01*
X70330Y-229851D01*
X70297Y-229953D01*
X70260Y-230053D01*
X70220Y-230153D01*
X70176Y-230251D01*
X70129Y-230347D01*
X70078Y-230441D01*
X70024Y-230534D01*
X69967Y-230624D01*
X69906Y-230713D01*
X69842Y-230799D01*
X69775Y-230882D01*
X69705Y-230964D01*
X69632Y-231042D01*
X69556Y-231118D01*
X69478Y-231191D01*
X69396Y-231261D01*
X69313Y-231328D01*
X69227Y-231392D01*
X69138Y-231453D01*
X69048Y-231510D01*
X68955Y-231564D01*
X68861Y-231615D01*
X68765Y-231662D01*
X68667Y-231706D01*
X68567Y-231746D01*
X68467Y-231783D01*
X68365Y-231816D01*
X68261Y-231845D01*
X68157Y-231870D01*
X68052Y-231891D01*
X67946Y-231909D01*
X67840Y-231922D01*
X67733Y-231932D01*
X67626Y-231938D01*
X67519Y-231940D01*
X67412Y-231938D01*
X67305Y-231932D01*
X67198Y-231922D01*
X67092Y-231909D01*
X66986Y-231891D01*
X66881Y-231870D01*
X66777Y-231845D01*
X66673Y-231816D01*
X66571Y-231783D01*
X66471Y-231746D01*
X66371Y-231706D01*
X66273Y-231662D01*
X66177Y-231615D01*
X66083Y-231564D01*
X65990Y-231510D01*
X65900Y-231453D01*
X65811Y-231392D01*
X65725Y-231328D01*
X65642Y-231261D01*
X65560Y-231191D01*
X65482Y-231118D01*
X65406Y-231042D01*
X65333Y-230964D01*
X65263Y-230882D01*
X65196Y-230799D01*
X65132Y-230713D01*
X65071Y-230624D01*
X65014Y-230534D01*
X64960Y-230441D01*
X64909Y-230347D01*
X64862Y-230251D01*
X64818Y-230153D01*
X64778Y-230053D01*
X64741Y-229953D01*
X64708Y-229851D01*
X64679Y-229747D01*
X64654Y-229643D01*
X64633Y-229538D01*
X64615Y-229432D01*
X64602Y-229326D01*
X64592Y-229219D01*
X64586Y-229112D01*
X64584Y-229005D01*
X78184Y-226804D02*
X81486Y-226804D01*
X78184Y-226804D02*
X78084Y-226806D01*
X77985Y-226812D01*
X77886Y-226821D01*
X77787Y-226835D01*
X77689Y-226852D01*
X77592Y-226873D01*
X77495Y-226898D01*
X77400Y-226927D01*
X77306Y-226959D01*
X77213Y-226995D01*
X77121Y-227034D01*
X77031Y-227077D01*
X76943Y-227124D01*
X76857Y-227173D01*
X76773Y-227226D01*
X76691Y-227283D01*
X76611Y-227342D01*
X76533Y-227405D01*
X76458Y-227470D01*
X76386Y-227539D01*
X76316Y-227610D01*
X76249Y-227683D01*
X76185Y-227760D01*
X76124Y-227838D01*
X76066Y-227920D01*
X76012Y-228003D01*
X75960Y-228088D01*
X75912Y-228175D01*
X75867Y-228264D01*
X75826Y-228355D01*
X75788Y-228447D01*
X75754Y-228541D01*
X75724Y-228635D01*
X75697Y-228731D01*
X75674Y-228828D01*
X75655Y-228926D01*
X75640Y-229024D01*
X75628Y-229123D01*
X75620Y-229223D01*
X75616Y-229322D01*
X75616Y-229422D01*
X75620Y-229521D01*
X75628Y-229621D01*
X75640Y-229720D01*
X75655Y-229818D01*
X75674Y-229916D01*
X75697Y-230013D01*
X75724Y-230109D01*
X75754Y-230203D01*
X75788Y-230297D01*
X75826Y-230389D01*
X75867Y-230480D01*
X75912Y-230569D01*
X75960Y-230656D01*
X76012Y-230741D01*
X76066Y-230824D01*
X76124Y-230906D01*
X76185Y-230984D01*
X76249Y-231061D01*
X76316Y-231134D01*
X76386Y-231205D01*
X76458Y-231274D01*
X76533Y-231339D01*
X76611Y-231402D01*
X76691Y-231461D01*
X76773Y-231518D01*
X76857Y-231571D01*
X76943Y-231620D01*
X77031Y-231667D01*
X77121Y-231710D01*
X77213Y-231749D01*
X77306Y-231785D01*
X77400Y-231817D01*
X77495Y-231846D01*
X77592Y-231871D01*
X77689Y-231892D01*
X77787Y-231909D01*
X77886Y-231923D01*
X77985Y-231932D01*
X78084Y-231938D01*
X78184Y-231940D01*
X81486Y-231940D01*
X81486Y-225336D01*
X81484Y-225245D01*
X81478Y-225154D01*
X81469Y-225064D01*
X81456Y-224974D01*
X81439Y-224884D01*
X81419Y-224796D01*
X81394Y-224708D01*
X81367Y-224621D01*
X81335Y-224536D01*
X81301Y-224452D01*
X81262Y-224369D01*
X81221Y-224288D01*
X81176Y-224209D01*
X81128Y-224132D01*
X81076Y-224057D01*
X81022Y-223984D01*
X80965Y-223913D01*
X80904Y-223845D01*
X80841Y-223780D01*
X80776Y-223717D01*
X80708Y-223656D01*
X80637Y-223599D01*
X80564Y-223545D01*
X80489Y-223493D01*
X80412Y-223445D01*
X80333Y-223400D01*
X80252Y-223359D01*
X80169Y-223320D01*
X80085Y-223286D01*
X80000Y-223254D01*
X79913Y-223227D01*
X79825Y-223202D01*
X79737Y-223182D01*
X79647Y-223165D01*
X79557Y-223152D01*
X79467Y-223143D01*
X79376Y-223137D01*
X79285Y-223135D01*
X76350Y-223135D01*
X87697Y-223135D02*
X87697Y-231940D01*
X87697Y-223135D02*
X92100Y-223135D01*
X92100Y-224602D01*
X101969Y-218732D02*
X101969Y-231940D01*
X98300Y-231940D01*
X98209Y-231938D01*
X98118Y-231932D01*
X98028Y-231923D01*
X97938Y-231910D01*
X97848Y-231893D01*
X97760Y-231873D01*
X97672Y-231848D01*
X97585Y-231821D01*
X97500Y-231789D01*
X97416Y-231755D01*
X97333Y-231716D01*
X97252Y-231675D01*
X97173Y-231630D01*
X97096Y-231582D01*
X97021Y-231530D01*
X96948Y-231476D01*
X96877Y-231419D01*
X96809Y-231358D01*
X96744Y-231295D01*
X96681Y-231230D01*
X96620Y-231162D01*
X96563Y-231091D01*
X96509Y-231018D01*
X96457Y-230943D01*
X96409Y-230866D01*
X96364Y-230787D01*
X96323Y-230706D01*
X96284Y-230623D01*
X96250Y-230539D01*
X96218Y-230454D01*
X96191Y-230367D01*
X96166Y-230279D01*
X96146Y-230191D01*
X96129Y-230101D01*
X96116Y-230011D01*
X96107Y-229921D01*
X96101Y-229830D01*
X96099Y-229739D01*
X96099Y-225336D01*
X96101Y-225245D01*
X96107Y-225154D01*
X96116Y-225064D01*
X96129Y-224974D01*
X96146Y-224884D01*
X96166Y-224796D01*
X96191Y-224708D01*
X96218Y-224621D01*
X96250Y-224536D01*
X96284Y-224452D01*
X96323Y-224369D01*
X96364Y-224288D01*
X96409Y-224209D01*
X96457Y-224132D01*
X96509Y-224057D01*
X96563Y-223984D01*
X96620Y-223913D01*
X96681Y-223845D01*
X96744Y-223780D01*
X96809Y-223717D01*
X96877Y-223656D01*
X96948Y-223599D01*
X97021Y-223545D01*
X97096Y-223493D01*
X97173Y-223445D01*
X97252Y-223400D01*
X97333Y-223359D01*
X97416Y-223320D01*
X97500Y-223286D01*
X97585Y-223254D01*
X97672Y-223227D01*
X97760Y-223202D01*
X97848Y-223182D01*
X97938Y-223165D01*
X98028Y-223152D01*
X98118Y-223143D01*
X98209Y-223137D01*
X98300Y-223135D01*
X101969Y-223135D01*
X108911Y-190604D02*
X104508Y-177396D01*
X113313Y-177396D02*
X108911Y-190604D01*
X118043Y-180331D02*
X121712Y-177396D01*
X121712Y-190604D01*
X118043Y-190604D02*
X125381Y-190604D01*
X130306Y-190604D02*
X130306Y-189870D01*
X131040Y-189870D01*
X131040Y-190604D01*
X130306Y-190604D01*
X135966Y-180331D02*
X139634Y-177396D01*
X139634Y-190604D01*
X135966Y-190604D02*
X143303Y-190604D01*
X111863Y165901D02*
X113420Y167458D01*
X118608Y162269D01*
X115495Y159156D01*
X115418Y159081D01*
X115338Y159010D01*
X115256Y158941D01*
X115171Y158876D01*
X115084Y158813D01*
X114994Y158754D01*
X114903Y158698D01*
X114809Y158646D01*
X114714Y158597D01*
X114617Y158551D01*
X114518Y158509D01*
X114418Y158471D01*
X114317Y158436D01*
X114214Y158405D01*
X114110Y158378D01*
X114006Y158355D01*
X113900Y158336D01*
X113794Y158320D01*
X113688Y158308D01*
X113581Y158300D01*
X113474Y158296D01*
X113366Y158296D01*
X113259Y158300D01*
X113152Y158308D01*
X113046Y158320D01*
X112940Y158336D01*
X112834Y158355D01*
X112730Y158378D01*
X112626Y158405D01*
X112523Y158436D01*
X112422Y158471D01*
X112322Y158509D01*
X112223Y158551D01*
X112126Y158597D01*
X112031Y158646D01*
X111937Y158698D01*
X111846Y158754D01*
X111756Y158813D01*
X111669Y158876D01*
X111584Y158941D01*
X111502Y159010D01*
X111422Y159081D01*
X111345Y159156D01*
X111344Y159156D02*
X106156Y164344D01*
X106156Y164345D02*
X106081Y164422D01*
X106010Y164502D01*
X105941Y164584D01*
X105876Y164669D01*
X105813Y164756D01*
X105754Y164846D01*
X105698Y164937D01*
X105646Y165031D01*
X105597Y165126D01*
X105551Y165223D01*
X105509Y165322D01*
X105471Y165422D01*
X105436Y165523D01*
X105405Y165626D01*
X105378Y165730D01*
X105355Y165834D01*
X105336Y165940D01*
X105320Y166046D01*
X105308Y166152D01*
X105300Y166259D01*
X105296Y166366D01*
X105296Y166474D01*
X105300Y166581D01*
X105308Y166688D01*
X105320Y166794D01*
X105336Y166900D01*
X105355Y167006D01*
X105378Y167110D01*
X105405Y167214D01*
X105436Y167317D01*
X105471Y167418D01*
X105509Y167518D01*
X105551Y167617D01*
X105597Y167714D01*
X105646Y167809D01*
X105698Y167903D01*
X105754Y167994D01*
X105813Y168084D01*
X105876Y168171D01*
X105941Y168256D01*
X106010Y168338D01*
X106081Y168418D01*
X106156Y168495D01*
X109269Y171608D01*
X113736Y176075D02*
X123075Y166736D01*
X128264Y171924D02*
X113736Y176075D01*
X118924Y181264D02*
X128264Y171924D01*
X132731Y176391D02*
X123391Y185731D01*
X125986Y188325D01*
X126072Y188409D01*
X126161Y188489D01*
X126252Y188567D01*
X126346Y188642D01*
X126443Y188713D01*
X126542Y188782D01*
X126643Y188847D01*
X126745Y188908D01*
X126850Y188967D01*
X126957Y189022D01*
X127066Y189073D01*
X127176Y189121D01*
X127288Y189165D01*
X127401Y189205D01*
X127515Y189242D01*
X127630Y189275D01*
X127747Y189304D01*
X127864Y189330D01*
X127982Y189351D01*
X128101Y189369D01*
X128220Y189382D01*
X128340Y189392D01*
X128460Y189398D01*
X128580Y189400D01*
X128700Y189398D01*
X128820Y189392D01*
X128940Y189382D01*
X129059Y189369D01*
X129178Y189351D01*
X129296Y189329D01*
X129413Y189304D01*
X129530Y189275D01*
X129645Y189242D01*
X129759Y189205D01*
X129872Y189165D01*
X129984Y189121D01*
X130094Y189073D01*
X130203Y189022D01*
X130310Y188967D01*
X130415Y188908D01*
X130518Y188847D01*
X130618Y188782D01*
X130717Y188713D01*
X130814Y188642D01*
X130908Y188567D01*
X130999Y188489D01*
X131088Y188409D01*
X131174Y188325D01*
X135325Y184174D01*
X135409Y184088D01*
X135490Y183999D01*
X135567Y183908D01*
X135642Y183814D01*
X135713Y183717D01*
X135782Y183618D01*
X135847Y183517D01*
X135908Y183415D01*
X135967Y183310D01*
X136022Y183203D01*
X136073Y183094D01*
X136121Y182984D01*
X136165Y182872D01*
X136205Y182759D01*
X136242Y182645D01*
X136275Y182530D01*
X136304Y182413D01*
X136330Y182296D01*
X136351Y182178D01*
X136369Y182059D01*
X136382Y181940D01*
X136392Y181820D01*
X136398Y181700D01*
X136400Y181580D01*
X136398Y181460D01*
X136392Y181340D01*
X136382Y181220D01*
X136369Y181101D01*
X136351Y180982D01*
X136330Y180864D01*
X136304Y180747D01*
X136275Y180630D01*
X136242Y180515D01*
X136205Y180401D01*
X136165Y180288D01*
X136121Y180176D01*
X136073Y180066D01*
X136022Y179957D01*
X135967Y179850D01*
X135908Y179746D01*
X135847Y179643D01*
X135782Y179542D01*
X135713Y179443D01*
X135642Y179346D01*
X135567Y179252D01*
X135490Y179161D01*
X135409Y179072D01*
X135325Y178986D01*
X132731Y176391D01*
X165797Y110722D02*
X159571Y104495D01*
X165797Y104495D02*
X159571Y110722D01*
X173377Y111038D02*
X176490Y114151D01*
X176565Y114228D01*
X176636Y114308D01*
X176705Y114390D01*
X176770Y114475D01*
X176833Y114562D01*
X176892Y114652D01*
X176948Y114743D01*
X177000Y114837D01*
X177049Y114932D01*
X177095Y115029D01*
X177137Y115128D01*
X177175Y115228D01*
X177210Y115329D01*
X177241Y115432D01*
X177268Y115536D01*
X177291Y115640D01*
X177310Y115746D01*
X177326Y115852D01*
X177338Y115958D01*
X177346Y116065D01*
X177350Y116172D01*
X177350Y116280D01*
X177346Y116387D01*
X177338Y116494D01*
X177326Y116600D01*
X177310Y116706D01*
X177291Y116812D01*
X177268Y116916D01*
X177241Y117020D01*
X177210Y117123D01*
X177175Y117224D01*
X177137Y117324D01*
X177095Y117423D01*
X177049Y117520D01*
X177000Y117615D01*
X176948Y117709D01*
X176892Y117800D01*
X176833Y117890D01*
X176770Y117977D01*
X176705Y118062D01*
X176636Y118144D01*
X176565Y118224D01*
X176490Y118301D01*
X176490Y118302D02*
X175452Y119339D01*
X175375Y119414D01*
X175295Y119485D01*
X175213Y119554D01*
X175128Y119619D01*
X175041Y119682D01*
X174951Y119741D01*
X174860Y119797D01*
X174766Y119849D01*
X174671Y119898D01*
X174574Y119944D01*
X174475Y119986D01*
X174375Y120024D01*
X174274Y120059D01*
X174171Y120090D01*
X174067Y120117D01*
X173963Y120140D01*
X173857Y120159D01*
X173751Y120175D01*
X173645Y120187D01*
X173538Y120195D01*
X173431Y120199D01*
X173323Y120199D01*
X173216Y120195D01*
X173109Y120187D01*
X173003Y120175D01*
X172897Y120159D01*
X172791Y120140D01*
X172687Y120117D01*
X172583Y120090D01*
X172480Y120059D01*
X172379Y120024D01*
X172279Y119986D01*
X172180Y119944D01*
X172083Y119898D01*
X171988Y119849D01*
X171894Y119797D01*
X171803Y119741D01*
X171713Y119682D01*
X171626Y119619D01*
X171541Y119554D01*
X171459Y119485D01*
X171379Y119414D01*
X171302Y119339D01*
X168188Y116226D01*
X164038Y120377D01*
X169226Y125566D01*
X172571Y128910D02*
X185023Y122684D01*
X178797Y135137D01*
X148400Y-120561D02*
X139061Y-129900D01*
X148400Y-120561D02*
X150994Y-123155D01*
X151078Y-123241D01*
X151158Y-123330D01*
X151236Y-123421D01*
X151311Y-123515D01*
X151382Y-123612D01*
X151451Y-123711D01*
X151516Y-123812D01*
X151577Y-123914D01*
X151636Y-124019D01*
X151691Y-124126D01*
X151742Y-124235D01*
X151790Y-124345D01*
X151834Y-124457D01*
X151874Y-124570D01*
X151911Y-124684D01*
X151944Y-124799D01*
X151973Y-124916D01*
X151998Y-125033D01*
X152020Y-125151D01*
X152038Y-125270D01*
X152051Y-125389D01*
X152061Y-125509D01*
X152067Y-125629D01*
X152069Y-125749D01*
X152067Y-125869D01*
X152061Y-125989D01*
X152051Y-126109D01*
X152038Y-126228D01*
X152020Y-126347D01*
X151999Y-126465D01*
X151973Y-126582D01*
X151944Y-126699D01*
X151911Y-126814D01*
X151874Y-126928D01*
X151834Y-127041D01*
X151790Y-127153D01*
X151742Y-127263D01*
X151691Y-127372D01*
X151636Y-127479D01*
X151577Y-127583D01*
X151516Y-127686D01*
X151451Y-127787D01*
X151382Y-127886D01*
X151311Y-127983D01*
X151236Y-128077D01*
X151159Y-128168D01*
X151078Y-128257D01*
X150994Y-128343D01*
X150908Y-128427D01*
X150819Y-128508D01*
X150728Y-128585D01*
X150634Y-128660D01*
X150537Y-128731D01*
X150438Y-128800D01*
X150337Y-128865D01*
X150234Y-128926D01*
X150130Y-128985D01*
X150023Y-129040D01*
X149914Y-129091D01*
X149804Y-129139D01*
X149692Y-129183D01*
X149579Y-129223D01*
X149465Y-129260D01*
X149350Y-129293D01*
X149233Y-129322D01*
X149116Y-129348D01*
X148998Y-129369D01*
X148879Y-129387D01*
X148760Y-129400D01*
X148640Y-129410D01*
X148520Y-129416D01*
X148400Y-129418D01*
X148280Y-129416D01*
X148160Y-129410D01*
X148040Y-129400D01*
X147921Y-129387D01*
X147802Y-129369D01*
X147684Y-129347D01*
X147567Y-129322D01*
X147450Y-129293D01*
X147335Y-129260D01*
X147221Y-129223D01*
X147108Y-129183D01*
X146996Y-129139D01*
X146886Y-129091D01*
X146777Y-129040D01*
X146670Y-128985D01*
X146565Y-128926D01*
X146463Y-128865D01*
X146362Y-128800D01*
X146263Y-128731D01*
X146166Y-128660D01*
X146072Y-128585D01*
X145981Y-128507D01*
X145892Y-128427D01*
X145806Y-128343D01*
X143211Y-125749D01*
X146325Y-128862D02*
X144249Y-135089D01*
X147539Y-138378D02*
X163104Y-135265D01*
X156878Y-129039D02*
X153765Y-144604D01*
X157411Y-148251D02*
X166751Y-138911D01*
X169345Y-141506D01*
X169429Y-141592D01*
X169509Y-141681D01*
X169587Y-141772D01*
X169662Y-141866D01*
X169733Y-141963D01*
X169802Y-142062D01*
X169867Y-142163D01*
X169928Y-142265D01*
X169987Y-142370D01*
X170042Y-142477D01*
X170093Y-142586D01*
X170141Y-142696D01*
X170185Y-142808D01*
X170225Y-142921D01*
X170262Y-143035D01*
X170295Y-143150D01*
X170324Y-143267D01*
X170350Y-143384D01*
X170371Y-143502D01*
X170389Y-143621D01*
X170402Y-143740D01*
X170412Y-143860D01*
X170418Y-143980D01*
X170420Y-144100D01*
X170418Y-144220D01*
X170412Y-144340D01*
X170402Y-144460D01*
X170389Y-144579D01*
X170371Y-144698D01*
X170349Y-144816D01*
X170324Y-144933D01*
X170295Y-145050D01*
X170262Y-145165D01*
X170225Y-145279D01*
X170185Y-145392D01*
X170141Y-145504D01*
X170093Y-145614D01*
X170042Y-145723D01*
X169987Y-145830D01*
X169928Y-145935D01*
X169867Y-146038D01*
X169802Y-146138D01*
X169733Y-146237D01*
X169662Y-146334D01*
X169587Y-146428D01*
X169509Y-146519D01*
X169429Y-146608D01*
X169345Y-146694D01*
X165194Y-150845D01*
X165108Y-150929D01*
X165019Y-151010D01*
X164928Y-151087D01*
X164834Y-151162D01*
X164737Y-151233D01*
X164638Y-151302D01*
X164537Y-151367D01*
X164435Y-151428D01*
X164330Y-151487D01*
X164223Y-151542D01*
X164114Y-151593D01*
X164004Y-151641D01*
X163892Y-151685D01*
X163779Y-151725D01*
X163665Y-151762D01*
X163550Y-151795D01*
X163433Y-151824D01*
X163316Y-151850D01*
X163198Y-151871D01*
X163079Y-151889D01*
X162960Y-151902D01*
X162840Y-151912D01*
X162720Y-151918D01*
X162600Y-151920D01*
X162480Y-151918D01*
X162360Y-151912D01*
X162240Y-151902D01*
X162121Y-151889D01*
X162002Y-151871D01*
X161884Y-151850D01*
X161767Y-151824D01*
X161650Y-151795D01*
X161535Y-151762D01*
X161421Y-151725D01*
X161308Y-151685D01*
X161196Y-151641D01*
X161086Y-151593D01*
X160977Y-151542D01*
X160870Y-151487D01*
X160766Y-151428D01*
X160663Y-151367D01*
X160562Y-151302D01*
X160463Y-151233D01*
X160366Y-151162D01*
X160272Y-151087D01*
X160181Y-151010D01*
X160092Y-150929D01*
X160006Y-150845D01*
X160005Y-150845D02*
X157411Y-148251D01*
X135401Y143062D02*
X135476Y143139D01*
X135547Y143219D01*
X135616Y143301D01*
X135681Y143386D01*
X135744Y143473D01*
X135803Y143563D01*
X135859Y143654D01*
X135911Y143748D01*
X135960Y143843D01*
X136006Y143940D01*
X136048Y144039D01*
X136086Y144139D01*
X136121Y144240D01*
X136152Y144343D01*
X136179Y144447D01*
X136202Y144551D01*
X136221Y144657D01*
X136237Y144763D01*
X136249Y144869D01*
X136257Y144976D01*
X136261Y145083D01*
X136261Y145191D01*
X136257Y145298D01*
X136249Y145405D01*
X136237Y145511D01*
X136221Y145617D01*
X136202Y145723D01*
X136179Y145827D01*
X136152Y145931D01*
X136121Y146034D01*
X136086Y146135D01*
X136048Y146235D01*
X136006Y146334D01*
X135960Y146431D01*
X135911Y146526D01*
X135859Y146620D01*
X135803Y146711D01*
X135744Y146801D01*
X135681Y146888D01*
X135616Y146973D01*
X135547Y147055D01*
X135476Y147135D01*
X135401Y147212D01*
X135401Y143062D02*
X135292Y142955D01*
X135180Y142851D01*
X135065Y142750D01*
X134948Y142651D01*
X134828Y142556D01*
X134707Y142463D01*
X134582Y142374D01*
X134456Y142287D01*
X134328Y142204D01*
X134198Y142124D01*
X134065Y142047D01*
X133931Y141974D01*
X133795Y141903D01*
X133658Y141836D01*
X133518Y141773D01*
X133378Y141713D01*
X133235Y141656D01*
X133092Y141604D01*
X132947Y141554D01*
X132801Y141508D01*
X132654Y141466D01*
X132506Y141427D01*
X132357Y141393D01*
X132207Y141361D01*
X132057Y141334D01*
X131906Y141310D01*
X131754Y141290D01*
X131602Y141274D01*
X131449Y141261D01*
X131297Y141252D01*
X131144Y141247D01*
X130991Y141246D01*
X125284Y147472D02*
X125209Y147549D01*
X125138Y147629D01*
X125069Y147711D01*
X125004Y147796D01*
X124941Y147883D01*
X124882Y147973D01*
X124826Y148064D01*
X124774Y148158D01*
X124725Y148253D01*
X124679Y148350D01*
X124637Y148449D01*
X124599Y148549D01*
X124564Y148650D01*
X124533Y148753D01*
X124506Y148857D01*
X124483Y148961D01*
X124464Y149067D01*
X124448Y149173D01*
X124436Y149279D01*
X124428Y149386D01*
X124424Y149493D01*
X124424Y149601D01*
X124428Y149708D01*
X124436Y149815D01*
X124448Y149921D01*
X124464Y150027D01*
X124483Y150133D01*
X124506Y150237D01*
X124533Y150341D01*
X124564Y150444D01*
X124599Y150545D01*
X124637Y150645D01*
X124679Y150744D01*
X124725Y150841D01*
X124774Y150936D01*
X124826Y151030D01*
X124882Y151121D01*
X124941Y151211D01*
X125004Y151298D01*
X125069Y151383D01*
X125138Y151465D01*
X125209Y151545D01*
X125284Y151622D01*
X125284Y151623D02*
X125390Y151726D01*
X125498Y151826D01*
X125609Y151923D01*
X125723Y152017D01*
X125839Y152108D01*
X125957Y152196D01*
X126078Y152281D01*
X126201Y152362D01*
X126326Y152440D01*
X126454Y152515D01*
X126583Y152586D01*
X126714Y152654D01*
X126847Y152718D01*
X126981Y152779D01*
X127117Y152836D01*
X127255Y152889D01*
X127394Y152939D01*
X127534Y152985D01*
X127676Y153027D01*
X127818Y153065D01*
X127962Y153100D01*
X128106Y153130D01*
X128251Y153157D01*
X128397Y153180D01*
X128137Y146694D02*
X128033Y146669D01*
X127928Y146648D01*
X127823Y146630D01*
X127717Y146617D01*
X127611Y146607D01*
X127504Y146601D01*
X127398Y146599D01*
X127291Y146601D01*
X127184Y146606D01*
X127078Y146615D01*
X126972Y146629D01*
X126867Y146645D01*
X126762Y146666D01*
X126658Y146690D01*
X126555Y146719D01*
X126453Y146750D01*
X126353Y146786D01*
X126253Y146825D01*
X126155Y146867D01*
X126059Y146913D01*
X125965Y146962D01*
X125872Y147015D01*
X125781Y147071D01*
X125692Y147130D01*
X125606Y147193D01*
X125521Y147258D01*
X125439Y147327D01*
X125360Y147398D01*
X125283Y147472D01*
X132547Y147990D02*
X132651Y148015D01*
X132756Y148036D01*
X132861Y148054D01*
X132967Y148067D01*
X133073Y148077D01*
X133180Y148083D01*
X133286Y148085D01*
X133393Y148083D01*
X133500Y148078D01*
X133606Y148069D01*
X133712Y148055D01*
X133817Y148039D01*
X133922Y148018D01*
X134026Y147994D01*
X134129Y147965D01*
X134231Y147934D01*
X134331Y147898D01*
X134431Y147859D01*
X134529Y147817D01*
X134625Y147771D01*
X134719Y147722D01*
X134812Y147669D01*
X134903Y147613D01*
X134992Y147554D01*
X135078Y147491D01*
X135163Y147426D01*
X135245Y147357D01*
X135324Y147286D01*
X135401Y147212D01*
X132547Y147991D02*
X128137Y146694D01*
X143089Y150749D02*
X145164Y152825D01*
X143088Y150750D02*
X143011Y150675D01*
X142931Y150604D01*
X142849Y150535D01*
X142764Y150470D01*
X142677Y150407D01*
X142587Y150348D01*
X142496Y150292D01*
X142402Y150240D01*
X142307Y150191D01*
X142210Y150145D01*
X142111Y150103D01*
X142011Y150065D01*
X141910Y150030D01*
X141807Y149999D01*
X141703Y149972D01*
X141599Y149949D01*
X141493Y149930D01*
X141387Y149914D01*
X141281Y149902D01*
X141174Y149894D01*
X141067Y149890D01*
X140959Y149890D01*
X140852Y149894D01*
X140745Y149902D01*
X140639Y149914D01*
X140533Y149930D01*
X140427Y149949D01*
X140323Y149972D01*
X140219Y149999D01*
X140116Y150030D01*
X140015Y150065D01*
X139915Y150103D01*
X139816Y150145D01*
X139719Y150191D01*
X139624Y150240D01*
X139530Y150292D01*
X139439Y150348D01*
X139349Y150407D01*
X139262Y150470D01*
X139177Y150535D01*
X139095Y150604D01*
X139015Y150675D01*
X138938Y150750D01*
X138938Y150749D02*
X133749Y155938D01*
X133750Y155938D02*
X133675Y156015D01*
X133604Y156095D01*
X133535Y156177D01*
X133470Y156262D01*
X133407Y156349D01*
X133348Y156439D01*
X133292Y156530D01*
X133240Y156624D01*
X133191Y156719D01*
X133145Y156816D01*
X133103Y156915D01*
X133065Y157015D01*
X133030Y157116D01*
X132999Y157219D01*
X132972Y157323D01*
X132949Y157427D01*
X132930Y157533D01*
X132914Y157639D01*
X132902Y157745D01*
X132894Y157852D01*
X132890Y157959D01*
X132890Y158067D01*
X132894Y158174D01*
X132902Y158281D01*
X132914Y158387D01*
X132930Y158493D01*
X132949Y158599D01*
X132972Y158703D01*
X132999Y158807D01*
X133030Y158910D01*
X133065Y159011D01*
X133103Y159111D01*
X133145Y159210D01*
X133191Y159307D01*
X133240Y159402D01*
X133292Y159496D01*
X133348Y159587D01*
X133407Y159677D01*
X133470Y159764D01*
X133535Y159849D01*
X133604Y159931D01*
X133675Y160011D01*
X133750Y160088D01*
X133749Y160089D02*
X135825Y162164D01*
X139561Y165900D02*
X148900Y156561D01*
X153051Y160712D01*
X-155896Y105092D02*
X-155898Y105199D01*
X-155904Y105306D01*
X-155914Y105413D01*
X-155927Y105519D01*
X-155945Y105625D01*
X-155966Y105730D01*
X-155991Y105834D01*
X-156020Y105938D01*
X-156053Y106040D01*
X-156090Y106140D01*
X-156130Y106240D01*
X-156174Y106338D01*
X-156221Y106434D01*
X-156272Y106528D01*
X-156326Y106621D01*
X-156383Y106711D01*
X-156444Y106800D01*
X-156508Y106886D01*
X-156575Y106969D01*
X-156645Y107051D01*
X-156718Y107129D01*
X-156794Y107205D01*
X-156872Y107278D01*
X-156954Y107348D01*
X-157037Y107415D01*
X-157123Y107479D01*
X-157212Y107540D01*
X-157302Y107597D01*
X-157395Y107651D01*
X-157489Y107702D01*
X-157585Y107749D01*
X-157683Y107793D01*
X-157783Y107833D01*
X-157883Y107870D01*
X-157985Y107903D01*
X-158089Y107932D01*
X-158193Y107957D01*
X-158298Y107978D01*
X-158404Y107996D01*
X-158510Y108009D01*
X-158617Y108019D01*
X-158724Y108025D01*
X-158831Y108027D01*
X-155896Y105092D02*
X-155898Y104939D01*
X-155904Y104786D01*
X-155913Y104634D01*
X-155926Y104481D01*
X-155943Y104329D01*
X-155964Y104178D01*
X-155988Y104026D01*
X-156016Y103876D01*
X-156048Y103726D01*
X-156084Y103578D01*
X-156123Y103430D01*
X-156166Y103283D01*
X-156212Y103137D01*
X-156262Y102993D01*
X-156316Y102849D01*
X-156373Y102707D01*
X-156433Y102567D01*
X-156498Y102428D01*
X-156565Y102291D01*
X-156636Y102155D01*
X-156710Y102021D01*
X-156787Y101889D01*
X-156868Y101759D01*
X-156952Y101631D01*
X-157039Y101505D01*
X-157129Y101382D01*
X-157222Y101260D01*
X-157318Y101141D01*
X-157417Y101025D01*
X-157518Y100910D01*
X-157623Y100799D01*
X-157730Y100690D01*
X-166169Y101057D02*
X-166276Y101059D01*
X-166383Y101065D01*
X-166490Y101075D01*
X-166596Y101088D01*
X-166702Y101106D01*
X-166807Y101127D01*
X-166911Y101152D01*
X-167015Y101181D01*
X-167117Y101214D01*
X-167217Y101251D01*
X-167317Y101291D01*
X-167415Y101335D01*
X-167511Y101382D01*
X-167605Y101433D01*
X-167698Y101487D01*
X-167788Y101544D01*
X-167877Y101605D01*
X-167963Y101669D01*
X-168046Y101736D01*
X-168128Y101806D01*
X-168206Y101879D01*
X-168282Y101955D01*
X-168355Y102033D01*
X-168425Y102115D01*
X-168492Y102198D01*
X-168556Y102284D01*
X-168617Y102373D01*
X-168674Y102463D01*
X-168728Y102556D01*
X-168779Y102650D01*
X-168826Y102746D01*
X-168870Y102844D01*
X-168910Y102944D01*
X-168947Y103044D01*
X-168980Y103146D01*
X-169009Y103250D01*
X-169034Y103354D01*
X-169055Y103459D01*
X-169073Y103565D01*
X-169086Y103671D01*
X-169096Y103778D01*
X-169102Y103885D01*
X-169104Y103992D01*
X-169102Y104140D01*
X-169096Y104287D01*
X-169086Y104434D01*
X-169072Y104581D01*
X-169055Y104728D01*
X-169033Y104873D01*
X-169007Y105019D01*
X-168978Y105163D01*
X-168945Y105307D01*
X-168907Y105450D01*
X-168866Y105592D01*
X-168822Y105732D01*
X-168773Y105872D01*
X-168721Y106010D01*
X-168665Y106146D01*
X-168605Y106281D01*
X-168542Y106414D01*
X-168475Y106546D01*
X-168405Y106676D01*
X-168332Y106804D01*
X-168254Y106929D01*
X-168174Y107053D01*
X-168090Y107175D01*
X-168003Y107294D01*
X-163601Y102524D02*
X-163657Y102433D01*
X-163716Y102344D01*
X-163778Y102257D01*
X-163843Y102173D01*
X-163911Y102090D01*
X-163982Y102011D01*
X-164056Y101934D01*
X-164133Y101860D01*
X-164212Y101788D01*
X-164294Y101720D01*
X-164378Y101654D01*
X-164465Y101591D01*
X-164553Y101532D01*
X-164644Y101476D01*
X-164737Y101423D01*
X-164831Y101373D01*
X-164927Y101327D01*
X-165025Y101284D01*
X-165124Y101245D01*
X-165225Y101209D01*
X-165327Y101177D01*
X-165430Y101149D01*
X-165534Y101125D01*
X-165638Y101104D01*
X-165744Y101087D01*
X-165849Y101073D01*
X-165956Y101064D01*
X-166062Y101058D01*
X-166169Y101056D01*
X-161399Y106559D02*
X-161343Y106650D01*
X-161284Y106739D01*
X-161222Y106826D01*
X-161157Y106910D01*
X-161089Y106993D01*
X-161018Y107072D01*
X-160944Y107149D01*
X-160867Y107223D01*
X-160788Y107295D01*
X-160706Y107363D01*
X-160622Y107429D01*
X-160535Y107492D01*
X-160447Y107551D01*
X-160356Y107607D01*
X-160263Y107660D01*
X-160169Y107710D01*
X-160073Y107756D01*
X-159975Y107799D01*
X-159876Y107838D01*
X-159775Y107874D01*
X-159673Y107906D01*
X-159570Y107934D01*
X-159466Y107958D01*
X-159362Y107979D01*
X-159256Y107996D01*
X-159151Y108010D01*
X-159044Y108019D01*
X-158938Y108025D01*
X-158831Y108027D01*
X-161399Y106560D02*
X-163601Y102524D01*
X-169104Y112570D02*
X-155896Y115505D01*
X-164701Y118440D01*
X-155896Y121375D01*
X-169104Y124310D01*
X103821Y-162839D02*
X110047Y-175292D01*
X116274Y-169066D02*
X103821Y-162839D01*
X113160Y-167509D02*
X108491Y-172179D01*
X123640Y-161699D02*
X114301Y-152360D01*
X123640Y-161699D02*
X121046Y-164293D01*
X121045Y-164293D02*
X120978Y-164358D01*
X120908Y-164420D01*
X120835Y-164478D01*
X120760Y-164534D01*
X120683Y-164586D01*
X120603Y-164635D01*
X120521Y-164681D01*
X120438Y-164723D01*
X120353Y-164761D01*
X120266Y-164796D01*
X120178Y-164827D01*
X120089Y-164855D01*
X119998Y-164878D01*
X119907Y-164898D01*
X119815Y-164914D01*
X119722Y-164926D01*
X119629Y-164934D01*
X119536Y-164938D01*
X119442Y-164938D01*
X119349Y-164934D01*
X119256Y-164926D01*
X119163Y-164914D01*
X119071Y-164898D01*
X118980Y-164878D01*
X118889Y-164855D01*
X118800Y-164827D01*
X118712Y-164796D01*
X118625Y-164761D01*
X118540Y-164723D01*
X118457Y-164681D01*
X118375Y-164635D01*
X118295Y-164586D01*
X118218Y-164534D01*
X118143Y-164478D01*
X118070Y-164420D01*
X118000Y-164358D01*
X117933Y-164293D01*
X114820Y-161180D01*
X114757Y-161115D01*
X114696Y-161047D01*
X114639Y-160976D01*
X114585Y-160903D01*
X114533Y-160828D01*
X114485Y-160751D01*
X114440Y-160672D01*
X114399Y-160591D01*
X114360Y-160508D01*
X114326Y-160424D01*
X114294Y-160339D01*
X114267Y-160252D01*
X114242Y-160164D01*
X114222Y-160076D01*
X114205Y-159986D01*
X114192Y-159896D01*
X114183Y-159806D01*
X114177Y-159715D01*
X114175Y-159624D01*
X114177Y-159533D01*
X114183Y-159442D01*
X114192Y-159352D01*
X114205Y-159262D01*
X114222Y-159172D01*
X114242Y-159084D01*
X114267Y-158996D01*
X114294Y-158909D01*
X114326Y-158824D01*
X114360Y-158740D01*
X114399Y-158657D01*
X114440Y-158576D01*
X114485Y-158497D01*
X114533Y-158420D01*
X114585Y-158345D01*
X114639Y-158272D01*
X114696Y-158201D01*
X114757Y-158133D01*
X114820Y-158068D01*
X114820Y-158067D02*
X117414Y-155473D01*
X122448Y-144213D02*
X131787Y-153552D01*
X129193Y-156146D01*
X129192Y-156146D02*
X129125Y-156211D01*
X129055Y-156273D01*
X128982Y-156331D01*
X128907Y-156387D01*
X128830Y-156439D01*
X128750Y-156488D01*
X128668Y-156534D01*
X128585Y-156576D01*
X128500Y-156614D01*
X128413Y-156649D01*
X128325Y-156680D01*
X128236Y-156708D01*
X128145Y-156731D01*
X128054Y-156751D01*
X127962Y-156767D01*
X127869Y-156779D01*
X127776Y-156787D01*
X127683Y-156791D01*
X127589Y-156791D01*
X127496Y-156787D01*
X127403Y-156779D01*
X127310Y-156767D01*
X127218Y-156751D01*
X127127Y-156731D01*
X127036Y-156708D01*
X126947Y-156680D01*
X126859Y-156649D01*
X126772Y-156614D01*
X126687Y-156576D01*
X126604Y-156534D01*
X126522Y-156488D01*
X126442Y-156439D01*
X126365Y-156387D01*
X126290Y-156331D01*
X126217Y-156273D01*
X126147Y-156211D01*
X126080Y-156146D01*
X122967Y-153033D01*
X122904Y-152968D01*
X122843Y-152900D01*
X122786Y-152829D01*
X122732Y-152756D01*
X122680Y-152681D01*
X122632Y-152604D01*
X122587Y-152525D01*
X122546Y-152444D01*
X122507Y-152361D01*
X122473Y-152277D01*
X122441Y-152192D01*
X122414Y-152105D01*
X122389Y-152017D01*
X122369Y-151929D01*
X122352Y-151839D01*
X122339Y-151749D01*
X122330Y-151659D01*
X122324Y-151568D01*
X122322Y-151477D01*
X122324Y-151386D01*
X122330Y-151295D01*
X122339Y-151205D01*
X122352Y-151115D01*
X122369Y-151025D01*
X122389Y-150937D01*
X122414Y-150849D01*
X122441Y-150762D01*
X122473Y-150677D01*
X122507Y-150593D01*
X122546Y-150510D01*
X122587Y-150429D01*
X122632Y-150350D01*
X122680Y-150273D01*
X122732Y-150198D01*
X122786Y-150125D01*
X122843Y-150054D01*
X122904Y-149986D01*
X122967Y-149921D01*
X122967Y-149920D02*
X125561Y-147326D01*
X129952Y-142934D02*
X136179Y-149160D01*
X129952Y-142934D02*
X133066Y-139821D01*
X134103Y-140859D01*
X158429Y-114769D02*
X167768Y-105429D01*
X165174Y-102835D02*
X170363Y-108023D01*
X179330Y-116991D02*
X163764Y-120104D01*
X169991Y-126330D02*
X173104Y-110764D01*
X182977Y-120637D02*
X173637Y-129977D01*
X182977Y-120637D02*
X185571Y-123231D01*
X185571Y-123232D02*
X185655Y-123318D01*
X185735Y-123407D01*
X185813Y-123498D01*
X185888Y-123592D01*
X185959Y-123689D01*
X186028Y-123788D01*
X186093Y-123889D01*
X186154Y-123991D01*
X186213Y-124096D01*
X186268Y-124203D01*
X186319Y-124312D01*
X186367Y-124422D01*
X186411Y-124534D01*
X186451Y-124647D01*
X186488Y-124761D01*
X186521Y-124876D01*
X186550Y-124993D01*
X186576Y-125110D01*
X186597Y-125228D01*
X186615Y-125347D01*
X186628Y-125466D01*
X186638Y-125586D01*
X186644Y-125706D01*
X186646Y-125826D01*
X186644Y-125946D01*
X186638Y-126066D01*
X186628Y-126186D01*
X186615Y-126305D01*
X186597Y-126424D01*
X186575Y-126542D01*
X186550Y-126659D01*
X186521Y-126776D01*
X186488Y-126891D01*
X186451Y-127005D01*
X186411Y-127118D01*
X186367Y-127230D01*
X186319Y-127340D01*
X186268Y-127449D01*
X186213Y-127556D01*
X186154Y-127661D01*
X186093Y-127764D01*
X186028Y-127864D01*
X185959Y-127963D01*
X185888Y-128060D01*
X185813Y-128154D01*
X185735Y-128245D01*
X185655Y-128334D01*
X185571Y-128420D01*
X181420Y-132571D01*
X181334Y-132655D01*
X181245Y-132736D01*
X181154Y-132813D01*
X181060Y-132888D01*
X180963Y-132959D01*
X180864Y-133028D01*
X180763Y-133093D01*
X180661Y-133154D01*
X180556Y-133213D01*
X180449Y-133268D01*
X180340Y-133319D01*
X180230Y-133367D01*
X180118Y-133411D01*
X180005Y-133451D01*
X179891Y-133488D01*
X179776Y-133521D01*
X179659Y-133550D01*
X179542Y-133576D01*
X179424Y-133597D01*
X179305Y-133615D01*
X179186Y-133628D01*
X179066Y-133638D01*
X178946Y-133644D01*
X178826Y-133646D01*
X178706Y-133644D01*
X178586Y-133638D01*
X178466Y-133628D01*
X178347Y-133615D01*
X178228Y-133597D01*
X178110Y-133576D01*
X177993Y-133550D01*
X177876Y-133521D01*
X177761Y-133488D01*
X177647Y-133451D01*
X177534Y-133411D01*
X177422Y-133367D01*
X177312Y-133319D01*
X177203Y-133268D01*
X177096Y-133213D01*
X176992Y-133154D01*
X176889Y-133093D01*
X176788Y-133028D01*
X176689Y-132959D01*
X176592Y-132888D01*
X176498Y-132813D01*
X176407Y-132736D01*
X176318Y-132655D01*
X176232Y-132571D01*
X176231Y-132571D02*
X173637Y-129977D01*
X151226Y124887D02*
X151301Y124964D01*
X151372Y125044D01*
X151441Y125126D01*
X151506Y125211D01*
X151569Y125298D01*
X151628Y125388D01*
X151684Y125479D01*
X151736Y125573D01*
X151785Y125668D01*
X151831Y125765D01*
X151873Y125864D01*
X151911Y125964D01*
X151946Y126065D01*
X151977Y126168D01*
X152004Y126272D01*
X152027Y126376D01*
X152046Y126482D01*
X152062Y126588D01*
X152074Y126694D01*
X152082Y126801D01*
X152086Y126908D01*
X152086Y127016D01*
X152082Y127123D01*
X152074Y127230D01*
X152062Y127336D01*
X152046Y127442D01*
X152027Y127548D01*
X152004Y127652D01*
X151977Y127756D01*
X151946Y127859D01*
X151911Y127960D01*
X151873Y128060D01*
X151831Y128159D01*
X151785Y128256D01*
X151736Y128351D01*
X151684Y128445D01*
X151628Y128536D01*
X151569Y128626D01*
X151506Y128713D01*
X151441Y128798D01*
X151372Y128880D01*
X151301Y128960D01*
X151226Y129037D01*
X151226Y124886D02*
X151117Y124779D01*
X151005Y124675D01*
X150890Y124574D01*
X150773Y124475D01*
X150653Y124380D01*
X150532Y124287D01*
X150407Y124198D01*
X150281Y124111D01*
X150153Y124028D01*
X150023Y123948D01*
X149890Y123871D01*
X149756Y123798D01*
X149620Y123727D01*
X149483Y123660D01*
X149343Y123597D01*
X149203Y123537D01*
X149060Y123480D01*
X148917Y123428D01*
X148772Y123378D01*
X148626Y123332D01*
X148479Y123290D01*
X148331Y123251D01*
X148182Y123217D01*
X148032Y123185D01*
X147882Y123158D01*
X147731Y123134D01*
X147579Y123114D01*
X147427Y123098D01*
X147274Y123085D01*
X147122Y123076D01*
X146969Y123071D01*
X146816Y123070D01*
X141109Y129297D02*
X141034Y129374D01*
X140963Y129454D01*
X140894Y129536D01*
X140829Y129621D01*
X140766Y129708D01*
X140707Y129798D01*
X140651Y129889D01*
X140599Y129983D01*
X140550Y130078D01*
X140504Y130175D01*
X140462Y130274D01*
X140424Y130374D01*
X140389Y130475D01*
X140358Y130578D01*
X140331Y130682D01*
X140308Y130786D01*
X140289Y130892D01*
X140273Y130998D01*
X140261Y131104D01*
X140253Y131211D01*
X140249Y131318D01*
X140249Y131426D01*
X140253Y131533D01*
X140261Y131640D01*
X140273Y131746D01*
X140289Y131852D01*
X140308Y131958D01*
X140331Y132062D01*
X140358Y132166D01*
X140389Y132269D01*
X140424Y132370D01*
X140462Y132470D01*
X140504Y132569D01*
X140550Y132666D01*
X140599Y132761D01*
X140651Y132855D01*
X140707Y132946D01*
X140766Y133036D01*
X140829Y133123D01*
X140894Y133208D01*
X140963Y133290D01*
X141034Y133370D01*
X141109Y133447D01*
X141215Y133550D01*
X141323Y133650D01*
X141434Y133747D01*
X141548Y133841D01*
X141664Y133932D01*
X141782Y134020D01*
X141903Y134105D01*
X142026Y134186D01*
X142151Y134264D01*
X142279Y134339D01*
X142408Y134410D01*
X142539Y134478D01*
X142672Y134542D01*
X142806Y134603D01*
X142942Y134660D01*
X143080Y134713D01*
X143219Y134763D01*
X143359Y134809D01*
X143501Y134851D01*
X143643Y134889D01*
X143787Y134924D01*
X143931Y134954D01*
X144076Y134981D01*
X144222Y135004D01*
X143962Y128519D02*
X143858Y128494D01*
X143753Y128473D01*
X143648Y128455D01*
X143542Y128442D01*
X143436Y128432D01*
X143329Y128426D01*
X143223Y128424D01*
X143116Y128426D01*
X143009Y128431D01*
X142903Y128440D01*
X142797Y128454D01*
X142692Y128470D01*
X142587Y128491D01*
X142483Y128515D01*
X142380Y128544D01*
X142278Y128575D01*
X142178Y128611D01*
X142078Y128650D01*
X141980Y128692D01*
X141884Y128738D01*
X141790Y128787D01*
X141697Y128840D01*
X141606Y128896D01*
X141517Y128955D01*
X141431Y129018D01*
X141346Y129083D01*
X141264Y129152D01*
X141185Y129223D01*
X141108Y129297D01*
X148372Y129815D02*
X148476Y129840D01*
X148581Y129861D01*
X148686Y129879D01*
X148792Y129892D01*
X148898Y129902D01*
X149005Y129908D01*
X149111Y129910D01*
X149218Y129908D01*
X149325Y129903D01*
X149431Y129894D01*
X149537Y129880D01*
X149642Y129864D01*
X149747Y129843D01*
X149851Y129819D01*
X149954Y129790D01*
X150056Y129759D01*
X150156Y129723D01*
X150256Y129684D01*
X150354Y129642D01*
X150450Y129596D01*
X150544Y129547D01*
X150637Y129494D01*
X150728Y129438D01*
X150817Y129379D01*
X150903Y129316D01*
X150988Y129251D01*
X151070Y129182D01*
X151149Y129111D01*
X151226Y129037D01*
X148372Y129816D02*
X143962Y128519D01*
X147826Y140165D02*
X157165Y130826D01*
X147826Y140165D02*
X150420Y142759D01*
X150506Y142843D01*
X150595Y142923D01*
X150686Y143001D01*
X150780Y143076D01*
X150877Y143147D01*
X150976Y143216D01*
X151077Y143281D01*
X151179Y143342D01*
X151284Y143401D01*
X151391Y143456D01*
X151500Y143507D01*
X151610Y143555D01*
X151722Y143599D01*
X151835Y143639D01*
X151949Y143676D01*
X152064Y143709D01*
X152181Y143738D01*
X152298Y143764D01*
X152416Y143785D01*
X152535Y143803D01*
X152654Y143816D01*
X152774Y143826D01*
X152894Y143832D01*
X153014Y143834D01*
X153134Y143832D01*
X153254Y143826D01*
X153374Y143816D01*
X153493Y143803D01*
X153612Y143785D01*
X153730Y143763D01*
X153847Y143738D01*
X153964Y143709D01*
X154079Y143676D01*
X154193Y143639D01*
X154306Y143599D01*
X154418Y143555D01*
X154528Y143507D01*
X154637Y143456D01*
X154744Y143401D01*
X154849Y143342D01*
X154952Y143281D01*
X155052Y143216D01*
X155151Y143147D01*
X155248Y143076D01*
X155342Y143001D01*
X155433Y142923D01*
X155522Y142843D01*
X155608Y142759D01*
X159759Y138608D01*
X159843Y138522D01*
X159924Y138433D01*
X160001Y138342D01*
X160076Y138248D01*
X160147Y138151D01*
X160216Y138052D01*
X160281Y137951D01*
X160342Y137849D01*
X160401Y137744D01*
X160456Y137637D01*
X160507Y137528D01*
X160555Y137418D01*
X160599Y137306D01*
X160639Y137193D01*
X160676Y137079D01*
X160709Y136964D01*
X160738Y136847D01*
X160764Y136730D01*
X160785Y136612D01*
X160803Y136493D01*
X160816Y136374D01*
X160826Y136254D01*
X160832Y136134D01*
X160834Y136014D01*
X160832Y135894D01*
X160826Y135774D01*
X160816Y135654D01*
X160803Y135535D01*
X160785Y135416D01*
X160764Y135298D01*
X160738Y135181D01*
X160709Y135064D01*
X160676Y134949D01*
X160639Y134835D01*
X160599Y134722D01*
X160555Y134610D01*
X160507Y134500D01*
X160456Y134391D01*
X160401Y134284D01*
X160342Y134180D01*
X160281Y134077D01*
X160216Y133976D01*
X160147Y133877D01*
X160076Y133780D01*
X160001Y133686D01*
X159924Y133595D01*
X159843Y133506D01*
X159759Y133420D01*
X157165Y130826D01*
X166000Y139660D02*
X159774Y152113D01*
X172226Y145887D01*
X169113Y147443D02*
X164443Y142774D01*
D11*
X3150Y85200D02*
X-9550Y85200D01*
X-15900Y72500D02*
X-54000Y72500D01*
X-54000Y148700D01*
X47600Y148700D01*
X47600Y72500D01*
X9500Y72500D01*
X9500Y85200D01*
X-15900Y85200D01*
X-15900Y72500D01*
D12*
X-35050Y35050D02*
X-35050Y-35050D01*
X-35050Y35050D02*
X35050Y35050D01*
X35050Y-31500D01*
X31500Y-35050D02*
X-35050Y-35050D01*
X31500Y-35050D02*
X35050Y-31500D01*
X35052Y-36830D02*
X35054Y-36752D01*
X35060Y-36675D01*
X35070Y-36597D01*
X35084Y-36521D01*
X35101Y-36445D01*
X35123Y-36370D01*
X35148Y-36297D01*
X35177Y-36224D01*
X35210Y-36154D01*
X35247Y-36085D01*
X35286Y-36018D01*
X35329Y-35953D01*
X35376Y-35891D01*
X35425Y-35831D01*
X35478Y-35773D01*
X35533Y-35719D01*
X35591Y-35667D01*
X35652Y-35618D01*
X35715Y-35572D01*
X35781Y-35530D01*
X35848Y-35491D01*
X35917Y-35456D01*
X35988Y-35424D01*
X36061Y-35396D01*
X36135Y-35371D01*
X36210Y-35351D01*
X36286Y-35334D01*
X36363Y-35321D01*
X36440Y-35312D01*
X36518Y-35307D01*
X36595Y-35306D01*
X36673Y-35309D01*
X36751Y-35316D01*
X36828Y-35327D01*
X36904Y-35342D01*
X36980Y-35360D01*
X37054Y-35383D01*
X37128Y-35409D01*
X37199Y-35439D01*
X37270Y-35473D01*
X37338Y-35510D01*
X37404Y-35551D01*
X37469Y-35595D01*
X37531Y-35642D01*
X37590Y-35692D01*
X37647Y-35746D01*
X37701Y-35802D01*
X37752Y-35860D01*
X37800Y-35922D01*
X37845Y-35985D01*
X37886Y-36051D01*
X37924Y-36119D01*
X37959Y-36189D01*
X37990Y-36260D01*
X38017Y-36333D01*
X38040Y-36407D01*
X38060Y-36483D01*
X38076Y-36559D01*
X38088Y-36636D01*
X38096Y-36713D01*
X38100Y-36791D01*
X38100Y-36869D01*
X38096Y-36947D01*
X38088Y-37024D01*
X38076Y-37101D01*
X38060Y-37177D01*
X38040Y-37253D01*
X38017Y-37327D01*
X37990Y-37400D01*
X37959Y-37471D01*
X37924Y-37541D01*
X37886Y-37609D01*
X37845Y-37675D01*
X37800Y-37738D01*
X37752Y-37800D01*
X37701Y-37858D01*
X37647Y-37914D01*
X37590Y-37968D01*
X37531Y-38018D01*
X37469Y-38065D01*
X37404Y-38109D01*
X37338Y-38150D01*
X37270Y-38187D01*
X37199Y-38221D01*
X37128Y-38251D01*
X37054Y-38277D01*
X36980Y-38300D01*
X36904Y-38318D01*
X36828Y-38333D01*
X36751Y-38344D01*
X36673Y-38351D01*
X36595Y-38354D01*
X36518Y-38353D01*
X36440Y-38348D01*
X36363Y-38339D01*
X36286Y-38326D01*
X36210Y-38309D01*
X36135Y-38289D01*
X36061Y-38264D01*
X35988Y-38236D01*
X35917Y-38204D01*
X35848Y-38169D01*
X35781Y-38130D01*
X35715Y-38088D01*
X35652Y-38042D01*
X35591Y-37993D01*
X35533Y-37941D01*
X35478Y-37887D01*
X35425Y-37829D01*
X35376Y-37769D01*
X35329Y-37707D01*
X35286Y-37642D01*
X35247Y-37575D01*
X35210Y-37506D01*
X35177Y-37436D01*
X35148Y-37363D01*
X35123Y-37290D01*
X35101Y-37215D01*
X35084Y-37139D01*
X35070Y-37063D01*
X35060Y-36985D01*
X35054Y-36908D01*
X35052Y-36830D01*
X-6982Y-7036D02*
X-6982Y-1166D01*
X-6982Y-7036D02*
X-6980Y-7129D01*
X-6974Y-7222D01*
X-6965Y-7315D01*
X-6951Y-7408D01*
X-6934Y-7499D01*
X-6913Y-7590D01*
X-6888Y-7680D01*
X-6860Y-7769D01*
X-6828Y-7857D01*
X-6792Y-7943D01*
X-6753Y-8028D01*
X-6710Y-8111D01*
X-6664Y-8192D01*
X-6614Y-8271D01*
X-6562Y-8348D01*
X-6506Y-8423D01*
X-6447Y-8495D01*
X-6385Y-8565D01*
X-6321Y-8633D01*
X-6253Y-8697D01*
X-6183Y-8759D01*
X-6111Y-8818D01*
X-6036Y-8874D01*
X-5959Y-8926D01*
X-5880Y-8976D01*
X-5799Y-9022D01*
X-5716Y-9065D01*
X-5631Y-9104D01*
X-5545Y-9140D01*
X-5457Y-9172D01*
X-5368Y-9200D01*
X-5278Y-9225D01*
X-5187Y-9246D01*
X-5096Y-9263D01*
X-5003Y-9277D01*
X-4910Y-9286D01*
X-4817Y-9292D01*
X-4724Y-9294D01*
X-4631Y-9292D01*
X-4538Y-9286D01*
X-4445Y-9277D01*
X-4352Y-9263D01*
X-4261Y-9246D01*
X-4170Y-9225D01*
X-4080Y-9200D01*
X-3991Y-9172D01*
X-3903Y-9140D01*
X-3817Y-9104D01*
X-3732Y-9065D01*
X-3649Y-9022D01*
X-3568Y-8976D01*
X-3489Y-8926D01*
X-3412Y-8874D01*
X-3337Y-8818D01*
X-3265Y-8759D01*
X-3195Y-8697D01*
X-3127Y-8633D01*
X-3063Y-8565D01*
X-3001Y-8495D01*
X-2942Y-8423D01*
X-2886Y-8348D01*
X-2834Y-8271D01*
X-2784Y-8192D01*
X-2738Y-8111D01*
X-2695Y-8028D01*
X-2656Y-7943D01*
X-2620Y-7857D01*
X-2588Y-7769D01*
X-2560Y-7680D01*
X-2535Y-7590D01*
X-2514Y-7499D01*
X-2497Y-7408D01*
X-2483Y-7315D01*
X-2474Y-7222D01*
X-2468Y-7129D01*
X-2466Y-7036D01*
X-2467Y-7036D02*
X-2467Y-1166D01*
X2467Y-2972D02*
X4724Y-1166D01*
X4724Y-9294D01*
X2467Y-9294D02*
X6982Y-9294D01*
D11*
X-256990Y-69850D02*
X-256990Y69850D01*
X-256990Y-69850D02*
X-250640Y-69850D01*
X-66490Y-69850D01*
X-66490Y69850D01*
X-250640Y69850D01*
X-256990Y69850D01*
X-206190Y19050D02*
X-98240Y19050D01*
X-123640Y6350D02*
X-206190Y6350D01*
X-206190Y-6350D02*
X-98240Y-6350D01*
X-123640Y-19050D02*
X-206190Y-19050D01*
X-250640Y-69850D02*
X-250640Y69850D01*
D10*
X-198639Y5842D02*
X-198639Y-5842D01*
X-198639Y5842D02*
X-195394Y5842D01*
X-195281Y5840D01*
X-195168Y5834D01*
X-195055Y5824D01*
X-194942Y5810D01*
X-194830Y5793D01*
X-194719Y5771D01*
X-194609Y5746D01*
X-194499Y5716D01*
X-194391Y5683D01*
X-194284Y5646D01*
X-194178Y5606D01*
X-194074Y5561D01*
X-193971Y5513D01*
X-193870Y5462D01*
X-193771Y5407D01*
X-193674Y5349D01*
X-193579Y5287D01*
X-193486Y5222D01*
X-193396Y5154D01*
X-193308Y5083D01*
X-193222Y5008D01*
X-193139Y4931D01*
X-193059Y4851D01*
X-192982Y4768D01*
X-192907Y4682D01*
X-192836Y4594D01*
X-192768Y4504D01*
X-192703Y4411D01*
X-192641Y4316D01*
X-192583Y4219D01*
X-192528Y4120D01*
X-192477Y4019D01*
X-192429Y3916D01*
X-192384Y3812D01*
X-192344Y3706D01*
X-192307Y3599D01*
X-192274Y3491D01*
X-192244Y3381D01*
X-192219Y3271D01*
X-192197Y3160D01*
X-192180Y3048D01*
X-192166Y2935D01*
X-192156Y2822D01*
X-192150Y2709D01*
X-192148Y2596D01*
X-192150Y2483D01*
X-192156Y2370D01*
X-192166Y2257D01*
X-192180Y2144D01*
X-192197Y2032D01*
X-192219Y1921D01*
X-192244Y1811D01*
X-192274Y1701D01*
X-192307Y1593D01*
X-192344Y1486D01*
X-192384Y1380D01*
X-192429Y1276D01*
X-192477Y1173D01*
X-192528Y1072D01*
X-192583Y973D01*
X-192641Y876D01*
X-192703Y781D01*
X-192768Y688D01*
X-192836Y598D01*
X-192907Y510D01*
X-192982Y424D01*
X-193059Y341D01*
X-193139Y261D01*
X-193222Y184D01*
X-193308Y109D01*
X-193396Y38D01*
X-193486Y-30D01*
X-193579Y-95D01*
X-193674Y-157D01*
X-193771Y-215D01*
X-193870Y-270D01*
X-193971Y-321D01*
X-194074Y-369D01*
X-194178Y-414D01*
X-194284Y-454D01*
X-194391Y-491D01*
X-194499Y-524D01*
X-194609Y-554D01*
X-194719Y-579D01*
X-194830Y-601D01*
X-194942Y-618D01*
X-195055Y-632D01*
X-195168Y-642D01*
X-195281Y-648D01*
X-195394Y-650D01*
X-195394Y-649D02*
X-198639Y-649D01*
X-194745Y-649D02*
X-192148Y-5842D01*
X-184555Y-3246D02*
X-184555Y5842D01*
X-184556Y-3246D02*
X-184558Y-3345D01*
X-184564Y-3445D01*
X-184573Y-3544D01*
X-184586Y-3642D01*
X-184603Y-3740D01*
X-184624Y-3838D01*
X-184649Y-3934D01*
X-184677Y-4029D01*
X-184709Y-4123D01*
X-184744Y-4216D01*
X-184783Y-4308D01*
X-184826Y-4398D01*
X-184871Y-4486D01*
X-184921Y-4573D01*
X-184973Y-4657D01*
X-185029Y-4740D01*
X-185087Y-4820D01*
X-185149Y-4898D01*
X-185214Y-4973D01*
X-185282Y-5046D01*
X-185352Y-5116D01*
X-185425Y-5184D01*
X-185500Y-5249D01*
X-185578Y-5311D01*
X-185658Y-5369D01*
X-185741Y-5425D01*
X-185825Y-5477D01*
X-185912Y-5527D01*
X-186000Y-5572D01*
X-186090Y-5615D01*
X-186182Y-5654D01*
X-186275Y-5689D01*
X-186369Y-5721D01*
X-186464Y-5749D01*
X-186560Y-5774D01*
X-186658Y-5795D01*
X-186756Y-5812D01*
X-186854Y-5825D01*
X-186953Y-5834D01*
X-187053Y-5840D01*
X-187152Y-5842D01*
X-188450Y-5842D01*
X-179282Y3246D02*
X-176036Y5842D01*
X-176036Y-5842D01*
X-172791Y-5842D02*
X-179282Y-5842D01*
X-164282Y5842D02*
X-164175Y5840D01*
X-164069Y5834D01*
X-163963Y5824D01*
X-163857Y5811D01*
X-163751Y5793D01*
X-163647Y5772D01*
X-163543Y5747D01*
X-163440Y5718D01*
X-163339Y5686D01*
X-163239Y5649D01*
X-163140Y5609D01*
X-163042Y5566D01*
X-162946Y5519D01*
X-162852Y5468D01*
X-162760Y5414D01*
X-162670Y5357D01*
X-162582Y5297D01*
X-162497Y5233D01*
X-162414Y5166D01*
X-162333Y5096D01*
X-162255Y5024D01*
X-162179Y4948D01*
X-162107Y4870D01*
X-162037Y4789D01*
X-161970Y4706D01*
X-161906Y4621D01*
X-161846Y4533D01*
X-161789Y4443D01*
X-161735Y4351D01*
X-161684Y4257D01*
X-161637Y4161D01*
X-161594Y4063D01*
X-161554Y3964D01*
X-161517Y3864D01*
X-161485Y3763D01*
X-161456Y3660D01*
X-161431Y3556D01*
X-161410Y3452D01*
X-161392Y3346D01*
X-161379Y3240D01*
X-161369Y3134D01*
X-161363Y3028D01*
X-161361Y2921D01*
X-164282Y5842D02*
X-164403Y5840D01*
X-164524Y5834D01*
X-164644Y5824D01*
X-164765Y5811D01*
X-164884Y5793D01*
X-165004Y5772D01*
X-165122Y5747D01*
X-165239Y5718D01*
X-165356Y5685D01*
X-165471Y5649D01*
X-165585Y5608D01*
X-165698Y5565D01*
X-165810Y5517D01*
X-165919Y5466D01*
X-166027Y5411D01*
X-166134Y5353D01*
X-166238Y5292D01*
X-166340Y5227D01*
X-166440Y5159D01*
X-166538Y5088D01*
X-166634Y5014D01*
X-166727Y4937D01*
X-166817Y4856D01*
X-166905Y4773D01*
X-166990Y4687D01*
X-167073Y4598D01*
X-167152Y4507D01*
X-167229Y4413D01*
X-167302Y4317D01*
X-167372Y4219D01*
X-167439Y4118D01*
X-167503Y4015D01*
X-167564Y3910D01*
X-167621Y3803D01*
X-167674Y3695D01*
X-167724Y3585D01*
X-167770Y3473D01*
X-167813Y3360D01*
X-167852Y3245D01*
X-162335Y649D02*
X-162256Y727D01*
X-162180Y807D01*
X-162107Y890D01*
X-162037Y976D01*
X-161970Y1063D01*
X-161906Y1154D01*
X-161846Y1246D01*
X-161788Y1340D01*
X-161734Y1437D01*
X-161684Y1535D01*
X-161637Y1635D01*
X-161593Y1736D01*
X-161553Y1839D01*
X-161517Y1944D01*
X-161485Y2049D01*
X-161456Y2156D01*
X-161431Y2263D01*
X-161409Y2372D01*
X-161392Y2481D01*
X-161378Y2590D01*
X-161369Y2700D01*
X-161363Y2811D01*
X-161361Y2921D01*
X-162334Y649D02*
X-167852Y-5842D01*
X-161361Y-5842D01*
X-225499Y-128292D02*
X-228096Y-128292D01*
X-228195Y-128290D01*
X-228295Y-128284D01*
X-228394Y-128275D01*
X-228492Y-128262D01*
X-228590Y-128245D01*
X-228688Y-128224D01*
X-228784Y-128199D01*
X-228879Y-128171D01*
X-228973Y-128139D01*
X-229066Y-128104D01*
X-229158Y-128065D01*
X-229248Y-128022D01*
X-229336Y-127977D01*
X-229423Y-127927D01*
X-229507Y-127875D01*
X-229590Y-127819D01*
X-229670Y-127761D01*
X-229748Y-127699D01*
X-229823Y-127634D01*
X-229896Y-127566D01*
X-229966Y-127496D01*
X-230034Y-127423D01*
X-230099Y-127348D01*
X-230161Y-127270D01*
X-230219Y-127190D01*
X-230275Y-127107D01*
X-230327Y-127023D01*
X-230377Y-126936D01*
X-230422Y-126848D01*
X-230465Y-126758D01*
X-230504Y-126666D01*
X-230539Y-126573D01*
X-230571Y-126479D01*
X-230599Y-126384D01*
X-230624Y-126288D01*
X-230645Y-126190D01*
X-230662Y-126092D01*
X-230675Y-125994D01*
X-230684Y-125895D01*
X-230690Y-125795D01*
X-230692Y-125696D01*
X-230692Y-119204D01*
X-230693Y-119204D02*
X-230691Y-119105D01*
X-230685Y-119005D01*
X-230676Y-118906D01*
X-230663Y-118808D01*
X-230645Y-118710D01*
X-230625Y-118612D01*
X-230600Y-118516D01*
X-230572Y-118420D01*
X-230540Y-118326D01*
X-230505Y-118233D01*
X-230466Y-118142D01*
X-230423Y-118052D01*
X-230378Y-117963D01*
X-230328Y-117877D01*
X-230276Y-117792D01*
X-230220Y-117710D01*
X-230161Y-117630D01*
X-230100Y-117552D01*
X-230035Y-117476D01*
X-229967Y-117403D01*
X-229897Y-117333D01*
X-229824Y-117265D01*
X-229748Y-117200D01*
X-229670Y-117139D01*
X-229590Y-117080D01*
X-229508Y-117024D01*
X-229423Y-116972D01*
X-229337Y-116923D01*
X-229248Y-116877D01*
X-229158Y-116834D01*
X-229067Y-116795D01*
X-228974Y-116760D01*
X-228880Y-116728D01*
X-228784Y-116700D01*
X-228688Y-116675D01*
X-228590Y-116655D01*
X-228492Y-116637D01*
X-228394Y-116624D01*
X-228295Y-116615D01*
X-228196Y-116609D01*
X-228096Y-116607D01*
X-228096Y-116608D02*
X-225499Y-116608D01*
X-221134Y-119204D02*
X-217888Y-116608D01*
X-217888Y-128292D01*
X-214643Y-128292D02*
X-221134Y-128292D01*
X-136192Y72208D02*
X-136192Y83892D01*
X-132946Y83892D01*
X-132833Y83890D01*
X-132720Y83884D01*
X-132607Y83874D01*
X-132494Y83860D01*
X-132382Y83843D01*
X-132271Y83821D01*
X-132161Y83796D01*
X-132051Y83766D01*
X-131943Y83733D01*
X-131836Y83696D01*
X-131730Y83656D01*
X-131626Y83611D01*
X-131523Y83563D01*
X-131422Y83512D01*
X-131323Y83457D01*
X-131226Y83399D01*
X-131131Y83337D01*
X-131038Y83272D01*
X-130948Y83204D01*
X-130860Y83133D01*
X-130774Y83058D01*
X-130691Y82981D01*
X-130611Y82901D01*
X-130534Y82818D01*
X-130459Y82732D01*
X-130388Y82644D01*
X-130320Y82554D01*
X-130255Y82461D01*
X-130193Y82366D01*
X-130135Y82269D01*
X-130080Y82170D01*
X-130029Y82069D01*
X-129981Y81966D01*
X-129936Y81862D01*
X-129896Y81756D01*
X-129859Y81649D01*
X-129826Y81541D01*
X-129796Y81431D01*
X-129771Y81321D01*
X-129749Y81210D01*
X-129732Y81098D01*
X-129718Y80985D01*
X-129708Y80872D01*
X-129702Y80759D01*
X-129700Y80646D01*
X-129702Y80533D01*
X-129708Y80420D01*
X-129718Y80307D01*
X-129732Y80194D01*
X-129749Y80082D01*
X-129771Y79971D01*
X-129796Y79861D01*
X-129826Y79751D01*
X-129859Y79643D01*
X-129896Y79536D01*
X-129936Y79430D01*
X-129981Y79326D01*
X-130029Y79223D01*
X-130080Y79122D01*
X-130135Y79023D01*
X-130193Y78926D01*
X-130255Y78831D01*
X-130320Y78738D01*
X-130388Y78648D01*
X-130459Y78560D01*
X-130534Y78474D01*
X-130611Y78391D01*
X-130691Y78311D01*
X-130774Y78234D01*
X-130860Y78159D01*
X-130948Y78088D01*
X-131038Y78020D01*
X-131131Y77955D01*
X-131226Y77893D01*
X-131323Y77835D01*
X-131422Y77780D01*
X-131523Y77729D01*
X-131626Y77681D01*
X-131730Y77636D01*
X-131836Y77596D01*
X-131943Y77559D01*
X-132051Y77526D01*
X-132161Y77496D01*
X-132271Y77471D01*
X-132382Y77449D01*
X-132494Y77432D01*
X-132607Y77418D01*
X-132720Y77408D01*
X-132833Y77402D01*
X-132946Y77400D01*
X-132946Y77401D02*
X-136192Y77401D01*
X-132297Y77401D02*
X-129701Y72208D01*
X-124836Y81296D02*
X-121590Y83892D01*
X-121590Y72208D01*
X-118345Y72208D02*
X-124836Y72208D01*
X-168192Y-118108D02*
X-168192Y-129792D01*
X-168192Y-118108D02*
X-164946Y-118108D01*
X-164833Y-118110D01*
X-164720Y-118116D01*
X-164607Y-118126D01*
X-164494Y-118140D01*
X-164382Y-118157D01*
X-164271Y-118179D01*
X-164161Y-118204D01*
X-164051Y-118234D01*
X-163943Y-118267D01*
X-163836Y-118304D01*
X-163730Y-118344D01*
X-163626Y-118389D01*
X-163523Y-118437D01*
X-163422Y-118488D01*
X-163323Y-118543D01*
X-163226Y-118601D01*
X-163131Y-118663D01*
X-163038Y-118728D01*
X-162948Y-118796D01*
X-162860Y-118867D01*
X-162774Y-118942D01*
X-162691Y-119019D01*
X-162611Y-119099D01*
X-162534Y-119182D01*
X-162459Y-119268D01*
X-162388Y-119356D01*
X-162320Y-119446D01*
X-162255Y-119539D01*
X-162193Y-119634D01*
X-162135Y-119731D01*
X-162080Y-119830D01*
X-162029Y-119931D01*
X-161981Y-120034D01*
X-161936Y-120138D01*
X-161896Y-120244D01*
X-161859Y-120351D01*
X-161826Y-120459D01*
X-161796Y-120569D01*
X-161771Y-120679D01*
X-161749Y-120790D01*
X-161732Y-120902D01*
X-161718Y-121015D01*
X-161708Y-121128D01*
X-161702Y-121241D01*
X-161700Y-121354D01*
X-161702Y-121467D01*
X-161708Y-121580D01*
X-161718Y-121693D01*
X-161732Y-121806D01*
X-161749Y-121918D01*
X-161771Y-122029D01*
X-161796Y-122139D01*
X-161826Y-122249D01*
X-161859Y-122357D01*
X-161896Y-122464D01*
X-161936Y-122570D01*
X-161981Y-122674D01*
X-162029Y-122777D01*
X-162080Y-122878D01*
X-162135Y-122977D01*
X-162193Y-123074D01*
X-162255Y-123169D01*
X-162320Y-123262D01*
X-162388Y-123352D01*
X-162459Y-123440D01*
X-162534Y-123526D01*
X-162611Y-123609D01*
X-162691Y-123689D01*
X-162774Y-123766D01*
X-162860Y-123841D01*
X-162948Y-123912D01*
X-163038Y-123980D01*
X-163131Y-124045D01*
X-163226Y-124107D01*
X-163323Y-124165D01*
X-163422Y-124220D01*
X-163523Y-124271D01*
X-163626Y-124319D01*
X-163730Y-124364D01*
X-163836Y-124404D01*
X-163943Y-124441D01*
X-164051Y-124474D01*
X-164161Y-124504D01*
X-164271Y-124529D01*
X-164382Y-124551D01*
X-164494Y-124568D01*
X-164607Y-124582D01*
X-164720Y-124592D01*
X-164833Y-124598D01*
X-164946Y-124600D01*
X-164946Y-124599D02*
X-168192Y-124599D01*
X-164297Y-124599D02*
X-161701Y-129792D01*
X-150345Y-121029D02*
X-150347Y-120922D01*
X-150353Y-120816D01*
X-150363Y-120710D01*
X-150376Y-120604D01*
X-150394Y-120498D01*
X-150415Y-120394D01*
X-150440Y-120290D01*
X-150469Y-120187D01*
X-150501Y-120086D01*
X-150538Y-119986D01*
X-150578Y-119887D01*
X-150621Y-119789D01*
X-150668Y-119693D01*
X-150719Y-119599D01*
X-150773Y-119507D01*
X-150830Y-119417D01*
X-150890Y-119329D01*
X-150954Y-119244D01*
X-151021Y-119161D01*
X-151091Y-119080D01*
X-151163Y-119002D01*
X-151239Y-118926D01*
X-151317Y-118854D01*
X-151398Y-118784D01*
X-151481Y-118717D01*
X-151566Y-118653D01*
X-151654Y-118593D01*
X-151744Y-118536D01*
X-151836Y-118482D01*
X-151930Y-118431D01*
X-152026Y-118384D01*
X-152124Y-118341D01*
X-152223Y-118301D01*
X-152323Y-118264D01*
X-152424Y-118232D01*
X-152527Y-118203D01*
X-152631Y-118178D01*
X-152735Y-118157D01*
X-152841Y-118139D01*
X-152947Y-118126D01*
X-153053Y-118116D01*
X-153159Y-118110D01*
X-153266Y-118108D01*
X-153387Y-118110D01*
X-153508Y-118116D01*
X-153628Y-118126D01*
X-153749Y-118139D01*
X-153868Y-118157D01*
X-153988Y-118178D01*
X-154106Y-118203D01*
X-154223Y-118232D01*
X-154340Y-118265D01*
X-154455Y-118301D01*
X-154569Y-118342D01*
X-154682Y-118385D01*
X-154794Y-118433D01*
X-154903Y-118484D01*
X-155011Y-118539D01*
X-155118Y-118597D01*
X-155222Y-118658D01*
X-155324Y-118723D01*
X-155424Y-118791D01*
X-155522Y-118862D01*
X-155618Y-118936D01*
X-155711Y-119013D01*
X-155801Y-119094D01*
X-155889Y-119177D01*
X-155974Y-119263D01*
X-156057Y-119352D01*
X-156136Y-119443D01*
X-156213Y-119537D01*
X-156286Y-119633D01*
X-156356Y-119731D01*
X-156423Y-119832D01*
X-156487Y-119935D01*
X-156548Y-120040D01*
X-156605Y-120147D01*
X-156658Y-120255D01*
X-156708Y-120365D01*
X-156755Y-120477D01*
X-156797Y-120590D01*
X-156836Y-120705D01*
X-151319Y-123301D02*
X-151240Y-123223D01*
X-151164Y-123143D01*
X-151091Y-123060D01*
X-151021Y-122974D01*
X-150954Y-122887D01*
X-150890Y-122796D01*
X-150830Y-122704D01*
X-150772Y-122610D01*
X-150718Y-122513D01*
X-150668Y-122415D01*
X-150621Y-122315D01*
X-150577Y-122214D01*
X-150537Y-122111D01*
X-150501Y-122006D01*
X-150469Y-121901D01*
X-150440Y-121794D01*
X-150415Y-121687D01*
X-150393Y-121578D01*
X-150376Y-121469D01*
X-150362Y-121360D01*
X-150353Y-121250D01*
X-150347Y-121139D01*
X-150345Y-121029D01*
X-151318Y-123301D02*
X-156836Y-129792D01*
X-150345Y-129792D01*
X128792Y13404D02*
X128792Y16001D01*
X128792Y13404D02*
X128790Y13305D01*
X128784Y13205D01*
X128775Y13106D01*
X128762Y13008D01*
X128745Y12910D01*
X128724Y12812D01*
X128699Y12716D01*
X128671Y12621D01*
X128639Y12527D01*
X128604Y12434D01*
X128565Y12342D01*
X128522Y12252D01*
X128477Y12164D01*
X128427Y12077D01*
X128375Y11993D01*
X128319Y11910D01*
X128261Y11830D01*
X128199Y11752D01*
X128134Y11677D01*
X128066Y11604D01*
X127996Y11534D01*
X127923Y11466D01*
X127848Y11401D01*
X127770Y11339D01*
X127690Y11281D01*
X127607Y11225D01*
X127523Y11173D01*
X127436Y11123D01*
X127348Y11078D01*
X127258Y11035D01*
X127166Y10996D01*
X127073Y10961D01*
X126979Y10929D01*
X126884Y10901D01*
X126788Y10876D01*
X126690Y10855D01*
X126592Y10838D01*
X126494Y10825D01*
X126395Y10816D01*
X126295Y10810D01*
X126196Y10808D01*
X119704Y10808D01*
X119605Y10810D01*
X119505Y10816D01*
X119406Y10825D01*
X119308Y10838D01*
X119210Y10856D01*
X119112Y10876D01*
X119016Y10901D01*
X118920Y10929D01*
X118826Y10961D01*
X118733Y10996D01*
X118642Y11035D01*
X118552Y11078D01*
X118463Y11123D01*
X118377Y11173D01*
X118292Y11225D01*
X118210Y11281D01*
X118130Y11340D01*
X118052Y11401D01*
X117976Y11466D01*
X117903Y11534D01*
X117833Y11604D01*
X117765Y11677D01*
X117700Y11753D01*
X117639Y11831D01*
X117580Y11911D01*
X117524Y11993D01*
X117472Y12078D01*
X117423Y12164D01*
X117377Y12253D01*
X117334Y12343D01*
X117295Y12434D01*
X117260Y12527D01*
X117228Y12621D01*
X117200Y12717D01*
X117175Y12813D01*
X117155Y12911D01*
X117137Y13009D01*
X117124Y13107D01*
X117115Y13206D01*
X117109Y13305D01*
X117107Y13405D01*
X117108Y13404D02*
X117108Y16001D01*
X117108Y23936D02*
X117110Y24043D01*
X117116Y24149D01*
X117126Y24255D01*
X117139Y24361D01*
X117157Y24467D01*
X117178Y24571D01*
X117203Y24675D01*
X117232Y24778D01*
X117264Y24879D01*
X117301Y24979D01*
X117341Y25078D01*
X117384Y25176D01*
X117431Y25272D01*
X117482Y25366D01*
X117536Y25458D01*
X117593Y25548D01*
X117653Y25636D01*
X117717Y25721D01*
X117784Y25804D01*
X117854Y25885D01*
X117926Y25963D01*
X118002Y26039D01*
X118080Y26111D01*
X118161Y26181D01*
X118244Y26248D01*
X118329Y26312D01*
X118417Y26372D01*
X118507Y26429D01*
X118599Y26483D01*
X118693Y26534D01*
X118789Y26581D01*
X118887Y26624D01*
X118986Y26664D01*
X119086Y26701D01*
X119187Y26733D01*
X119290Y26762D01*
X119394Y26787D01*
X119498Y26808D01*
X119604Y26826D01*
X119710Y26839D01*
X119816Y26849D01*
X119922Y26855D01*
X120029Y26857D01*
X117108Y23936D02*
X117110Y23815D01*
X117116Y23694D01*
X117126Y23574D01*
X117139Y23453D01*
X117157Y23334D01*
X117178Y23214D01*
X117203Y23096D01*
X117232Y22979D01*
X117265Y22862D01*
X117301Y22747D01*
X117342Y22633D01*
X117385Y22520D01*
X117433Y22408D01*
X117484Y22299D01*
X117539Y22191D01*
X117597Y22084D01*
X117658Y21980D01*
X117723Y21878D01*
X117791Y21778D01*
X117862Y21680D01*
X117936Y21584D01*
X118013Y21491D01*
X118094Y21401D01*
X118177Y21313D01*
X118263Y21228D01*
X118352Y21145D01*
X118443Y21066D01*
X118537Y20989D01*
X118633Y20916D01*
X118731Y20846D01*
X118832Y20779D01*
X118935Y20715D01*
X119040Y20655D01*
X119147Y20597D01*
X119255Y20544D01*
X119365Y20494D01*
X119477Y20448D01*
X119590Y20405D01*
X119705Y20366D01*
X122301Y25883D02*
X122223Y25962D01*
X122143Y26038D01*
X122060Y26111D01*
X121974Y26181D01*
X121887Y26248D01*
X121796Y26312D01*
X121704Y26372D01*
X121610Y26430D01*
X121513Y26484D01*
X121415Y26534D01*
X121315Y26581D01*
X121214Y26625D01*
X121111Y26665D01*
X121006Y26701D01*
X120901Y26733D01*
X120794Y26762D01*
X120687Y26787D01*
X120578Y26809D01*
X120469Y26826D01*
X120360Y26840D01*
X120250Y26849D01*
X120139Y26855D01*
X120029Y26857D01*
X122301Y25884D02*
X128792Y20366D01*
X128792Y26857D01*
X125792Y-23999D02*
X125792Y-26596D01*
X125790Y-26695D01*
X125784Y-26795D01*
X125775Y-26894D01*
X125762Y-26992D01*
X125745Y-27090D01*
X125724Y-27188D01*
X125699Y-27284D01*
X125671Y-27379D01*
X125639Y-27473D01*
X125604Y-27566D01*
X125565Y-27658D01*
X125522Y-27748D01*
X125477Y-27836D01*
X125427Y-27923D01*
X125375Y-28007D01*
X125319Y-28090D01*
X125261Y-28170D01*
X125199Y-28248D01*
X125134Y-28323D01*
X125066Y-28396D01*
X124996Y-28466D01*
X124923Y-28534D01*
X124848Y-28599D01*
X124770Y-28661D01*
X124690Y-28719D01*
X124607Y-28775D01*
X124523Y-28827D01*
X124436Y-28877D01*
X124348Y-28922D01*
X124258Y-28965D01*
X124166Y-29004D01*
X124073Y-29039D01*
X123979Y-29071D01*
X123884Y-29099D01*
X123788Y-29124D01*
X123690Y-29145D01*
X123592Y-29162D01*
X123494Y-29175D01*
X123395Y-29184D01*
X123295Y-29190D01*
X123196Y-29192D01*
X116704Y-29192D01*
X116704Y-29193D02*
X116605Y-29191D01*
X116505Y-29185D01*
X116406Y-29176D01*
X116308Y-29163D01*
X116210Y-29145D01*
X116112Y-29125D01*
X116016Y-29100D01*
X115920Y-29072D01*
X115826Y-29040D01*
X115733Y-29005D01*
X115642Y-28966D01*
X115552Y-28923D01*
X115463Y-28878D01*
X115377Y-28828D01*
X115292Y-28776D01*
X115210Y-28720D01*
X115130Y-28661D01*
X115052Y-28600D01*
X114976Y-28535D01*
X114903Y-28467D01*
X114833Y-28397D01*
X114765Y-28324D01*
X114700Y-28248D01*
X114639Y-28170D01*
X114580Y-28090D01*
X114524Y-28008D01*
X114472Y-27923D01*
X114423Y-27837D01*
X114377Y-27748D01*
X114334Y-27658D01*
X114295Y-27567D01*
X114260Y-27474D01*
X114228Y-27380D01*
X114200Y-27284D01*
X114175Y-27188D01*
X114155Y-27090D01*
X114137Y-26992D01*
X114124Y-26894D01*
X114115Y-26795D01*
X114109Y-26696D01*
X114107Y-26596D01*
X114108Y-26596D02*
X114108Y-23999D01*
X125792Y-19634D02*
X125792Y-16388D01*
X125790Y-16275D01*
X125784Y-16162D01*
X125774Y-16049D01*
X125760Y-15936D01*
X125743Y-15824D01*
X125721Y-15713D01*
X125696Y-15603D01*
X125666Y-15493D01*
X125633Y-15385D01*
X125596Y-15278D01*
X125556Y-15172D01*
X125511Y-15068D01*
X125463Y-14965D01*
X125412Y-14864D01*
X125357Y-14765D01*
X125299Y-14668D01*
X125237Y-14573D01*
X125172Y-14480D01*
X125104Y-14390D01*
X125033Y-14302D01*
X124958Y-14216D01*
X124881Y-14133D01*
X124801Y-14053D01*
X124718Y-13976D01*
X124632Y-13901D01*
X124544Y-13830D01*
X124454Y-13762D01*
X124361Y-13697D01*
X124266Y-13635D01*
X124169Y-13577D01*
X124070Y-13522D01*
X123969Y-13471D01*
X123866Y-13423D01*
X123762Y-13378D01*
X123656Y-13338D01*
X123549Y-13301D01*
X123441Y-13268D01*
X123331Y-13238D01*
X123221Y-13213D01*
X123110Y-13191D01*
X122998Y-13174D01*
X122885Y-13160D01*
X122772Y-13150D01*
X122659Y-13144D01*
X122546Y-13142D01*
X122433Y-13144D01*
X122320Y-13150D01*
X122207Y-13160D01*
X122094Y-13174D01*
X121982Y-13191D01*
X121871Y-13213D01*
X121761Y-13238D01*
X121651Y-13268D01*
X121543Y-13301D01*
X121436Y-13338D01*
X121330Y-13378D01*
X121226Y-13423D01*
X121123Y-13471D01*
X121022Y-13522D01*
X120923Y-13577D01*
X120826Y-13635D01*
X120731Y-13697D01*
X120638Y-13762D01*
X120548Y-13830D01*
X120460Y-13901D01*
X120374Y-13976D01*
X120291Y-14053D01*
X120211Y-14133D01*
X120134Y-14216D01*
X120059Y-14302D01*
X119988Y-14390D01*
X119920Y-14480D01*
X119855Y-14573D01*
X119793Y-14668D01*
X119735Y-14765D01*
X119680Y-14864D01*
X119629Y-14965D01*
X119581Y-15068D01*
X119536Y-15172D01*
X119496Y-15278D01*
X119459Y-15385D01*
X119426Y-15493D01*
X119396Y-15603D01*
X119371Y-15713D01*
X119349Y-15824D01*
X119332Y-15936D01*
X119318Y-16049D01*
X119308Y-16162D01*
X119302Y-16275D01*
X119300Y-16388D01*
X114108Y-15739D02*
X114108Y-19634D01*
X114108Y-15739D02*
X114110Y-15638D01*
X114116Y-15538D01*
X114126Y-15438D01*
X114139Y-15338D01*
X114157Y-15239D01*
X114178Y-15140D01*
X114203Y-15043D01*
X114232Y-14946D01*
X114265Y-14851D01*
X114301Y-14757D01*
X114341Y-14665D01*
X114384Y-14574D01*
X114431Y-14485D01*
X114481Y-14398D01*
X114535Y-14312D01*
X114592Y-14229D01*
X114652Y-14149D01*
X114715Y-14070D01*
X114782Y-13994D01*
X114851Y-13921D01*
X114923Y-13851D01*
X114997Y-13783D01*
X115074Y-13718D01*
X115154Y-13657D01*
X115236Y-13598D01*
X115320Y-13543D01*
X115406Y-13491D01*
X115494Y-13442D01*
X115584Y-13397D01*
X115676Y-13355D01*
X115769Y-13317D01*
X115864Y-13283D01*
X115959Y-13252D01*
X116056Y-13225D01*
X116154Y-13202D01*
X116253Y-13182D01*
X116353Y-13167D01*
X116453Y-13155D01*
X116553Y-13147D01*
X116654Y-13143D01*
X116754Y-13143D01*
X116855Y-13147D01*
X116955Y-13155D01*
X117055Y-13167D01*
X117155Y-13182D01*
X117254Y-13202D01*
X117352Y-13225D01*
X117449Y-13252D01*
X117544Y-13283D01*
X117639Y-13317D01*
X117732Y-13355D01*
X117824Y-13397D01*
X117914Y-13442D01*
X118002Y-13491D01*
X118088Y-13543D01*
X118172Y-13598D01*
X118254Y-13657D01*
X118334Y-13718D01*
X118411Y-13783D01*
X118485Y-13851D01*
X118557Y-13921D01*
X118626Y-13994D01*
X118693Y-14070D01*
X118756Y-14149D01*
X118816Y-14229D01*
X118873Y-14312D01*
X118927Y-14398D01*
X118977Y-14485D01*
X119024Y-14574D01*
X119067Y-14665D01*
X119107Y-14757D01*
X119143Y-14851D01*
X119176Y-14946D01*
X119205Y-15043D01*
X119230Y-15140D01*
X119251Y-15239D01*
X119269Y-15338D01*
X119282Y-15438D01*
X119292Y-15538D01*
X119298Y-15638D01*
X119300Y-15739D01*
X119301Y-15739D02*
X119301Y-18336D01*
X-90192Y72208D02*
X-90192Y83892D01*
X-86946Y83892D01*
X-86833Y83890D01*
X-86720Y83884D01*
X-86607Y83874D01*
X-86494Y83860D01*
X-86382Y83843D01*
X-86271Y83821D01*
X-86161Y83796D01*
X-86051Y83766D01*
X-85943Y83733D01*
X-85836Y83696D01*
X-85730Y83656D01*
X-85626Y83611D01*
X-85523Y83563D01*
X-85422Y83512D01*
X-85323Y83457D01*
X-85226Y83399D01*
X-85131Y83337D01*
X-85038Y83272D01*
X-84948Y83204D01*
X-84860Y83133D01*
X-84774Y83058D01*
X-84691Y82981D01*
X-84611Y82901D01*
X-84534Y82818D01*
X-84459Y82732D01*
X-84388Y82644D01*
X-84320Y82554D01*
X-84255Y82461D01*
X-84193Y82366D01*
X-84135Y82269D01*
X-84080Y82170D01*
X-84029Y82069D01*
X-83981Y81966D01*
X-83936Y81862D01*
X-83896Y81756D01*
X-83859Y81649D01*
X-83826Y81541D01*
X-83796Y81431D01*
X-83771Y81321D01*
X-83749Y81210D01*
X-83732Y81098D01*
X-83718Y80985D01*
X-83708Y80872D01*
X-83702Y80759D01*
X-83700Y80646D01*
X-83702Y80533D01*
X-83708Y80420D01*
X-83718Y80307D01*
X-83732Y80194D01*
X-83749Y80082D01*
X-83771Y79971D01*
X-83796Y79861D01*
X-83826Y79751D01*
X-83859Y79643D01*
X-83896Y79536D01*
X-83936Y79430D01*
X-83981Y79326D01*
X-84029Y79223D01*
X-84080Y79122D01*
X-84135Y79023D01*
X-84193Y78926D01*
X-84255Y78831D01*
X-84320Y78738D01*
X-84388Y78648D01*
X-84459Y78560D01*
X-84534Y78474D01*
X-84611Y78391D01*
X-84691Y78311D01*
X-84774Y78234D01*
X-84860Y78159D01*
X-84948Y78088D01*
X-85038Y78020D01*
X-85131Y77955D01*
X-85226Y77893D01*
X-85323Y77835D01*
X-85422Y77780D01*
X-85523Y77729D01*
X-85626Y77681D01*
X-85730Y77636D01*
X-85836Y77596D01*
X-85943Y77559D01*
X-86051Y77526D01*
X-86161Y77496D01*
X-86271Y77471D01*
X-86382Y77449D01*
X-86494Y77432D01*
X-86607Y77418D01*
X-86720Y77408D01*
X-86833Y77402D01*
X-86946Y77400D01*
X-86946Y77401D02*
X-90192Y77401D01*
X-86297Y77401D02*
X-83701Y72208D01*
X-78836Y72208D02*
X-75590Y72208D01*
X-75477Y72210D01*
X-75364Y72216D01*
X-75251Y72226D01*
X-75138Y72240D01*
X-75026Y72257D01*
X-74915Y72279D01*
X-74805Y72304D01*
X-74695Y72334D01*
X-74587Y72367D01*
X-74480Y72404D01*
X-74374Y72444D01*
X-74270Y72489D01*
X-74167Y72537D01*
X-74066Y72588D01*
X-73967Y72643D01*
X-73870Y72701D01*
X-73775Y72763D01*
X-73682Y72828D01*
X-73592Y72896D01*
X-73504Y72967D01*
X-73418Y73042D01*
X-73335Y73119D01*
X-73255Y73199D01*
X-73178Y73282D01*
X-73103Y73368D01*
X-73032Y73456D01*
X-72964Y73546D01*
X-72899Y73639D01*
X-72837Y73734D01*
X-72779Y73831D01*
X-72724Y73930D01*
X-72673Y74031D01*
X-72625Y74134D01*
X-72580Y74238D01*
X-72540Y74344D01*
X-72503Y74451D01*
X-72470Y74559D01*
X-72440Y74669D01*
X-72415Y74779D01*
X-72393Y74890D01*
X-72376Y75002D01*
X-72362Y75115D01*
X-72352Y75228D01*
X-72346Y75341D01*
X-72344Y75454D01*
X-72346Y75567D01*
X-72352Y75680D01*
X-72362Y75793D01*
X-72376Y75906D01*
X-72393Y76018D01*
X-72415Y76129D01*
X-72440Y76239D01*
X-72470Y76349D01*
X-72503Y76457D01*
X-72540Y76564D01*
X-72580Y76670D01*
X-72625Y76774D01*
X-72673Y76877D01*
X-72724Y76978D01*
X-72779Y77077D01*
X-72837Y77174D01*
X-72899Y77269D01*
X-72964Y77362D01*
X-73032Y77452D01*
X-73103Y77540D01*
X-73178Y77626D01*
X-73255Y77709D01*
X-73335Y77789D01*
X-73418Y77866D01*
X-73504Y77941D01*
X-73592Y78012D01*
X-73682Y78080D01*
X-73775Y78145D01*
X-73870Y78207D01*
X-73967Y78265D01*
X-74066Y78320D01*
X-74167Y78371D01*
X-74270Y78419D01*
X-74374Y78464D01*
X-74480Y78504D01*
X-74587Y78541D01*
X-74695Y78574D01*
X-74805Y78604D01*
X-74915Y78629D01*
X-75026Y78651D01*
X-75138Y78668D01*
X-75251Y78682D01*
X-75364Y78692D01*
X-75477Y78698D01*
X-75590Y78700D01*
X-74941Y83892D02*
X-78836Y83892D01*
X-74941Y83892D02*
X-74840Y83890D01*
X-74740Y83884D01*
X-74640Y83874D01*
X-74540Y83861D01*
X-74441Y83843D01*
X-74342Y83822D01*
X-74245Y83797D01*
X-74148Y83768D01*
X-74053Y83735D01*
X-73959Y83699D01*
X-73867Y83659D01*
X-73776Y83616D01*
X-73687Y83569D01*
X-73600Y83519D01*
X-73514Y83465D01*
X-73431Y83408D01*
X-73351Y83348D01*
X-73272Y83285D01*
X-73196Y83218D01*
X-73123Y83149D01*
X-73053Y83077D01*
X-72985Y83003D01*
X-72920Y82926D01*
X-72859Y82846D01*
X-72800Y82764D01*
X-72745Y82680D01*
X-72693Y82594D01*
X-72644Y82506D01*
X-72599Y82416D01*
X-72557Y82324D01*
X-72519Y82231D01*
X-72485Y82136D01*
X-72454Y82041D01*
X-72427Y81944D01*
X-72404Y81846D01*
X-72384Y81747D01*
X-72369Y81647D01*
X-72357Y81547D01*
X-72349Y81447D01*
X-72345Y81346D01*
X-72345Y81246D01*
X-72349Y81145D01*
X-72357Y81045D01*
X-72369Y80945D01*
X-72384Y80845D01*
X-72404Y80746D01*
X-72427Y80648D01*
X-72454Y80551D01*
X-72485Y80456D01*
X-72519Y80361D01*
X-72557Y80268D01*
X-72599Y80176D01*
X-72644Y80086D01*
X-72693Y79998D01*
X-72745Y79912D01*
X-72800Y79828D01*
X-72859Y79746D01*
X-72920Y79666D01*
X-72985Y79589D01*
X-73053Y79515D01*
X-73123Y79443D01*
X-73196Y79374D01*
X-73272Y79307D01*
X-73351Y79244D01*
X-73431Y79184D01*
X-73514Y79127D01*
X-73600Y79073D01*
X-73687Y79023D01*
X-73776Y78976D01*
X-73867Y78933D01*
X-73959Y78893D01*
X-74053Y78857D01*
X-74148Y78824D01*
X-74245Y78795D01*
X-74342Y78770D01*
X-74441Y78749D01*
X-74540Y78731D01*
X-74640Y78718D01*
X-74740Y78708D01*
X-74840Y78702D01*
X-74941Y78700D01*
X-74941Y78699D02*
X-77537Y78699D01*
D11*
X-206800Y95200D02*
X-206800Y133200D01*
X-244800Y133200D02*
X-244800Y128200D01*
X-244800Y100200D02*
X-244800Y95200D01*
D13*
X-221462Y115651D02*
X-221388Y115649D01*
X-221313Y115643D01*
X-221240Y115634D01*
X-221166Y115621D01*
X-221094Y115604D01*
X-221023Y115584D01*
X-220952Y115560D01*
X-220883Y115532D01*
X-220816Y115501D01*
X-220750Y115467D01*
X-220685Y115429D01*
X-220623Y115388D01*
X-220563Y115344D01*
X-220506Y115297D01*
X-220451Y115247D01*
X-220398Y115194D01*
X-220348Y115139D01*
X-220301Y115082D01*
X-220257Y115022D01*
X-220216Y114960D01*
X-220178Y114895D01*
X-220144Y114829D01*
X-220113Y114762D01*
X-220085Y114693D01*
X-220061Y114622D01*
X-220041Y114551D01*
X-220024Y114479D01*
X-220011Y114405D01*
X-220002Y114332D01*
X-219996Y114257D01*
X-219994Y114183D01*
X-219996Y114072D01*
X-220002Y113961D01*
X-220012Y113850D01*
X-220026Y113739D01*
X-220044Y113630D01*
X-220066Y113521D01*
X-220091Y113412D01*
X-220121Y113305D01*
X-220154Y113199D01*
X-220192Y113094D01*
X-220232Y112991D01*
X-220277Y112889D01*
X-220325Y112789D01*
X-220377Y112690D01*
X-220432Y112594D01*
X-220491Y112499D01*
X-220553Y112407D01*
X-220619Y112317D01*
X-220687Y112229D01*
X-220759Y112144D01*
X-220834Y112062D01*
X-220911Y111982D01*
X-225130Y112165D02*
X-225204Y112167D01*
X-225279Y112173D01*
X-225352Y112182D01*
X-225426Y112195D01*
X-225498Y112212D01*
X-225569Y112232D01*
X-225640Y112256D01*
X-225709Y112284D01*
X-225776Y112315D01*
X-225842Y112349D01*
X-225907Y112387D01*
X-225969Y112428D01*
X-226029Y112472D01*
X-226086Y112519D01*
X-226141Y112569D01*
X-226194Y112622D01*
X-226244Y112677D01*
X-226291Y112734D01*
X-226335Y112794D01*
X-226376Y112856D01*
X-226414Y112921D01*
X-226448Y112987D01*
X-226479Y113054D01*
X-226507Y113123D01*
X-226531Y113194D01*
X-226551Y113265D01*
X-226568Y113337D01*
X-226581Y113411D01*
X-226590Y113484D01*
X-226596Y113559D01*
X-226598Y113633D01*
X-226596Y113737D01*
X-226590Y113841D01*
X-226580Y113945D01*
X-226567Y114048D01*
X-226549Y114151D01*
X-226527Y114253D01*
X-226502Y114354D01*
X-226473Y114454D01*
X-226440Y114553D01*
X-226403Y114650D01*
X-226363Y114746D01*
X-226319Y114841D01*
X-226271Y114933D01*
X-226221Y115024D01*
X-226166Y115113D01*
X-226109Y115200D01*
X-226048Y115284D01*
X-223845Y112899D02*
X-223884Y112836D01*
X-223926Y112776D01*
X-223971Y112718D01*
X-224019Y112661D01*
X-224070Y112608D01*
X-224123Y112557D01*
X-224178Y112508D01*
X-224236Y112463D01*
X-224296Y112420D01*
X-224358Y112380D01*
X-224422Y112344D01*
X-224488Y112310D01*
X-224556Y112280D01*
X-224624Y112253D01*
X-224694Y112230D01*
X-224765Y112210D01*
X-224837Y112194D01*
X-224910Y112181D01*
X-224983Y112172D01*
X-225056Y112167D01*
X-225130Y112165D01*
X-222747Y114917D02*
X-222708Y114980D01*
X-222666Y115040D01*
X-222621Y115099D01*
X-222573Y115155D01*
X-222522Y115208D01*
X-222469Y115259D01*
X-222414Y115308D01*
X-222356Y115353D01*
X-222296Y115396D01*
X-222234Y115436D01*
X-222170Y115472D01*
X-222104Y115506D01*
X-222036Y115536D01*
X-221968Y115563D01*
X-221898Y115586D01*
X-221827Y115606D01*
X-221755Y115622D01*
X-221682Y115635D01*
X-221609Y115644D01*
X-221536Y115649D01*
X-221462Y115651D01*
X-222746Y114917D02*
X-223846Y112899D01*
X-226598Y118928D02*
X-219994Y120395D01*
X-224397Y121863D01*
X-219994Y123330D01*
X-226598Y124798D01*
X106530Y115510D02*
X115510Y115510D01*
X106530Y115510D02*
X97549Y124490D01*
X97549Y133470D01*
X106530Y142451D01*
X115510Y142451D01*
X124490Y133470D01*
X124490Y124490D01*
X133470Y88569D02*
X142451Y79589D01*
X133470Y88569D02*
X133470Y97549D01*
X142451Y106530D01*
X151431Y106530D01*
X133470Y97549D02*
X124490Y97549D01*
X115510Y106530D01*
X115510Y115510D01*
X124490Y124490D01*
X133470Y124490D01*
X142451Y115510D01*
X142451Y106530D01*
X160411Y88569D02*
X151431Y79589D01*
X142451Y79589D01*
X160411Y88569D02*
X160411Y97549D01*
X151431Y106530D01*
X88569Y133470D02*
X79589Y142451D01*
X79589Y151431D01*
X88569Y160411D01*
X97549Y160411D01*
X97549Y133470D02*
X88569Y133470D01*
X106530Y142451D02*
X106530Y151431D01*
X97549Y160411D01*
D11*
X92032Y114127D02*
X83949Y106045D01*
X83051Y106943D02*
X84847Y105147D01*
X92930Y113229D02*
X91134Y115025D01*
X98722Y107437D02*
X98796Y107360D01*
X98867Y107280D01*
X98936Y107198D01*
X99001Y107113D01*
X99062Y107026D01*
X99121Y106937D01*
X99176Y106845D01*
X99228Y106751D01*
X99276Y106656D01*
X99321Y106559D01*
X99361Y106460D01*
X99399Y106360D01*
X99432Y106258D01*
X99462Y106156D01*
X99487Y106052D01*
X99509Y105947D01*
X99527Y105842D01*
X99541Y105736D01*
X99551Y105630D01*
X99557Y105523D01*
X99559Y105416D01*
X99557Y105309D01*
X99551Y105202D01*
X99541Y105096D01*
X99527Y104990D01*
X99509Y104885D01*
X99487Y104780D01*
X99462Y104676D01*
X99432Y104574D01*
X99399Y104472D01*
X99361Y104372D01*
X99321Y104273D01*
X99276Y104176D01*
X99228Y104081D01*
X99176Y103987D01*
X99121Y103895D01*
X99062Y103806D01*
X99001Y103719D01*
X98936Y103634D01*
X98867Y103552D01*
X98796Y103472D01*
X98722Y103395D01*
X98722Y107437D02*
X98637Y107519D01*
X98549Y107599D01*
X98459Y107675D01*
X98366Y107749D01*
X98271Y107820D01*
X98174Y107887D01*
X98075Y107952D01*
X97974Y108013D01*
X97870Y108071D01*
X97765Y108126D01*
X97659Y108177D01*
X97550Y108224D01*
X97440Y108269D01*
X97329Y108309D01*
X97217Y108346D01*
X97103Y108380D01*
X96989Y108409D01*
X96873Y108435D01*
X96757Y108457D01*
X96640Y108476D01*
X96523Y108491D01*
X96405Y108501D01*
X96286Y108508D01*
X96168Y108512D01*
X96050Y108511D01*
X95931Y108507D01*
X95813Y108499D01*
X95696Y108487D01*
X95578Y108471D01*
X95462Y108451D01*
X95345Y108428D01*
X95230Y108401D01*
X95116Y108370D01*
X95003Y108336D01*
X94891Y108298D01*
X94780Y108256D01*
X94670Y108211D01*
X94562Y108162D01*
X94456Y108110D01*
X96476Y102498D02*
X96584Y102497D01*
X96692Y102500D01*
X96800Y102507D01*
X96908Y102518D01*
X97015Y102532D01*
X97121Y102550D01*
X97227Y102572D01*
X97332Y102598D01*
X97436Y102627D01*
X97539Y102660D01*
X97640Y102697D01*
X97741Y102737D01*
X97840Y102781D01*
X97937Y102828D01*
X98032Y102878D01*
X98126Y102932D01*
X98218Y102989D01*
X98307Y103049D01*
X98395Y103113D01*
X98480Y103179D01*
X98563Y103249D01*
X98643Y103321D01*
X98721Y103396D01*
X96477Y102498D02*
X88170Y101824D01*
X92660Y97334D01*
X98022Y91972D02*
X99818Y90176D01*
X98022Y91972D02*
X97953Y92044D01*
X97887Y92118D01*
X97823Y92196D01*
X97763Y92275D01*
X97706Y92357D01*
X97652Y92441D01*
X97602Y92527D01*
X97555Y92615D01*
X97511Y92705D01*
X97471Y92796D01*
X97435Y92889D01*
X97402Y92983D01*
X97373Y93079D01*
X97348Y93175D01*
X97327Y93272D01*
X97309Y93371D01*
X97296Y93469D01*
X97286Y93569D01*
X97280Y93668D01*
X97278Y93768D01*
X97280Y93868D01*
X97286Y93967D01*
X97296Y94067D01*
X97309Y94165D01*
X97327Y94264D01*
X97348Y94361D01*
X97373Y94457D01*
X97402Y94553D01*
X97435Y94647D01*
X97471Y94740D01*
X97511Y94831D01*
X97555Y94921D01*
X97602Y95009D01*
X97652Y95095D01*
X97706Y95179D01*
X97763Y95261D01*
X97823Y95341D01*
X97887Y95418D01*
X97953Y95492D01*
X98022Y95564D01*
X102512Y100055D01*
X102512Y100054D02*
X102584Y100123D01*
X102658Y100189D01*
X102736Y100253D01*
X102815Y100313D01*
X102897Y100370D01*
X102981Y100424D01*
X103067Y100474D01*
X103155Y100521D01*
X103245Y100565D01*
X103336Y100605D01*
X103429Y100641D01*
X103523Y100674D01*
X103619Y100703D01*
X103715Y100728D01*
X103812Y100749D01*
X103911Y100767D01*
X104009Y100780D01*
X104109Y100790D01*
X104208Y100796D01*
X104308Y100798D01*
X104408Y100796D01*
X104507Y100790D01*
X104607Y100780D01*
X104705Y100767D01*
X104804Y100749D01*
X104901Y100728D01*
X104997Y100703D01*
X105093Y100674D01*
X105187Y100641D01*
X105280Y100605D01*
X105371Y100565D01*
X105461Y100521D01*
X105549Y100474D01*
X105635Y100424D01*
X105719Y100370D01*
X105801Y100313D01*
X105880Y100253D01*
X105958Y100189D01*
X106032Y100123D01*
X106104Y100054D01*
X106104Y100055D02*
X107900Y98259D01*
D10*
X-119499Y-147792D02*
X-122096Y-147792D01*
X-122195Y-147790D01*
X-122295Y-147784D01*
X-122394Y-147775D01*
X-122492Y-147762D01*
X-122590Y-147745D01*
X-122688Y-147724D01*
X-122784Y-147699D01*
X-122879Y-147671D01*
X-122973Y-147639D01*
X-123066Y-147604D01*
X-123158Y-147565D01*
X-123248Y-147522D01*
X-123336Y-147477D01*
X-123423Y-147427D01*
X-123507Y-147375D01*
X-123590Y-147319D01*
X-123670Y-147261D01*
X-123748Y-147199D01*
X-123823Y-147134D01*
X-123896Y-147066D01*
X-123966Y-146996D01*
X-124034Y-146923D01*
X-124099Y-146848D01*
X-124161Y-146770D01*
X-124219Y-146690D01*
X-124275Y-146607D01*
X-124327Y-146523D01*
X-124377Y-146436D01*
X-124422Y-146348D01*
X-124465Y-146258D01*
X-124504Y-146166D01*
X-124539Y-146073D01*
X-124571Y-145979D01*
X-124599Y-145884D01*
X-124624Y-145788D01*
X-124645Y-145690D01*
X-124662Y-145592D01*
X-124675Y-145494D01*
X-124684Y-145395D01*
X-124690Y-145295D01*
X-124692Y-145196D01*
X-124692Y-138704D01*
X-124693Y-138704D02*
X-124691Y-138605D01*
X-124685Y-138505D01*
X-124676Y-138406D01*
X-124663Y-138308D01*
X-124645Y-138210D01*
X-124625Y-138112D01*
X-124600Y-138016D01*
X-124572Y-137920D01*
X-124540Y-137826D01*
X-124505Y-137733D01*
X-124466Y-137642D01*
X-124423Y-137552D01*
X-124378Y-137463D01*
X-124328Y-137377D01*
X-124276Y-137292D01*
X-124220Y-137210D01*
X-124161Y-137130D01*
X-124100Y-137052D01*
X-124035Y-136976D01*
X-123967Y-136903D01*
X-123897Y-136833D01*
X-123824Y-136765D01*
X-123748Y-136700D01*
X-123670Y-136639D01*
X-123590Y-136580D01*
X-123508Y-136524D01*
X-123423Y-136472D01*
X-123337Y-136423D01*
X-123248Y-136377D01*
X-123158Y-136334D01*
X-123067Y-136295D01*
X-122974Y-136260D01*
X-122880Y-136228D01*
X-122784Y-136200D01*
X-122688Y-136175D01*
X-122590Y-136155D01*
X-122492Y-136137D01*
X-122394Y-136124D01*
X-122295Y-136115D01*
X-122196Y-136109D01*
X-122096Y-136107D01*
X-122096Y-136108D02*
X-119499Y-136108D01*
X-112537Y-136108D02*
X-115134Y-145196D01*
X-108643Y-145196D01*
X-110590Y-142599D02*
X-110590Y-147792D01*
D13*
X124490Y-133470D02*
X124490Y-124490D01*
X124490Y-133470D02*
X115510Y-142451D01*
X106530Y-142451D01*
X97549Y-133470D01*
X97549Y-124490D01*
X106530Y-115510D01*
X115510Y-115510D01*
X151431Y-106530D02*
X160411Y-97549D01*
X151431Y-106530D02*
X142451Y-106530D01*
X133470Y-97549D01*
X133470Y-88569D01*
X142451Y-106530D02*
X142451Y-115510D01*
X133470Y-124490D01*
X124490Y-124490D01*
X115510Y-115510D01*
X115510Y-106530D01*
X124490Y-97549D01*
X133470Y-97549D01*
X151431Y-79589D02*
X160411Y-88569D01*
X160411Y-97549D01*
X151431Y-79589D02*
X142451Y-79589D01*
X133470Y-88569D01*
X106530Y-151431D02*
X97549Y-160411D01*
X88569Y-160411D01*
X79589Y-151431D01*
X79589Y-142451D01*
X106530Y-142451D02*
X106530Y-151431D01*
X97549Y-133470D02*
X88569Y-133470D01*
X79589Y-142451D01*
D12*
X-230900Y102100D02*
X-230900Y127200D01*
X-220900Y139900D02*
X-190100Y139900D01*
X-180100Y126900D02*
X-180100Y102100D01*
X-190100Y89100D02*
X-220900Y89100D01*
X-218200Y114500D02*
X-218196Y114812D01*
X-218185Y115123D01*
X-218166Y115434D01*
X-218139Y115745D01*
X-218104Y116055D01*
X-218063Y116363D01*
X-218013Y116671D01*
X-217956Y116978D01*
X-217891Y117283D01*
X-217819Y117586D01*
X-217740Y117887D01*
X-217653Y118187D01*
X-217559Y118484D01*
X-217458Y118779D01*
X-217349Y119071D01*
X-217233Y119360D01*
X-217110Y119647D01*
X-216981Y119930D01*
X-216844Y120210D01*
X-216700Y120487D01*
X-216550Y120760D01*
X-216393Y121029D01*
X-216230Y121294D01*
X-216060Y121556D01*
X-215883Y121813D01*
X-215701Y122065D01*
X-215512Y122313D01*
X-215317Y122557D01*
X-215117Y122795D01*
X-214910Y123029D01*
X-214698Y123257D01*
X-214480Y123480D01*
X-214257Y123698D01*
X-214029Y123910D01*
X-213795Y124117D01*
X-213557Y124317D01*
X-213313Y124512D01*
X-213065Y124701D01*
X-212813Y124883D01*
X-212556Y125060D01*
X-212294Y125230D01*
X-212029Y125393D01*
X-211760Y125550D01*
X-211487Y125700D01*
X-211210Y125844D01*
X-210930Y125981D01*
X-210647Y126110D01*
X-210360Y126233D01*
X-210071Y126349D01*
X-209779Y126458D01*
X-209484Y126559D01*
X-209187Y126653D01*
X-208887Y126740D01*
X-208586Y126819D01*
X-208283Y126891D01*
X-207978Y126956D01*
X-207671Y127013D01*
X-207363Y127063D01*
X-207055Y127104D01*
X-206745Y127139D01*
X-206434Y127166D01*
X-206123Y127185D01*
X-205812Y127196D01*
X-205500Y127200D01*
X-205188Y127196D01*
X-204877Y127185D01*
X-204566Y127166D01*
X-204255Y127139D01*
X-203945Y127104D01*
X-203637Y127063D01*
X-203329Y127013D01*
X-203022Y126956D01*
X-202717Y126891D01*
X-202414Y126819D01*
X-202113Y126740D01*
X-201813Y126653D01*
X-201516Y126559D01*
X-201221Y126458D01*
X-200929Y126349D01*
X-200640Y126233D01*
X-200353Y126110D01*
X-200070Y125981D01*
X-199790Y125844D01*
X-199513Y125700D01*
X-199240Y125550D01*
X-198971Y125393D01*
X-198706Y125230D01*
X-198444Y125060D01*
X-198187Y124883D01*
X-197935Y124701D01*
X-197687Y124512D01*
X-197443Y124317D01*
X-197205Y124117D01*
X-196971Y123910D01*
X-196743Y123698D01*
X-196520Y123480D01*
X-196302Y123257D01*
X-196090Y123029D01*
X-195883Y122795D01*
X-195683Y122557D01*
X-195488Y122313D01*
X-195299Y122065D01*
X-195117Y121813D01*
X-194940Y121556D01*
X-194770Y121294D01*
X-194607Y121029D01*
X-194450Y120760D01*
X-194300Y120487D01*
X-194156Y120210D01*
X-194019Y119930D01*
X-193890Y119647D01*
X-193767Y119360D01*
X-193651Y119071D01*
X-193542Y118779D01*
X-193441Y118484D01*
X-193347Y118187D01*
X-193260Y117887D01*
X-193181Y117586D01*
X-193109Y117283D01*
X-193044Y116978D01*
X-192987Y116671D01*
X-192937Y116363D01*
X-192896Y116055D01*
X-192861Y115745D01*
X-192834Y115434D01*
X-192815Y115123D01*
X-192804Y114812D01*
X-192800Y114500D01*
X-192804Y114188D01*
X-192815Y113877D01*
X-192834Y113566D01*
X-192861Y113255D01*
X-192896Y112945D01*
X-192937Y112637D01*
X-192987Y112329D01*
X-193044Y112022D01*
X-193109Y111717D01*
X-193181Y111414D01*
X-193260Y111113D01*
X-193347Y110813D01*
X-193441Y110516D01*
X-193542Y110221D01*
X-193651Y109929D01*
X-193767Y109640D01*
X-193890Y109353D01*
X-194019Y109070D01*
X-194156Y108790D01*
X-194300Y108513D01*
X-194450Y108240D01*
X-194607Y107971D01*
X-194770Y107706D01*
X-194940Y107444D01*
X-195117Y107187D01*
X-195299Y106935D01*
X-195488Y106687D01*
X-195683Y106443D01*
X-195883Y106205D01*
X-196090Y105971D01*
X-196302Y105743D01*
X-196520Y105520D01*
X-196743Y105302D01*
X-196971Y105090D01*
X-197205Y104883D01*
X-197443Y104683D01*
X-197687Y104488D01*
X-197935Y104299D01*
X-198187Y104117D01*
X-198444Y103940D01*
X-198706Y103770D01*
X-198971Y103607D01*
X-199240Y103450D01*
X-199513Y103300D01*
X-199790Y103156D01*
X-200070Y103019D01*
X-200353Y102890D01*
X-200640Y102767D01*
X-200929Y102651D01*
X-201221Y102542D01*
X-201516Y102441D01*
X-201813Y102347D01*
X-202113Y102260D01*
X-202414Y102181D01*
X-202717Y102109D01*
X-203022Y102044D01*
X-203329Y101987D01*
X-203637Y101937D01*
X-203945Y101896D01*
X-204255Y101861D01*
X-204566Y101834D01*
X-204877Y101815D01*
X-205188Y101804D01*
X-205500Y101800D01*
X-205812Y101804D01*
X-206123Y101815D01*
X-206434Y101834D01*
X-206745Y101861D01*
X-207055Y101896D01*
X-207363Y101937D01*
X-207671Y101987D01*
X-207978Y102044D01*
X-208283Y102109D01*
X-208586Y102181D01*
X-208887Y102260D01*
X-209187Y102347D01*
X-209484Y102441D01*
X-209779Y102542D01*
X-210071Y102651D01*
X-210360Y102767D01*
X-210647Y102890D01*
X-210930Y103019D01*
X-211210Y103156D01*
X-211487Y103300D01*
X-211760Y103450D01*
X-212029Y103607D01*
X-212294Y103770D01*
X-212556Y103940D01*
X-212813Y104117D01*
X-213065Y104299D01*
X-213313Y104488D01*
X-213557Y104683D01*
X-213795Y104883D01*
X-214029Y105090D01*
X-214257Y105302D01*
X-214480Y105520D01*
X-214698Y105743D01*
X-214910Y105971D01*
X-215117Y106205D01*
X-215317Y106443D01*
X-215512Y106687D01*
X-215701Y106935D01*
X-215883Y107187D01*
X-216060Y107444D01*
X-216230Y107706D01*
X-216393Y107971D01*
X-216550Y108240D01*
X-216700Y108513D01*
X-216844Y108790D01*
X-216981Y109070D01*
X-217110Y109353D01*
X-217233Y109640D01*
X-217349Y109929D01*
X-217458Y110221D01*
X-217559Y110516D01*
X-217653Y110813D01*
X-217740Y111113D01*
X-217819Y111414D01*
X-217891Y111717D01*
X-217956Y112022D01*
X-218013Y112329D01*
X-218063Y112637D01*
X-218104Y112945D01*
X-218139Y113255D01*
X-218166Y113566D01*
X-218185Y113877D01*
X-218196Y114188D01*
X-218200Y114500D01*
D10*
X29404Y-78292D02*
X32001Y-78292D01*
X29404Y-78292D02*
X29305Y-78290D01*
X29205Y-78284D01*
X29106Y-78275D01*
X29008Y-78262D01*
X28910Y-78245D01*
X28812Y-78224D01*
X28716Y-78199D01*
X28621Y-78171D01*
X28527Y-78139D01*
X28434Y-78104D01*
X28342Y-78065D01*
X28252Y-78022D01*
X28164Y-77977D01*
X28077Y-77927D01*
X27993Y-77875D01*
X27910Y-77819D01*
X27830Y-77761D01*
X27752Y-77699D01*
X27677Y-77634D01*
X27604Y-77566D01*
X27534Y-77496D01*
X27466Y-77423D01*
X27401Y-77348D01*
X27339Y-77270D01*
X27281Y-77190D01*
X27225Y-77107D01*
X27173Y-77023D01*
X27123Y-76936D01*
X27078Y-76848D01*
X27035Y-76758D01*
X26996Y-76666D01*
X26961Y-76573D01*
X26929Y-76479D01*
X26901Y-76384D01*
X26876Y-76288D01*
X26855Y-76190D01*
X26838Y-76092D01*
X26825Y-75994D01*
X26816Y-75895D01*
X26810Y-75795D01*
X26808Y-75696D01*
X26808Y-69204D01*
X26810Y-69105D01*
X26816Y-69005D01*
X26825Y-68906D01*
X26838Y-68808D01*
X26856Y-68710D01*
X26876Y-68612D01*
X26901Y-68516D01*
X26929Y-68420D01*
X26961Y-68326D01*
X26996Y-68233D01*
X27035Y-68142D01*
X27078Y-68052D01*
X27123Y-67963D01*
X27173Y-67877D01*
X27225Y-67792D01*
X27281Y-67710D01*
X27340Y-67630D01*
X27401Y-67552D01*
X27466Y-67476D01*
X27534Y-67403D01*
X27604Y-67333D01*
X27677Y-67265D01*
X27753Y-67200D01*
X27831Y-67139D01*
X27911Y-67080D01*
X27993Y-67024D01*
X28078Y-66972D01*
X28164Y-66923D01*
X28253Y-66877D01*
X28343Y-66834D01*
X28434Y-66795D01*
X28527Y-66760D01*
X28621Y-66728D01*
X28717Y-66700D01*
X28813Y-66675D01*
X28911Y-66655D01*
X29009Y-66637D01*
X29107Y-66624D01*
X29206Y-66615D01*
X29305Y-66609D01*
X29405Y-66607D01*
X29404Y-66608D02*
X32001Y-66608D01*
X36366Y-78292D02*
X40261Y-78292D01*
X40360Y-78290D01*
X40460Y-78284D01*
X40559Y-78275D01*
X40657Y-78262D01*
X40755Y-78245D01*
X40853Y-78224D01*
X40949Y-78199D01*
X41044Y-78171D01*
X41138Y-78139D01*
X41231Y-78104D01*
X41323Y-78065D01*
X41413Y-78022D01*
X41501Y-77977D01*
X41588Y-77927D01*
X41672Y-77875D01*
X41755Y-77819D01*
X41835Y-77761D01*
X41913Y-77699D01*
X41988Y-77634D01*
X42061Y-77566D01*
X42131Y-77496D01*
X42199Y-77423D01*
X42264Y-77348D01*
X42326Y-77270D01*
X42384Y-77190D01*
X42440Y-77107D01*
X42492Y-77023D01*
X42542Y-76936D01*
X42587Y-76848D01*
X42630Y-76758D01*
X42669Y-76666D01*
X42704Y-76573D01*
X42736Y-76479D01*
X42764Y-76384D01*
X42789Y-76288D01*
X42810Y-76190D01*
X42827Y-76092D01*
X42840Y-75994D01*
X42849Y-75895D01*
X42855Y-75795D01*
X42857Y-75696D01*
X42857Y-74397D01*
X42855Y-74298D01*
X42849Y-74198D01*
X42840Y-74099D01*
X42827Y-74001D01*
X42810Y-73903D01*
X42789Y-73805D01*
X42764Y-73709D01*
X42736Y-73614D01*
X42704Y-73520D01*
X42669Y-73427D01*
X42630Y-73335D01*
X42587Y-73245D01*
X42542Y-73157D01*
X42492Y-73070D01*
X42440Y-72986D01*
X42384Y-72903D01*
X42326Y-72823D01*
X42264Y-72745D01*
X42199Y-72670D01*
X42131Y-72597D01*
X42061Y-72527D01*
X41988Y-72459D01*
X41913Y-72394D01*
X41835Y-72332D01*
X41755Y-72274D01*
X41672Y-72218D01*
X41588Y-72166D01*
X41501Y-72116D01*
X41413Y-72071D01*
X41323Y-72028D01*
X41231Y-71989D01*
X41138Y-71954D01*
X41044Y-71922D01*
X40949Y-71894D01*
X40853Y-71869D01*
X40755Y-71848D01*
X40657Y-71831D01*
X40559Y-71818D01*
X40460Y-71809D01*
X40360Y-71803D01*
X40261Y-71801D01*
X36366Y-71801D01*
X36366Y-66608D01*
X42857Y-66608D01*
D11*
X74000Y-7300D02*
X74000Y7100D01*
X106000Y7400D02*
X106000Y-7000D01*
X93800Y-25000D02*
X85800Y-25000D01*
X86000Y25000D02*
X94000Y25000D01*
D14*
X100800Y-34700D02*
X100802Y-34637D01*
X100808Y-34575D01*
X100818Y-34513D01*
X100831Y-34451D01*
X100849Y-34391D01*
X100870Y-34332D01*
X100895Y-34274D01*
X100924Y-34218D01*
X100956Y-34164D01*
X100991Y-34112D01*
X101029Y-34063D01*
X101071Y-34015D01*
X101115Y-33971D01*
X101163Y-33929D01*
X101212Y-33891D01*
X101264Y-33856D01*
X101318Y-33824D01*
X101374Y-33795D01*
X101432Y-33770D01*
X101491Y-33749D01*
X101551Y-33731D01*
X101613Y-33718D01*
X101675Y-33708D01*
X101737Y-33702D01*
X101800Y-33700D01*
X101863Y-33702D01*
X101925Y-33708D01*
X101987Y-33718D01*
X102049Y-33731D01*
X102109Y-33749D01*
X102168Y-33770D01*
X102226Y-33795D01*
X102282Y-33824D01*
X102336Y-33856D01*
X102388Y-33891D01*
X102437Y-33929D01*
X102485Y-33971D01*
X102529Y-34015D01*
X102571Y-34063D01*
X102609Y-34112D01*
X102644Y-34164D01*
X102676Y-34218D01*
X102705Y-34274D01*
X102730Y-34332D01*
X102751Y-34391D01*
X102769Y-34451D01*
X102782Y-34513D01*
X102792Y-34575D01*
X102798Y-34637D01*
X102800Y-34700D01*
X102798Y-34763D01*
X102792Y-34825D01*
X102782Y-34887D01*
X102769Y-34949D01*
X102751Y-35009D01*
X102730Y-35068D01*
X102705Y-35126D01*
X102676Y-35182D01*
X102644Y-35236D01*
X102609Y-35288D01*
X102571Y-35337D01*
X102529Y-35385D01*
X102485Y-35429D01*
X102437Y-35471D01*
X102388Y-35509D01*
X102336Y-35544D01*
X102282Y-35576D01*
X102226Y-35605D01*
X102168Y-35630D01*
X102109Y-35651D01*
X102049Y-35669D01*
X101987Y-35682D01*
X101925Y-35692D01*
X101863Y-35698D01*
X101800Y-35700D01*
X101737Y-35698D01*
X101675Y-35692D01*
X101613Y-35682D01*
X101551Y-35669D01*
X101491Y-35651D01*
X101432Y-35630D01*
X101374Y-35605D01*
X101318Y-35576D01*
X101264Y-35544D01*
X101212Y-35509D01*
X101163Y-35471D01*
X101115Y-35429D01*
X101071Y-35385D01*
X101029Y-35337D01*
X100991Y-35288D01*
X100956Y-35236D01*
X100924Y-35182D01*
X100895Y-35126D01*
X100870Y-35068D01*
X100849Y-35009D01*
X100831Y-34949D01*
X100818Y-34887D01*
X100808Y-34825D01*
X100802Y-34763D01*
X100800Y-34700D01*
D10*
X-75000Y-104500D02*
X-74867Y-104624D01*
X-74737Y-104752D01*
X-74610Y-104882D01*
X-74486Y-105016D01*
X-74365Y-105152D01*
X-74248Y-105292D01*
X-74135Y-105434D01*
X-74025Y-105579D01*
X-73918Y-105727D01*
X-73815Y-105877D01*
X-73716Y-106030D01*
X-73621Y-106185D01*
X-73529Y-106342D01*
X-73442Y-106502D01*
X-73358Y-106664D01*
X-73278Y-106827D01*
X-73202Y-106993D01*
X-73131Y-107160D01*
X-73063Y-107330D01*
X-73000Y-107500D01*
X-72941Y-107672D01*
X-72886Y-107846D01*
X-72835Y-108021D01*
X-72789Y-108197D01*
X-72747Y-108374D01*
X-72709Y-108552D01*
X-72676Y-108732D01*
X-72647Y-108911D01*
X-72623Y-109092D01*
X-72603Y-109273D01*
X-72587Y-109454D01*
X-72576Y-109636D01*
X-72569Y-109818D01*
X-72567Y-110000D01*
X-72569Y-110182D01*
X-72576Y-110364D01*
X-72587Y-110546D01*
X-72603Y-110727D01*
X-72623Y-110908D01*
X-72647Y-111089D01*
X-72676Y-111268D01*
X-72709Y-111448D01*
X-72747Y-111626D01*
X-72789Y-111803D01*
X-72835Y-111979D01*
X-72886Y-112154D01*
X-72941Y-112328D01*
X-73000Y-112500D01*
X-73063Y-112670D01*
X-73131Y-112840D01*
X-73202Y-113007D01*
X-73278Y-113173D01*
X-73358Y-113336D01*
X-73442Y-113498D01*
X-73529Y-113658D01*
X-73621Y-113815D01*
X-73716Y-113970D01*
X-73815Y-114123D01*
X-73918Y-114273D01*
X-74025Y-114421D01*
X-74135Y-114566D01*
X-74248Y-114708D01*
X-74365Y-114848D01*
X-74486Y-114984D01*
X-74610Y-115118D01*
X-74737Y-115248D01*
X-74867Y-115376D01*
X-75000Y-115500D01*
X-85000Y-115500D02*
X-85133Y-115376D01*
X-85263Y-115248D01*
X-85390Y-115118D01*
X-85514Y-114984D01*
X-85635Y-114848D01*
X-85752Y-114708D01*
X-85865Y-114566D01*
X-85975Y-114421D01*
X-86082Y-114273D01*
X-86185Y-114123D01*
X-86284Y-113970D01*
X-86379Y-113815D01*
X-86471Y-113658D01*
X-86558Y-113498D01*
X-86642Y-113336D01*
X-86722Y-113173D01*
X-86798Y-113007D01*
X-86869Y-112840D01*
X-86937Y-112670D01*
X-87000Y-112500D01*
X-87059Y-112328D01*
X-87114Y-112154D01*
X-87165Y-111979D01*
X-87211Y-111803D01*
X-87253Y-111626D01*
X-87291Y-111448D01*
X-87324Y-111268D01*
X-87353Y-111089D01*
X-87377Y-110908D01*
X-87397Y-110727D01*
X-87413Y-110546D01*
X-87424Y-110364D01*
X-87431Y-110182D01*
X-87433Y-110000D01*
X-87431Y-109818D01*
X-87424Y-109636D01*
X-87413Y-109454D01*
X-87397Y-109273D01*
X-87377Y-109092D01*
X-87353Y-108911D01*
X-87324Y-108732D01*
X-87291Y-108552D01*
X-87253Y-108374D01*
X-87211Y-108197D01*
X-87165Y-108021D01*
X-87114Y-107846D01*
X-87059Y-107672D01*
X-87000Y-107500D01*
X-86937Y-107330D01*
X-86869Y-107160D01*
X-86798Y-106993D01*
X-86722Y-106827D01*
X-86642Y-106664D01*
X-86558Y-106502D01*
X-86471Y-106342D01*
X-86379Y-106185D01*
X-86284Y-106030D01*
X-86185Y-105877D01*
X-86082Y-105727D01*
X-85975Y-105579D01*
X-85865Y-105434D01*
X-85752Y-105292D01*
X-85635Y-105152D01*
X-85514Y-105016D01*
X-85390Y-104882D01*
X-85263Y-104752D01*
X-85133Y-104624D01*
X-85000Y-104500D01*
D15*
X-80000Y-110000D03*
D16*
X-74250Y-104750D03*
D10*
X-54500Y-104500D02*
X-54367Y-104624D01*
X-54237Y-104752D01*
X-54110Y-104882D01*
X-53986Y-105016D01*
X-53865Y-105152D01*
X-53748Y-105292D01*
X-53635Y-105434D01*
X-53525Y-105579D01*
X-53418Y-105727D01*
X-53315Y-105877D01*
X-53216Y-106030D01*
X-53121Y-106185D01*
X-53029Y-106342D01*
X-52942Y-106502D01*
X-52858Y-106664D01*
X-52778Y-106827D01*
X-52702Y-106993D01*
X-52631Y-107160D01*
X-52563Y-107330D01*
X-52500Y-107500D01*
X-52441Y-107672D01*
X-52386Y-107846D01*
X-52335Y-108021D01*
X-52289Y-108197D01*
X-52247Y-108374D01*
X-52209Y-108552D01*
X-52176Y-108732D01*
X-52147Y-108911D01*
X-52123Y-109092D01*
X-52103Y-109273D01*
X-52087Y-109454D01*
X-52076Y-109636D01*
X-52069Y-109818D01*
X-52067Y-110000D01*
X-52069Y-110182D01*
X-52076Y-110364D01*
X-52087Y-110546D01*
X-52103Y-110727D01*
X-52123Y-110908D01*
X-52147Y-111089D01*
X-52176Y-111268D01*
X-52209Y-111448D01*
X-52247Y-111626D01*
X-52289Y-111803D01*
X-52335Y-111979D01*
X-52386Y-112154D01*
X-52441Y-112328D01*
X-52500Y-112500D01*
X-52563Y-112670D01*
X-52631Y-112840D01*
X-52702Y-113007D01*
X-52778Y-113173D01*
X-52858Y-113336D01*
X-52942Y-113498D01*
X-53029Y-113658D01*
X-53121Y-113815D01*
X-53216Y-113970D01*
X-53315Y-114123D01*
X-53418Y-114273D01*
X-53525Y-114421D01*
X-53635Y-114566D01*
X-53748Y-114708D01*
X-53865Y-114848D01*
X-53986Y-114984D01*
X-54110Y-115118D01*
X-54237Y-115248D01*
X-54367Y-115376D01*
X-54500Y-115500D01*
X-64500Y-115500D02*
X-64633Y-115376D01*
X-64763Y-115248D01*
X-64890Y-115118D01*
X-65014Y-114984D01*
X-65135Y-114848D01*
X-65252Y-114708D01*
X-65365Y-114566D01*
X-65475Y-114421D01*
X-65582Y-114273D01*
X-65685Y-114123D01*
X-65784Y-113970D01*
X-65879Y-113815D01*
X-65971Y-113658D01*
X-66058Y-113498D01*
X-66142Y-113336D01*
X-66222Y-113173D01*
X-66298Y-113007D01*
X-66369Y-112840D01*
X-66437Y-112670D01*
X-66500Y-112500D01*
X-66559Y-112328D01*
X-66614Y-112154D01*
X-66665Y-111979D01*
X-66711Y-111803D01*
X-66753Y-111626D01*
X-66791Y-111448D01*
X-66824Y-111268D01*
X-66853Y-111089D01*
X-66877Y-110908D01*
X-66897Y-110727D01*
X-66913Y-110546D01*
X-66924Y-110364D01*
X-66931Y-110182D01*
X-66933Y-110000D01*
X-66931Y-109818D01*
X-66924Y-109636D01*
X-66913Y-109454D01*
X-66897Y-109273D01*
X-66877Y-109092D01*
X-66853Y-108911D01*
X-66824Y-108732D01*
X-66791Y-108552D01*
X-66753Y-108374D01*
X-66711Y-108197D01*
X-66665Y-108021D01*
X-66614Y-107846D01*
X-66559Y-107672D01*
X-66500Y-107500D01*
X-66437Y-107330D01*
X-66369Y-107160D01*
X-66298Y-106993D01*
X-66222Y-106827D01*
X-66142Y-106664D01*
X-66058Y-106502D01*
X-65971Y-106342D01*
X-65879Y-106185D01*
X-65784Y-106030D01*
X-65685Y-105877D01*
X-65582Y-105727D01*
X-65475Y-105579D01*
X-65365Y-105434D01*
X-65252Y-105292D01*
X-65135Y-105152D01*
X-65014Y-105016D01*
X-64890Y-104882D01*
X-64763Y-104752D01*
X-64633Y-104624D01*
X-64500Y-104500D01*
D15*
X-59500Y-110000D03*
D16*
X-53750Y-104750D03*
D10*
X26308Y-102792D02*
X26308Y-91108D01*
X29554Y-91108D01*
X29667Y-91110D01*
X29780Y-91116D01*
X29893Y-91126D01*
X30006Y-91140D01*
X30118Y-91157D01*
X30229Y-91179D01*
X30339Y-91204D01*
X30449Y-91234D01*
X30557Y-91267D01*
X30664Y-91304D01*
X30770Y-91344D01*
X30874Y-91389D01*
X30977Y-91437D01*
X31078Y-91488D01*
X31177Y-91543D01*
X31274Y-91601D01*
X31369Y-91663D01*
X31462Y-91728D01*
X31552Y-91796D01*
X31640Y-91867D01*
X31726Y-91942D01*
X31809Y-92019D01*
X31889Y-92099D01*
X31966Y-92182D01*
X32041Y-92268D01*
X32112Y-92356D01*
X32180Y-92446D01*
X32245Y-92539D01*
X32307Y-92634D01*
X32365Y-92731D01*
X32420Y-92830D01*
X32471Y-92931D01*
X32519Y-93034D01*
X32564Y-93138D01*
X32604Y-93244D01*
X32641Y-93351D01*
X32674Y-93459D01*
X32704Y-93569D01*
X32729Y-93679D01*
X32751Y-93790D01*
X32768Y-93902D01*
X32782Y-94015D01*
X32792Y-94128D01*
X32798Y-94241D01*
X32800Y-94354D01*
X32798Y-94467D01*
X32792Y-94580D01*
X32782Y-94693D01*
X32768Y-94806D01*
X32751Y-94918D01*
X32729Y-95029D01*
X32704Y-95139D01*
X32674Y-95249D01*
X32641Y-95357D01*
X32604Y-95464D01*
X32564Y-95570D01*
X32519Y-95674D01*
X32471Y-95777D01*
X32420Y-95878D01*
X32365Y-95977D01*
X32307Y-96074D01*
X32245Y-96169D01*
X32180Y-96262D01*
X32112Y-96352D01*
X32041Y-96440D01*
X31966Y-96526D01*
X31889Y-96609D01*
X31809Y-96689D01*
X31726Y-96766D01*
X31640Y-96841D01*
X31552Y-96912D01*
X31462Y-96980D01*
X31369Y-97045D01*
X31274Y-97107D01*
X31177Y-97165D01*
X31078Y-97220D01*
X30977Y-97271D01*
X30874Y-97319D01*
X30770Y-97364D01*
X30664Y-97404D01*
X30557Y-97441D01*
X30449Y-97474D01*
X30339Y-97504D01*
X30229Y-97529D01*
X30118Y-97551D01*
X30006Y-97568D01*
X29893Y-97582D01*
X29780Y-97592D01*
X29667Y-97598D01*
X29554Y-97600D01*
X29554Y-97599D02*
X26308Y-97599D01*
X30203Y-97599D02*
X32799Y-102792D01*
X37664Y-100196D02*
X40261Y-91108D01*
X37664Y-100196D02*
X44155Y-100196D01*
X42208Y-97599D02*
X42208Y-102792D01*
X26308Y-122108D02*
X26308Y-133792D01*
X26308Y-122108D02*
X29554Y-122108D01*
X29667Y-122110D01*
X29780Y-122116D01*
X29893Y-122126D01*
X30006Y-122140D01*
X30118Y-122157D01*
X30229Y-122179D01*
X30339Y-122204D01*
X30449Y-122234D01*
X30557Y-122267D01*
X30664Y-122304D01*
X30770Y-122344D01*
X30874Y-122389D01*
X30977Y-122437D01*
X31078Y-122488D01*
X31177Y-122543D01*
X31274Y-122601D01*
X31369Y-122663D01*
X31462Y-122728D01*
X31552Y-122796D01*
X31640Y-122867D01*
X31726Y-122942D01*
X31809Y-123019D01*
X31889Y-123099D01*
X31966Y-123182D01*
X32041Y-123268D01*
X32112Y-123356D01*
X32180Y-123446D01*
X32245Y-123539D01*
X32307Y-123634D01*
X32365Y-123731D01*
X32420Y-123830D01*
X32471Y-123931D01*
X32519Y-124034D01*
X32564Y-124138D01*
X32604Y-124244D01*
X32641Y-124351D01*
X32674Y-124459D01*
X32704Y-124569D01*
X32729Y-124679D01*
X32751Y-124790D01*
X32768Y-124902D01*
X32782Y-125015D01*
X32792Y-125128D01*
X32798Y-125241D01*
X32800Y-125354D01*
X32798Y-125467D01*
X32792Y-125580D01*
X32782Y-125693D01*
X32768Y-125806D01*
X32751Y-125918D01*
X32729Y-126029D01*
X32704Y-126139D01*
X32674Y-126249D01*
X32641Y-126357D01*
X32604Y-126464D01*
X32564Y-126570D01*
X32519Y-126674D01*
X32471Y-126777D01*
X32420Y-126878D01*
X32365Y-126977D01*
X32307Y-127074D01*
X32245Y-127169D01*
X32180Y-127262D01*
X32112Y-127352D01*
X32041Y-127440D01*
X31966Y-127526D01*
X31889Y-127609D01*
X31809Y-127689D01*
X31726Y-127766D01*
X31640Y-127841D01*
X31552Y-127912D01*
X31462Y-127980D01*
X31369Y-128045D01*
X31274Y-128107D01*
X31177Y-128165D01*
X31078Y-128220D01*
X30977Y-128271D01*
X30874Y-128319D01*
X30770Y-128364D01*
X30664Y-128404D01*
X30557Y-128441D01*
X30449Y-128474D01*
X30339Y-128504D01*
X30229Y-128529D01*
X30118Y-128551D01*
X30006Y-128568D01*
X29893Y-128582D01*
X29780Y-128592D01*
X29667Y-128598D01*
X29554Y-128600D01*
X29554Y-128599D02*
X26308Y-128599D01*
X30203Y-128599D02*
X32799Y-133792D01*
X37664Y-133792D02*
X41559Y-133792D01*
X41658Y-133790D01*
X41758Y-133784D01*
X41857Y-133775D01*
X41955Y-133762D01*
X42053Y-133745D01*
X42151Y-133724D01*
X42247Y-133699D01*
X42342Y-133671D01*
X42436Y-133639D01*
X42529Y-133604D01*
X42621Y-133565D01*
X42711Y-133522D01*
X42799Y-133477D01*
X42886Y-133427D01*
X42970Y-133375D01*
X43053Y-133319D01*
X43133Y-133261D01*
X43211Y-133199D01*
X43286Y-133134D01*
X43359Y-133066D01*
X43429Y-132996D01*
X43497Y-132923D01*
X43562Y-132848D01*
X43624Y-132770D01*
X43682Y-132690D01*
X43738Y-132607D01*
X43790Y-132523D01*
X43840Y-132436D01*
X43885Y-132348D01*
X43928Y-132258D01*
X43967Y-132166D01*
X44002Y-132073D01*
X44034Y-131979D01*
X44062Y-131884D01*
X44087Y-131788D01*
X44108Y-131690D01*
X44125Y-131592D01*
X44138Y-131494D01*
X44147Y-131395D01*
X44153Y-131295D01*
X44155Y-131196D01*
X44155Y-129897D01*
X44153Y-129798D01*
X44147Y-129698D01*
X44138Y-129599D01*
X44125Y-129501D01*
X44108Y-129403D01*
X44087Y-129305D01*
X44062Y-129209D01*
X44034Y-129114D01*
X44002Y-129020D01*
X43967Y-128927D01*
X43928Y-128835D01*
X43885Y-128745D01*
X43840Y-128657D01*
X43790Y-128570D01*
X43738Y-128486D01*
X43682Y-128403D01*
X43624Y-128323D01*
X43562Y-128245D01*
X43497Y-128170D01*
X43429Y-128097D01*
X43359Y-128027D01*
X43286Y-127959D01*
X43211Y-127894D01*
X43133Y-127832D01*
X43053Y-127774D01*
X42970Y-127718D01*
X42886Y-127666D01*
X42799Y-127616D01*
X42711Y-127571D01*
X42621Y-127528D01*
X42529Y-127489D01*
X42436Y-127454D01*
X42342Y-127422D01*
X42247Y-127394D01*
X42151Y-127369D01*
X42053Y-127348D01*
X41955Y-127331D01*
X41857Y-127318D01*
X41758Y-127309D01*
X41658Y-127303D01*
X41559Y-127301D01*
X37664Y-127301D01*
X37664Y-122108D01*
X44155Y-122108D01*
M02*
